<?xml version="1.0" encoding="utf-8"?>
<!-- Generator: Adobe Illustrator 27.5.0, SVG Export Plug-In . SVG Version: 6.00 Build 0)  -->
<svg version="1.1" xmlns="http://www.w3.org/2000/svg" xmlns:xlink="http://www.w3.org/1999/xlink" x="0px" y="0px"
	 viewBox="0 0 750 500" style="enable-background:new 0 0 750 500;" xml:space="preserve">
<g id="BACKGROUND">
	<rect style="fill:#FFFFFF;" width="750" height="500"/>
</g>
<g id="OBJECTS">
	<g>
		<g>
			<ellipse style="fill:#FFD754;" cx="555.594" cy="400.779" rx="170.201" ry="59.1"/>
			<ellipse style="fill:#FFA84A;" cx="555.594" cy="400.779" rx="159.313" ry="51.421"/>
			<path style="fill:#F47F47;" d="M555.594,443.85c-38.865,0-75.416-4.39-102.92-12.361c-27.882-8.081-43.238-18.987-43.238-30.709
				s15.355-22.628,43.237-30.709c27.505-7.972,64.056-12.362,102.921-12.362c38.865,0,75.417,4.391,102.921,12.362
				c27.882,8.081,43.238,18.987,43.238,30.709s-15.355,22.628-43.238,30.709C631.01,439.46,594.459,443.85,555.594,443.85z
				 M555.594,359.708c-38.682,0-75.035,4.362-102.364,12.283c-26.561,7.698-41.794,18.19-41.794,28.788
				c0,10.598,15.233,21.09,41.794,28.788c27.329,7.92,63.682,12.282,102.364,12.282c38.682,0,75.036-4.362,102.364-12.282
				c26.561-7.698,41.794-18.19,41.794-28.788c0-10.598-15.233-21.09-41.794-28.788C630.63,364.07,594.276,359.708,555.594,359.708z"
				/>
		</g>
		<g>
			<path style="fill:#FF94B3;" d="M577.425,231.652c-5.641,6.476-6.384,72.931,0,100.622
				c24.897,5.986,102.992,12.285,102.992,12.285s3.617-70.501-0.214-99.832C677.219,221.876,594.661,211.862,577.425,231.652z"/>
			<polygon style="fill:#FF94B3;" points="586.727,312.192 538.868,326.469 538.868,381.669 629.006,406.868 645.739,309.34 			"/>
			<path style="fill:#EF82A6;" d="M546.145,379.116l-0.638-47.691l30.181-13.635c0,0,4.301-15.736-3.315-31.695
				c0,0-44.521,8.119-56.87,21.267c-8.16,8.689-3.83,83.858-3.83,83.858l24.258,7.523l5.761-2.639l66.222,15.778l0.155-17.995
				L546.145,379.116z"/>
			<path style="fill:#FF94B3;" d="M518.416,335.138c0.855,0.94,1.915,1.673,3.025,2.292c0.885,0.493,1.818,0.923,2.811,1.12
				c3.397,0.674,6.882-1.62,8.454-4.706c1.573-3.086,1.563-6.749,0.977-10.163c-0.22-1.285-0.529-2.585-1.231-3.684
				c-1.163-1.82-3.253-2.843-5.339-3.401C516.216,313.682,512.026,328.111,518.416,335.138z"/>
			<polygon style="fill:#EF82A6;" points="545.506,331.424 644.432,351.666 663.605,328.901 575.687,317.789 			"/>
			<g>
				<path style="fill:#FFB5A4;" d="M557.119,375.944l-0.076,1.784l-0.493,11.466l-0.561,13.105
					c-2.701,5.053-10.481,1.13-10.481,1.13l-4.867-19.526l-1.979-7.958H557.119z"/>
				<path style="fill:#614477;" d="M545.506,403.432c0,0-15.503,10.168-14.373,12.427c1.13,2.259,25.984-4.142,25.984-6.214
					c0-2.071-1.13-7.343-1.13-7.343S550.465,404.185,545.506,403.432z"/>
				<path style="fill:#FF9A86;" d="M557.042,377.728l-0.493,11.466c-7.109-0.79-12.426-3.177-15.908-5.291l-1.979-7.958h14.413
					C554.461,376.419,555.828,377.005,557.042,377.728z"/>
			</g>
			<g>
				<path style="fill:#FFB5A4;" d="M581.668,378.891l0.226,1.771l1.45,11.385l1.659,13.012c-1.809,5.437-10.14,2.882-10.14,2.882
					l-8.092-18.425l-3.294-7.51L581.668,378.891z"/>
				<path style="fill:#614477;" d="M574.86,407.944c0,0-13.565,12.638-12.07,14.675c1.495,2.036,24.913-8.468,24.563-10.51
					c-0.35-2.042-2.353-7.047-2.353-7.047S579.875,407.85,574.86,407.944z"/>
				<path style="fill:#FF9A86;" d="M581.893,380.662l1.45,11.385c-7.14,0.421-12.784-1.034-16.573-2.531l-3.294-7.51l14.206-2.432
					C579.128,379.809,580.574,380.155,581.893,380.662z"/>
			</g>
			<path style="fill:#593946;" d="M601.998,344.986c0,0-8.51,36.148-13.802,39.63c-5.3,3.482-44.098-1.486-52.931-7.593
				c-0.951-0.663-2.48-4.34-3.992-9.691c-3.007-10.642-5.937-27.867-4.136-40.997c2.709-19.73,39.961-23.221,39.961-23.221
				s24.92,5.691,48.659,4.417c3.966-0.212,7.899-0.611,11.678-1.274C637.967,336.093,601.998,344.986,601.998,344.986z"/>
			<path style="fill:#463043;" d="M571.479,338.668c0,0-12.946,20.04-29.935,25.376C557.64,364.044,571.748,346.035,571.479,338.668
				z"/>
			<path style="fill:#463043;" d="M601.998,344.986c0,0-8.51,36.148-13.802,39.63c-5.3,3.482-44.098-1.486-52.931-7.593
				c-0.951-0.663-2.48-4.34-3.992-9.691c16.384,3.652,43.775-1.885,43.749-13.717c-0.034-13.887,13.173-13.454,13.173-13.454
				s-4.621-7.372,3.346-3.593c13.343-5.359,9.385-21.216,9.385-21.216l14.829-7.823c3.966-0.212,7.899-0.611,11.678-1.274
				C637.967,336.093,601.998,344.986,601.998,344.986z"/>
			<g>
				<path style="fill:#FFD754;" d="M628.582,310.171c-47.291,4.994-61.484-7.058-61.484-7.058s-3.61-26.508,2.123-45.635
					c4.578-15.297,12.587-20.724,17.369-22.643c2.361-0.943,3.941-1.036,3.941-1.036l9.801-1.554c2.54-0.289,4.96-0.187,7.245,0.246
					c11.882,2.183,20.299,12.986,23.476,22.66C635.47,268.571,628.582,310.171,628.582,310.171z"/>
				<path style="fill:#FFA84A;" d="M593.853,246.624c-7.865-0.594-7.746-8.23-7.262-11.789c2.361-0.943,3.941-1.036,3.941-1.036
					l9.801-1.554c2.54-0.289,4.96-0.187,7.245,0.246C608.266,239.141,603.357,247.329,593.853,246.624z"/>
				<path style="fill:#FFB5A4;" d="M604.979,218.077v18.507c0,0-2.285,5.648-9.3,6.421c-7.024,0.773-7.482-6.336-7.482-6.336V224.43
					l15.857-6.005L604.979,218.077z"/>
				<path style="fill:#FF9A86;" d="M604.979,219.088v7.092c-5.274,4.714-13.335,4.773-16.783,4.552v-6.302l15.857-6.005
					C604.376,218.621,604.682,218.833,604.979,219.088z"/>
				<g>
					<path style="fill:#E2E5EB;" d="M637.207,167.45c-0.292,0.698-0.69,1.364-1.194,2.005c-4.181,5.286-9.573,5.805-13.527,5.229
						c-3.134-0.455-5.367-1.6-5.367-1.6l-0.836-0.909l-0.56-0.617l-6.917-7.526c0,0-0.236-0.779-0.479-2.022
						c-0.877-4.376-1.859-14.493,7.072-16.295c5.537-1.12,12.276,2.176,16.92,6.942C636.655,157.098,639.172,162.814,637.207,167.45
						z"/>
					<path style="opacity:0.1;fill:#3B2B4A;" d="M637.207,167.45c-0.292,0.698-0.69,1.364-1.194,2.005
						c-4.181,5.286-9.573,5.805-13.527,5.229c-3.134-0.455-5.367-1.6-5.367-1.6l-0.836-0.909l-0.56-0.617
						c8.907-0.227,14.558-13.25,16.596-18.901C636.655,157.098,639.172,162.814,637.207,167.45z"/>
					<path style="fill:#FFA84A;" d="M604.983,164.68c0,0,4.642-6.993,12.49-1.99c7.848,5.004,5.43,12.665,1.124,14.765
						C614.291,179.556,604.983,164.68,604.983,164.68z"/>
					<path style="fill:#E2E5EB;" d="M607.677,216.295c-2.168-1.055-4.466-2.225-6.836-3.451
						c-15.045-7.811-32.566-18.13-32.566-18.13s-7.185-1.673-7.77-7.38c-0.593-5.708,3.743-8.371,3.743-8.371
						s-2.03-17.351,20.493-20.136c9.215-1.137,17.156,0.187,23.586,3.183c3.897,1.811,7.234,4.246,9.962,7.129
						c1.624,1.705,3.02,3.564,4.197,5.545c1.575,2.647,2.744,5.505,3.483,8.493C629.591,197.775,626.23,224.39,607.677,216.295z"/>
					<path style="opacity:0.1;fill:#3B2B4A;" d="M607.677,216.295c-2.168-1.055-4.466-2.225-6.836-3.451l2.728-16.961
						c0,0,8.46,0.544,7.461-7.77c6.333-0.016,6.771-11.359,2.761-14.355c1.039-0.479,1.851-1.023,2.493-1.583
						c1.128-0.999,1.721-2.07,2.005-3.037c1.624,1.705,3.02,3.564,4.197,5.545c1.575,2.647,2.744,5.505,3.483,8.493
						C629.591,197.775,626.23,224.39,607.677,216.295z"/>
					<path style="fill:#FFB5A4;" d="M609.925,198.949l0.246,3.882l0.243,3.781c7.676,4.033,11.059-0.92,10.854-5.283
						c-0.111-2.313-1.227-4.455-3.25-5.01C612.193,194.718,609.925,198.949,609.925,198.949z"/>
					<path style="fill:#FF9A86;" d="M610.172,202.831l0.243,3.781c7.676,4.033,11.059-0.92,10.854-5.283
						C617.254,198.908,613.109,200.704,610.172,202.831z"/>
					<path style="fill:#FFB5A4;" d="M612.726,197.944c0,0-0.583,16.715-7.728,24.001c-10.996,11.213-34.516,4.386-39.77-5.875
						c-5.254-10.261,4.393-33.68,4.393-33.68s6.307,2.107,16.798-2.076c6.152,4.893,13.026,7.229,19.14,8.02
						C605.006,197.006,612.726,197.944,612.726,197.944z"/>
					<path style="fill:#3B2B4A;" d="M590.076,198.337c-0.135,0.769,0.415,1.507,1.227,1.65c0.813,0.142,1.58-0.366,1.715-1.135
						c0.135-0.769-0.415-1.507-1.227-1.65C590.978,197.06,590.21,197.568,590.076,198.337z"/>
					<path style="fill:#3B2B4A;" d="M573.549,195.628c-0.135,0.769,0.415,1.507,1.227,1.65c0.812,0.142,1.58-0.366,1.715-1.135
						c0.135-0.769-0.415-1.507-1.227-1.65C574.451,194.351,573.683,194.859,573.549,195.628z"/>
					<path style="fill:#FF7E7D;" d="M583.852,194.652c1.943,0.432,1.004,12.122-3.725,11.106c-4.218-0.906-1.879-4.923,0.203-4.621
						C582.664,201.476,581.584,194.147,583.852,194.652z"/>
					<path style="fill:#FFFFFF;" d="M577.704,188.398c-0.394-2.15-6.959,0.118-7.063,1.344
						C570.543,190.889,578.058,190.329,577.704,188.398z"/>
					<path style="fill:#FFFFFF;" d="M598.802,195.037c-0.738,1.088-6.88-1.995-6.337-3.42
						C592.872,190.548,599.906,193.408,598.802,195.037z"/>
					<path style="fill:#FF85A4;" d="M599.989,211.234c-1.339,0.57-2.968,0.633-4.279-0.038c-1.311-0.671-2.194-2.142-1.913-3.514
						c0.091-0.444,0.292-0.859,0.522-1.253c0.31-0.531,0.685-1.041,1.195-1.408c0.739-0.531,1.725-0.716,2.652-0.58
						C601.689,204.958,603.756,209.63,599.989,211.234z"/>
					<path style="fill:#FF85A4;" d="M571.439,206.198c-1.339,0.57-2.968,0.633-4.279-0.038c-1.311-0.671-2.194-2.142-1.913-3.514
						c0.091-0.444,0.292-0.859,0.522-1.253c0.31-0.532,0.685-1.041,1.195-1.408c0.739-0.531,1.725-0.716,2.652-0.58
						C573.14,199.922,575.207,204.594,571.439,206.198z"/>
					<path style="fill:#FFFFFF;" d="M581.938,198.776c3.951,0.343,11.512,3.434,13.786,7.145c2.274,3.712,4.938,10.27-0.333,16.028
						c-4.328,4.728-17.875,2.098-25.118-2.641c-5.567-3.642-5.763-12.352-2.163-15.678
						C571.71,200.305,577.213,198.365,581.938,198.776z"/>
					<path style="fill:#E0EEFF;" d="M571.204,204.015c0,0,11.847-0.5,22.594,3.666C582.875,208.845,571.204,204.015,571.204,204.015
						z"/>
					<path style="fill:#E0EEFF;" d="M569.221,208.02c0,0,12.846,6.315,24.414,3.65C584.544,217.064,571.809,212.909,569.221,208.02z
						"/>
					<path style="fill:#E0EEFF;" d="M572.536,215.061c0,0,10.222,5.106,17.993,1.289
						C585.947,222.809,573.763,219.749,572.536,215.061z"/>
					<path style="fill:#FFFFFF;" d="M594.103,206.387c-0.355,0-0.699-0.189-0.88-0.523c-0.264-0.485-0.083-1.092,0.402-1.356
						l16.93-9.194c0.485-0.262,1.093-0.084,1.356,0.402c0.264,0.485,0.083,1.092-0.402,1.356l-16.93,9.194
						C594.427,206.348,594.264,206.387,594.103,206.387z"/>
					<path style="fill:#FFFFFF;" d="M610.618,216.626c-0.055,0-0.112-0.004-0.169-0.014l-14.097-2.393
						c-0.544-0.092-0.911-0.609-0.818-1.153c0.092-0.544,0.606-0.912,1.153-0.818l14.097,2.393c0.544,0.092,0.911,0.609,0.818,1.153
						C611.52,216.281,611.097,216.626,610.618,216.626z"/>
					<path style="fill:#FFFFFF;" d="M572.547,202.749c-0.227,0-0.456-0.077-0.643-0.234l-7.901-6.639
						c-0.423-0.355-0.478-0.986-0.122-1.409c0.355-0.424,0.987-0.478,1.409-0.123l7.901,6.639c0.423,0.355,0.478,0.986,0.123,1.409
						C573.115,202.628,572.832,202.749,572.547,202.749z"/>
					<path style="fill:#FFFFFF;" d="M562.506,212.64c-0.41,0-0.794-0.254-0.941-0.663c-0.187-0.52,0.083-1.092,0.603-1.279
						l4.594-1.65c0.518-0.19,1.092,0.083,1.279,0.603c0.187,0.52-0.083,1.092-0.603,1.279l-4.594,1.65
						C562.732,212.621,562.618,212.64,562.506,212.64z"/>
				</g>
			</g>
			<g>
				<path style="fill:#EF82A6;" d="M690.85,396.834l-48.098,26.769l-28.726-6.26v-4.003l-6.114-1.461l0.154-17.992l6.755,1.616
					c0,0,1.778-42.999,1.705-58.962c-0.081-15.962,20.818-26.404,31.178-32.404c9.199-5.334,34.222-6.503,40.084,4.514
					c0.739,1.388,1.177,2.972,1.234,4.766C689.543,329.428,690.85,396.834,690.85,396.834z"/>
			</g>
			<path style="opacity:0.15;fill:#3B2B4A;" d="M690.85,396.834l-48.098,26.769c0,0,0.438-81.72,2.988-90.334
				c2.103-7.104,25.974-20.517,42.049-24.617c0.739,1.388,1.177,2.972,1.234,4.766C689.543,329.428,690.85,396.834,690.85,396.834z"
				/>
			<path style="fill:#649FCA;" d="M609.925,233.038c0,0-5.131,30.25-19.524,47.404c-9.69-16.877-5.599-44.784-5.599-44.784
				s-8.443,2.453-13.875,14.073c-5.432,11.62-7.755,37.593-3.827,53.381c8.908,9.701,48.763,12.16,61.484,7.057
				c5.25-10.913,6.243-46.051,3.118-57.118C628.576,241.984,618.388,233.499,609.925,233.038z"/>
			<path style="fill:#649FCA;" d="M631.701,253.051c2.162,5.237,5.452,40.118,2.962,52.274c-2.49,12.156-46.469,16.199-50.62,15.069
				c-3.261-0.888-5.766-10.468-2.51-12.804c4.474-3.21,31.193-14.693,31.193-14.693s-3.739-37.765,4.812-42.06
				C620.608,249.296,629.54,247.813,631.701,253.051z"/>
			<path style="fill:#649FCA;" d="M572.911,246.066c0,0-13.158,15.393-16.359,53.428c-0.753,10.733,5.234,17.754,12.669,18.295
				c7.435,0.541,10.369-8.275,6.914-12.834c-3.456-4.559-9.226-10.168-9.226-10.168S564.98,279.441,572.911,246.066z"/>
			<path style="fill:#5786B4;" d="M571.204,251.915c0,0-8.039,27.04-5.414,43.052c6.485,5.4,7.657,6.718,7.657,6.718l-4.85-7.84
				c0,0,5.233-1.318,5.067-3.389c-0.166-2.071-5.067,0.753-5.067,0.753S567.779,272.875,571.204,251.915z"/>
			<path style="fill:#5786B4;" d="M583.456,306.42c0,0,20.513-13.04,25.331-14.691c-4.032-2.403-1.02-4.33,1.384-2.592
				c-3.91-5.461,0.445-3.431,0.445-3.431s-4.566-28.375,7.775-31.922c-8.221,8.803-5.666,39.112-5.666,39.112L583.456,306.42z"/>
			<path style="fill:#FFB5A4;" d="M570.713,307.477c0,0-3.293,2.297-2.392,6.304c0.901,4.007,3.8,7.105,5.348,6.795
				c1.547-0.31,4.79-0.67,5.15-1.571c0.36-0.901,0-7.623,0-7.623S572.694,307.116,570.713,307.477z"/>
			<path style="fill:#FFB5A4;" d="M583.456,309.34c0,0-6.979,0.903-7.52,2.042c-0.54,1.138,0.939,8.704,1.64,9.785
				c0.701,1.081,10.087-2.522,10.618-4.503C588.725,314.682,587.013,309.221,583.456,309.34z"/>
			<path style="fill:#FFFFFF;" d="M591.348,286.795c0,1.328-1.076,2.404-2.404,2.404c-1.328,0-2.404-1.077-2.404-2.404
				s1.076-2.404,2.404-2.404C590.272,284.391,591.348,285.467,591.348,286.795z"/>
			<path style="fill:#FF94B3;" d="M623.815,352.191c0.855,0.94,1.915,1.673,3.025,2.292c0.885,0.493,1.818,0.923,2.811,1.12
				c3.397,0.674,6.882-1.62,8.454-4.706c1.573-3.086,1.563-6.749,0.977-10.163c-0.22-1.285-0.529-2.585-1.231-3.684
				c-1.163-1.82-3.253-2.843-5.339-3.401C621.615,330.735,617.424,345.164,623.815,352.191z"/>
			<path style="fill:#EF82A6;" d="M659.122,302.481c-1.789-13.393-2.026-26.993-0.705-40.44c0.592-6.029,1.583-12.259,4.979-17.275
				c1.479-2.185,3.473-4.133,5.971-4.983c2.498-0.85,5.544-0.396,7.307,1.567c-3.305-0.473-7.146,0.793-9.549,3.58
				c-2.78,3.224-3.237,9.242-3.384,13.497c-0.628,18.125-0.135,36.29,1.475,54.354"/>
		</g>
		<g>
			<path style="fill:#633F89;" d="M677.698,372.915c0,0,14.939-8.51,37.788,0.564C703.066,383.98,677.698,372.915,677.698,372.915z"
				/>
			<path style="fill:#5FC9BE;" d="M689.187,384.436c0,0-21.225-17.503-10.25-56.249
				C704.398,357.603,689.187,384.436,689.187,384.436z"/>
			<path style="fill:#68D9C8;" d="M696.257,386.424c0,0-25.538-35.022,2.899-71.802
				C710.224,344.315,696.257,386.424,696.257,386.424z"/>
			<path style="fill:#5FC9BE;" d="M701.72,379.271c0,0-2.487-25.971,19.073-34.956C718.358,372.375,701.72,379.271,701.72,379.271z"
				/>
			<path style="fill:#68D9C8;" d="M687.185,385.009c0,0-2.519-28.3-18.112-29.994s-14.814,21.307-14.814,21.307
				s9.306-14.472,17.153-13.12C678.022,364.341,687.185,385.009,687.185,385.009z"/>
			<path style="fill:#68D9C8;" d="M702.249,387.13c0,0,3.592-23.45,16.068-27.982c12.475-4.532,12.865,26.763,12.865,26.763
				s-4.288-16.091-10.526-16.871C714.418,368.262,702.249,387.13,702.249,387.13z"/>
			<path style="fill:#68D9C8;" d="M696.135,390.42c0,0-2.943-47.701,20.734-64.378C719.835,363.942,696.135,390.42,696.135,390.42z"
				/>
			<path style="fill:#6B4AA4;" d="M715.488,373.483l-2.769,13.851l-1.989,9.93l-2.135,10.66c0,0-4.352,1.916-12,1.916
				c-7.656,0-11.416-1.916-11.416-1.916l-2.476-11.578l-1.924-9.029l-3.077-14.404C698.146,381.431,715.488,373.483,715.488,373.483
				z"/>
			<path style="fill:#FFD754;" d="M712.72,387.334l-1.989,9.93c-5.992,1.494-16.863,3.069-28.027-0.918l-1.924-9.029
				C687.972,388.43,701.613,389.891,712.72,387.334z"/>
		</g>
		<g>
			<path style="fill:#FFB5A4;" d="M557.927,234.219c0,0,16.619,0.118,18.761,0.053c2.143-0.064,6.768,2.146,6.768,2.146
				s-4.238,1.42-7.838,6.124c2.677,2.024,4.146,5.414,3.322,5.862c-0.824,0.448-22.452-5.34-22.452-5.34L557.927,234.219z"/>
			<path style="fill:#FFFFFF;" d="M446.818,393.716l-2.67,11.935c0,0-16.45,6.667-18.673,5.883
				c-2.223-0.785,4.604-11.066,4.604-11.066l0.785-9.355L446.818,393.716z"/>
			<path style="fill:#FFFFFF;" d="M471.795,393.716c0,0-1.624,11.258-1.624,12.042c0,0.785,31.963,2.089,31.963,1.11
				c0-0.979-15.169-8.825-15.169-8.825l0.523-4.327H471.795z"/>
			<path style="fill:#463043;" d="M497.922,280.502c0,0-0.455,6.723-1.161,16.896c-2.16,30.959-6.698,93.842-8.168,96.351
				c-1.949,3.329-16.75,2.882-18.309,0.065c-1.145-2.078,0.439-61.243,1.348-92.25c0.325-11.091,0.568-18.577,0.568-18.577h-8.956
				c0,0-0.852,7.275-2.168,18.098c-3.743,31.032-11.213,91.268-12.95,93.168c-2.339,2.566-18.983,1.583-18.983-2.135
				c0-2.834,3.556-66.472,5.229-96.359c0.52-9.24,0.861-15.256,0.861-15.256C462.108,273.04,497.922,280.502,497.922,280.502z"/>
			<path style="opacity:0.2;fill:#3B2B4A;" d="M497.922,280.502c0,0-0.455,6.723-1.161,16.896
				c-8.128,2.964-16.758,4.108-25.129,4.165c0.325-11.091,0.568-18.577,0.568-18.577h-8.956c0,0-0.852,7.275-2.168,18.098
				c-10.425-0.974-19.884-3.28-26.704-5.326c0.52-9.24,0.861-15.256,0.861-15.256C462.108,273.04,497.922,280.502,497.922,280.502z"
				/>
			<path style="fill:#68D9C8;" d="M559.161,232.331c0,0-0.244,1.145-1.234,7.38c-0.227,1.437-0.495,3.142-0.812,5.164
				c-41.375-2.436-60.87-23.505-60.87-23.505s2.582,21.727,5.407,52.937c0.268,2.923,0.536,5.927,0.804,9.004
				c-30.707,10.88-70.475,0.024-70.475,0.024l2.874-31.21c0,0-11.878-3.126-14.574-11.115c-2.687-7.989,6.268-39.573,10.214-46.385
				c6.284-10.863,28.701-14.168,29.489-14.339l19.47,2.265c0,0,13.096,2.517,31.292,21.857
				C527.188,221.881,559.161,232.331,559.161,232.331z"/>
			<g>
				<path style="fill:#3B2B4A;" d="M466.354,169.228c0,0-23.723-0.365-25.599-26.226c-1.876-25.86,22.979-47.392,46.968-34.698
					c22.802-3.75,31.33,14.055,26.952,32.143c-4.765,19.684-5.862,32.292,7.442,32.613c-14.476,13.132-45.423,13.658-51.453-3.214"
					/>
				<path style="fill:#FFB5A4;" d="M462.536,158.403l-2.609,21.333c-0.023,0.186-0.004,0.37,0.056,0.547
					c0.451,1.315,2.746,6.866,9.849,8.54c7.707,1.815,9.477-5.576,9.626-6.274c0.008-0.036,0.012-0.067,0.017-0.103l1.637-13.39
					c0.062-0.507-0.196-1.001-0.649-1.238l-16.897-8.876L462.536,158.403z"/>
				<path style="fill:#FF9A86;" d="M462.318,160.18l-0.87,7.113c-0.044,0.359,0.067,0.725,0.315,0.989
					c5.028,5.355,12.981,6.806,17.36,7.197c0.664,0.059,1.255-0.414,1.335-1.076l0.654-5.348c0.062-0.507-0.196-1.001-0.649-1.238
					l-16.341-8.584c-0.363-0.191-0.798-0.191-1.159,0.004c-0.004,0.002-0.008,0.004-0.012,0.006
					C462.603,159.435,462.367,159.785,462.318,160.18z"/>
				<g>
					<path style="fill:#FFB5A4;" d="M507.644,148.937c-0.065,2.273-0.244,4.571-0.585,6.763c-0.625,3.978-1.786,7.583-3.808,9.987
						c-7.421,8.818-31.876,10.198-40.076-3.199c-5.326-8.704-2.152-25.121-2.152-25.121s7.226,6.747,30.815-14.497
						c10.235,11.717,15.289,14.495,15.289,14.495S507.904,140.201,507.644,148.937z"/>
					<path style="fill:#3B2B4A;" d="M483.013,142.831c-0.041,0.78-0.742,1.376-1.566,1.333s-1.458-0.711-1.417-1.49
						c0.041-0.779,0.742-1.376,1.566-1.332C482.419,141.384,483.054,142.051,483.013,142.831z"/>
					<path style="fill:#3B2B4A;" d="M499.726,143.897c-0.041,0.779-0.742,1.376-1.566,1.332c-0.824-0.044-1.458-0.711-1.417-1.49
						c0.041-0.779,0.742-1.376,1.566-1.332C499.133,142.45,499.767,143.117,499.726,143.897z"/>
					<path style="fill:#FF7E7D;" d="M490.649,139.438c-2.399-0.017-4.456,13.966,1.374,14.051c5.199,0.076,3.538-5.275,1.01-5.482
						C490.2,147.775,493.449,139.458,490.649,139.438z"/>
					<path style="fill:#FF85A4;" d="M464.95,150.325c1.177,0.856,2.751,1.283,4.179,0.923c1.428-0.36,2.619-1.596,2.652-2.996
						c0.011-0.453-0.092-0.903-0.228-1.338c-0.183-0.587-0.434-1.168-0.849-1.64c-0.602-0.683-1.521-1.085-2.455-1.16
						C464.7,143.828,461.638,147.917,464.95,150.325z"/>
					<path style="fill:#FF85A4;" d="M507.644,148.937c-0.065,2.273-0.244,4.571-0.585,6.763c-0.447-0.171-0.869-0.398-1.25-0.674
						C502.967,152.956,504.818,149.652,507.644,148.937z"/>
					<path style="fill:#FFFFFF;" d="M490.844,145.083c-3.927-0.552-11.989,0.765-15.038,3.872
						c-3.048,3.107-7.115,8.901-3.269,15.695c3.158,5.578,16.949,6.053,25.07,3.059c6.242-2.301,8.386-10.745,5.624-14.793
						C500.469,148.867,495.541,145.743,490.844,145.083z"/>
					<path style="fill:#E0EEFF;" d="M500.13,152.596c0,0-11.433-3.144-22.84-1.494C487.673,154.686,500.13,152.596,500.13,152.596z"
						/>
					<path style="fill:#E0EEFF;" d="M501.164,156.943c0,0-13.935,3.273-24.611-1.918
						C484.204,162.321,497.546,161.128,501.164,156.943z"/>
					<path style="fill:#E0EEFF;" d="M496.354,163.062c0,0-11.107,2.684-17.823-2.779
						C481.548,167.605,494.108,167.355,496.354,163.062z"/>
					<path style="fill:#FFFFFF;" d="M477.508,149.798c-0.263,0-0.526-0.104-0.723-0.309l-13.977-14.604
						c-0.382-0.399-0.368-1.032,0.031-1.414c0.399-0.381,1.032-0.367,1.414,0.031l13.977,14.604
						c0.382,0.399,0.368,1.032-0.031,1.414C478.005,149.706,477.756,149.798,477.508,149.798z"/>
					<path style="fill:#FFFFFF;" d="M473.393,156.901c-0.02,0-0.039-0.001-0.059-0.001l-14.274-0.829
						c-0.551-0.032-0.972-0.505-0.94-1.057c0.032-0.551,0.496-0.972,1.057-0.941l14.274,0.829c0.551,0.032,0.972,0.505,0.94,1.057
						C474.359,156.491,473.919,156.901,473.393,156.901z"/>
					<path style="fill:#FFFFFF;" d="M499.33,151.087c-0.364,0-0.714-0.199-0.892-0.545c-0.251-0.492-0.056-1.094,0.435-1.346
						l9.189-4.697c0.492-0.252,1.094-0.056,1.346,0.435c0.251,0.492,0.056,1.094-0.436,1.346l-9.188,4.697
						C499.638,151.052,499.483,151.087,499.33,151.087z"/>
					<path style="fill:#FFFFFF;" d="M506.896,162.977c-0.185,0-0.372-0.051-0.539-0.159l-4.107-2.638
						c-0.464-0.298-0.599-0.917-0.301-1.382c0.298-0.464,0.917-0.599,1.382-0.301l4.107,2.638c0.464,0.298,0.599,0.917,0.301,1.382
						C507.547,162.815,507.225,162.977,506.896,162.977z"/>
				</g>
				<path style="fill:#3B2B4A;" d="M478.531,138.34c0,0,5.801-2.287,8.189-0.922C486.891,133.494,479.552,132.439,478.531,138.34z"
					/>
				<path style="fill:#3B2B4A;" d="M502.729,141.248c0,0-5.171-3.486-7.797-2.669C495.613,134.711,503.006,135.266,502.729,141.248z
					"/>
				<path style="fill:#3B2B4A;" d="M471.781,127.098c-14.327,17.176-11.697,48.387-1.506,49.976
					c-29.621,3.21-32.425-25.161-29.364-41.226"/>
			</g>
			<g>
				<path style="fill:#FFB5A4;" d="M459.759,137.921l-0.971,3.258l-0.948,3.173c-7.328,1.93-9.239-2.951-8.21-6.627
					c0.548-1.949,1.918-3.554,3.75-3.63C458.657,133.873,459.759,137.921,459.759,137.921z"/>
				<path style="fill:#FF9A86;" d="M458.788,141.18l-0.948,3.173c-7.328,1.93-9.239-2.951-8.21-6.627
					C453.525,136.45,456.703,138.792,458.788,141.18z"/>
			</g>
			<path style="fill:#6B4AA4;" d="M475.885,234.218l-3.31,21.63c0,0,7.521,5.93,15.911,2.17l4.711-21.198
				C493.197,236.82,482.886,231.404,475.885,234.218z"/>
			<path style="fill:#FFB5A4;" d="M463.531,240.102l-2.092,9.789c0,0,20.818,8.205,21.394,7.486c0.576-0.72-4.188-3.666-4.188-3.666
				s7.643,1.939,7.643,1.075c0-0.864-6.862-3.837-6.862-3.837s8.521,0.958,8.555-0.05c0.034-1.008-8.015-3.072-8.015-3.072
				s7.912,0.625,7.477-0.67c-0.435-1.296-12.959-3.455-12.959-3.455l0.226-1.804L463.531,240.102z"/>
			<path style="opacity:0.2;fill:#3B2B4A;" d="M477.474,235.444c0,0,7.181,4.153,13.77,2.16
				C489.474,235.222,478.824,233.689,477.474,235.444z"/>
			<path style="opacity:0.2;fill:#3B2B4A;" d="M502.456,283.311c-30.707,10.88-70.475,0.024-70.475,0.024l2.874-31.21l25.064,3.337
				c0,0,8.939,18.211,41.733,18.845C501.92,277.23,502.188,280.234,502.456,283.311z"/>
			<path style="opacity:0.2;fill:#3B2B4A;" d="M463.531,238.852l-22.023-7.143c0,0,10.179-3.75,10-5.714s-8.929,3.214-8.929,3.214
				s9.286-11.072,7.679-12.322c-1.607-1.25-8.75,9.764-8.75,9.764l3.929-24.05l-7.679,30.806L463.531,238.852z"/>
			<circle style="fill:#FFFFFF;" cx="472.484" cy="195.279" r="1.964"/>
			<circle style="fill:#FFFFFF;" cx="472.484" cy="205.637" r="1.964"/>
			<path style="opacity:0.2;fill:#3B2B4A;" d="M557.927,239.711c-0.227,1.437-0.495,3.142-0.812,5.164
				c-41.375-2.436-60.87-23.505-60.87-23.505l-1.876-14.842C494.37,206.528,523.047,235.619,557.927,239.711z"/>
		</g>
	</g>
	<g>
		<g>
			<ellipse style="fill:#FFD754;" cx="195.291" cy="400.779" rx="170.201" ry="59.1"/>
			<ellipse style="fill:#FFA84A;" cx="195.291" cy="400.779" rx="159.313" ry="51.421"/>
			<path style="fill:#F47F47;" d="M195.291,443.85c-38.865,0-75.417-4.39-102.921-12.361c-27.882-8.081-43.238-18.987-43.238-30.709
				s15.355-22.628,43.238-30.709c27.504-7.972,64.056-12.362,102.921-12.362c38.865,0,75.417,4.391,102.921,12.362
				c27.882,8.081,43.238,18.987,43.238,30.709s-15.355,22.628-43.238,30.709C270.708,439.46,234.156,443.85,195.291,443.85z
				 M195.291,359.708c-38.682,0-75.036,4.362-102.364,12.283c-26.561,7.698-41.795,18.19-41.795,28.788
				c0,10.598,15.233,21.09,41.795,28.788c27.329,7.92,63.682,12.282,102.364,12.282s75.036-4.362,102.364-12.282
				c26.561-7.698,41.794-18.19,41.794-28.788c0-10.598-15.233-21.09-41.794-28.788C270.327,364.07,233.973,359.708,195.291,359.708z
				"/>
		</g>
		<g>
			<path style="fill:#FFB5A4;" d="M226.322,227.892c0,0-14.482-1.263-16.96-1.263c-2.477,0,1.906,4.158,1.906,4.158
				s-8.803,0.261-11.329-0.16c-2.526-0.421-2.753,1.052-1.166,2.736c1.587,1.684,9.301,5.376,14.81,5.95s16.111-3.943,16.111-3.943"
				/>
			<path style="fill:#FFD754;" d="M176.228,191.664c0,0,0.139-5.959,3.717-6.018c3.578-0.058,5.893,6.018,5.893,6.018H176.228z"/>
			<path style="fill:#EAE2E8;" d="M201.623,187.326l-17.679,2.709l-9.191,0.767c0,0,1.404,3.609,5.824,3.722
				c4.42,0.113,5.262-2.861,5.262-2.861l16.595-0.213L201.623,187.326z"/>
			<path style="fill:#FFB5A4;" d="M215.822,191.451c0,0-8.517-7.603-10.832-8.627c-2.315-1.025-13.68,1.514-15.154,3.086
				c-1.473,1.572-1.036,3.054,1.279,3.026c2.315-0.027,7.982-1.538,7.982-1.538s-6.945,3.03-7.156,5.135
				c-0.21,2.105,8.598,1.603,8.598,1.603s6.19,9.552,15.002,8.71"/>
			<path style="fill:#649FCA;" d="M216.384,129.997c0,0-17.214-5.139-11.778-17.443c-4.54-4.655-1.083-15.962,6.666-13.967
				c1.098-7.648,10.913-7.648,13.321-2.328c6.399-9.644,24.356-17.787,40.318-6.732s9.644,29.986,9.644,29.986
				s15.629,11.076,10.974,29.493c19.287-1.203,27.934,38.578-1.995,45.79c-29.929,7.212-56.532-12.585-52.209-30.288
				C222.639,166.764,206.273,162.108,216.384,129.997z"/>
			<g>
				<polygon style="fill:#FF94B3;" points="245.581,206.555 213.966,188.51 208.521,204.019 243.833,235.371 				"/>
				<g>
					<path style="fill:#FFFFFF;" d="M284.923,391.716c0,0,1.624,11.258,1.624,12.042c0,0.785-31.963,2.089-31.963,1.11
						c0-0.979,15.169-8.825,15.169-8.825l-0.523-4.327H284.923z"/>
					<path style="fill:#FFFFFF;" d="M322.618,391.716c0,0,1.624,11.258,1.624,12.042c0,0.785-31.963,2.089-31.963,1.11
						c0-0.979,15.169-8.825,15.169-8.825l-0.523-4.327H322.618z"/>
					<path style="fill:#463043;" d="M323.578,390.111c0,3.72-16.65,4.71-18.99,2.14c-1.45-1.59-13.57-85.39-17.18-111.86
						c-0.71-5.2-1.13-8.3-1.13-8.3l-3.55,0.89c0,0,0.1,3.01,0.27,8.06c0.85,25.99,4.39,109.03,3.44,110.77
						c-0.86,1.56-5.78,2.4-10.33,2.27c-3.68-0.11-7.11-0.84-7.98-2.33c-1.11-1.9-13.11-74.85-18.43-108.95
						c-1.72-11.05-2.84-18.33-2.84-18.33s41.2-28.06,68.07-20.6c0,0,5.958,8.885,6.997,26.268
						C324.456,312.474,323.578,388.736,323.578,390.111z"/>
					<path style="opacity:0.2;fill:#3B2B4A;" d="M286.438,391.811c-0.86,1.56-5.78,2.4-10.33,2.27l-8.651-134.525l15.95-3.273
						l2.871,15.809l-3.55,0.89c0,0,0.1,3.01,0.27,8.06C283.849,307.031,287.388,390.071,286.438,391.811z"/>
					<path style="fill:#EF82A6;" d="M247.188,165.102c-0.08,0.09-0.36,0.36-0.76,0.83c-0.15-0.02-0.22-0.04-0.22-0.04
						C246.798,165.442,247.098,165.172,247.188,165.102z"/>
					<path style="fill:#EF82A6;" d="M314.928,243.872c0,0-25.65,18.84-68.07,20.6c-1.02-5.02-1.07-7.39-2.13-13.15
						c-1.06-5.79-2.12-11.97-3.13-18.56c-1.49-9.78-2.87-20.48-4.01-32.16c-1.99-20.51,6.22-31.67,8.84-34.67
						c1.03,0.17,5.84,0.48,17.4-5.23c22.72-0.72,34.76,22.24,40.18,48.03C309.428,234.522,314.928,243.872,314.928,243.872z"/>
					<path style="opacity:0.15;fill:#622B4A;" d="M297.505,238.852c-0.921,4.267-38.707,12.74-52.777,12.471
						c-1.06-5.79-2.12-11.97-3.13-18.56l32.96-8.28l2.55-25.06l7.201-19.136C284.31,180.286,304.008,208.732,297.505,238.852z"/>
					<g>
						<path style="fill:#FFB5A4;" d="M259.917,139.87l5.331,20.821c0.047,0.182,0.052,0.366,0.014,0.549
							c-0.278,1.362-1.84,7.162-8.669,9.736c-7.41,2.791-10.115-4.311-10.353-4.984c-0.012-0.035-0.021-0.065-0.03-0.1
							l-3.346-13.068c-0.127-0.495,0.066-1.017,0.484-1.312l15.615-10.975L259.917,139.87z"/>
						<path style="fill:#FF9A86;" d="M260.361,141.605l1.777,6.943c0.09,0.35,0.027,0.728-0.185,1.021
							c-4.298,5.957-11.998,8.419-16.29,9.37c-0.651,0.144-1.297-0.249-1.463-0.895l-1.336-5.219
							c-0.127-0.495,0.066-1.017,0.484-1.312l15.101-10.614c0.336-0.236,0.767-0.292,1.15-0.145
							c0.004,0.002,0.008,0.003,0.012,0.005C259.983,140.902,260.262,141.219,260.361,141.605z"/>
						<g>
							<path style="fill:#FFB5A4;" d="M213.966,136.284c0.357,2.246,0.829,4.502,1.45,6.632c1.132,3.865,2.747,7.291,5.061,9.414
								c8.493,7.79,32.923,6.014,39.332-8.326c4.163-9.316-1.097-25.189-1.097-25.189s-6.299,7.62-32.423-10.413
								c-8.643,12.936-13.298,16.341-13.298,16.341S212.585,127.654,213.966,136.284z"/>
							<path style="fill:#3B2B4A;" d="M237.607,127.06c0.141,0.768,0.913,1.269,1.724,1.12c0.811-0.149,1.354-0.892,1.213-1.66
								c-0.141-0.768-0.913-1.269-1.724-1.12C238.009,125.549,237.466,126.293,237.607,127.06z"/>
							<path style="fill:#3B2B4A;" d="M221.17,130.267c0.141,0.768,0.913,1.269,1.724,1.12s1.354-0.892,1.213-1.66
								c-0.141-0.768-0.913-1.269-1.724-1.12C221.572,128.756,221.029,129.499,221.17,130.267z"/>
							<path style="fill:#FF7E7D;" d="M229.597,124.678c2.377-0.326,6.215,13.277,0.445,14.112
								c-5.146,0.744-4.187-4.776-1.707-5.307C231.115,132.888,226.824,125.058,229.597,124.678z"/>
							<path style="fill:#FF85A4;" d="M256.484,134.17c-1.057,1-2.563,1.626-4.025,1.452c-1.462-0.173-2.802-1.246-3.016-2.63
								c-0.069-0.448-0.025-0.907,0.054-1.356c0.106-0.606,0.28-1.215,0.631-1.735c0.508-0.755,1.368-1.271,2.285-1.466
								C255.896,127.695,259.458,131.356,256.484,134.17z"/>
							<path style="fill:#FF85A4;" d="M213.966,136.284c0.357,2.246,0.829,4.502,1.45,6.632c0.421-0.227,0.81-0.506,1.153-0.829
								C219.121,139.668,216.86,136.629,213.966,136.284z"/>
							<path style="fill:#FFFFFF;" d="M230.13,130.301c3.824-1.052,11.988-0.784,15.411,1.906c3.423,2.689,8.201,7.912,5.261,15.144
								c-2.414,5.938-16.03,8.182-24.469,6.258c-6.486-1.479-9.698-9.577-7.479-13.947S225.557,131.56,230.13,130.301z"/>
							<path style="fill:#E0EEFF;" d="M221.887,138.947c0,0,10.934-4.588,22.458-4.419
								C234.51,139.417,221.887,138.947,221.887,138.947z"/>
							<path style="fill:#E0EEFF;" d="M221.421,143.39c0,0,14.24,1.454,24.16-5.067C238.932,146.542,225.547,147.075,221.421,143.39
								z"/>
							<path style="fill:#E0EEFF;" d="M226.978,148.839c0,0,11.36,1.233,17.318-5.048
								C242.245,151.441,229.758,152.808,226.978,148.839z"/>
							<path style="fill:#FFFFFF;" d="M243.833,133.27c-0.23,0-0.462-0.079-0.651-0.241c-0.419-0.36-0.467-0.991-0.107-1.41
								l11.982-13.95c0.36-0.419,0.992-0.467,1.41-0.107c0.419,0.36,0.467,0.991,0.107,1.41l-11.982,13.95
								C244.395,133.152,244.114,133.27,243.833,133.27z"/>
							<path style="fill:#FFFFFF;" d="M248.828,139.785c-0.471,0-0.891-0.334-0.981-0.814c-0.103-0.543,0.254-1.066,0.796-1.169
								l14.049-2.658c0.544-0.108,1.065,0.253,1.168,0.796c0.103,0.543-0.254,1.066-0.796,1.168l-14.049,2.658
								C248.952,139.78,248.89,139.785,248.828,139.785z"/>
							<path style="fill:#FFFFFF;" d="M222.359,137.355c-0.112,0-0.226-0.019-0.337-0.059l-9.716-3.477
								c-0.52-0.186-0.791-0.758-0.605-1.278c0.186-0.52,0.758-0.792,1.278-0.605l9.716,3.477c0.52,0.186,0.79,0.758,0.605,1.278
								C223.155,137.101,222.77,137.355,222.359,137.355z"/>
							<path style="fill:#FFFFFF;" d="M216.384,150.12c-0.285,0-0.567-0.121-0.765-0.356c-0.356-0.422-0.302-1.053,0.121-1.409
								l3.733-3.145c0.422-0.356,1.053-0.302,1.409,0.121c0.356,0.422,0.302,1.053-0.121,1.409l-3.733,3.145
								C216.84,150.042,216.612,150.12,216.384,150.12z"/>
						</g>
					</g>
					<g>
						<path style="fill:#FFB5A4;" d="M257.594,119.201l1.381,3.106l1.348,3.025c7.515,0.972,8.782-4.114,7.289-7.627
							c-0.794-1.862-2.359-3.278-4.186-3.118C258.166,115.045,257.594,119.201,257.594,119.201z"/>
						<path style="fill:#FF9A86;" d="M258.975,122.308l1.348,3.025c7.515,0.972,8.782-4.114,7.289-7.627
							C263.587,116.94,260.736,119.672,258.975,122.308z"/>
					</g>
				</g>
				<path style="fill:#FF94B3;" d="M280.489,171.241c-18.687-8.309-12.25,47.485-12.25,47.485l-44.109,7.751l2.848,15.101
					c0,0,60.248-2.682,65.301-8.892C297.332,226.477,291.718,176.234,280.489,171.241z"/>
			</g>
			<path style="fill:#649FCA;" d="M217.501,124.672c0.189,2.021,7.12,1.298,6.628-1.616
				C223.637,120.142,217.193,121.371,217.501,124.672z"/>
			<path style="fill:#649FCA;" d="M235.797,119.863c-0.518,1.963,6.239,3.669,6.78,0.763
				C243.117,117.721,236.643,116.657,235.797,119.863z"/>
		</g>
		<g>
			<path style="fill:#FFB5A4;" d="M200.718,288.563c0,0,12.599-0.196,12.83-0.183c6.048,0.183,10.814,6.279,10.631,8.546
				s-12.647,2-12.647,2l-1.833-2.848c0,0-5.749,2.738-9.748,2.835C195.952,299.01,200.718,288.563,200.718,288.563z"/>
			<path style="fill:#523D4F;" d="M150.894,237.15c-12.314,5.898-0.796,56.187,9.413,59.531c10.209,3.344,43.634,3.344,43.634,3.344
				v-12.175l-34.513-8.819C169.428,279.031,164.178,230.788,150.894,237.15z"/>
			<path style="fill:#FFB5A4;" d="M167.65,288.563c0,0,12.599-0.196,12.83-0.183c6.049,0.183,10.814,6.279,10.631,8.546
				c-0.183,2.268-12.647,2-12.647,2l-1.833-2.848c0,0-5.749,2.738-9.748,2.835C162.884,299.01,167.65,288.563,167.65,288.563z"/>
			<path style="fill:#EAE2E8;" d="M123.159,205.085c0,0-10.66-1.942-12.229-15.519c-1.569-13.577-0.714-22.339,5.719-22.008
				c4.119-6.447,15.015-14.383,28.992-12.399c13.977,1.984,25.011,17.272,14.142,24.808
				C153.171,191.198,123.159,205.085,123.159,205.085z"/>
			<polyline style="fill:#614477;" points="114.944,240.483 85.361,243.344 88.976,269.782 117.819,269.477 			"/>
			<g>
				<path style="fill:#614477;" d="M187.119,408.003L187.119,408.003c-2.93,0-5.305-2.375-5.305-5.305V300.824h10.61v101.875
					C192.424,405.628,190.049,408.003,187.119,408.003z"/>
				<g>
					<path style="fill:#614477;" d="M255.138,416.004L255.138,416.004c-2.93,0-5.305-2.375-5.305-5.305V300.824h10.61v109.875
						C260.443,413.629,258.068,416.004,255.138,416.004z"/>
				</g>
			</g>
			<path style="fill:#493066;" d="M120.128,326.823c0,0-4.204,60.089-2.963,61.982c1.241,1.893,8.335,2.658,9.753,0.414
				c1.418-2.244,3.486-62.396,3.486-62.396"/>
			<path style="fill:#614477;" d="M94.471,341.974c0,0-4.204,60.089-2.963,61.982c1.241,1.893,8.335,2.658,9.753,0.414
				c1.418-2.244,3.486-62.396,3.486-62.396"/>
			<path style="fill:#614477;" d="M135.204,347.599c0,0-4.204,60.089-2.963,61.982c1.241,1.893,8.335,2.658,9.753,0.414
				c1.418-2.244,3.486-62.395,3.486-62.395"/>
			<path style="fill:#614477;" d="M153.238,349.362c0,0-7.25-0.49-16.6-1.13h-0.01c-15.61-1.07-37.08-2.55-40.63-2.85
				c-5.67-0.49-7.15-4.07-7.01-10.69c0.01-0.48,0.16-0.96,0.42-1.43c3.34-5.98,25.54-10.86,25.54-10.86l21.73,15.3l14.5,10.21
				L153.238,349.362z"/>
			<path style="fill:#493066;" d="M165.288,347.602l-14.11,0.31l-14.54,0.32h-0.01c-15.61-1.07-37.08-2.55-40.63-2.85
				c-5.67-0.49-7.15-4.07-7.01-10.69c0.01-0.48,0.16-0.96,0.42-1.43c6.26,2.25,18.48,4.62,42.12,4.43c1.81-0.01,3.52-0.01,5.15,0.01
				C174.498,338.172,165.288,347.602,165.288,347.602z"/>
			<g>
				<g>
					<path style="fill:#FFB5A4;" d="M173.308,372.859l0.076,1.784l0.493,11.466l0.561,13.105c2.701,5.053,10.481,1.13,10.481,1.13
						l4.867-19.526l1.979-7.958H173.308z"/>
					<path style="fill:#FFFFFF;" d="M184.921,400.347c0,0,15.503,10.168,14.373,12.427c-1.13,2.26-25.984-4.142-25.984-6.214
						c0-2.071,1.13-7.344,1.13-7.344S179.962,401.1,184.921,400.347z"/>
					<path style="fill:#FF9A86;" d="M173.384,374.643l0.493,11.466c7.109-0.79,12.426-3.177,15.908-5.291l1.979-7.958h-14.413
						C175.966,373.335,174.599,373.921,173.384,374.643z"/>
				</g>
				<g>
					<path style="fill:#FFB5A4;" d="M144.01,377.311l0.088,1.783l0.567,11.463l0.645,13.101c2.733,5.036,10.488,1.062,10.488,1.062
						l4.74-19.557l1.928-7.971L144.01,377.311z"/>
					<path style="fill:#FFFFFF;" d="M155.8,404.723c0,0,15.568,10.068,14.453,12.334c-1.115,2.267-26.011-3.974-26.024-6.046
						c-0.013-2.071,1.082-7.351,1.082-7.351S150.847,405.509,155.8,404.723z"/>
					<path style="fill:#FF9A86;" d="M148.533,377.577l-1.449,11.385c7.14,0.421,12.784-1.034,16.573-2.531l3.294-7.51l-14.206-2.432
						C151.299,376.724,149.853,377.071,148.533,377.577z"/>
				</g>
				<g>
					<path style="fill:#CADBE7;" d="M101.963,301.612c47.291,4.994,57.47-6.597,57.47-6.597s5.733-26.916,0-46.043
						c-4.578-15.297-10.697-20.777-15.479-22.696c-2.361-0.943-3.941-1.036-3.941-1.036l-9.801-1.554
						c-2.54-0.289-4.96-0.187-7.245,0.246c-11.882,2.183-20.299,12.986-23.476,22.66
						C95.075,260.011,101.963,301.612,101.963,301.612z"/>
					<path style="fill:#B6C6DD;" d="M136.693,238.064c7.865-0.594,7.746-8.23,7.262-11.789c-2.361-0.943-3.941-1.036-3.941-1.036
						l-9.801-1.554c-2.54-0.289-4.96-0.187-7.245,0.246C122.28,230.582,127.189,238.769,136.693,238.064z"/>
					<path style="fill:#FFB5A4;" d="M125.566,209.518v18.507c0,0,2.285,5.648,9.3,6.421c7.024,0.773,7.482-6.336,7.482-6.336
						v-12.239l-15.857-6.005L125.566,209.518z"/>
					<path style="fill:#FF9A86;" d="M125.566,210.529v7.092c5.274,4.714,13.335,4.773,16.783,4.552v-6.302l-15.857-6.005
						C126.169,210.062,125.864,210.274,125.566,210.529z"/>
					<g>
						<path style="fill:#FFB5A4;" d="M120.62,190.39l-0.246,3.882l-0.243,3.781c-7.676,4.033-11.059-0.92-10.854-5.283
							c0.111-2.313,1.227-4.455,3.25-5.01C118.353,186.158,120.62,190.39,120.62,190.39z"/>
						<path style="fill:#FF9A86;" d="M120.374,194.272l-0.243,3.781c-7.676,4.033-11.059-0.92-10.854-5.283
							C113.291,190.348,117.436,192.144,120.374,194.272z"/>
						<path style="fill:#FFB5A4;" d="M117.819,189.384c0,0,0.583,16.715,7.728,24.001c10.996,11.213,34.516,4.386,39.77-5.875
							s-4.393-33.68-4.393-33.68s-3.907-4.722-18.573-4.722c0,0-14.867,6.339-20.98,7.13
							C121.924,184.911,117.819,189.384,117.819,189.384z"/>
						<path style="fill:#3B2B4A;" d="M140.47,189.778c0.135,0.769-0.415,1.507-1.227,1.65c-0.813,0.142-1.58-0.366-1.715-1.135
							c-0.135-0.769,0.415-1.507,1.227-1.65C139.567,188.501,140.335,189.009,140.47,189.778z"/>
						<path style="fill:#3B2B4A;" d="M156.997,187.068c0.135,0.769-0.415,1.508-1.227,1.65c-0.812,0.142-1.58-0.366-1.715-1.135
							c-0.135-0.769,0.415-1.507,1.227-1.65C156.094,185.792,156.862,186.3,156.997,187.068z"/>
						<path style="fill:#FFFFFF;" d="M152.841,179.443c0.394-2.15,6.959,0.118,7.063,1.344
							C160.002,181.935,152.488,181.375,152.841,179.443z"/>
						<path style="fill:#FFFFFF;" d="M132.792,184.536c0.738,1.088,6.88-1.995,6.337-3.42
							C138.722,180.048,131.688,182.908,132.792,184.536z"/>
						<path style="fill:#FF85A4;" d="M130.556,202.674c1.339,0.57,2.968,0.633,4.279-0.038c1.311-0.671,2.194-2.142,1.913-3.515
							c-0.091-0.444-0.292-0.859-0.522-1.253c-0.31-0.531-0.685-1.041-1.195-1.408c-0.739-0.531-1.725-0.716-2.652-0.58
							C128.856,196.398,126.789,201.07,130.556,202.674z"/>
						<path style="fill:#FF85A4;" d="M159.106,197.638c1.339,0.57,2.968,0.633,4.279-0.038c1.311-0.671,2.194-2.142,1.913-3.515
							c-0.091-0.444-0.292-0.859-0.522-1.253c-0.31-0.531-0.685-1.041-1.195-1.408c-0.739-0.531-1.725-0.716-2.652-0.58
							C157.406,191.363,155.339,196.034,159.106,197.638z"/>
					</g>
				</g>
				<path style="fill:#68D9C8;" d="M195.288,393.712c-1.59,1.8-9.17,1.81-15,1.29c-3.66-0.32-6.62-0.86-6.98-1.29
					c-0.94-1.11,0-55.73,0-55.73s-8.09,58.93-9.35,61.24c-1.26,2.3-17.96-1.78-21.61-3.13c-3.65-1.36,2.699-48.879,2.699-48.879
					s-6.048-1.832-23.519-6.671c-19.391-5.371-17.05-29.38-17.05-29.38l56.75-5.61c0,0,31.04,14.8,34.06,20.75
					C198.308,332.252,197.888,390.792,195.288,393.712z"/>
				<path style="opacity:0.2;fill:#3B2B4A;" d="M191.768,332.432l-11.48,62.57c-3.66-0.32-6.62-0.86-6.98-1.29
					c-0.94-1.11,0-55.73,0-55.73c0-14.343-32.818-22.901-32.818-22.901s7.891-9.175,15.877-9.049
					c12.394,0.196,15.741,22.008,28.041,27.57C188.95,335.656,191.768,332.432,191.768,332.432z"/>
				<path style="fill:#463043;" d="M120.62,224.479c0,0,7.338,19.351,21.731,36.505c6.906-19.406,3.392-33.885,3.392-33.885
					s8.443,2.453,13.875,14.073c5.433,11.62,5.534,48.59,1.606,64.378c-8.908,9.701-40.85,12.76-56.745,5.615
					c-5.25-10.913-8.761-55.605-5.636-66.672C101.969,233.424,112.157,224.94,120.62,224.479z"/>
			</g>
			<path style="fill:#614477;" d="M94.637,332.433c0,0-16.135-99.703-11.584-101.619c4.551-1.916,19.445,99.858,19.445,99.858
				L94.637,332.433z"/>
			<path style="fill:#614477;" d="M89.389,230.814c0-3.499-2.837-6.336-6.336-6.336c-3.499,0-6.336,2.837-6.336,6.336
				s2.837,6.336,6.336,6.336C86.552,237.15,89.389,234.314,89.389,230.814z"/>
			<path style="fill:#6B4AA4;" d="M143.952,423.004L143.952,423.004c-2.93,0-5.305-2.375-5.305-5.305V302.824h10.61v114.875
				C149.257,420.629,146.882,423.004,143.952,423.004z"/>
			<path style="fill:#6B4AA4;" d="M224.593,423.004L224.593,423.004c-2.93,0-5.305-2.375-5.305-5.305V302.824h10.61v114.875
				C229.898,420.629,227.523,423.004,224.593,423.004z"/>
			<path style="fill:#EAE2E8;" d="M116.509,169.109c0,0-2.269-5.51-0.81-5.186C117.157,164.247,116.509,169.109,116.509,169.109z"/>
			<path style="fill:#FFFFFF;" d="M149.257,195.577c0,0-8.165-0.443-10.725,7.191c4.795,2.141,7.681-1.676,7.681-1.676
				s0.559,1.21,1.862,1.024c1.303-0.186,2.514-1.676,2.514-1.676s1.397,1.862,3.445,1.396s1.491-1.583,1.491-1.583l3.908,1.21
				C159.434,201.465,157.607,194.345,149.257,195.577z"/>
			<path style="fill:#FF7E7D;" d="M146.694,186.092c-1.943,0.433-1.004,12.122,3.725,11.106c4.218-0.906,1.879-4.923-0.203-4.621
				C147.882,192.917,148.961,185.587,146.694,186.092z"/>
			<path style="fill:#523D4F;" d="M109.268,240.483c-11.602,7.199,1.63,52.854,11.839,56.198
				c10.209,3.344,48.321,3.344,48.321,3.344v-12.175l-35.471-9.496C133.958,278.355,125.42,230.461,109.268,240.483z"/>
			<polygon style="fill:#FFFFFF;" points="149.257,258.419 158.702,258.419 154.034,251.083 			"/>
			<path style="fill:#FFD754;" d="M218.029,284.743c0,0,0.973-6.539,7.464-5.897c2.845-6.418,11.129-3.298,14.095-0.044
				c6.976-7.658,23.952-3.566,20.386,5.941C242.554,291.041,218.029,284.743,218.029,284.743z"/>
			<path style="fill:#649FCA;" d="M214.647,282.055c0,0-2.021,19.327,24.547,19.887c26.567,0.56,25.361-19.887,25.361-19.887
				H214.647z"/>
			<path style="fill:#6B4AA4;" d="M265.389,307.622H131.316c-2.65,0-4.799-2.148-4.799-4.799l0,0c0-2.65,2.148-4.799,4.799-4.799
				h134.073c2.65,0,4.799,2.148,4.799,4.799l0,0C270.188,305.474,268.039,307.622,265.389,307.622z"/>
		</g>
	</g>
	<g>
		<g>
			<rect x="666.773" y="33.257" style="fill:#DCE8F4;" width="55.035" height="69.376"/>
			<rect x="673.635" y="39.724" style="fill:#FFFFFF;" width="41.312" height="56.442"/>
			<rect x="666.773" y="113.658" style="fill:#DCE8F4;" width="55.035" height="33.412"/>
			<rect x="673.635" y="120.125" style="fill:#FFFFFF;" width="41.312" height="20.478"/>
			<rect x="30.516" y="28.823" style="fill:#DCE8F4;" width="55.035" height="115.783"/>
			<rect x="37.378" y="35.29" style="fill:#FFFFFF;" width="41.312" height="102.849"/>
		</g>
		<g>
			<circle style="fill:#DCE8F4;" cx="340.288" cy="66.038" r="36.536"/>
			<circle style="fill:#FFFFFF;" cx="340.288" cy="66.038" r="30.518"/>
			<path style="fill:#DCE8F4;" d="M341.288,67.968l-13.746-9.709c-0.451-0.319-0.558-0.943-0.24-1.394
				c0.318-0.45,0.943-0.558,1.394-0.24l10.591,7.482V43.078c0-0.552,0.448-1,1-1c0.552,0,1,0.448,1,1V67.968z"/>
			<path style="fill:#DCE8F4;" d="M343.38,66.038c0-1.708-1.384-3.092-3.092-3.092c-1.708,0-3.092,1.384-3.092,3.092
				c0,1.708,1.384,3.092,3.092,3.092C341.996,69.13,343.38,67.745,343.38,66.038z"/>
		</g>
	</g>
</g>
</svg>
