<?xml version="1.0" encoding="utf-8"?>
<!-- Generator: Adobe Illustrator 27.5.0, SVG Export Plug-In . SVG Version: 6.00 Build 0)  -->
<svg version="1.1" id="Layer_1" xmlns="http://www.w3.org/2000/svg" xmlns:xlink="http://www.w3.org/1999/xlink" x="0px" y="0px"
	 viewBox="0 0 680 450" style="enable-background:new 0 0 680 450;" xml:space="preserve">
<rect x="0" style="fill:#FFF7EC;" width="680" height="449.995"/>
<path style="fill:#0C0C0C;" d="M169.461,449.995l-3.402-55.501l-5.575,55.501H111.98c-0.951-41.183-2.709-67.322,7.244-107.462
	c5.802,2.542,8.932-2.053,14.925-0.641c15.166,3.576,29.926,3.516,45.201,2.391c8.794-0.647,27.014-1.431,35.653-4.245
	c0.906,34.724,5.689,63.07,5.689,109.956H169.461z"/>
<path d="M178.776,447.947c-1.021-3.266-1.046-6.512-1.351-9.853c-0.17-1.861-0.371-3.719-0.573-5.577
	c-0.404-3.71-0.816-7.422-0.993-11.151c-0.265-5.595,0.024-11.278,1.724-16.651c1.081-3.418,2.826-6.787,5.745-8.868
	c2.919-2.081,7.207-2.528,10.019-0.303c1.091,0.863,1.883,2.041,2.604,3.23c3.616,5.964,5.854,12.657,7.249,19.465
	c0.703,3.43,1.197,6.901,1.558,10.383c0.382,3.689,0.744,7.425,1.003,11.141c0.06,0.852,0.518,10.233,0.473,10.233h14.458
	c0-46.886-4.783-75.232-5.689-109.956c-8.639,2.813-26.859,3.597-35.653,4.245c-15.275,1.124-30.035,1.185-45.201-2.391
	c-5.993-1.413-9.123,3.182-14.925,0.641c-9.953,40.141-8.195,66.279-7.244,107.462c0,0,13.427,0,13.428,0
	c0.004,0-0.841-4.567-0.922-5.586c-0.078-0.975-0.148-1.951-0.21-2.927c-0.125-1.952-0.22-3.906-0.285-5.861
	c-0.13-3.91-0.139-7.824-0.029-11.735c0.135-4.771,0.45-9.537,0.943-14.285c0.708-6.808,1.844-13.758,5.272-19.682
	c1.721-2.974,4.301-5.805,7.699-6.316c0.324-0.049,0.651-0.075,0.979-0.08c2.934-0.044,6.426,1.714,8.057,4.189
	c0.674,1.023,1.241,2.049,1.983,3.037c1.019,1.356,1.714,2.942,2.143,4.577c0.689,2.626,0.737,5.372,0.746,8.087
	c0.007,2.007-0.005,4.015-0.036,6.022c-0.143,9.352-0.7,18.707-1.591,28.01c-0.185,1.93-0.367,3.861-0.504,5.796
	c-0.069,0.966-0.127,1.933-0.169,2.9c-0.025,0.576,0.142,3.855,0.266,3.855h10.733l5.575-55.501l3.402,55.501h10.101
	C179.269,449.33,178.997,448.654,178.776,447.947z"/>
<g>
	<path style="fill:#FCAD97;" d="M382.4,265.852c6.608,4.097,18.796,4.097,18.796,4.097s-3.983-30.144-3.983-30.144
		c-0.099,0.477-4.367-0.908-4.624-1.022c-1.746-0.767-7.368-11.946-11.995-21.247c-2.728-5.484-14.152-25.468-14.252-26.696
		l-12.514-1.067c0.269,4.656,4.883,23.369,8.053,32.702C365.485,233.085,370.382,258.401,382.4,265.852z"/>
	<path style="fill:#E77E68;" d="M370.846,199.609c-2.211-4.046-4.006-7.406-4.412-8.468c-0.014-0.031-0.036-0.065-0.043-0.093
		c-0.027-0.09-0.045-0.161-0.049-0.205c0-0.001-0.001-0.003-0.001-0.004l-12.514-1.067c0.017,0.3,0.057,0.666,0.102,1.044
		c0.389,3.104,1.734,9.228,3.353,15.614c0.443-0.311,0.887-0.621,1.325-0.951c1.987-1.495,4.131-3.1,6.512-4.097
		C366.296,200.891,368.827,200.011,370.846,199.609z"/>
	<path style="fill:#E77E68;" d="M388.981,235.836c0.971,7.546-0.5,24.319-4.06,31.285c0,0,0,0,0,0
		c1.104,0.46,2.281,0.845,3.476,1.168c0.014,0.004,0.028,0.007,0.042,0.011c0.557,0.15,1.119,0.285,1.679,0.408
		c0.097,0.022,0.194,0.041,0.29,0.062c0.479,0.102,0.956,0.196,1.429,0.282c0.124,0.022,0.248,0.044,0.372,0.065
		c0.448,0.077,0.89,0.147,1.324,0.211c0.123,0.018,0.247,0.037,0.369,0.054c0.441,0.062,0.872,0.116,1.291,0.164
		c0.095,0.011,0.195,0.024,0.289,0.035c1.03,0.115,1.98,0.195,2.794,0.249c0,0,0.001,0,0.001,0
		c-1.091-5.811-2.872-24.229-4.055-30.525c-0.156-0.046-0.294-0.088-0.438-0.132c-0.075-0.023-0.149-0.045-0.219-0.067
		c-0.122-0.038-0.225-0.071-0.33-0.104c-0.09-0.029-0.165-0.053-0.239-0.077c-0.065-0.022-0.127-0.041-0.177-0.059
		c-0.115-0.039-0.202-0.07-0.23-0.082C391.933,238.495,390.616,237.481,388.981,235.836z"/>
</g>
<path style="fill:#0C0C0C;" d="M452.404,118.747c0.352,6.16,4.004,11.96,7.443,16.898c1.342,1.927,2.831,3.87,4.443,5.77
	c-0.1-5.454,4.325-5.604,7.156-2.53c2.316,2.514,3.959,4.955,4.737,6.19c1.974-2,2.915-4.512,3.751-8.249
	c0.69-3.083,1.362-5.297,3.263-7.937c3.705-5.145,8.632-8.944,12.35-14.048c0.254-2.032,0.374-4.157,0.323-6.38
	c0,0-3.516-12.141-10.079-16.923c0,0-11.906-5.438-25.829,5.438C457.59,98.827,451.611,104.873,452.404,118.747z"/>
<path style="fill:#0C0C0C;" d="M490.046,158.492c1.78,0.342,3.544,0.409,5.292,0.285c-0.315-2.406-0.633-3.977-0.633-3.977
	s-4.884-2.839-9.303-10.43c0,0-7.997,1.551-12.6-3.273l-8.539,0.287C471.024,149.361,480.019,156.568,490.046,158.492z"/>
<g>
	<path style="fill:#FCAD97;" d="M475.071,164.212c2.307-0.454,9.294-1.415,11.177-3.109c0.433-0.39,0.832-0.802,1.233-1.224
		c0.111-0.117,0.456-0.442,0.71-0.691c0.671-0.474,1.334-0.961,1.967-1.489c0.58-0.485,1.102-0.975,1.6-1.547
		c0.403-0.463,0.761-0.966,1.132-1.457c0.637,8.981,3.209,26.753,13.571,32.245c0,0-23.626,22.15-40.925-2.25
		C465.537,184.69,471.654,184.259,475.071,164.212z"/>
	<path style="fill:#E77E68;" d="M494.167,181.518c-2.737-2.066-5.087-4.668-8.033-6.469c-2.694-1.648-10.452-2.546-13.168-2.867
		c0.838-2.245,1.573-4.845,2.106-7.97c2.307-0.454,9.294-1.415,11.177-3.109c0.433-0.39,0.832-0.802,1.233-1.224
		c0.111-0.117,0.456-0.442,0.71-0.691c0.671-0.474,1.334-0.961,1.967-1.489c0.58-0.485,1.102-0.975,1.6-1.547
		c0.403-0.463,0.761-0.966,1.132-1.457c0.637,8.981,3.209,26.753,13.571,32.245c0,0-0.386,0.361-1.089,0.936
		C501.564,185.918,497.593,184.104,494.167,181.518z"/>
</g>
<path style="fill:#FCAD97;" d="M462.88,103.892c0,0-15.514,18.358-7.779,43.812c7.735,25.455,26.721,25.174,39.8,17.72
	c13.079-7.454,14.626-18.845,14.626-18.845s12.939,9.844,16.876-18.705c3.938-28.549-28.689-41.769-39.378-38.581
	C476.337,92.481,467.385,95.581,462.88,103.892z"/>
<path style="fill:#0C0C0C;" d="M491.251,118.337c0.968,0.052,1.87,0.129,2.742,0.218c0.817-0.079,1.631-0.176,2.452-0.228
	c13.196-0.841,22.035,2.413,26.755-8.82c4.98-16.857-5.933-18.693-15.502-27.614c-6.561-6.117-26.389-7.716-37.006-2.843
	c-10.255,4.707-13.813,17.308-13.112,19.483c0,0,0.927,3.8,2.919,6.917C464.914,112.354,478.002,117.628,491.251,118.337z"/>
<path style="fill:#0C0C0C;" d="M503.901,143.024c0.836,3.737,5.297-2.207,5.453-4.392c0.778-1.234,2.421-3.676,4.737-6.19
	c3.281-3.563,8.719-2.813,6.75,5.532c-1.969,8.344-12.469,8.907-12.469,8.907c-0.481,2.586-1.315,4.875-2.339,6.894
	c7.848-4.693,17.273-8.289,22.619-15.379c0.712-0.944,1.293-1.984,1.747-3.075c0.624-1.499,1.01-3.09,1.227-4.696
	c0.223-1.649,0.272-3.319,0.212-4.981c-0.06-1.65-0.509-5.117-1.751-10.067c-0.872-3.477-1.59-9.435-1.599-10.192
	c-0.03-2.531,0.17-5.085-0.251-7.594c-0.499-2.97-1.953-5.742-4.008-7.932c-1.557-1.659-3.466-2.995-5.581-3.841
	c-0.524-0.209-1.07-0.416-1.622-0.54c-0.884-0.198-1.743-0.518-2.626-0.765c-1.549-0.434-3.137-0.73-4.739-0.874
	c-2.437-0.218-4.918-0.089-7.307,0.45c-0.763,0.172-1.952,0.328-2.609,0.806c-6.563,4.782-10.078,16.922-10.078,16.922
	c-0.051,2.223,0.069,4.348,0.323,6.38c3.718,5.105,8.645,8.904,12.35,14.049C504.241,125.086,503.211,139.941,503.901,143.024z"/>
<path style="fill:#0C0C0C;" d="M485.323,124.581c3.27,0.24,9.974,1.837,8.194,4.593c-0.923,1.43-3.988-0.782-5.131-1.055
	c-1.763-0.421-4.25,0.461-5.79-0.701c-1.545-1.166-0.074-2.503,1.259-2.812C484.136,124.54,484.659,124.533,485.323,124.581z"/>
<path style="fill:#0C0C0C;" d="M463.961,122.804c1.129,0.019,2.261,0.282,3.366,0.455c0.993,0.156,1.791,0.246,2.668,0.833
	c1.357,0.907,0.939,2.495-0.665,2.622c-1.58,0.125-2.959-0.86-4.539-0.968c-1.067-0.073-3.692,0.614-4.393-0.39
	c-1.089-1.56,1.45-2.354,2.616-2.502C463.329,122.812,463.645,122.799,463.961,122.804z"/>
<g>
	<g>
		<g>
			<path style="fill:#0C0C0C;" d="M466.678,132.184c0,1.579-1.081,2.859-2.414,2.859c-1.333,0-2.414-1.28-2.414-2.859
				c0-1.579,1.081-2.859,2.414-2.859C465.597,129.324,466.678,130.604,466.678,132.184z"/>
		</g>
		<g>
			<path style="fill:#0C0C0C;" d="M486.481,135.777c0,1.579-1.081,2.859-2.414,2.859s-2.414-1.28-2.414-2.859
				c0-1.579,1.081-2.86,2.414-2.86S486.481,134.197,486.481,135.777z"/>
		</g>
	</g>
</g>
<path style="fill:#E77E68;" d="M471.42,132.917c0,0-5.741,9.534-5.416,14.14c0.174,2.464,6.473,1.076,8.014,0.682
	c0,0-5.816,0.816-5.999-1.075C467.77,144.086,471.379,133.633,471.42,132.917z"/>
<path style="fill:#D85835;" d="M475.918,153.385c-2.19,0.103-4.075,0.793-5.913,1.627c1.724,2.082,4.696,3.857,8.828,1.993
	c1.293-0.583,2.188-1.354,2.821-2.184C479.901,153.898,478.036,153.286,475.918,153.385z"/>
<g>
	<path style="fill:#6C6FA2;" d="M501.406,183.139c0,0-4.965,8.986-16.902,8.119c-10.394-0.755-14.518-6.121-15.793-8.967
		c0,0-0.833,0.201-2.227,0.536c-0.805,1.126-1.731,2.175-2.702,3.172l-22.554,136.115c1.856,0.133,5.732,0.23,7.657,0.309
		c12.998,0.532,28.678,2.363,41.619,3.409c7.553,0.611,14.841,0.253,22.111-0.637C512.614,325.196,502.782,183.358,501.406,183.139z
		"/>
	<path style="fill:#FFFFFF;" d="M497.87,203.085c0.3-0.461,8.908-16.111,9.549-16.971c0.392-0.526,0.971-1.186,1.192-1.867
		c-3.402-0.521-6.203-0.949-7.205-1.108c0,0-4.965,8.986-16.902,8.119c-10.394-0.755-14.518-6.121-15.793-8.967
		c0,0-2.834,0.766-6.81,1.825c1.722,3.021,5.262,14.219,6.225,16.417c0.157,0.358,0.291,0.723,0.432,1.086
		c1.657-1.126,5.175-3.852,6.751-4.844c2.619-1.648,4.321-3.185,7.565-3.135c2.931,0.046,6.575,1.914,8.931,3.661
		C493.969,198.905,496,201.114,497.87,203.085z"/>
	<path style="fill:#7FA2A4;" d="M470.518,185.086c-0.864-1.023-1.454-2.008-1.807-2.796c0,0-2.834,0.766-6.81,1.825
		c1.722,3.021,5.262,14.219,6.225,16.417c0.157,0.358,0.291,0.723,0.432,1.086c0.463-0.315,1.077-0.759,1.748-1.252
		C470.322,199.607,470.586,187.87,470.518,185.086z"/>
	<path style="fill:#7FA2A4;" d="M501.406,183.139c0,0-0.999,1.771-3.132,3.664c-0.117,2.541-1.51,12.436-1.748,14.87
		c0.457,0.476,0.907,0.95,1.345,1.412c0.3-0.461,8.908-16.111,9.549-16.971c0.392-0.526,0.971-1.186,1.192-1.867
		C505.208,183.726,502.407,183.298,501.406,183.139z"/>
	<path style="fill:#0C0C0C;" d="M478.181,450l4.564-85.901L487.908,450h49.461c-1.047-40.909-1.575-94.498-3.117-142.601
		c-6.287,3.178-14.688,5.694-21.182,7.46c-16.434,4.47-35.428,4.395-51.979,2.989c-9.529-0.809-21.246-1.975-30.608-5.492
		c-0.982,43.409-2.163,96.051-3.093,137.644H478.181z"/>
	<path d="M501.895,440.893c2.697-3.222,7.067-4.913,11.021-5.953c1.933-0.509,3.909-0.864,5.898-1.062
		c1.784-0.178,3.69-0.246,5.366,0.495c3.988,1.764,4.245,7.585,4.251,11.312c0.002,1.441-0.083,2.88-0.227,4.315h9.165
		c-1.047-40.909-1.575-94.498-3.117-142.601c-6.287,3.178-14.688,5.694-21.182,7.46c-16.434,4.47-35.428,4.395-51.979,2.989
		c-9.529-0.809-21.246-1.975-30.608-5.492c-0.982,43.409-2.162,96.051-3.093,137.644h7.903c0.06-2.079,0.626-4.159,1.629-5.935
		c1.672-2.961,4.735-4.687,7.878-5.729c3.214-1.066,7.268-1.858,10.647-1.283c3.156,0.537,5.355,2.845,7.338,5.178
		c1.893,2.228,3.131,4.914,3.614,7.768h11.781l4.564-85.901L487.908,450h10.786C498.837,446.687,499.84,443.348,501.895,440.893z"/>
	<path style="fill:#BACDC9;" d="M534.558,238.417c2.032-13.501-5.454-50.816-7.08-51.191c-1.462-0.338-18.805-2.964-24.596-3.857
		c-0.512,3.771-1.121,7.537-1.47,11.344c-0.126,1.37-0.197,2.742-0.25,4.114c5.779,9.518,2.445,19.306-0.528,30.038
		c-1.53,5.523-2.669,10.902-4.849,16.272c-0.842,65.143-1.682,173.603-1.525,182.547c16.795-0.409,36.204-1.769,50.786-4.917
		C545.046,422.767,532.526,251.918,534.558,238.417z"/>
	<path style="fill:#7FA2A4;" d="M505.932,183.837c-0.948,3.514-2.36,6.904-2.95,10.567c-0.75,4.656-1.475,9.262-2.609,13.857
		c-1.316,5.331-2.772,10.641-4.292,15.935c-0.178,11.348-0.36,25.445-0.539,40.903c0.027-0.064,0.056-0.126,0.082-0.19
		c5.875-14.013,12.435-42.944,18.629-79.797C511.786,184.734,507.91,184.14,505.932,183.837z"/>
	<path style="fill:#BACDC9;" d="M500.749,181.875c0,0-1.572,8.271-2.941,20.68c-1.868,16.931-1.965,37.275-2.18,55.228
		c4.624-11.046,10.644-37.159,16.714-72.963C511.838,184.742,503.201,182.884,500.749,181.875z"/>
	<path style="fill:#BACDC9;" d="M468.407,247.42c-1.39-4.708-1.606-9.423-1.542-14.604c0.081-6.581-1.163-13.125-1.947-19.654
		c-1.193-9.933-0.933-19.762-0.723-29.659c-7.785,2.082-25.255,6.585-28.751,7.196c0,0-1.401,55.031-2.214,72.282
		c-0.813,17.251-9.863,162.418-9.863,162.418s18.37,1.611,40.287,2.208C463.473,417.304,467.465,313.566,468.407,247.42z"/>
	<path style="fill:#7FA2A4;" d="M465.439,234.977c-1.665-7.227-0.341-14.406-0.576-21.737c-0.184-5.743,1.448-11.919-0.06-17.435
		c-1.121-4.104-2.02-7.942-2.251-11.863c-2.92,0.779-6.55,1.741-10.162,2.683c7.696,45.534,15.807,76.137,15.798,76.761
		c-0.244,18.37-0.011,2.794,0.333-18.429C467.323,241.67,466.217,238.356,465.439,234.977z"/>
	<path style="fill:#BACDC9;" d="M468.247,258.958c0.476-35.293,0.798-75.922,0.464-76.667c0,0-6.651,1.798-13.884,3.697
		C456.512,191.526,467.878,257.869,468.247,258.958z"/>
	<path style="fill:#7FA2A4;" d="M436.266,370.121c0.579-23.418,2.059-46.78,2.109-70.208c0.069-32.167-2.469-54.436-3.808-64.584
		c-0.116-0.177-0.231-0.354-0.347-0.531c-0.345,11.398-0.704,22.137-0.989,28.183c-0.81,17.195-9.803,161.459-9.862,162.396
		c0.002,0,0.108,0.019,0.299,0.051c1.169,0.111,5.818,0.536,12.805,1c0.22,0.002,0.435,0.006,0.658,0.006
		C437.704,405.284,436.102,376.774,436.266,370.121z"/>
	<path style="fill:#7FA2A4;" d="M543.433,400.274c-0.033-0.473-0.067-0.952-0.102-1.437c-0.171-2.424-0.352-4.992-0.54-7.683
		c-0.151-2.153-0.307-4.385-0.466-6.686c-0.08-1.151-0.161-2.319-0.243-3.503c-0.328-4.736-0.67-9.729-1.022-14.898
		c-0.395-5.816-0.801-11.855-1.208-18.003c-0.09-1.366-0.181-2.738-0.271-4.114c-0.09-1.376-0.181-2.756-0.271-4.139
		c-0.316-4.84-0.63-9.716-0.938-14.574c-0.22-3.47-0.437-6.93-0.649-10.362c-0.042-0.686-0.085-1.372-0.127-2.055
		c-0.126-2.052-0.25-4.091-0.372-6.115c-0.041-0.675-0.081-1.347-0.121-2.018c-0.281-4.696-0.55-9.298-0.802-13.751
		c-0.072-1.272-0.143-2.532-0.212-3.779c-0.173-3.117-0.336-6.15-0.488-9.08c-0.031-0.586-0.06-1.168-0.09-1.746
		c-0.118-2.31-0.23-4.552-0.333-6.716c-0.052-1.082-0.101-2.144-0.149-3.185c-0.142-3.118-0.956-51.24-1.057-53.949
		c-0.273,1.531-0.55,3.062-0.811,4.597c-0.687,4.03-1.862,20.642-1.74,57.261c0.012,3.679,5.276,143.576,4.717,150.078
		c3.059-0.487,6.042-1.031,8.909-1.65c0,0-0.129-1.762-0.359-4.943c-0.035-0.489-0.073-1.012-0.113-1.568
		c-0.24-3.331-0.563-7.826-0.945-13.215C543.565,402.143,543.5,401.22,543.433,400.274z"/>
</g>
<path style="fill:#E77E68;" d="M517.016,134.299c0,0-1.681,1.09-2.761,2.69c-1.087,1.611-1.566,3.734,0.386,4.37
	c0.971,0.316,2.136-0.816,1.717-2.788C516.189,137.778,515.408,136.331,517.016,134.299z"/>
<path style="fill:#FC9F93;" d="M485.999,146.197c0,2.642,2.142,4.785,4.785,4.785c2.642,0,4.785-2.142,4.785-4.785
	c0-2.643-2.142-4.785-4.785-4.785C488.141,141.412,485.999,143.555,485.999,146.197z"/>
<path style="fill:#FC9F93;" d="M454.694,142.641c0,2.643,2.142,4.785,4.785,4.785c2.642,0,4.785-2.142,4.785-4.785
	s-2.142-4.785-4.785-4.785C456.836,137.856,454.694,139.998,454.694,142.641z"/>
<g>
	<g>
		<path style="fill:#BACDC9;" d="M441.253,190.323c-5.229-1.075-16.241,2.582-23.759,15.423
			c-6.82,11.649-12.848,20.212-16.298,26.471c-2.41,4.372-5.832,6.704-7.454,5.857c-4.379-2.285-19.225-35.67-19.717-36.564
			c-5.655,2.762-12.905,5.272-18.727,7.718c5.655,21.665,9.914,39.258,18.727,51.364c2.798,3.844,9.014,9.594,13.536,11.599
			c2.679,1.188,5.626,1.982,8.605,1.982c22.742,0.003,42.468-37.112,43.291-39.822C445.223,215.381,445.745,191.248,441.253,190.323
			z"/>
		<g>
			<g>
				<path style="fill:#FCAD97;" d="M357.455,191.546c-1.679-0.794-11.927-7.868-12.41-8.027c-0.437-0.144-2.918-2.264-3.693-2.761
					c-0.776-0.497-3.665-3.331-4.764-3.547c-1.099-0.215-4.355,1.742-5.009,2.113c-0.654,0.37-3.874,0.98-4.695,1.11
					c-0.822,0.13-1.98,0.973-2.731,1.407c-0.584,0.337-2.208,1.511-3.377,2.422c0.404,0.653,0.901,1.253,1.369,1.727
					c0.316,0.32,0.674,0.558,1.053,0.756c2.484-0.621,4.606-1.015,4.88-1.046c0.578-0.065,2.524-0.042,4.451,0.037
					c1.927,0.079,11.895,7.857,13.743,7.968c0.546,0.033,14.626,17.635,17.254,17.018c1.335-0.313,5.825-3.81,8.352-3.475
					C371.878,207.247,358.473,192.027,357.455,191.546z"/>
			</g>
			<g>
				<path style="fill:#E77E68;" d="M344.951,190.646c-0.544-0.959-0.453-2.138-0.926-3.066c-0.53-1.04-1.66-2.2-2.484-3.024
					c-0.905-0.905-1.968-1.399-3.139-1.87c-2.149-0.864-4.586-1.174-6.714-0.076c-0.725,0.374-1.425,0.858-2.202,1.081
					c-2.351,0.673-4.799,0.858-7.142,1.615c-0.211,0.068-0.417,0.15-0.627,0.222c0.144,0.163,0.288,0.32,0.429,0.463
					c0.65,0.659,1.466,0.99,2.313,1.269c2.65-0.33,4.876-0.472,5.136-0.501c0.578-0.065,3.466,0.495,5.393,0.574
					c1.927,0.079,8.537,6.299,10.385,6.409c0.202,0.012,0.573-0.038,1.036-0.122C346.44,193.613,345.099,190.908,344.951,190.646z"
					/>
			</g>
			<g>
				<path style="fill:#FCAD97;" d="M346.819,193.608c-2.484,1.578-6.606-2.753-7.671-3.751c-1.065-0.998-2.417-0.74-3.085-1.117
					c-0.668-0.377-4.05-1.697-4.491-3.848c-0.441-2.15,1.942-2.442,3.299-2.116c1.357,0.326,3.321,0.511,4.965,1.589
					c1.645,1.078,3.974,2.191,4.639,2.276c0.665,0.085,4.031,1.829,3.937,4.158C348.318,193.13,347.405,193.236,346.819,193.608z"/>
			</g>
			<path style="fill:#F1C7BF;" d="M332.292,185.752c0.172,0.176,0.667,0.298,0.916,0.353c0.347,0.078,0.75,0.143,1.097,0.091
				c0.727-0.109,1.398-0.848,1.244-1.628c-0.134-0.68-0.856-1.179-1.458-1.438c-0.749-0.322-1.476-0.377-2.045,0.251
				C331.775,183.68,331.346,185.327,332.292,185.752z"/>
			<g>
				<path style="fill:#E77E68;" d="M338.103,179.528c-0.439,0.141-0.918,0.274-1.383,0.244c-0.577-0.038-1.101,0.05-1.682,0.122
					c-0.959,0.119-2.019,0.127-2.975-0.026c-0.31-0.049-0.933-0.069-1.27-0.277c0.349-0.089,0.632-0.179,0.786-0.266
					c0.078-0.044,0.195-0.112,0.339-0.195c0.892,0.244,1.82,0.246,2.736,0.047C335.845,178.918,336.989,178.982,338.103,179.528z"/>
			</g>
			<g>
				<path style="fill:#EF9983;" d="M336.4,186.557c0.976,0.146,3.697,0.323,3.212-1.389c-0.221-0.778-1.136-1.192-1.854-1.401
					c-0.617-0.18-1.744-0.281-1.43,0.675c0.126,0.385,0.488,0.841,0.287,1.252C336.533,185.861,335.847,186.475,336.4,186.557z"/>
			</g>
		</g>
	</g>
</g>
<g>
	<g>
		<path style="fill:#7FA2A4;" d="M435.999,238.681c-5.28,4.662-9.546,10.167-14.559,15.059c-8.148,7.952-17.472,14.21-29.511,9.228
			c-23.356-9.664-24.894-35.098-34.011-54.811c-0.896,0.358-1.776,0.715-2.621,1.07c5.655,21.665,9.914,39.258,18.727,51.364
			c2.798,3.844,9.014,9.594,13.536,11.599c2.679,1.188,5.626,1.982,8.605,1.982c20.017,0.003,37.691-28.741,42.202-37.479
			C437.573,237.351,436.77,237.999,435.999,238.681z"/>
	</g>
</g>
<path style="fill:#E77E68;" d="M556.152,263.037c-0.03,0.337-0.067,0.671-0.106,1.002c4.841-1.617,10.902-2.883,15.794-2.779
	c3.325,0.07,7.076-0.167,10.059,1.118c-0.379-3.107-1.216-7.019-2.156-9.427c-1.578-0.45-4.17,0.517-5.761,0.793
	c-2.29,0.396-5.298,1.187-7.588,1.583c-3.869,0.67-7.052,2.76-10.793,3.911C555.601,259.238,556.331,261.047,556.152,263.037z"/>
<g>
	<path style="fill:#FCAD97;" d="M362.759,177.646c0,0,3.42-0.673,4.526-0.362c1.106,0.31,4.02,0.748,4.688,0.88
		c0.668,0.132,2.286,0.561,2.602,1.456c0.315,0.895,0.373,2.622,0.569,3.066c0.195,0.443,1.557,1.92,1.46,2.467
		c-0.097,0.546-0.915,1.929-4.128-0.147c-1.991-1.286-2.194-1.814-2.831-2.575c-0.287-0.344-1.036-0.287-1.471-0.523
		C366.776,181.147,363.915,179.716,362.759,177.646z"/>
	<path style="fill:#E77E68;" d="M375.262,185.564c-1.504,0.021-2.57-1.1-3.394-1.926c-0.995-0.998-0.701-1.767-1.776-2.724
		c-1.426-1.27-2.68-1.397-4.656-1.57c-0.563-0.049-1.644-0.753-2.138-0.917c1.346,1.652,3.661,2.819,4.875,3.48
		c0.435,0.237,1.184,0.18,1.471,0.523c0.636,0.761,0.839,1.289,2.831,2.575c2.945,1.902,3.869,0.906,4.079,0.304
		C376.176,185.458,375.752,185.557,375.262,185.564z"/>
	<path style="fill:#FCE0D1;" d="M376.595,185.033c-0.097,0.001-0.206-0.127-0.281-0.177c-0.107-0.071-0.225-0.128-0.347-0.174
		c-0.246-0.093-0.509-0.144-0.771-0.184c-0.522-0.079-0.953-0.44-1.117-0.913c-0.152-0.438,0.007-0.91,0.558-0.872
		c0.591,0.041,0.987,0.664,1.309,1.062c0.165,0.205,0.267,0.446,0.421,0.657C376.481,184.591,376.643,184.835,376.595,185.033z"/>
</g>
<g>
	<path style="fill:#FCAD97;" d="M374.625,189.552c-0.461-1.439-1.481-2.65-2.238-3.562c-1.271-1.532-3.834-5.115-5.694-6.325
		c-1.86-1.21-3.14-2.596-4.223-2.616c-0.312-0.005-0.697,0.046-1.113,0.113c-1.008,0.77-2.014,1.498-3.218,2.055
		c-2.299,1.064-2.956,1.732-3.906,3.976c-0.561,1.326-1.237,2.499-2.112,3.676c-0.91,1.224-1.545,2.339-2.131,3.62
		c0.825,1.561,2.273,3.585,3.272,4.293c1.367,0.967,3.806,3.342,6.486,3.881c2.68,0.54,3.126-0.989,3.126-0.989
		s1.502,0.703,2.847,0.104c1.346-0.599,1.828-2.182,1.828-2.182s0.434,1.195,2.211-0.296c1.777-1.491,0.661-3.264,0.661-3.264
		c0.216,0.322,1.737,1.207,3.045-0.014C374.285,191.258,374.879,190.347,374.625,189.552z"/>
	<path style="fill:#E77E68;" d="M370.76,193.165c0,0-0.107-1.318-1.617-3.335c-1.165-1.556-5.807-6.679-6.437-6.659
		c-0.63,0.021-0.529,1.006,0.716,2.094c1.245,1.088,3.768,3.881,4.624,4.772C368.901,190.929,370.272,192.293,370.76,193.165z"/>
	<path style="fill:#E77E68;" d="M367.626,195.734c0,0-1.734-2.128-3.195-3.466c-1.462-1.337-4.525-4.947-4.994-3.918
		c-0.201,0.44,2.671,3.011,4.065,4.285C364.896,193.91,367.626,195.734,367.626,195.734z"/>
	<path style="fill:#E77E68;" d="M363.024,197.736c0,0-5.371-5.046-6.063-5.896c-0.692-0.849-1.525,0.321-0.373,1.182
		C357.449,193.665,358.992,195.329,363.024,197.736z"/>
	<path style="fill:#E77E68;" d="M361.078,177.207c-0.467,0.069-1.935,0.531-3.177,0.937c-1.483,0.485-2.726,1.464-3.43,2.763
		c-1.062,1.96-1.925,4.131-2.562,4.65c-0.134,0.109-1.428,1.745-1.827,2.639c-0.26,0.582-0.43,1.583-0.189,2.113
		c0.283,0.625,0.832,0.809,1.184,0.121c0.552-1.077,2.086-0.785,2.385-0.803c0.3-0.019-0.557-1.379-0.272-2.543
		c0.286-1.165,1.809-1.662,2.49-1.389c0.68,0.273,0.44-0.167,0.011-1.738c-0.429-1.571,0.851-3.118,1.834-3.051
		c0.983,0.067,2.618,0.201,2.349-0.748C359.604,179.207,361.935,177.081,361.078,177.207z"/>
</g>
<path style="fill:#0C0C0C;" d="M211.944,164.673l-15.934-1.421c-5.159,4.841-13.541,2.729-13.541,2.729
	c-5.127,7.783-10.467,10.504-10.467,10.504s-3.924,15.026-1.185,24.315c2.739,9.289,9.475,17.111,25.364,21.632
	c15.888,4.52,24.932-6.786,26.241-15.389C225.648,185.836,215.58,167.781,211.944,164.673z"/>
<g>
	<path style="fill:#FCAD97;" d="M181.271,183.212c-2.757-0.358-5.115-1.341-7.467-3.195c-0.541-0.427-1.044-0.882-1.55-1.349
		c-0.14-0.129-0.573-0.486-0.89-0.761c-0.829-0.508-1.648-1.031-2.436-1.604c-0.722-0.528-1.376-1.066-2.007-1.701
		c-0.512-0.515-0.972-1.081-1.449-1.631c-0.058,10.645-1.718,31.813-13.519,39.093c0,0,28.925,25.23,47.448-4.896
		C199.4,207.168,186.852,206.601,181.271,183.212z"/>
	<path style="fill:#E18A7C;" d="M166.038,204.717c3.07-2.649,5.641-5.9,8.978-8.254c3.051-2.152,6.174-3.421,9.355-4.01
		c-1.162-2.584-2.231-5.594-3.101-9.241c-2.757-0.358-5.115-1.341-7.467-3.195c-0.541-0.427-1.044-0.882-1.55-1.349
		c-0.14-0.129-0.573-0.486-0.89-0.761c-0.829-0.508-1.648-1.031-2.435-1.604c-0.722-0.527-1.376-1.066-2.007-1.701
		c-0.512-0.515-0.972-1.081-1.449-1.631c-0.058,10.645-1.718,31.813-13.519,39.093c0,0,0.483,0.396,1.357,1.02
		C157.651,210.48,162.196,208.032,166.038,204.717z"/>
</g>
<path style="fill:#FCAD97;" d="M209.188,126.806c0,0,14.573,22.829,6.674,46.165c-3.223,9.523-13.846,22.21-23.423,22.672
	c-6.255,0.302-12.56-1.844-17.862-5.267c-13.419-8.664-14.39-20.823-14.39-20.823s-14.285,9.671-16.782-20.806
	c-2.498-30.476,32.844-42.568,43.98-38.564C198.522,114.187,204.903,117.737,209.188,126.806z"/>
<path style="fill:#0C0C0C;" d="M174.155,104.989c0,0-10.493-3.791-25.881,6.915c-15.388,10.706-15.065,41.631-18.076,49.236
	c-3.011,7.605-11.512,16.796-12.422,33.24c-0.707,12.783,5.123,25.909,24.855,27.501c2.87-2.929,6.854-4.618,9.656-7.612
	c3.5-3.741,7.213-9.023,9.866-15.174c3.213-7.448,4.934-15.139,4.934-15.139c-2.61-3.328-4.947-8.242-5.693-14.016
	c0,0-11.092-1.212-12.688-10.168c-1.597-8.956,4.208-9.431,7.476-5.464c2.306,2.799,3.903,5.482,4.655,6.836
	c2.209-2.003,3.353-4.61,4.458-8.52c0.911-3.225,1.754-5.532,3.922-8.217c4.227-5.233,9.669-8.969,13.908-14.159
	c0.388-2.138,0.64-4.382,0.717-6.74C183.841,123.509,180.828,110.44,174.155,104.989z"/>
<path style="fill:#FCAD97;" d="M265.831,300.922c-2.185-1.201-4.34-2.454-6.464-3.759c-1.958-1.203-4.086-2.633-5.078-4.792
	c-0.232-0.506-0.316-1.067-0.543-1.559c-0.318-0.688-0.721-1.35-1.088-2.012c-0.745-1.343-1.514-2.672-2.245-4.022
	c-0.307-0.567-0.607-1.137-0.896-1.714c-5.364,3.017-23.678,13.316-23.679,13.315c0.3-0.049,0.49,1.46,0.595,2.829
	c0.007,0.097,0.547,0.624,0.572,0.651c0.308,0.336,0.628,0.661,0.952,0.982c0.377,0.373,0.748,0.8,1.177,1.115
	c0.184,0.135,0.368,0.225,0.526,0.395c0.488,0.529,0.854,1.246,1.266,1.838c0.861,1.237,1.74,2.461,2.638,3.671
	c1.795,2.42,3.664,4.786,5.602,7.093c0.853,1.015,1.719,2.019,2.599,3.011c1.697,1.914,3.448,3.788,5.39,5.453
	c8.951,7.668,21.217,10.253,32.994,10.712c1.724,0.067,3.647,0.023,4.893-1.172c0.772-0.741,1.137-1.799,1.469-2.817
	c2.023-6.208,3.784-12.502,5.277-18.859c-1.823,0.32-3.667-0.303-5.402-0.949C279.316,307.703,272.44,304.555,265.831,300.922z"/>
<path style="fill:#E77E68;" d="M249.516,283.063c-0.285,0.16-0.594,0.334-0.955,0.537c-1.325,1.127-2.721,2.666-3.748,2.835
	c-2.508,0.415-3.929,2.477-6.437,2.892c-2.788,1.568-5.57,3.132-7.804,4.389c-1.589,1.138-3.168,2.177-4.734,2.662l0,0
	c0.193-0.032,0.341,0.589,0.45,1.4c0.005,0.036,0.01,0.073,0.014,0.11c0.053,0.416,0.093,0.871,0.127,1.315
	c0.605,0.726,1.311,1.437,2.053,2.149c4.242-1.243,9.018-2.147,13.225-2.22c1.711-1.533,3.504-2.933,5.522-3.91
	c1.617-0.783,4.489-2.282,7.188-3.03C252.92,289.064,251.062,286.15,249.516,283.063z"/>
<path style="fill:#6C6FA2;" d="M123.174,300.428c-0.759,17.468-11.049,53.579-11.952,60.384h0
	c37.858,11.814,78.363,12.182,116.43,1.057l3.615-1.057c-0.337-10.453-3.891-75.047-1.894-89.428
	c2.217-15.963-1.134-54.557-2.908-55.001c-1.774-0.444-27.608-9.76-31.084-10.359c0,0-5.417,10.625-18.442,9.599
	c-11.342-0.893-15.842-7.238-17.233-10.602c0,0-27.498,10.74-32.648,11.716C127.059,216.737,124.061,280.031,123.174,300.428z"/>
<path style="fill:#464A83;" d="M229.374,271.384c1.448-10.425,0.521-30.485-0.79-43.28c-2.692,4.05-6.101,7.705-9.701,10.991
	c-7.44,6.789,11.671-35.066,4.168-28.356c-4.04,3.613-16.82,6.969-28.291,28.002c-8.5,15.586-11.396,28.923-15.615,49.275
	c-1.391,6.71-2.213,13.525-2.963,20.324c-0.847,7.679-1.619,15.367-2.638,23.025c-1.699,12.775-2.46,25.678-2.676,38.569
	c19.115,0.032,38.239-2.645,56.785-8.065l3.615-1.057C230.93,350.359,227.376,285.764,229.374,271.384z"/>
<path style="fill:#464A83;" d="M130.872,354.824c0.024-1.014,0.083-2.028,0.156-3.039c0.274-3.829,0.849-7.632,1.268-11.448
	c0.43-3.911,0.853-7.823,1.254-11.737c0.803-7.829,1.523-15.668,2.044-23.522c0.52-7.838,0.842-15.691,0.85-23.547
	c0.004-3.925-0.071-7.85-0.239-11.772c-0.08-1.87-0.421-3.87-0.279-5.734c0.042-0.555,0.234-1.066,0.235-1.629
	c0.006-1.97-0.313-3.98-0.417-5.951c-0.119-2.263-0.184-4.529-0.175-6.795c0.024-6.547-7.588,3.988-8.3-4.401
	c-2.618,1.153-3.215,13.155-4.721,13.928c0.26,7.011,0.484,14.105,0.623,20.602c0,0.015,0.001,0.03,0.001,0.046
	c0.019,0.9,0.037,1.788,0.053,2.662c0.001,0.053,0.002,0.105,0.003,0.158c0.031,1.719,0.054,3.385,0.07,4.986
	c0.001,0.074,0.002,0.15,0.002,0.225c0.007,0.751,0.012,1.486,0.016,2.207c0,0.115,0.001,0.23,0.001,0.344
	c0.003,0.711,0.004,1.408,0.003,2.084c0,0.079-0.001,0.155-0.001,0.233c-0.002,0.646-0.005,1.275-0.01,1.887
	c-0.001,0.068-0.001,0.138-0.002,0.206c-0.006,0.624-0.014,1.224-0.024,1.808c-0.002,0.111-0.004,0.221-0.006,0.33
	c-0.011,0.565-0.023,1.111-0.038,1.635c-0.003,0.096-0.006,0.188-0.009,0.283c-0.016,0.54-0.035,1.064-0.057,1.568
	c-0.013,0.291-0.031,0.592-0.052,0.9c-1.057,17.778-11.011,52.783-11.899,59.473c6.414,2.002,12.906,3.661,19.448,5.003
	C130.816,362.151,130.761,358.468,130.872,354.824z"/>
<path style="fill:#464A83;" d="M229.314,349.633c-0.337-10.453-1.938-63.868,0.059-78.249c0.619-4.454,0.875-8.174,0.486-15.451
	c-5.677-3.434-13.597-6.367-18.548-8.03c-0.9,14.464,0.579,29.051-1.281,43.549c-2.225,17.349-5.84,34.712-10.949,51.451
	c-0.651,2.133-1.341,4.398-2.076,6.73H229.314z"/>
<g>
	<g>
		<g>
			<path style="fill:#6C6FA2;" d="M255.234,286.532l-30.131,10.754c0,0-3.38-16.823-8.749-37.955
				c-5.369-21.133,4.724-42.928,10.425-42.948C235.202,216.354,238.847,237.812,255.234,286.532z"/>
		</g>
	</g>
</g>
<path style="fill:#0C0C0C;" d="M187.285,147.875c-3.474-0.182-10.743,0.609-9.236,3.746c0.782,1.628,4.302-0.293,5.542-0.429
	c1.912-0.209,4.413,1.05,6.189,0.031c1.781-1.022,0.41-2.625-0.952-3.128C188.54,147.989,187.991,147.912,187.285,147.875z"/>
<path style="fill:#0C0C0C;" d="M210.318,149.837c-1.166-0.277-2.399-0.303-3.58-0.414c-1.062-0.1-1.906-0.216-2.962,0.156
	c-1.633,0.577-1.619,2.319-0.003,2.87c1.592,0.542,3.267-0.109,4.92,0.194c1.116,0.205,3.635,1.599,4.618,0.751
	c1.528-1.319-0.874-2.8-2.034-3.259C210.965,150.011,210.644,149.914,210.318,149.837z"/>
<path style="fill:#E77E68;" d="M196.115,160.99c0,0,2.89,5.98,2.728,8.596c-0.162,2.616-5.305,2.788-6.915,2.28
	c0,0,4.498-0.823,4.803-2.816C197.147,166.335,196.117,161.751,196.115,160.99z"/>
<path style="fill:#D85835;" d="M190.709,181.348c2.356,0.028,6.361-0.31,5.657-1.354c-0.27-0.4-0.804-0.581-1.288-0.84
	c-3.62-1.936-8.041-0.804-8.63,0.464C186.027,180.522,188.891,181.327,190.709,181.348z"/>
<path style="fill:#E77E68;" d="M152.973,156.105c0,0,1.717,1.253,2.767,3.012c1.057,1.771,1.44,4.048-0.665,4.607
	c-1.047,0.278-2.215-0.99-1.656-3.054C153.645,159.839,154.557,158.351,152.973,156.105z"/>
<path style="fill:#FC9F93;" d="M181.281,169.091c-0.155,2.799-2.55,4.944-5.35,4.789c-2.8-0.155-4.943-2.55-4.788-5.35
	c0.155-2.799,2.55-4.944,5.35-4.789C179.292,163.896,181.436,166.292,181.281,169.091z"/>
<path style="fill:#FC9F93;" d="M214.909,171.005c-0.155,2.8-2.55,4.943-5.35,4.788c-2.8-0.155-4.944-2.55-4.789-5.35
	c0.155-2.799,2.55-4.943,5.35-4.788C212.92,165.81,215.064,168.205,214.909,171.005z"/>
<path style="fill:#0C0C0C;" d="M199.872,138.022c17.245,2.694,17.784,12.713,17.784,12.713s9.27-12.295,2.054-29.285
	c-7.217-16.991-37.297-25.18-48.758-15.445C170.951,106.004,171.826,133.64,199.872,138.022z"/>
<path style="fill:#0C0C0C;" d="M186.074,160.697c-1.863-0.103-3.361-1.232-3.786-2.681c-0.127,0.304-0.222,0.621-0.241,0.961
	c-0.105,1.897,1.65,3.537,3.919,3.662c2.27,0.126,4.194-1.31,4.299-3.208c0.019-0.34-0.041-0.665-0.133-0.981
	C189.549,159.844,187.937,160.801,186.074,160.697z"/>
<path style="fill:#0C0C0C;" d="M206.069,161.175c-1.637-0.091-2.96-1.06-3.382-2.318c-0.139,0.3-0.239,0.618-0.258,0.96
	c-0.095,1.71,1.487,3.188,3.532,3.301c2.045,0.113,3.78-1.181,3.875-2.891c0.019-0.341-0.045-0.668-0.15-0.982
	C209.129,160.448,207.706,161.266,206.069,161.175z"/>
<g>
	<g>
		<g>
			<path style="fill:#FCAD97;" d="M205.695,394.495h2.462c1.823,5.913,2.808,7.174,3.31,9.068c0.585,2.209,1.56,4.05,1.776,5.393
				c0.217,1.343,3.639,5.892,3.639,6.975c0,0.55-0.166,1.123-0.466,1.583c-0.183,0.281-0.427,0.522-0.72,0.688
				c-0.354,0.2-0.76,0.28-1.163,0.275c-0.261-0.003-0.521-0.039-0.776-0.097c-0.052-0.012-0.111-0.018-0.204-0.078
				c-0.048-0.034-0.107-0.054-0.16-0.08c-0.056-0.027-0.112-0.056-0.168-0.085c-0.221-0.118-0.433-0.254-0.633-0.405
				c-0.2-0.151-0.389-0.318-0.563-0.498c-0.07-0.072-0.137-0.146-0.202-0.223c-0.04-0.047-0.08-0.096-0.175-0.306
				c-0.052-0.103-0.104-0.206-0.156-0.308c-0.111-0.219-0.223-0.439-0.335-0.658c-0.113-0.221-0.227-0.442-0.342-0.662
				c-0.106-0.203-0.213-0.405-0.322-0.606c-0.049-0.091-0.099-0.182-0.15-0.272c-0.73-1.304-1.317-2.598-1.874-3.975
				c-0.084-0.208-0.206-0.392-0.358-0.536c-0.053-0.105-0.109-0.21-0.17-0.312c-0.179-0.303-0.353-0.607-0.498-0.929
				c-0.161-0.358-0.277-0.737-0.378-1.115c-0.104-0.39-0.308-0.757-0.377-1.155c-0.036-0.207-0.632-0.646-0.632-0.646
				s-0.146-0.07-0.365-0.128V394.495z"/>
			<path style="fill:#F7DAD1;" d="M216.881,415.93c0,0.028-0.001,0.057-0.002,0.087c-3.75-2.508-3.935-5.549-3.673-7.226
				c0.011,0.054,0.027,0.112,0.036,0.165C213.459,410.299,216.881,414.848,216.881,415.93z"/>
			<path style="fill:#E77E68;" d="M207.112,404.212c0.065,3.119,0.836,3.507,2.231,7.126c1.809,4.694,4.244,6.347,5.589,7.044
				c-0.123,0.018-0.234,0.084-0.358,0.085c-0.028,0-0.052,0.006-0.08,0.005c-0.238-0.005-0.475-0.038-0.708-0.089
				c-0.029-0.006-0.064-0.021-0.094-0.028c-0.041-0.01-0.077-0.013-0.141-0.054c-0.048-0.034-0.107-0.054-0.16-0.08
				c-0.056-0.027-0.112-0.056-0.168-0.085c-0.221-0.118-0.433-0.254-0.634-0.405c-0.2-0.151-0.389-0.318-0.563-0.498
				c-0.07-0.072-0.137-0.146-0.203-0.223c-0.04-0.047-0.08-0.096-0.175-0.306c-0.052-0.103-0.104-0.206-0.156-0.308
				c-0.029-0.057-0.058-0.114-0.087-0.171c-0.347-0.706-0.75-1.499-1.062-2.027c-0.731-1.304-1.317-2.598-1.874-3.975
				c-0.084-0.208-0.206-0.392-0.358-0.536c-0.053-0.105-0.11-0.21-0.17-0.312c-0.179-0.303-0.354-0.607-0.498-0.929
				c-0.161-0.358-0.277-0.737-0.378-1.115c-0.104-0.39-0.308-0.757-0.377-1.155c-0.024-0.141-0.299-0.38-0.479-0.525
				c0-0.001-0.001-0.001-0.001-0.002c-0.018-0.015-0.015-0.012-0.031-0.024c-0.069-0.055-0.121-0.095-0.121-0.095
				s-0.146-0.07-0.365-0.128v-4.939c0.109,0.156,0.237,0.299,0.337,0.461C206.647,401.917,207.088,403.033,207.112,404.212z"/>
		</g>
		<g>
			<path style="fill:#FFFFFF;" d="M323.82,142.709c0,0-21.065-30.593-20.195-41.865c0.201-2.601,10.468-4.026,12.302-3.977
				c9.778,0.263,14.314,8.241,17.106,21.629C335.824,131.883,333.677,150.501,323.82,142.709z"/>
			<path style="fill:#E0E9E9;" d="M319.621,117.79c2.469,0.222,5.042,0.912,7.378,2.045c4.652,2.255,7.403,7.198,7.107,12.36
				c-0.515,8.977-3.658,15.615-10.263,10.393c0,0-8.374-12.165-14.344-23.979C312.849,118.043,316.221,117.486,319.621,117.79z"/>
			<path style="fill:#FFFFFF;" d="M268.254,152.276c0,0,9.62-35.876,5.03-46.209c-1.059-2.384-11.212-0.293-12.923,0.367
				c-9.127,3.518-10.734,12.554-8.887,26.104C253.32,146.089,261.57,162.916,268.254,152.276z"/>
			<path style="fill:#E0E9E9;" d="M263.939,127.494c-2.253,1.034-4.447,2.546-6.27,4.395c-3.63,3.681-4.569,9.259-2.564,14.025
				c3.487,8.288,8.67,13.493,13.148,6.363c0,0,3.823-14.265,5.498-27.396C270.405,125.467,267.041,126.07,263.939,127.494z"/>
			<path style="fill:#E18A7C;" d="M266.871,190.151c10.89-12.026,13.31-37.346,13.31-37.346H292.5h12.32
				c0,0,2.42,25.32,13.31,37.346c5.688,6.282-5.485,25.266-25.629,25.361C272.356,215.417,261.183,196.432,266.871,190.151z"/>
			<g>
				<g>
					<path style="fill:#B22B25;" d="M342.238,267.601v-67.878c1.774-3.302-7.627-9.957-6.532-10.771c0,0,27.607,1.683,34.031,19.109
						c5.615,15.233,13.937,54.874,18.633,80.468L342.238,267.601z"/>
				</g>
			</g>
			<g>
				<path style="fill:#FCAD97;" d="M331.832,131.057c-0.167,4.395-1.724,8.377-4.539,8.862c-2.815,0.485-5.701-2.636-6.448-6.97
					c-0.747-4.334,3.136-8.621,5.951-9.105C329.611,123.359,332.018,126.149,331.832,131.057z"/>
				<path style="fill:#E77E68;" d="M328.474,128.032c0,0-3.105,1.813-3.124,5.481c-0.019,3.668,3.561,2.458,3.576,0.758
					C328.941,132.57,326.541,132.244,328.474,128.032z"/>
			</g>
			<g>
				<path style="fill:#FCAD97;" d="M256.882,143.962c1.627,4.086,4.426,7.318,7.241,6.834c2.815-0.485,4.492-4.391,3.745-8.725
					c-0.746-4.334-5.839-7.075-8.654-6.59C256.4,135.965,255.065,139.399,256.882,143.962z"/>
				<path style="fill:#E77E68;" d="M259.034,139.989c0,0,3.532,0.67,4.777,4.121c1.245,3.451-2.534,3.508-3.116,1.91
					C260.112,144.422,262.264,143.312,259.034,139.989z"/>
			</g>
			<path style="fill:#CF3F36;" d="M223.838,281.574c0.103-34.546,7.689-86.021,14.731-89.27c7.512-3.466,27.621-11.922,34.63-12.546
				c-0.092,0.66-0.153,1.328-0.153,2.009c0,9.26,8.71,16.768,19.453,16.768c10.744,0,19.454-7.507,19.454-16.768
				c0-0.681-0.061-1.349-0.153-2.009c7.009,0.625,24.114,7.834,32.715,10.2c7.478,2.058,16.544,57.07,16.646,91.616H223.838z"/>
			<path style="fill:#FCAD97;" d="M311.668,100.918c-8.169-8.24-24.664-4.402-24.664-4.402s-16.829,1.9-21.772,12.397
				c-4.943,10.497-6.439,34.15,0.468,46.821c4.813,8.829,15.149,21.009,34.543,17.669c19.394-3.339,25.061-18.275,26.644-28.205
				C329.158,130.948,319.837,109.158,311.668,100.918z"/>
			<path style="fill:#2F1205;" d="M310.054,132.705c0.274,1.589-0.738,3.09-2.259,3.351c-1.521,0.262-2.976-0.814-3.25-2.403
				c-0.274-1.589,0.738-3.089,2.259-3.352C308.326,130.04,309.78,131.116,310.054,132.705z"/>
			<path style="fill:#2F1205;" d="M283.464,137.283c0.274,1.589-0.738,3.09-2.259,3.352c-1.521,0.262-2.976-0.814-3.25-2.403
				c-0.274-1.589,0.738-3.09,2.259-3.352C281.736,134.618,283.191,135.694,283.464,137.283z"/>
			<path style="fill:#FFFFFF;" d="M301.823,116.587c-1.617,0.281-3.312,0.68-4.492,1.82c-1.18,1.14-1.563,3.255-0.376,4.388
				c0.886,0.847,2.259,0.864,3.48,0.76c1.759-0.15,3.505-0.444,5.216-0.88c2.193-0.558,4.42-1.354,6.66-1.027
				c0.869,0.127,1.763,0.42,2.602,0.163c1.078-0.33,1.729-1.595,1.486-2.696C315.386,114.525,304.927,116.049,301.823,116.587z"/>
			<path style="fill:#FFFFFF;" d="M280.323,120.289c1.617-0.276,3.349-0.467,4.842,0.213c1.493,0.68,2.561,2.545,1.822,4.01
				c-0.552,1.094-1.84,1.569-3.025,1.88c-1.708,0.447-3.452,0.754-5.21,0.916c-2.253,0.208-4.618,0.203-6.62,1.259
				c-0.776,0.41-1.521,0.985-2.398,1.024c-1.127,0.049-2.163-0.924-2.302-2.044C266.851,122.882,277.217,120.82,280.323,120.289z"/>
			<path style="fill:#FFFFFF;" d="M323.18,125.931c0.001,0.214,0.011,0.401,0.009,0.623c-0.133,12.874-0.728,17.466-3.946,23.747
				c-1.709,3.336-6.345,0.63-11.825,0.416c-4.839-0.189-10.929,0.887-10.929,0.887s-6.1,1.022-10.597,2.819
				c-5.093,2.035-8.557,6.135-11.283,3.563c-5.133-4.843-7.23-8.972-11.661-21.06c-0.077-0.209-0.129-0.388-0.2-0.59l-1.657-0.256
				c-0.021,8.291,3.121,17.777,5.152,21.325c3.311,5.784,14.833,29.359,35.681,25.769c20.848-3.59,23.822-29.661,25.008-36.218
				c0.728-4.023,0.586-12.443-1.951-21.691L323.18,125.931z"/>
			<path style="fill:#E0E9E9;" d="M307.188,150.757c-4.269-0.167-9.507,0.651-10.682,0.846c-1.172,0.209-6.382,1.19-10.349,2.776
				c-3.889,1.554-6.826,4.302-9.212,4.375c0.121,1.157,1.55,3.038,4.262,3.88c5.296,1.643,15.413-0.151,17.221,0.128
				c1.611-0.868,11.745-2.561,16.186-5.88c2.275-1.701,2.992-3.951,2.719-5.082C315.06,152.529,311.372,150.921,307.188,150.757z"/>
			<g>
				<path style="fill:#442D43;" d="M296.902,154.004c-4.904,0.844-8.527,3.578-8.092,6.105c0.435,2.527,4.763,3.892,9.668,3.047
					c4.904-0.844,8.527-3.578,8.092-6.105C306.135,154.523,301.806,153.159,296.902,154.004z"/>
				<path style="fill:#CD5A6B;" d="M291.926,162.88c1.755,0.564,4.078,0.702,6.552,0.276c2.474-0.426,4.617-1.334,6.082-2.452
					c-1.755-0.564-4.078-0.702-6.552-0.276C295.535,160.854,293.391,161.762,291.926,162.88z"/>
			</g>
			<path style="fill:#B22B25;" d="M292.5,198.535c0,0,7.619,5.606,13.825,13.011c4.2,5.012,16.817-12.328,11.022-30.635
				c0,0-3.03-2.643-6.131-2.235C311.215,178.676,308.146,191.204,292.5,198.535z"/>
			<path style="fill:#B22B25;" d="M292.5,198.535c0,0-7.619,5.606-13.825,13.011c-4.2,5.012-16.817-12.328-11.021-30.635
				c0,0,3.03-2.643,6.132-2.235C273.785,178.676,276.855,191.204,292.5,198.535z"/>
			<path style="fill:#FFFFFF;" d="M292.5,198.535c0,0,12.365,5.661,14.728,11.758c2.363,6.097,15.914-11.074,10.118-29.382
				c0,0-3.03-2.643-6.131-2.235C311.215,178.676,308.146,191.204,292.5,198.535z"/>
			<path style="fill:#E0E9E9;" d="M306.684,205.575c3.356,4.842,13.292-6.241,11.254-22.338
				c4.024,17.397-8.447,32.894-10.709,27.056c-2.363-6.097-14.728-11.758-14.728-11.758c0.081-0.038,0.15-0.08,0.23-0.118
				C297.108,199.819,303.766,201.365,306.684,205.575z"/>
			<path style="fill:#FFFFFF;" d="M292.5,198.535c0,0-12.365,5.661-14.728,11.758c-2.363,6.097-15.914-11.074-10.118-29.382
				c0,0,3.03-2.643,6.132-2.235C273.785,178.676,276.855,191.204,292.5,198.535z"/>
			<path style="fill:#E0E9E9;" d="M278.294,205.575c-3.087,5.018-13.292-6.241-11.254-22.338
				c-4.024,17.397,8.447,32.894,10.709,27.056c2.363-6.097,14.728-11.758,14.728-11.758c-0.081-0.038-0.15-0.08-0.23-0.118
				C287.87,199.819,281.119,200.984,278.294,205.575z"/>
			<path style="fill:#FFFFFF;" d="M314.973,150.562c-4.154,1.957-6.242-0.741-11.391-2.338c-3.967-1.231-6.401,1.014-7.313,2.112
				c-1.226-0.73-4.271-2.032-7.597,0.455c-4.317,3.228-5.383,6.469-9.953,6.013c-4.569-0.455-2.449,5.199,5.615,4.862
				c7.161-0.3,11.892-1.625,13.1-4.567c2.123,2.368,7.024,2.035,13.873-0.078C319.02,154.642,319.127,148.604,314.973,150.562z"/>
			<path style="fill:#E77E68;" d="M296.011,148.826c-2.564,0.441-4.95-0.645-5.924-2.501c-0.058,0.405-0.077,0.815-0.006,1.231
				c0.439,2.548,3.278,4.186,6.341,3.659c3.063-0.527,5.191-3.021,4.753-5.569c-0.072-0.416-0.227-0.797-0.417-1.158
				C300.46,146.563,298.574,148.385,296.011,148.826z"/>
			<path style="fill:#FC9F93;" d="M316.578,139.929c0.424,2.461-1.228,4.799-3.689,5.223c-2.461,0.424-4.799-1.228-5.223-3.689
				c-0.424-2.461,1.228-4.799,3.689-5.223C313.815,135.816,316.154,137.468,316.578,139.929z"/>
			<path style="fill:#FC9F93;" d="M282.778,145.749c0.424,2.461-1.228,4.8-3.688,5.223c-2.461,0.424-4.8-1.228-5.224-3.688
				c-0.423-2.461,1.228-4.8,3.689-5.223C280.016,141.636,282.354,143.288,282.778,145.749z"/>
			<g>
				<path style="opacity:0.12;fill:#EFF5F5;" d="M316.301,130.854c0.643,3.737-2.99,7.481-8.115,8.363
					c-5.125,0.883-9.801-1.431-10.445-5.168c-0.643-3.737,2.99-7.481,8.115-8.363C310.982,124.804,315.658,127.117,316.301,130.854z
					"/>
				<path style="opacity:0.12;fill:#EFF5F5;" d="M289.86,135.407c0.643,3.737-2.99,7.481-8.115,8.363
					c-5.125,0.883-9.801-1.431-10.445-5.168c-0.643-3.737,2.99-7.481,8.115-8.363C284.541,129.356,289.217,131.67,289.86,135.407z"
					/>
				<path style="opacity:0.23;fill:#EFF5F5;" d="M272.311,140.761c0.524,0.615,1.163,1.104,1.972,1.619
					c1.403-2.765,4.924-9.921,6.258-12.649c-0.001,0-0.002,0-0.002,0c-0.57,0.058-1.136,0.143-1.708,0.189
					c-0.138,0.011-0.276,0.021-0.413,0.043c-0.069,0.01-0.137,0.025-0.205,0.04c-0.02,0.008-0.028,0.012-0.071,0.028
					c-0.16,0.078-0.322,0.15-0.478,0.235c-0.005,0.003-0.025,0.014-0.037,0.021c-1.44,2.873-3.934,7.691-5.398,10.371
					C272.256,140.693,272.283,140.728,272.311,140.761z"/>
				<path style="opacity:0.23;fill:#EFF5F5;" d="M275.946,143.328c0.095,0.05,0.402,0.206,0.587,0.295
					c0.12,0.057,0.231,0.089,0.349,0.142c0.581-0.009,1.17-0.05,1.774-0.154c0.102-0.018,0.194-0.054,0.295-0.074
					c2.11-4.18,4.267-8.336,5.776-12.778c-0.487-0.36-1.02-0.683-1.607-0.949c-0.409,0.828-5.859,10.639-7.374,13.412
					C275.813,143.257,275.879,143.293,275.946,143.328z"/>
				<path style="opacity:0.23;fill:#EFF5F5;" d="M297.972,136.342c0.524,0.615,1.164,1.104,1.972,1.619
					c1.403-2.764,4.924-9.921,6.258-12.649c-0.001,0-0.001,0-0.002,0c-0.57,0.058-1.136,0.143-1.708,0.189
					c-0.138,0.011-0.276,0.022-0.413,0.044c-0.069,0.01-0.137,0.025-0.205,0.04c-0.02,0.008-0.028,0.012-0.071,0.028
					c-0.16,0.078-0.322,0.151-0.478,0.235c-0.005,0.003-0.025,0.014-0.037,0.021c-1.44,2.873-3.934,7.69-5.398,10.371
					C297.917,136.275,297.944,136.309,297.972,136.342z"/>
				<path style="opacity:0.23;fill:#EFF5F5;" d="M301.608,138.909c0.094,0.049,0.402,0.206,0.587,0.295
					c0.12,0.058,0.232,0.089,0.349,0.142c0.581-0.009,1.17-0.05,1.774-0.154c0.102-0.018,0.193-0.054,0.295-0.074
					c2.11-4.18,4.267-8.336,5.776-12.778c-0.488-0.36-1.02-0.683-1.607-0.949c-0.409,0.828-5.859,10.639-7.374,13.412
					C301.474,138.839,301.541,138.874,301.608,138.909z"/>
				<g>
					<g>
						<path style="fill:#0C0C0C;" d="M306.128,140.731c-1.917,0-3.756-0.417-5.331-1.226c-2.3-1.182-3.777-3.052-4.157-5.266
							c-0.768-4.457,3.281-8.889,9.026-9.877c2.735-0.471,5.45-0.106,7.654,1.025c2.3,1.182,3.777,3.052,4.157,5.266l0,0
							c0.768,4.457-3.282,8.888-9.027,9.878C307.671,140.664,306.893,140.731,306.128,140.731z M307.991,126.183
							c-0.651,0-1.315,0.057-1.983,0.171c-4.645,0.801-7.954,4.183-7.376,7.542c0.272,1.573,1.368,2.925,3.088,3.809
							c1.819,0.934,4.083,1.226,6.386,0.832c4.646-0.8,7.955-4.183,7.377-7.541l0,0c-0.272-1.573-1.368-2.925-3.088-3.809
							C311.105,126.523,309.587,126.183,307.991,126.183z"/>
					</g>
				</g>
				<g>
					<g>
						<path style="fill:#0C0C0C;" d="M279.764,145.27c-1.918,0-3.756-0.417-5.331-1.226c-2.3-1.182-3.776-3.051-4.157-5.265
							c-0.382-2.214,0.384-4.47,2.157-6.351c1.699-1.805,4.139-3.057,6.87-3.526c2.729-0.475,5.447-0.109,7.653,1.025
							c2.3,1.182,3.776,3.051,4.157,5.265c0.382,2.214-0.384,4.47-2.157,6.351c-1.699,1.805-4.139,3.057-6.87,3.526
							C281.306,145.203,280.53,145.27,279.764,145.27z M281.629,130.723c-0.652,0-1.315,0.057-1.983,0.172
							c-2.303,0.396-4.341,1.434-5.74,2.92c-1.326,1.408-1.908,3.05-1.637,4.622c0.272,1.572,1.368,2.925,3.088,3.808
							c1.818,0.935,4.086,1.229,6.386,0.832c2.303-0.396,4.341-1.434,5.74-2.92c1.326-1.408,1.908-3.05,1.637-4.622
							c-0.272-1.572-1.368-2.925-3.088-3.808C284.741,131.064,283.224,130.723,281.629,130.723z"/>
					</g>
				</g>
				<g>
					<g>
						<path style="fill:#0C0C0C;" d="M290.732,134.577l-1.895-0.706c0.039-0.109,1.007-2.661,4.315-3.23
							c3.299-0.58,5.075,1.511,5.149,1.599l-1.558,1.291l0.779-0.646l-0.77,0.654c-0.045-0.052-1.134-1.269-3.256-0.906
							C291.377,132.999,290.757,134.513,290.732,134.577z"/>
					</g>
				</g>
				<g>
					<g>
						<path style="fill:#0C0C0C;" d="M316.477,129.981l-1.158-1.659c0.18-0.125,4.455-3.089,9.056-4.725l0.677,1.906
							C320.713,127.045,316.519,129.951,316.477,129.981z"/>
					</g>
				</g>
				<g>
					<g>
						<path style="fill:#0C0C0C;" d="M270.574,137.884c-0.049-0.014-4.973-1.35-9.581-1.353l0.002-2.022
							c4.885,0.003,9.904,1.367,10.115,1.425L270.574,137.884z"/>
					</g>
				</g>
			</g>
			<path style="fill:#E77E68;" d="M298.742,110.888c-2.748,0.002-5.508,0.06-8.256,0.343c-3.351,0.345-6.45,1.251-9.649,2.18
				c2.196-1.88,5.876-2.354,8.794-2.749C292.681,110.249,295.799,110.314,298.742,110.888z"/>
			<path style="fill:#E77E68;" d="M300.268,113.272c-1.655,0.119-3.309,0.238-4.964,0.357c-1.476,0.106-2.957,0.213-4.424,0.44
				c-3.619,0.56-6.947,1.845-10.314,3.043c4.475-2.458,9.61-3.996,14.962-4.115C297.131,112.962,298.723,113.051,300.268,113.272z"
				/>
			<path style="fill:#E77E68;" d="M291.093,116.173c2.756-0.351,5.535-0.322,8.293-0.246c-5.831,0.642-11.661,1.352-17.143,3.374
				C284.871,117.586,287.819,116.59,291.093,116.173z"/>
		</g>
		<path style="fill:#0C0C0C;" d="M294.235,449.995c-0.147-6.312-0.269-10.964-0.356-13.163c-0.209-5.257-0.612-37.059-1.089-51.6
			c-0.477,14.54-0.88,46.343-1.089,51.6c-0.087,2.199-0.209,6.851-0.356,13.163H226.91c-3.413-45.019-3.265-78.274-2.868-85.583
			c0.93-17.136,11.985-16.901,14.531-33.879h108.437c2.545,16.978,13.601,16.743,14.531,33.879
			c0.397,7.309,0.544,40.565-2.868,85.583H294.235z"/>
		<path d="M345.007,449.995c0.017-0.23,0.042-0.462,0.054-0.692c0.437-8.457,1.278-17.205,0.175-25.634
			c-1.734-13.254,5.775-36.606-5.827-43.521c-3.525-2.102-13.476,1.474-22.405,4.318c-7.609,2.423-12.721,9.459-12.892,17.443
			c-0.208,9.738-0.757,19.484-1.145,29.157c-0.253,6.306-0.469,12.617-0.616,18.93h-8.116c-0.147-6.312-0.269-10.964-0.356-13.163
			c-0.209-5.257-0.612-37.059-1.089-51.6c-0.477,14.54-0.88,46.343-1.089,51.6c-0.087,2.199-0.209,6.851-0.356,13.163h-8.639
			c-0.279-5.442-0.766-10.887-1.562-16.337c-1.365-9.335-0.063-24.922-0.858-34.342c-0.078-0.926-0.144-1.853-0.198-2.782
			c-0.381-6.567-5.239-11.971-11.718-13.112c-11.827-2.083-25.478-5.175-29.826-0.14c-8.992,10.414-3.22,35.491-2.684,48.915
			c0.256,6.413,0.993,11.878,2.039,17.799h-10.99c-3.413-45.019-3.265-78.274-2.868-85.583c0.93-17.136,11.985-16.901,14.531-33.879
			h108.437c2.545,16.978,13.601,16.743,14.531,33.879c0.397,7.309,0.544,40.565-2.868,85.583H345.007z"/>
		<g>
			<g>
				<g>
					<path style="fill:#CF3F36;" d="M231.074,208.77l60.752,7.88l60.752-7.88c8.558,28.69,33.233,95.549,8.77,157.606
						c0,0-25.73,13.08-69.522,12.442c-39.605,1.485-69.522-12.442-69.522-12.442C197.841,304.319,222.517,237.46,231.074,208.77z"/>
				</g>
				<g>
					<path style="fill:#B22B25;" d="M211.772,288.278c0.01-0.455,0.044-0.913,0.116-1.378c0.402-2.612,1.312-5.159,1.868-7.745
						c0.573-2.665,1.036-5.352,1.465-8.044c1.69-10.607,2.837-21.66,8.033-31.262c-0.091,0.169,1.829,2.597,2.028,2.908
						c0.659,1.03,1.277,2.087,1.854,3.166c1.152,2.153,2.142,4.391,2.992,6.679c1.709,4.596,2.857,9.384,3.704,14.208
						c0.991,5.642,1.84,11.199,1.889,16.893c0.026,3.015,0.079,6.031,0.206,9.043c0.254,6.007,0.806,12.017,2.031,17.91
						c2.18,10.486,6.672,20.771,14.425,28.16c2.572,2.452,5.477,4.545,8.585,6.264c4.339,2.399,9.581,4.665,14.556,5.059
						c6.21,0.491,12.283,1.09,18.532,0.857c5.888-0.219,11.758-0.903,17.538-2.044c2.89-0.57,5.757-1.255,8.593-2.053
						c1.418-0.399,2.828-0.827,4.228-1.282c3.364-1.095,6.249-3.305,8.96-5.552c5.666-4.697,10.217-10.695,13.351-17.346
						c2.132-4.526,3.613-9.362,4.348-14.311c0.184-1.237,0.321-2.48,0.41-3.728c0.082-1.144-0.097-2.511,0.242-3.605
						c3.395-10.937,2.832-22.794,6.836-33.597c2.007-5.414,4.393-10.658,6.206-16.023c7.65,32.545,12.42,74.734-3.422,114.922
						c0,0-25.73,13.08-69.522,12.442c-39.605,1.485-69.522-12.442-69.522-12.442c-0.278-0.13-0.614-1.583-0.732-1.896
						c-0.26-0.688-0.515-1.379-0.764-2.072c-0.495-1.376-0.969-2.76-1.422-4.151c-0.877-2.693-1.674-5.412-2.392-8.152
						c-1.424-5.43-2.538-10.94-3.363-16.492c-1.675-11.277-2.151-22.713-1.685-34.099c0.103-2.513,0.346-5.022,0.09-7.533
						C211.908,290.726,211.746,289.514,211.772,288.278z"/>
				</g>
			</g>
		</g>
		<g>
			<path style="fill:#D07259;" d="M190.448,406.995c5,0.561,12.806,3.01,15.051,3.929c2.245,0.918,7.245-2.347,9.031-3.265
				c1.786-0.918,2.755,3.673,1.633,6.378c-1.122,2.704-5.306,3.878-6.837,5.816c-0.925,1.171-1.138,3.372-1.165,4.938h0.034v1.658
				c0.004,0.053,0.009,0.129,0.009,0.129h-0.009v23.419h-5.518v-25.098c-0.176-2.216-0.85-6.162-3.453-8.872
				c-3.775-3.928-9.592-3.673-11.99-2.653c-2.398,1.02-1.837,4.541-3.214,5.306c-1.378,0.765-3.214,0.561-3.571-4.438
				C180.09,409.241,185.448,406.434,190.448,406.995z"/>
			<path style="fill:#D7CDCC;" d="M216.499,412.85c-0.077,0.415-0.185,0.818-0.337,1.185c-1.122,2.704-5.306,3.878-6.837,5.816
				c-0.925,1.171-1.138,3.372-1.165,4.938h0.034v1.658c0.004,0.053,0.009,0.129,0,0.129v23.419h-2.148v-24.113
				c0-0.136,0.001-0.272-0.001-0.408c-0.002-0.166-0.018-0.327-0.042-0.491c-0.007-0.047-0.013-0.094-0.019-0.14
				c-0.024-0.205-0.034-0.408-0.034-0.617c0.002-0.513,0.03-1.026,0.095-1.534c0.129-1.002,0.407-1.994,0.917-2.872
				c0.544-0.936,1.325-1.707,2.097-2.465c1.417-1.393,2.833-2.785,4.249-4.178c0.089-0.088,0.178-0.176,0.266-0.264
				c0.35-0.353,0.689-0.726,0.936-1.16c0.103-0.18,0.157-0.413,0.303-0.562c0.15-0.153,0.266-0.323,0.389-0.5
				c0.207-0.297,0.407-0.599,0.599-0.906c0.089-0.142,0.176-0.285,0.261-0.428c0.032-0.053,0.228-0.309,0.21-0.361
				c0,0.001,0.001,0.001,0.001,0.002c0.115,0.338,0.202,0.721,0.264,1.124c0.003,0.022,0.007,0.044,0.01,0.066
				c0.052,0.362,0.073,0.743,0.077,1.127c0,0.074,0.005,0.145,0.004,0.219c-0.006,0.338-0.043,0.675-0.09,1.008
				C216.522,412.644,216.518,412.75,216.499,412.85z"/>
			<path style="fill:#D7CDCC;" d="M184.185,415.732c-0.239,0.227-0.56,0.384-0.894,0.379c-0.15-0.002-0.291-0.04-0.441-0.041
				c-0.166-0.001-0.314-0.087-0.419-0.214c-0.109-0.132-0.169-0.298-0.219-0.462c-0.124-0.408-0.191-0.834-0.202-1.26
				c-0.018-0.647,0.091-1.297,0.319-1.902c0.111-0.295,0.244-0.613,0.431-0.869c0.037-0.05,0.082-0.082,0.125-0.126
				c0.154-0.16,0.26-0.373,0.4-0.547c0.479-0.6,1.078-1.103,1.746-1.482c0.127-0.072,0.255-0.139,0.386-0.201
				c0.646-0.307,1.339-0.508,2.045-0.616c0.684-0.105,1.379-0.125,2.069-0.079c0.346,0.023,0.691,0.063,1.033,0.118
				c0.141,0.023,0.263,0.043,0.404,0.025c0.062-0.008,0.119-0.014,0.182-0.011c0.405,0.02,0.815,0.094,1.215,0.154
				c1.428,0.215,2.836,0.543,4.228,0.923c1.404,0.384,2.793,0.822,4.181,1.26c0.311,0.098,0.631,0.183,0.936,0.297
				c0.067,0.025,0.132,0.053,0.193,0.09c0.087,0.054,0.159,0.128,0.243,0.188c0.269,0.193,0.623,0.297,0.933,0.405
				c0.684,0.24,1.394,0.409,2.113,0.502c0.288,0.037,0.577,0.063,0.867,0.076c0.419,0.019,0.84,0.012,1.257-0.041
				c0.1-0.012,0.197-0.029,0.298-0.027c0.108,0.002,0.209,0.018,0.316-0.003c0.368-0.071,0.736-0.226,1.093-0.339
				c0.736-0.232,1.473-0.464,2.209-0.695c0.365-0.115,0.744-0.231,1.124-0.188c0.38,0.043,0.765,0.292,0.841,0.668
				c0.096,0.473-0.307,0.889-0.683,1.191c-0.505,0.405-1.029,0.786-1.572,1.14c-1.032,0.674-2.13,1.254-3.086,2.03
				c-1.068,0.867-1.942,1.971-2.54,3.209c-0.174,0.361-0.443,0.801-0.838,0.734c-0.144-0.025-0.266-0.117-0.374-0.215
				c-0.492-0.445-0.817-1.036-1.104-1.625c-0.29-0.595-0.687-1.176-1.075-1.716c-0.164-0.227-0.335-0.448-0.515-0.662
				c-0.197-0.234-0.405-0.459-0.626-0.671c-0.119-0.115-0.242-0.258-0.393-0.334c-0.121-0.062-0.228-0.109-0.34-0.19
				c-1.116-0.803-2.346-1.441-3.624-1.945c-0.898-0.354-1.821-0.642-2.756-0.878c-1.562-0.394-3.198-0.646-4.781-0.35
				c-1.584,0.296-3.116,1.215-3.823,2.662c-0.214,0.438-0.35,0.915-0.62,1.321C184.373,415.531,184.285,415.638,184.185,415.732z"/>
		</g>
		<g>
			<path style="fill:#FCAD97;" d="M372.572,179.909c0,0-7.832-12.591-9.549-15.638c-1.717-3.046-8.33-13.208-9.364-17.635
				c-1.035-4.427-3.635-15.143-4.748-15.913c-1.114-0.769-8.593-7.161-9.612-8.144c-1.02-0.983-8.871-4.152-10.913-4.488
				c-2.042-0.337-8.262-0.93-8.374,0.892c-0.113,1.822,0.957,1.97,4.838,2.329c0,0-5.977-1.083-8.067-0.69
				c-2.091,0.393-2.04,3.451-0.644,3.359c0,0-2.463,3.467,2.057,3.83c0,0-0.484,2.232,2.389,2.386
				c2.873,0.154,4.354,2.753,6.482,3.764c2.128,1.011,4.479,4.412,4.99,6.088c0.511,1.676,3.275,10.224,4.87,14.591
				c1.595,4.368,4.426,6.184,7.536,8.581c3.11,2.397,7.702,17.999,9.03,22.86C354.82,190.943,373.493,193.971,372.572,179.909z"/>
			<path style="fill:#E77E68;" d="M337.621,152.805c1.577,4.099,2.535,4.775,4.563,6.465c1.977,1.648,4.994,2.092,6.669,4.032
				c1.59,1.842,3.794,7.481,5.545,10.073c-0.654,0.471-1.286,0.972-1.882,1.475c-0.624,0.527-1.287,1.109-1.895,1.74
				c-1.906-5.764-4.296-11.931-6.158-13.367c-3.11-2.398-5.941-4.214-7.536-8.581c-0.983-2.691-2.408-6.965-3.478-10.245
				C335.237,146.732,336.559,150.045,337.621,152.805z"/>
			<path style="fill:#FED7CC;" d="M323.557,117.729c0.179,0.58,0.332,1.526-0.554,1.63c-1.258,0.148-2.653-0.232-2.735-0.904
				C320.776,117.905,322.073,117.753,323.557,117.729z"/>
			<path style="fill:#FED7CC;" d="M316.782,120.622c0.435-0.082,1.059-0.089,1.742-0.066c0.036,0.063,0.082,0.115,0.096,0.201
				c0.078,0.735-0.201,1.412-1.087,1.516c-1.001,0.118-1.744,0.154-2.282-0.215C315.441,121.399,315.921,120.784,316.782,120.622z"
				/>
			<path style="fill:#FED7CC;" d="M318.859,123.724c0.036,0.063,0.082,0.116,0.096,0.202c0.178,0.58-0.007,1.477-0.893,1.581
				c-1.001,0.118-1.938,0.089-2.476-0.28c0.006-0.02-0.006-0.034-0.003-0.054c0.189-0.663,0.555-1.192,0.555-1.192
				C316.092,123.984,317.092,123.56,318.859,123.724z"/>
			<path style="fill:#FED7CC;" d="M320.936,127.768c0.179,0.58-0.843,1.206-2.337,1.158c-0.111-0.003-0.191,0.016-0.282,0.028
				c-0.242-0.58-0.122-1.143-0.122-1.143c-0.012-0.001-0.017-0.005-0.029-0.006c0.1-0.051,1.039-0.39,2.674-0.239
				C320.875,127.63,320.922,127.682,320.936,127.768z"/>
			<path style="fill:#E77E68;" d="M341.513,127.856c0,0-5.156-3.697-6.235-4.63c-1.08-0.933-10.428-1.914-10.428-1.914
				s8.131,1.535,9.502,2.328C335.721,124.433,340.055,127.203,341.513,127.856z"/>
			<path style="fill:#E77E68;" d="M338.671,129.759c0,0-5.295-4.587-6.585-5.045c-1.29-0.458-12.93-1.75-15.948-0.733
				c0,0,5.176,0.564,6.601,0.548c1.425-0.016,8.125,0.381,8.756,0.772C332.125,125.692,337.313,128.837,338.671,129.759z"/>
			<path style="fill:#E77E68;" d="M336.875,133.98c0,0-4.753-3.845-5.313-4.6c-0.56-0.755-7.361-2.827-8.999-2.942
				c-1.638-0.114-4.093,0.806-4.367,1.373c0,0,4.027-1.109,5.648-0.626c1.621,0.483,6.172,1.311,7.255,2.41
				C332.181,130.695,335.24,133.643,336.875,133.98z"/>
		</g>
		<path style="fill:#CF3F36;" d="M406.367,288.116c-5.349,3.545-16.76,1.497-18.428,0.15c-16.919-13.669-26.853-63.785-31.45-76.97
			c-2.37-6.799-4.763-13.59-7.225-20.356c-1.783-4.901-3.576-9.805-5.566-14.627l25.848-12.727
			c9.895,17.395,35.111,64.024,44.229,89.959c1.216,3.46,4.488,13.273,2.565,20.895C415.135,279.212,411.975,284.4,406.367,288.116z
			"/>
		<g>
			<path style="fill:#FCAD97;" d="M186.388,404.235c0.704-1.929,3.876-8.066,4.577-10.067c0.701-2.001,1.486-3.716,1.259-5.934
				c-0.227-2.218-0.314-2.576-0.749-3.104c-0.434-0.527-0.887-2.515-0.204-4.303c0.632-1.657,2.768-25.224,3.459-33.984
				l20.017,3.134c-1.275,7.472-5.099,26.564-5.827,29.384c-0.876,3.395-1.246,8.506,0.687,14.323
				c1.932,5.816,2.941,8.358,3.378,11.068c0.192,1.188,0.505,2.268,0.837,3.329c-2.139,1.318-4.711,2.366-4.784,2.36
				c-0.016-0.03-0.033-0.06-0.055-0.093c-0.049-0.074-0.115-0.142-0.18-0.199c-0.07-0.061-0.155-0.109-0.236-0.153
				c-0.027-0.014-0.054-0.026-0.082-0.035c-0.27-0.093-0.501-0.113-0.787-0.105c-0.159,0.004-0.317,0.027-0.473,0.058
				c-0.178,0.036-0.367,0.076-0.549,0.134c-0.392,0.072-0.739,0.221-1.027,0.441c-0.127,0.078-0.253,0.169-0.378,0.275
				c-2.142,1.821-2.231,4.279-2.507,6.896c-0.111,1.054-0.215,2.067-0.231,3.053c-0.091,0.704-0.146,1.414-0.136,2.156
				c-0.109-0.006-0.214-0.018-0.313-0.038c-1.697-0.352-3.445-4.502-4.458-5.738c-0.285-0.347-0.642-0.628-0.936-0.945
				c-0.396-0.427-1.16-0.014-1.653-0.029c-0.686-0.021-1.32-0.295-2.277-0.789c-0.957-0.494-1.415-2.368-1.501-3.099
				c-0.087-0.731-0.64-0.491-1.36-0.661c-0.72-0.17-2.286-1.773-2.2-2.506c0.086-0.733,0.121-0.957-0.423-1.33
				C186.731,407.361,185.684,406.164,186.388,404.235z"/>
			<path style="fill:#E77E68;" d="M201.706,417.946c0.317-1.226,0.001-2.586,0.758-3.635c0.329-0.456,0.759-0.988,1.246-1.475
				c-0.66,1.449-0.764,3.102-0.945,4.826c-0.111,1.054-0.215,2.067-0.231,3.053c-0.091,0.704-0.146,1.414-0.136,2.156
				c-0.109-0.006-0.214-0.018-0.313-0.038c-0.756-0.157-1.522-1.07-2.23-2.142C200.79,420.073,201.408,419.1,201.706,417.946z"/>
			<path style="fill:#E77E68;" d="M201.363,419.659c0.266,0.773,0.686,1.652,1.063,2.378c-0.023,0.276-0.032,0.553-0.028,0.83
				c-0.108-0.006-0.215-0.015-0.313-0.035c-1.223-0.254-2.472-2.48-3.454-4.166C199.361,419.499,200.367,419.87,201.363,419.659z"/>
			<path style="fill:#E77E68;" d="M189.899,411.57c-0.064-0.015-0.136-0.045-0.211-0.081c0.312-0.463,0.649-0.979,0.871-1.642
				c0.36-1.068,0.691-2.288,0.889-2.479c0.171-0.165,0.247,0.488,0.087,2.025c-0.119,1.133-0.185,2.224-0.223,3.177
				c-0.024-0.128-0.042-0.243-0.053-0.339C191.173,411.5,190.62,411.74,189.899,411.57z"/>
			<path style="fill:#E77E68;" d="M197.549,413.575c0.04,1.231,0.095,2.484,0.197,3.677c-0.04-0.054-0.081-0.112-0.119-0.158
				c-0.285-0.348-0.643-0.628-0.937-0.945c-0.164-0.177-0.393-0.207-0.639-0.185c0.078-0.392,0.036-1.775,0.08-2.128
				c0.265-2.132,0.11-4.266,0.342-4.9C196.706,408.302,197.437,410.14,197.549,413.575z"/>
			<path style="fill:#E77E68;" d="M187.276,407.734c-0.121-0.083-0.266-0.208-0.412-0.371c0.209-0.249,1.685-2.111,1.848-2.169
				c0.247-0.087-0.755,2.244-0.972,3.155C187.708,408.111,187.587,407.947,187.276,407.734z"/>
		</g>
		<path style="fill:#CF3F36;" d="M239.275,192.05c8.822,19.882-19.679,146.533-21.602,160.363
			c-0.992,7.132-1.96,11.069-2.856,18.214c-0.648,5.175-1.29,10.357-1.718,15.556l-28.808-0.465
			c-0.462-10.585,1.108-80.383,6.357-106.862c7.587-38.275,9.162-41.87,12.822-54.279c2.479-8.405,7.401-14.753,13.04-20.23
			C223.539,197.522,239.275,192.05,239.275,192.05z"/>
	</g>
</g>
<g>
	<g>
		<path style="fill:#FCAD97;" d="M158.408,324.031c-0.489-3.545-1.262-8.218-1.057-12.449c-0.103,0.016-0.206,0.035-0.309,0.048
			c-7.202,0.944-29.998-7.227-31.33-9.63c-0.146-0.262-2.007-4.632-1.493-4.779c-0.001,0-28.797-2.017-28.797-2.017
			s-0.905,11.794,1.645,18.093c0.412,1.017,1.576,3.919,3.944,6.487c1.95,2.114,7.403,4.681,10.193,5.489
			c6.643,1.924,14.674,2.17,23.437,1.751c8.821-0.421,17.646-1.509,23.885-2.105C158.488,324.618,158.448,324.321,158.408,324.031z"
			/>
		<path style="fill:#E77E68;" d="M109.869,296.216c-2.444,0.699-4.611-0.557-7.055,0.142c-1.001,0.286-2.921-0.507-4.601-0.958
			c-1.064-0.075-1.867-0.131-2.333-0.164c-0.155,0.054-0.317,0.099-0.43,0.207c-0.018,0.02-0.029,0.04-0.047,0.06
			c-0.116,1.793-0.657,12.058,1.665,17.794c0.238,0.587,0.738,1.812,1.566,3.231c3.032-4.076,8.141-7.832,10.807-9.242
			c4.693-2.483,11.226-4.096,16.785-4.756c-0.251-0.197-0.428-0.375-0.514-0.529c-0.146-0.262-2.007-4.632-1.493-4.779
			c-1.624,0.232-3.497-0.031-5.42-0.38C116.242,296.662,113.059,296.439,109.869,296.216z"/>
	</g>
	<g>
		<path style="fill:#6C6FA2;" d="M93.561,296.652l33.418,2.849c0,0,4.898-16.513,7.324-39.681
			c2.426-23.168,0.977-43.173-4.039-43.424C119.884,215.875,105.123,230.966,93.561,296.652z"/>
		<path style="fill:#464A83;" d="M129.333,264.612c-4.456,13.853-6.491,24.001-14.639,33.841l12.285,1.047
			c0,0,4.898-16.513,7.324-39.681c0.345-3.297,1.266-7.087,1.265-10.168c-0.002-4.403-1.088-7.966-1.628-11.74
			C133.169,244.754,131.723,257.183,129.333,264.612z"/>
	</g>
	<g>
		<path style="fill:#FCAD97;" d="M194.145,329.694c1.782-3.153-4.333-6.171-4.842-6.756c-0.508-0.586-3.059-2.722-3.757-3.03
			c-0.698-0.309-1.383-1.722-1.383-1.722c0.375-0.385,1.274-0.28,2.286-0.005c0.043-0.622,0.106-1.242,0.137-1.865
			c0.055-1.145,0.133-2.519,0.133-2.519c-1.983-0.684-5.149-1.976-6.678-2.42c-2.049-0.595-6.881-1.035-7.567-0.918
			c-0.687,0.117-5.134,1.168-6.737,1.242c-2.662,0.123-9.716,0.156-9.716,0.156c-4.38-0.32-7.007,10.199-4.145,12.378
			c2.29,1.743,13.927,0.21,14.67,0.848c0.743,0.639,1.688,3.528,2.425,4.719c0.737,1.191,4.66,4.708,5.421,5.219
			c0.761,0.512,2.369,1.137,3.215,1.33c0.846,0.193,5.086,0.368,6.998,0.053c1.912-0.316,1.729-1.036,1.729-1.036
			s2.384,0.158,4.308-0.095c1.924-0.253,2.295-1.651,2.295-1.651s3.04,0.527,3.283-1.363
			C196.462,330.367,194.145,329.694,194.145,329.694z"/>
		<path style="fill:#E77E68;" d="M186.537,317.011c-2.346-1.392-4.421-2.325-4.421-2.325s2.668,2.043,2.178,2.138
			c-0.491,0.095-4.262-2.479-3.959-1.89c0.303,0.59,3.828,3.251,3.828,3.251c0.375-0.385,1.274-0.28,2.286-0.005
			C186.478,317.79,186.51,317.401,186.537,317.011z"/>
		<path style="fill:#E77E68;" d="M174.645,318.879c0,0,1.546,1.717,2.982,3.137c1.436,1.421,3.412,2.602,4.936,3.467
			c1.523,0.865,8.89,5.673,10.358,5.703c1.468,0.03,1.838-1.235,1.838-1.235l-0.614-0.257c0,0-1.185,0.884-1.884,0.694
			c-0.699-0.19-6.941-4.544-8.354-5.275c-1.413-0.732-2.225-1.099-3.323-2.026C179.485,322.16,175.526,318.897,174.645,318.879z"/>
		<path style="fill:#E77E68;" d="M187.073,331.877c-1.188-0.253-5.545-1.545-6.081-1.741c-0.536-0.195-6.156-4.39-7.371-4.453
			c0,0,6.081,4.566,7.252,4.906c1.17,0.34,10.709,2.919,11.927,3.343c0.097-0.181,0.139-0.312,0.139-0.312s0.065,0.011,0.169,0.023
			C193.082,333.636,188.258,332.129,187.073,331.877z"/>
		<path style="fill:#E77E68;" d="M178.316,333.69c-0.986-0.465-4.992-4.203-6.496-4.343c0,0,5.19,4.426,6.18,4.859
			c0.837,0.366,6.266,1.074,8.3,1.38c0.053-0.128,0.035-0.219,0.035-0.219s0.166,0.011,0.438,0.022
			C186.753,335.385,179.3,334.154,178.316,333.69z"/>
		<path style="fill:#E77E68;" d="M168.267,320.006c-0.053-0.091-0.107-0.182-0.162-0.273c-0.426,0.332,0.101,1.363,0.173,1.753
			c0.077,0.418,0.255,0.901,0.557,1.204c0.648,0.647,1.937,0.673,2.847,0.696c0.54,0.014,1.068,0.096,1.59,0.187
			c0.06-0.563-1.874-1.266-2.343-1.41c-0.856-0.263-1.605-0.156-2.056-1.031C168.676,320.748,168.48,320.375,168.267,320.006z"/>
		<path style="fill:#E77E68;" d="M171.372,316.635c-0.297,0.582,0.543,1.721,0.855,2.123c0.485,0.625,1.112,0.849,1.919,0.847
			c0.24-0.001,0.869,0.056,1.063-0.113c0.342-0.298-0.2-0.929-0.407-1.175c-0.524-0.624-0.982-1.421-1.783-1.774
			c-0.342-0.151-1.369-0.352-1.625,0.05C171.387,316.608,171.379,316.621,171.372,316.635z"/>
		<path style="fill:#E77E68;" d="M170.9,328.142c-0.48-0.393-2.302-1.101-1.718-2.052c0.515-0.84,1.687,0.999,1.907,1.367
			c0.068,0.115,0.298,0.448,0.24,0.573C171.243,328.216,170.938,328.129,170.9,328.142z"/>
		<path style="fill:#E77E68;" d="M184.133,320.45c-0.272,0.064-0.664,0.633-0.8,0.818c-0.484,0.66-0.815,1.447-0.911,2.239
			c0.693-0.263,1.181-0.991,1.48-1.616c0.112-0.235,0.848-1.441,0.281-1.447C184.167,320.444,184.15,320.446,184.133,320.45z"/>
		<path style="fill:#E77E68;" d="M181.544,325.983c-0.079,0.097-0.146,0.198-0.191,0.258c-0.314,0.421-0.624,0.917-0.813,1.402
			c-0.107,0.275-0.476,1.063-0.322,1.344c0.273,0.496,0.966-0.731,1.116-0.948c0.297-0.427,0.766-0.995,0.857-1.503
			c0.042-0.237,0.062-0.839-0.283-0.822C181.784,325.721,181.653,325.849,181.544,325.983z"/>
		<path style="fill:#E77E68;" d="M179.095,331.452c-0.248,0.469-0.399,0.951-0.55,1.472c-0.195,0.673,0.229,0.458,0.577,0.055
			c0.394-0.454,0.751-1.078,0.946-1.632c0.076-0.214,0.212-0.755-0.173-0.8c-0.252-0.03-0.496,0.401-0.607,0.573
			C179.218,331.23,179.153,331.341,179.095,331.452z"/>
		<path style="fill:#E77E68;" d="M175.66,333.336c-0.226,0.282-0.325,0.678-0.444,0.991c-0.022,0.059-0.335,0.976-0.27,0.952
			c0.66-0.249,1.294-1.061,1.477-1.703c0.113-0.394,0.025-0.743-0.457-0.495C175.842,333.145,175.743,333.233,175.66,333.336z"/>
		<path style="fill:#FCE0D1;" d="M191.691,327.542c-0.589,0.172-1.266,1.018-0.981,1.603c0.204,0.42,1.127,0.869,1.584,0.982
			c0.617,0.153,1.192-0.371,1.458-0.878c0.202-0.385,0.291-0.828,0.165-1.137C193.84,327.928,192.721,327.241,191.691,327.542z"/>
		<path style="fill:#FCE0D1;" d="M195.011,330.975c-0.616-0.169-1.232-0.053-1.718,0.371c-0.467,0.407-0.696,1.029-0.229,1.494
			c0.86,0.857,2.384,0.471,2.745-0.656C196.012,331.55,195.655,330.989,195.011,330.975z"/>
		<path style="fill:#FCE0D1;" d="M190.041,333.177c-0.301,0.229-0.75,1.014-0.579,1.377c0.205,0.432,1.032,0.475,1.472,0.441
			c0.461-0.036,1.093-0.239,1.365-0.633c0.445-0.644-0.081-0.703-0.598-0.861C191.154,333.334,190.591,333.276,190.041,333.177z"/>
		<path style="fill:#FCE0D1;" d="M183.659,335.317c-0.201,0.137-0.337,0.615-0.21,0.816c0.099,0.156,0.509,0.231,0.708,0.232
			c0.546,0.002,1.284-0.326,1.612-0.761C185.629,335.222,183.905,335.031,183.659,335.317z"/>
	</g>
</g>
<polygon style="fill:#0C0C0C;" points="480.229,190.647 475.309,196.774 480.655,203.178 471.982,266.683 479.824,281.654 
	491.211,268.109 486.388,203.535 491.805,197.3 487.781,191.29 "/>
<rect x="421.592" y="273.377" transform="matrix(0.8469 -0.5317 0.5317 0.8469 -100.7005 291.8249)" style="fill:#0C0C0C;" width="69.861" height="94.885"/>
<path d="M462.273,303.206c-8.958,15.589-17.087,31.626-25.302,47.614l14.342,22.846l57.119-35.857l-34.466-54.903
	c-0.623,1.139-1.24,2.28-1.859,3.416C468.991,292.045,465.518,297.557,462.273,303.206z"/>
<g>
	<g>
		<path style="fill:#FCAD97;" d="M524.172,289.991c0,0-12.867,5.265-15.796,6.085c-1.764,0.494-6.984,1.02-7.772,1.145
			c-0.789,0.126-5.852,2.278-7.842,3.599c-1.178,0.782-3.317,2.494-5.076,3.851c0.147,0.213,2.428,3.984,2.68,4.352
			c0.206-0.024,0.392-0.008,0.546,0.063c0,0-0.199,1.656-0.836,2.211c-0.637,0.556-2.579,3.594-2.904,4.36
			c-0.326,0.765-5.789,5.948-2.649,8.467c0,0-2.25,1.494-1.262,3.297c0.988,1.803,4.078,0.199,4.078,0.199s0.938,1.265,3.119,0.836
			s4.701-1.431,4.701-1.431s0.078,0.784,2.27,0.422c2.192-0.362,6.716-2.04,7.558-2.533c0.842-0.492,2.343-1.688,2.97-2.468
			c0.627-0.781,3.526-5.685,3.866-7.137c0.34-1.451,0.255-4.673,0.815-5.575c0.53-0.853,17.985-6.709,30.697-17.073
			C548.19,287.09,553.086,278.273,524.172,289.991z"/>
		<path style="fill:#E77E68;" d="M490.638,307.747c-0.223,0.19-0.462,0.381-0.701,0.572c0.133,0.241,0.274,0.478,0.43,0.705
			c0.206-0.024,0.392-0.008,0.546,0.063c0,0,2.796-3.909,2.898-4.606C493.855,304.174,492.64,306.04,490.638,307.747z"/>
		<path style="fill:#E77E68;" d="M501.487,306.406c0,0-1.015,2.264-2.024,4.192c-1.009,1.928-2.696,3.81-4.014,5.214
			c-1.317,1.405-7.449,8.82-9.027,9.37c-1.578,0.551-2.465-0.583-2.465-0.583l0.566-0.475c0,0,1.622,0.463,2.307,0.026
			c0.684-0.438,5.772-7,7.021-8.232c1.25-1.232,1.987-1.887,2.821-3.202C497.506,311.4,500.541,306.737,501.487,306.406z"/>
		<path style="fill:#E77E68;" d="M493.021,323.8c1.189-0.674,5.411-3.509,5.917-3.894c0.505-0.385,4.981-6.569,6.273-7.062
			c0,0-4.832,6.718-5.969,7.473c-1.136,0.754-10.476,6.713-11.632,7.567c-0.175-0.147-0.27-0.263-0.27-0.263
			s-0.066,0.034-0.174,0.083C487.188,327.688,491.834,324.472,493.021,323.8z"/>
		<path style="fill:#E77E68;" d="M503.199,322.509c0.889-0.814,3.792-5.97,5.366-6.642c0,0-3.92,6.262-4.826,7.045
			c-0.766,0.662-6.373,3.293-8.459,4.32c-0.106-0.109-0.121-0.206-0.121-0.206s-0.176,0.069-0.465,0.177
			C494.713,327.192,502.312,323.321,503.199,322.509z"/>
		<path style="fill:#E77E68;" d="M508.827,305.272c0.022-0.11,0.046-0.22,0.071-0.33c0.589,0.18,0.414,1.397,0.486,1.813
			c0.077,0.445,0.07,0.991-0.142,1.4c-0.453,0.876-1.839,1.358-2.816,1.705c-0.579,0.205-1.12,0.474-1.65,0.75
			c-0.281-0.541,1.543-1.929,1.995-2.24c0.826-0.567,1.678-0.725,1.831-1.759C508.669,306.159,508.738,305.717,508.827,305.272z"/>
		<path style="fill:#E77E68;" d="M504.17,303.004c0.545,0.477,0.073,1.912-0.111,2.425c-0.285,0.796-0.878,1.243-1.753,1.527
			c-0.26,0.085-0.92,0.364-1.195,0.264c-0.484-0.177-0.14-0.999-0.011-1.318c0.328-0.81,0.518-1.768,1.25-2.405
			c0.312-0.272,1.347-0.837,1.778-0.525C504.144,302.982,504.157,302.993,504.17,303.004z"/>
		<path style="fill:#E77E68;" d="M509.1,314.336c0.368-0.563,2.069-1.916,1.072-2.66c-0.88-0.657-1.444,1.596-1.54,2.041
			c-0.03,0.139-0.15,0.554-0.04,0.658C508.757,314.532,509.054,314.337,509.1,314.336z"/>
		<path style="fill:#E77E68;" d="M491.816,311.339c0.32-0.032,0.963,0.397,1.18,0.534c0.777,0.487,1.438,1.157,1.846,1.915
			c-0.851-0.017-1.66-0.572-2.223-1.091c-0.212-0.195-1.472-1.14-0.86-1.346C491.777,311.345,491.796,311.341,491.816,311.339z"/>
		<path style="fill:#E77E68;" d="M496.745,315.951c0.123,0.069,0.234,0.146,0.306,0.19c0.501,0.31,1.028,0.695,1.419,1.112
			c0.222,0.237,0.924,0.893,0.864,1.23c-0.105,0.593-1.327-0.389-1.572-0.552c-0.486-0.322-1.211-0.723-1.505-1.199
			c-0.137-0.221-0.389-0.816-0.009-0.922C496.384,315.773,496.575,315.855,496.745,315.951z"/>
		<path style="fill:#E77E68;" d="M501.496,320.548c0.449,0.381,0.797,0.809,1.161,1.277c0.47,0.603-0.072,0.538-0.604,0.26
			c-0.601-0.314-1.227-0.811-1.651-1.296c-0.164-0.188-0.519-0.68-0.12-0.861c0.262-0.119,0.691,0.225,0.877,0.357
			C501.279,320.37,501.391,320.458,501.496,320.548z"/>
		<path style="fill:#E77E68;" d="M505.939,321.214c0.353,0.202,0.612,0.562,0.861,0.833c0.047,0.051,0.737,0.857,0.658,0.856
			c-0.81-0.015-1.808-0.603-2.254-1.178c-0.273-0.354-0.312-0.733,0.305-0.657C505.669,321.087,505.81,321.14,505.939,321.214z"/>
		<path style="fill:#F1C7BF;" d="M486.355,321.103c0.703-0.037,1.761,0.568,1.678,1.254c-0.06,0.492-0.887,1.268-1.338,1.543
			c-0.609,0.371-1.433,0.052-1.915-0.36c-0.367-0.313-0.633-0.725-0.615-1.078C484.176,322.251,485.124,321.168,486.355,321.103z"/>
		<path style="fill:#F1C7BF;" d="M484.077,325.712c0.602-0.387,1.314-0.489,2.003-0.238c0.662,0.241,1.149,0.782,0.822,1.412
			c-0.602,1.161-2.4,1.316-3.224,0.317C483.214,326.64,483.386,325.954,484.077,325.712z"/>
		<path style="fill:#F1C7BF;" d="M490.305,326.151c0.414,0.122,1.202,0.748,1.155,1.171c-0.056,0.504-0.934,0.841-1.424,0.963
			c-0.513,0.128-1.275,0.149-1.722-0.149c-0.729-0.486-0.182-0.731,0.317-1.072C489.161,326.703,489.748,326.444,490.305,326.151z"
			/>
		<path style="fill:#F1C7BF;" d="M498.038,326.028c0.27,0.066,0.602,0.494,0.541,0.741c-0.047,0.191-0.462,0.411-0.677,0.483
			c-0.591,0.196-1.515,0.129-2.038-0.189C495.868,326.631,497.662,325.83,498.038,326.028z"/>
	</g>
	<path style="fill:#BACDC9;" d="M585.51,264.039c-4.279-15.764-8.129-19.878-18.081-37.876
		c-23.466-42.436-35.684-38.95-39.664-38.938c-5.224,0.017-7.213,13.965-2.293,31.838c3.134,11.386,10.327,24.612,17.573,33.77
		c3.004,3.797,7.097,10.803,3.22,13.851c-11.979,9.418-36.369,27.426-37.246,27.83l9.044,14.81
		c4.533-1.982,49.603-17.624,59.848-27.063c4.075-3.754,6.684-7.243,7.484-10.636C586.076,268.737,585.754,264.939,585.51,264.039z"
		/>
	<path style="fill:#7FA2A4;" d="M544.629,273.391c0.678-0.297,1.529-0.54,2.134-0.131c0.258,0.174,0.421,0.439,0.577,0.697
		c1.343,2.218,2.687,4.435,4.03,6.653c-0.815-2.608-1.629-5.216-2.444-7.824c-0.234-0.749-0.458-1.594-0.042-2.273
		c0.291-0.474,0.844-0.763,1.404-0.936c2.76-0.852,5.649,0.592,8.455,1.305c2.756,0.701,5.72,0.688,8.468-0.037
		c-3.654-0.885-7.307-1.77-10.96-2.655c-1.267-0.307-2.68-0.717-3.275-1.794c-0.233-0.421-0.289-0.98,0.052-1.332
		c0.202-0.208,0.501-0.305,0.785-0.4c3.388-1.132,6.453-3.076,8.813-5.589c-2.151,0.98-4.448,1.686-6.807,2.091
		c-1.651,0.283-3.594,0.337-4.748-0.79c-0.602-0.589-0.869-1.396-1.123-2.171c-0.598-1.819-1.242-3.63-2.045-5.382
		c-0.736-1.605-1.607-3.165-2.695-4.592c-0.525-0.689-1.1-1.454-1.787-2.016c-1.382-1.132-2.714-2.347-4.089-3.499
		c-2.035-1.705-4.107-3.373-6.149-5.072c2.99,5.558,6.418,10.834,9.862,15.188c3.004,3.797,7.097,10.803,3.22,13.851
		c-11.979,9.418-36.369,27.426-37.246,27.83l2.828,4.631C515.523,296.748,539.484,275.649,544.629,273.391z"/>
</g>
<path style="fill:#FFFFFF;" d="M391.228,16.687c-29.104,0-52.697,18.715-52.697,41.801c0,10.144,4.558,19.443,12.135,26.682
	l-20,26.733l38.344-15.511c6.753,2.495,14.278,3.897,22.219,3.897c29.104,0,52.697-18.715,52.697-41.801
	S420.332,16.687,391.228,16.687z"/>
<path style="fill:#CF3F36;" d="M410,58.329c-5.374-0.632-3.376-7.49-3.376-7.49l-9.456-1.042l-0.474,10.776
	c-2.067-1.486-3.852-1.523-5.208-1.406c-2.829,0.244-3.973,2.567-4.312,4.087c-0.033,0.15-0.105,0.596-0.148,1.045
	c-0.043,0.444-0.059,0.901-0.055,1.054c0.041,1.557,0.719,4.056,3.449,4.837c1.308,0.374,3.068,0.679,5.381-0.383l-1.599,10.667
	l9.481,0.788c0,0-0.647-7.114,4.749-6.705c5.395,0.409,4.444,6.03,2.767,7.448l9.714,0.844l1.072-10.012
	c0,0-6.361-0.113-6.178-5.481c0-0.004,0.001-0.007,0.001-0.011c0.001-0.004,0-0.007,0.001-0.011
	c0.014-0.089,0.042-0.162,0.059-0.248c0-0.087-0.013-0.164-0.01-0.255c0-0.004,0.001-0.007,0.001-0.011
	c0.001-0.004,0-0.007,0.001-0.011c0.849-5.304,7.114-4.196,7.114-4.196l0.866-10.032l-9.696-1.032
	C415.517,53.262,415.374,58.961,410,58.329z"/>
<path style="fill:#6C6FA2;" d="M368.212,66.893l8.116,6.399l7.367-9.33c-2.214-0.257-3.342-1.093-4.251-2.108
	c-1.897-2.119-1.367-4.053-0.536-5.464c0.082-0.139,0.321-0.562,0.634-0.913c1.811-2.033,4.336-2.726,6.246-1.384
	c1.116,0.783,2.187,1.596,2.836,3.722l7.185-10.216l-5.386-4.52c0,0,8.675-5.214,2.031-10.444c-6.645-5.23-10.133,2.181-9.676,4.235
	l-8.021-6.598l-7.67,9.406c0,0-4.454-8.836-10.867-2.227c-4.847,4.995,1.66,10.918,4.798,9.938l-7.254,8.036l8.1,6.335
	c0,0,3.888-7.118,8.522-3.551C375.022,61.776,370.625,66.538,368.212,66.893z"/>
</svg>
