<?xml version="1.0" encoding="utf-8"?>
<!-- Generator: Adobe Illustrator 27.5.0, SVG Export Plug-In . SVG Version: 6.00 Build 0)  -->
<svg version="1.1" xmlns="http://www.w3.org/2000/svg" xmlns:xlink="http://www.w3.org/1999/xlink" x="0px" y="0px"
	 viewBox="0 0 750 500" style="enable-background:new 0 0 750 500;" xml:space="preserve">
<g id="BACKGROUND">
	<rect y="0.24" style="fill:#F4F5DC;" width="750" height="389.88"/>
	<g>
		<rect x="543.103" y="86.777" style="fill:#DFE0CA;" width="86.857" height="303.343"/>
		<rect x="594.213" y="226.68" style="fill:#DFE0CA;" width="86.857" height="163.44"/>
		<rect x="73.653" y="226.68" style="fill:#DFE0CA;" width="86.857" height="163.44"/>
		<rect x="451.745" y="134.52" style="fill:#DFE0CA;" width="86.857" height="255.6"/>
		<rect x="376.294" y="68.28" style="fill:#DFE0CA;" width="86.857" height="321.84"/>
		<rect x="278.032" y="96.95" style="fill:#DFE0CA;" width="86.857" height="293.17"/>
		<rect x="129.647" y="108.972" style="fill:#DFE0CA;" width="86.857" height="281.148"/>
		<rect x="222.76" y="170.936" style="fill:#DFE0CA;" width="86.857" height="219.184"/>
	</g>
</g>
<g id="OBJECTS">
	<g>
		<g>
			
				<ellipse transform="matrix(0.9999 -0.0163 0.0163 0.9999 -7.0837 1.6125)" style="fill:#C2B3A1;" cx="95.63" cy="436.47" rx="36.076" ry="2.229"/>
		</g>
		<path style="fill:#29201D;" d="M117.098,355.987c-0.604-3.078-2.266-10.26-2.266-10.26l-6.018,1.87
			c-0.233-0.307-0.387-0.502-0.387-0.502s-0.029,0.242-0.092,0.65l-1.209,0.376c0,0,0.278,1.115,0.626,2.591
			c-0.333,1.401-0.806,3.036-1.462,4.591c-1.624,3.848-0.257,4.018,0.769,2.992c0.516-0.516,1.098-1.529,1.808-2.463
			c0.098,0.521,0.177,0.989,0.223,1.352c0.302,2.394,3.173,6.669,5.137,6.669C116.191,363.853,117.702,359.065,117.098,355.987z"/>
		<path style="fill:#29201D;" d="M99.601,403.935c0,0,16.638,16.62,15.919,17.505s-8.964,13.421-7.434,14.663l21.293-17.32
			l-19.041-24.706L99.601,403.935z"/>
		<path style="fill:#29201D;" d="M63.813,408.128c0,0,2.078,23.427,0.944,23.642c-1.133,0.215-15.677,4.514-15.299,6.448
			l27.766,0.43l1.322-31.165L63.813,408.128z"/>
		<path style="fill:#29201D;" d="M41.674,342.739l-6.909,7.747c0,0-2.441,8.217-1.504,8.697c1.229,0.631,4.499-5.784,4.499-5.784
			l1.89-0.99c0,0-0.002,0.224-0.877,3.148c-0.875,2.923,6.745-7.355,6.745-7.355L41.674,342.739z"/>
		<path style="fill:#6A94A8;" d="M70.808,282.073c0,0,1.612,2.042-2.901,3.331c-4.711,1.346-8.092,10.578-8.705,13.254
			c-0.56,2.446-4.623,23.025-7.164,26.293c-3.009,3.869-12.609,19.773-12.609,19.773l6.359,7.164c0,0,8.782-12.755,11.5-16.518
			c2.718-3.764,7.945-15.264,7.945-15.264s0.094,3.985-0.228,8.391c-0.304,4.155-1.026,11.891-1.026,11.891
			s-5.406,38.974-5.422,40.659c-0.072,7.952,7.394,16.096,5.255,27.081c-1.172,6.018,16.237,2.794,14.733-0.645
			c-2.37-5.418-3.075-24.525-2.866-25.362c0.209-0.836,4.585-16.908,4.585-16.908s3.894,21.019,7.759,25.356
			c4.921,5.522,5.501,4.455,12.577,15.152c2.231,3.373,16.739-6.083,14.867-7.773c-7.027-6.344-11.697-16.7-13.997-24.854
			c-2.3-8.155-1.146-26.221-2.365-33.961c-0.98-6.227-3.136-27.809-3.136-27.809l7.794,17.066l3.439,21.923l9.027-1.863
			l-3.725-27.081c0,0-10.531-30.09-19.988-36.395c0,0-6.52-1.719-7.666-2.866c-1.146-1.146,1.433-6.161-0.931-16.585
			c-0.849-3.745-2.006-5.015-6.878-5.588c-4.872-0.573-7.789,2.508-8.167,10.854C68.408,281.07,70.808,282.073,70.808,282.073z"/>
		<path style="fill:#FAB980;" d="M69.617,271.983c0,0,1.98,10.705,6.336,9.636c6.742-1.654,6.016-11.862,5.494-17.062
			c-0.249-2.482-2.524-3.569-5.087-3.905C72.375,260.131,69.268,266.67,69.617,271.983z"/>
		<g>
			<path style="fill:#FFFFFF;" d="M69.617,272.974c0,0,2.233-2.253,4.663-0.365c2.43,1.888,6.168,1.466,6.168,1.466
				s-2.565,8.887-6.657,7.133C69.7,279.454,69.617,272.974,69.617,272.974z"/>
			
				<line style="fill:none;stroke:#FFFFFF;stroke-width:0.5;stroke-miterlimit:10;" x1="81.662" y1="272.533" x2="79.337" y2="275.415"/>
		</g>
		<path style="fill:#6A94A8;" d="M69.25,266.383l14.346,0.43c0,0-1.874-7.241-8.812-6.824
			C64.951,260.58,69.25,266.383,69.25,266.383z"/>
		
			<line style="fill:none;stroke:#223640;stroke-width:0.5;stroke-miterlimit:10;" x1="65.233" y1="320.106" x2="65.076" y2="307.9"/>
		
			<line style="fill:none;stroke:#223640;stroke-width:0.5;stroke-miterlimit:10;" x1="95.954" y1="312.056" x2="93.16" y2="305.608"/>
		
			<line style="fill:none;stroke:#223640;stroke-width:0.5;stroke-miterlimit:10;" x1="80.265" y1="365.214" x2="77.041" y2="349.668"/>
		<path style="fill:none;stroke:#223640;stroke-width:0.5;stroke-miterlimit:10;" d="M70.808,282.073c0,0,1.505,2.042,6.018,1.612"
			/>
		<path style="fill:none;stroke:#223640;stroke-width:0.5;stroke-miterlimit:10;" d="M84.635,281.392c0,0-0.43,1.863-4.943,3.582"/>
		<path style="fill:none;stroke:#223640;stroke-width:0.5;stroke-miterlimit:10;" d="M69.017,285.046c0,0,4.012,4.728,10.388,2.579"
			/>
		
			<line style="fill:none;stroke:#223640;stroke-width:0.5;stroke-miterlimit:10;" x1="81.698" y1="267.064" x2="66.868" y2="266.133"/>
	</g>
	<g>
		<polygon style="fill:#C2B3A1;" points="297.812,440.16 725.492,440.16 678.692,435.12 251.012,435.12 		"/>
		<g>
			<g>
				<circle style="fill:#4D463F;" cx="641.644" cy="405.635" r="32.457"/>
				
					<ellipse transform="matrix(0.9869 -0.1611 0.1611 0.9869 -56.9783 108.6946)" style="fill:#6F675C;" cx="641.644" cy="405.635" rx="19.066" ry="19.066"/>
				<circle style="fill:#C2B3A1;" cx="641.644" cy="405.635" r="14.696"/>
				<circle style="fill:#4D463F;" cx="419.817" cy="404.549" r="32.457"/>
				<circle style="fill:#6F675C;" cx="419.817" cy="404.549" r="19.066"/>
				<circle style="fill:#C2B3A1;" cx="419.817" cy="404.549" r="14.696"/>
				<path style="fill:#C2B3A1;" d="M419.817,372.092c17.926,0,32.457,14.532,32.457,32.457c0,1.559-0.117,3.09-0.329,4.591h-64.256
					c-0.212-1.5-0.329-3.031-0.329-4.591C387.359,386.623,401.891,372.092,419.817,372.092z"/>
				<path style="fill:#C2B3A1;" d="M609.186,405.635c0-17.926,14.532-32.457,32.457-32.457c17.926,0,32.457,14.532,32.457,32.457
					c0,1.185-0.068,2.353-0.191,3.505h-64.532C609.254,407.988,609.186,406.819,609.186,405.635z"/>
				
					<rect x="403.953" y="356.492" transform="matrix(-1 -1.224647e-16 1.224647e-16 -1 906.3715 753.8314)" width="98.465" height="40.848"/>
				
					<rect x="618.852" y="357.578" transform="matrix(-1 -1.224647e-16 1.224647e-16 -1 1336.1682 756.0032)" width="98.465" height="40.848"/>
				<path style="fill:#F6F7DF;" d="M582.367,213.787v183.846c0,1.717-1.392,3.109-3.109,3.109h-86.7
					c-2.077,0-3.89-1.411-4.389-3.427c-4.393-17.732-20.409-30.877-39.499-30.877c-19.09,0-35.106,13.145-39.499,30.877
					c-0.499,2.016-2.313,3.427-4.389,3.427h-99.912c-1.717,0-3.109-1.392-3.109-3.109V213.787c0-1.717,1.392-3.109,3.109-3.109
					h274.389C580.975,210.678,582.367,212.07,582.367,213.787z"/>
				<g>
					<g>
						
							<rect x="339.525" y="251.74" transform="matrix(-1 -1.224647e-16 1.224647e-16 -1 690.4623 556.7397)" style="fill:#DE2C35;" width="11.413" height="53.259"/>
						
							<rect x="339.525" y="251.74" transform="matrix(-1.836970e-16 1 -1 -1.836970e-16 623.6011 -66.8613)" style="fill:#DE2C35;" width="11.413" height="53.259"/>
					</g>
				</g>
				<path style="fill:#FB7E3B;" d="M314.885,223.992h15.196c1.458,0,2.64-1.182,2.64-2.64v-4.803c0-1.458-1.182-2.64-2.64-2.64
					h-15.196c-1.458,0-2.64,1.182-2.64,2.64v4.803C312.245,222.811,313.427,223.992,314.885,223.992z"/>
				<path style="fill:#DE2C35;" d="M582.367,333.96v66.781h-90.539c-1.697,0-3.135-1.193-3.519-2.846
					c-4.184-18.025-20.341-31.458-39.639-31.458c-19.298,0-35.454,13.433-39.639,31.458c-0.384,1.654-1.821,2.846-3.519,2.846
					H301.76V333.96H582.367z"/>
				
					<rect x="318.144" y="389.232" transform="matrix(-1 -1.224647e-16 1.224647e-16 -1 656.1441 795.217)" style="fill:#C2B3A1;" width="19.856" height="16.753"/>
				<g>
					<circle style="fill:#4D463F;" cx="448.67" cy="407.134" r="32.457"/>
					<circle style="fill:#6F675C;" cx="448.67" cy="407.134" r="19.066"/>
					<circle style="fill:#C2B3A1;" cx="448.67" cy="407.134" r="14.696"/>
				</g>
				<circle style="fill:#4D463F;" cx="669.566" cy="408.22" r="32.457"/>
				
					<ellipse transform="matrix(0.9869 -0.1611 0.1611 0.9869 -57.03 113.2278)" style="fill:#6F675C;" cx="669.566" cy="408.22" rx="19.066" ry="19.066"/>
				<circle style="fill:#C2B3A1;" cx="669.566" cy="408.22" r="14.696"/>
				<path style="fill:#F6F7DF;" d="M587.111,266.374h42.428c1.45,0,2.8,0.736,3.585,1.954l27.564,42.752
					c1.034,1.604,2.484,2.899,4.194,3.746l16.899,8.374l37.849,22.444c2.491,1.234,4.067,3.774,4.067,6.554v48.805h-13.666
					c-3.414-19.26-20.225-33.892-40.465-33.892c-19.819,0-36.351,14.029-40.235,32.695c-0.146,0.704-0.753,1.216-1.471,1.216
					h-43.513c-0.83,0-1.502-0.673-1.502-1.502V323.2v-12.12v-40.44C582.845,268.284,584.755,266.374,587.111,266.374z"/>
				<path style="fill:#DE2C35;" d="M699.852,333.915l19.779,11.728c2.491,1.234,4.067,3.774,4.067,6.554v48.805h-13.666
					c-3.414-19.26-20.225-33.892-40.465-33.892c-19.819,0-36.351,14.029-40.235,32.695c-0.146,0.704-0.753,1.216-1.471,1.216
					h-43.513c-0.83,0-1.502-0.673-1.502-1.502v-65.604H699.852z"/>
				<g>
					<path style="fill:#F6F7DF;" d="M582.845,375.9h61.335c-1.192,0.939-2.335,1.938-3.415,3h-57.92V375.9z"/>
					<path style="fill:#F6F7DF;" d="M723.698,378.9h-25.335c-1.079-1.06-2.214-2.063-3.404-3h28.739V378.9z"/>
				</g>
				
					<rect x="706.944" y="389.232" transform="matrix(-1 -1.224647e-16 1.224647e-16 -1 1433.7441 795.217)" style="fill:#C2B3A1;" width="19.856" height="16.753"/>
				<path style="fill:#FB7E3B;" d="M560.392,223.992h16.156c1.193,0,2.16-0.967,2.16-2.16v-5.763c0-1.193-0.967-2.16-2.16-2.16
					h-16.156c-1.193,0-2.16,0.967-2.16,2.16v5.763C558.232,223.025,559.199,223.992,560.392,223.992z"/>
				<path style="fill:#FB7E3B;" d="M699.176,360.501h16.156c1.193,0,2.16-0.967,2.16-2.16v-5.763c0-1.193-0.967-2.16-2.16-2.16
					h-16.156c-1.193,0-2.16,0.967-2.16,2.16v5.763C697.016,359.534,697.983,360.501,699.176,360.501z"/>
				<path style="fill:none;stroke:#4D463F;stroke-width:0.5;stroke-miterlimit:10;" d="M629.863,273.037l24.618,40.5
					c0.224,0.368,0.342,0.791,0.342,1.222v45.808c0,1.538-1.036,2.885-2.528,3.261c-6.374,1.606-22.83,7.985-26.178,31.413
					c-0.165,1.152-1.159,2.006-2.323,2.006h-33.632c-1.299,0-2.353-1.053-2.353-2.353V274.259c0-1.299,1.053-2.353,2.353-2.353
					h37.69C628.674,271.906,629.436,272.335,629.863,273.037z"/>
				<path style="fill:#4D463F;" d="M588.068,339.953v17.946c0,1.027,0.833,1.86,1.86,1.86h3.157c1.027,0,1.86-0.833,1.86-1.86
					v-17.946c0-1.027-0.833-1.86-1.86-1.86h-3.157C588.9,338.093,588.068,338.925,588.068,339.953z"/>
				<g>
					<path style="fill:#4D463F;" d="M625.325,275.681h-31.227c-1.672,0-3.027,1.355-3.027,3.027v33.968
						c0,1.672,1.355,3.027,3.027,3.027h47.068c4.283,0,6.934-4.665,4.743-8.345l-17.984-30.199
						C627.38,276.243,626.392,275.681,625.325,275.681z"/>
					<g>
						<defs>
							<path id="SVGID_1_" d="M625.325,275.681h-31.227c-1.672,0-3.027,1.355-3.027,3.027v33.968c0,1.672,1.355,3.027,3.027,3.027
								h47.068c4.283,0,6.934-4.665,4.743-8.345l-17.984-30.199C627.38,276.243,626.392,275.681,625.325,275.681z"/>
						</defs>
						<clipPath id="SVGID_00000080888238831946181660000002450273447915282074_">
							<use xlink:href="#SVGID_1_"  style="overflow:visible;"/>
						</clipPath>
						
							<rect x="608.312" y="262.82" transform="matrix(-0.7071 0.7071 -0.7071 -0.7071 1253.0228 74.8078)" style="clip-path:url(#SVGID_00000080888238831946181660000002450273447915282074_);fill:#6F675C;" width="5.412" height="68.187"/>
						
							<rect x="623.815" y="263.17" transform="matrix(-0.7071 0.7071 -0.7071 -0.7071 1279.734 64.4419)" style="clip-path:url(#SVGID_00000080888238831946181660000002450273447915282074_);fill:#6F675C;" width="5.412" height="68.187"/>
					</g>
					<path d="M594.098,275.681h31.227c1.067,0,2.055,0.562,2.601,1.478l0.39,0.655c-0.445-0.249-0.951-0.388-1.479-0.388H595.61
						c-1.672,0-3.027,1.355-3.027,3.027v33.968c0,0.335,0.067,0.651,0.168,0.952c-0.992-0.497-1.68-1.512-1.68-2.698v-33.968
						C591.071,277.036,592.426,275.681,594.098,275.681z"/>
				</g>
				<path d="M589.851,339.696v18.46c0,0.885,0.718,1.603,1.603,1.603h-1.784c-0.885,0-1.603-0.718-1.603-1.603v-18.46
					c0-0.885,0.718-1.603,1.603-1.603h1.784C590.569,338.093,589.851,338.81,589.851,339.696z"/>
				<path style="fill:#DE2C35;" d="M412.433,210.678l106.683,148.278l-36.265,26.092c-3.088-4.771-7.151-8.851-11.902-11.966
					L354.104,210.678H412.433z"/>
				<polygon style="fill:#C2B3A1;" points="328.519,210.676 328.524,405.981 334.892,405.981 329.522,210.679 				"/>
				<g>
					<path style="fill:#F6F7DF;" d="M419.367,378.9h-99.235v-3h102.463C421.467,376.843,420.387,377.842,419.367,378.9z"/>
					<path style="fill:#F6F7DF;" d="M582.367,375.9v3H477.972c-1.02-1.058-2.1-2.057-3.228-3H582.367z"/>
				</g>
				<g>
					<polygon style="fill:#121212;" points="290.223,398.918 307.29,402.679 307.29,209.886 290.223,213.647 					"/>
					<polygon style="fill:#FFFFFF;" points="290.204,398.918 258.212,396.032 258.212,216.533 290.204,213.647 					"/>
					<polygon style="fill:#B8B8B8;" points="307.29,209.886 307.29,217.861 296.115,220.324 296.115,400.216 290.223,398.918 
						290.223,213.647 					"/>
					<polygon style="fill:#FFFFFF;" points="307.29,391.908 307.29,402.679 290.223,398.918 290.223,391.908 					"/>
					<g>
						<polygon style="fill:#DE2C35;" points="310.232,395.1 290.223,393.758 180.452,429.72 184.052,435.6 						"/>
						<polygon style="fill:#BD252D;" points="310.232,400.74 184.052,441.24 184.052,435.6 310.232,395.1 						"/>
					</g>
					<polygon style="fill:#FFFFFF;" points="307.262,405.589 323.02,412.201 323.02,203.238 307.262,209.719 					"/>
					
						<rect x="323.02" y="203.238" transform="matrix(-1 -1.224647e-16 1.224647e-16 -1 651.5389 615.3737)" style="fill:#B8B8B8;" width="5.499" height="208.897"/>
				</g>
			</g>
			<g>
				<path style="fill:none;stroke:#4D463F;stroke-width:0.5;stroke-miterlimit:10;" d="M511.266,397.34h53.808
					c1.591,0,2.88-1.289,2.88-2.88V251.414c0-1.591-1.289-2.88-2.88-2.88h-53.808c-1.591,0-2.88,1.289-2.88,2.88V394.46
					C508.385,396.05,509.675,397.34,511.266,397.34z"/>
				<g>
					<path style="fill:#4D463F;" d="M515.309,303.603h46.083c1.425,0,2.58-1.155,2.58-2.58v-46.083c0-1.425-1.155-2.58-2.58-2.58
						h-47.043c-0.895,0-1.62,0.725-1.62,1.62v47.043C512.729,302.448,513.884,303.603,515.309,303.603z"/>
					<g>
						<defs>
							<path id="SVGID_00000137847704854080564540000001744873898518595765_" d="M515.309,303.603h46.083
								c1.425,0,2.58-1.155,2.58-2.58v-46.083c0-1.425-1.155-2.58-2.58-2.58h-47.133c-0.845,0-1.53,0.685-1.53,1.53v47.133
								C512.729,302.448,513.884,303.603,515.309,303.603z"/>
						</defs>
						<clipPath id="SVGID_00000036947159408629294540000007640850199125789113_">
							<use xlink:href="#SVGID_00000137847704854080564540000001744873898518595765_"  style="overflow:visible;"/>
						</clipPath>
						
							<rect x="526.277" y="246.525" transform="matrix(-0.7071 0.7071 -0.7071 -0.7071 1102.4281 106.9008)" style="clip-path:url(#SVGID_00000036947159408629294540000007640850199125789113_);fill:#6F675C;" width="5.594" height="70.491"/>
						
							<rect x="537.018" y="234.128" transform="matrix(-0.7071 0.7071 -0.7071 -0.7071 1117.2831 90.9011)" style="clip-path:url(#SVGID_00000036947159408629294540000007640850199125789113_);fill:#6F675C;" width="5.594" height="85.439"/>
					</g>
					<path d="M561.385,252.361c1.381,0,2.5,1.086,2.572,2.45c-0.046-0.002-0.09-0.014-0.137-0.014h-47.213
						c-0.797,0-1.443,0.646-1.443,1.444v47.213c0,0.047,0.011,0.09,0.014,0.137c-1.363-0.073-2.449-1.191-2.449-2.572v-47.213
						c0-0.797,0.646-1.443,1.443-1.443H561.385z"/>
				</g>
				<g>
					<path style="fill:#4D463F;" d="M551.547,313.583h10.835c0.563,0,1.02-0.457,1.02-1.02v-2.717c0-0.563-0.457-1.02-1.02-1.02
						h-10.835c-0.563,0-1.02,0.457-1.02,1.02v2.717C550.527,313.126,550.984,313.583,551.547,313.583z"/>
					<path d="M551.406,308.826h11.117c0.486,0,0.879,0.394,0.879,0.879v1.862c0-0.486-0.394-0.879-0.879-0.879h-11.117
						c-0.485,0-0.879,0.393-0.879,0.879v-1.862C550.527,309.219,550.921,308.826,551.406,308.826z"/>
				</g>
			</g>
			<path style="fill:#DE2C35;" d="M664.517,313.26h6.39c0.92,0,1.665-0.745,1.665-1.665v-15.39c0-0.92-0.745-1.665-1.665-1.665
				h-6.39c-0.919,0-1.665,0.745-1.665,1.665v15.39C662.852,312.515,663.597,313.26,664.517,313.26z"/>
			
				<line style="fill:none;stroke:#DE2C35;stroke-width:2;stroke-miterlimit:10;" x1="668.972" y1="308.22" x2="663.092" y2="325.08"/>
			<path style="fill:#BD252D;" d="M668.492,311.595v-15.39c0-0.919-0.745-1.665-1.665-1.665h4.08c0.92,0,1.665,0.745,1.665,1.665
				v15.39c0,0.919-0.745,1.665-1.665,1.665h-4.08C667.746,313.26,668.492,312.514,668.492,311.595z"/>
		</g>
		<g>
			<path style="fill:#DE2C35;" d="M609.427,260.16h8.807c1.856,0,3.36,1.504,3.36,3.36v2.732h-15.527v-2.732
				C606.067,261.664,607.571,260.16,609.427,260.16z"/>
			<path style="fill:#FA323C;" d="M615.247,263.879h3.184c0.649,0,1.175-0.526,1.175-1.175v-0.507c0-0.649-0.526-1.175-1.175-1.175
				h-3.184c-0.649,0-1.175,0.526-1.175,1.175v0.507C614.072,263.353,614.598,263.879,615.247,263.879z"/>
			<path style="fill:#BD252D;" d="M606.067,266.252v-3.406c0-1.483,1.504-2.686,3.36-2.686h1.684
				c0.015,0.859,0.208,1.785,0.883,2.71c1.84,2.52,5.647,2.863,7.578,3.382H606.067z"/>
		</g>
		<polygon style="fill:#DE2C35;" points="184.052,435.6 184.052,441.24 180.182,434.76 180.452,429.72 		"/>
	</g>
	<g>
		<g>
			<polygon style="fill:#FAB980;" points="211.601,340.642 213.055,334.93 208.661,334.276 			"/>
			<g>
				<path style="fill:#FFFFFF;" d="M218.278,365.171l18.71-15.759c0.722-0.608,0.815-1.687,0.206-2.409l-12.659-15.03
					c-0.608-0.722-1.687-0.815-2.41-0.206l-18.71,15.759c-0.722,0.608-0.815,1.687-0.206,2.41l12.659,15.03
					C216.477,365.687,217.555,365.78,218.278,365.171z"/>
				<path style="fill:#FFFFFF;" d="M209.598,346.926l-4.085-4.849c-0.989-1.175-0.839-2.936,0.336-3.925l6.625-5.58
					c1.175-0.989,2.936-0.839,3.925,0.336l4.085,4.849c0.989,1.175,0.839,2.936-0.336,3.926l-6.625,5.58
					C212.348,348.252,210.588,348.1,209.598,346.926z M206.356,338.753c-0.843,0.71-0.951,1.974-0.241,2.817l4.085,4.85
					c0.71,0.843,1.974,0.952,2.817,0.242l6.625-5.58c0.843-0.71,0.952-1.974,0.241-2.817l-4.085-4.85
					c-0.71-0.843-1.974-0.952-2.818-0.241L206.356,338.753z"/>
				<g>
					
						<rect x="227.963" y="342.732" transform="matrix(-0.7649 0.6442 -0.6442 -0.7649 627.1028 464.158)" style="fill:#DE2C35;" width="1.753" height="7.596"/>
					
						<rect x="227.963" y="342.732" transform="matrix(0.6442 0.7649 -0.7649 0.6442 346.4673 -51.7338)" style="fill:#DE2C35;" width="1.753" height="7.596"/>
				</g>
				
					<line style="fill:none;stroke:#223640;stroke-width:0.5;stroke-miterlimit:10;" x1="228.769" y1="336.926" x2="207.479" y2="354.857"/>
				
					<rect x="216.009" y="345.792" transform="matrix(-0.7649 0.6442 -0.6442 -0.7649 609.922 471.8779)" style="fill:none;stroke:#223640;stroke-width:0.5;stroke-miterlimit:10;" width="5.661" height="2.925"/>
			</g>
			<polygon style="fill:#FAB980;" points="202.735,331.806 204.101,341.309 211.605,340.606 207.378,330.312 			"/>
			<path style="fill:#FFFFFF;" d="M166.739,282.096c0,0,3.149,7.974-10.937,32.968l-12.065,19.278l-6.896-5.606l12.49-18.074
				l6.611-21.966C155.941,288.697,161.164,280.036,166.739,282.096z"/>
			
				<line style="fill:none;stroke:#223640;stroke-width:0.5;stroke-miterlimit:10;" x1="149.331" y1="310.662" x2="152.486" y2="310.522"/>
			<path style="fill:#C2B3A1;" d="M159.727,290.794l-1.777,86.63c0,0,27.331,19.279,49.758,0.359L159.727,290.794z"/>
			<path style="fill:#C2B3A1;" d="M150.491,432.526c0.172,1.219,16.305-0.046,36.035-2.825c19.73-2.779,35.585-6.02,35.413-7.239
				c-0.172-1.219-16.305,0.046-36.035,2.825C166.174,428.067,150.319,431.308,150.491,432.526z"/>
			<path style="fill:#284257;" d="M185.617,361.084c0,0,14.144,7.596,20.986,23.046c4.563,10.303,14.221,23.427,14.221,23.427
				l-7.073,1.369c0,0-24.21-32.024-39.468-40.051L185.617,361.084z"/>
			<path style="fill:#FAB980;" d="M220.359,406.93c0,0,4.985,3.678,3.46,5.971c-1.526,2.293-2.907,2.871-3.29,4.213
				c-1.406,4.919-2.377,5.997-6.857,6.758c-8.153,1.384,4.683-1.748-0.212-15.368L220.359,406.93z"/>
			<path style="fill:#6A94A8;" d="M186.995,316.497c0,0,3.446,28.067,2.339,46.621l-12.232,6.287c0,0-4.4-18.814-6.645-45.163
				L186.995,316.497z"/>
			<path style="fill:#284257;" d="M175.739,364.879c0,0,4.785,15.325-1.143,31.149c-3.953,10.552-6.241,26.686-6.241,26.686
				l-6.009-3.973c0,0,5.125-39.817-0.155-56.23L175.739,364.879z"/>
			<path style="fill:#FAB980;" d="M168.462,421.939c0,0,0.986,6.116-1.708,6.685c-2.694,0.57-4.086,0.016-5.299,0.706
				c-4.447,2.529-7.373,3.712-9.964,2.037c-6.944-4.49,4.905,0.02,10.942-13.134L168.462,421.939z"/>
			<path style="fill:#29201D;" d="M168.462,421.939c0,0-2.34,0.973-5.342,3.53c-3.274,2.788-3.505-2.774-3.505-2.774
				s-5.94,5.569-8.891,5.203c-3.732-0.462-6.268,6.341,5.989,4.32c0.884-0.146,4.803-1.856,6.304-2.383
				c1.02-0.358,3.705-0.71,4.511-0.945c0.312-0.091,0.596-0.255,0.821-0.49C169.091,427.626,169.667,426.026,168.462,421.939z"/>
			<path style="fill:#29201D;" d="M221.973,408.411c0,0-1.496,2.046-2.736,5.789c-1.353,4.082-4.661-0.551-4.661-0.551
				s-1.964,7.84-4.677,9.058c-3.43,1.541-2.069,8.672,7.361,0.587c0.68-0.583,3.143-4.078,4.154-5.307
				c0.687-0.835,2.799-2.529,3.367-3.148c0.22-0.24,0.377-0.527,0.447-0.845C225.46,412.947,225.123,411.28,221.973,408.411z"/>
			<path style="fill:#284257;" d="M162.192,362.511l2.04-38.571l13.973,2.676c0,0,1.378,32.779-2.465,38.264L162.192,362.511z"/>
			<path style="fill:#6F675C;" d="M168.845,277.855l-1.291,0.634l0.125,2.911c0,0,1.287-0.903,1.28-0.972
				C168.951,280.358,168.845,277.855,168.845,277.855z"/>
			<polygon style="fill:#6F675C;" points="175.979,276.914 177.974,276.995 177.344,279.871 175.348,278.103 			"/>
			<path style="fill:#FAB980;" d="M162.942,282.565c0,0,2.401-0.335,4.081-1.064c0.985-0.427,1.652-1.366,1.743-2.436
				c0.222-2.616,0.329-5.307-0.586-7.256l8.13-13.75c0,0-1.488,11.433-0.405,18.636c0.353,2.347,3.959,2.871,4.806,3.267
				c1.83,0.855-0.076,0.895,3.357,0.978c0,0-6.481,11.039-15.635,6.545c-0.039-0.018-0.078-0.038-0.115-0.059
				C166.481,286.499,164.663,284.952,162.942,282.565z"/>
			<path style="fill:#FAB980;" d="M163.033,268.567c-0.268-1.107,0.202-2.17,1.048-2.375c0.847-0.205,1.75,0.527,2.017,1.634
				c0.268,1.107-0.202,2.17-1.048,2.375C164.204,270.406,163.3,269.674,163.033,268.567z"/>
			<path style="fill:#FFFFFF;" d="M166.285,269.952c0.149,0.795-0.375,1.56-1.17,1.709c-0.795,0.149-1.56-0.375-1.709-1.17
				c-0.149-0.795,0.375-1.56,1.17-1.709S166.136,269.157,166.285,269.952z"/>
			<path style="fill:#FAB980;" d="M164.063,265.318c0,0,0.267,12.135,4.639,11.799c6.767-0.52,9.138-10.192,9.441-15.51
				c0.145-2.538-1.429-4.874-3.851-5.646C170.525,254.761,164.72,258.793,164.063,265.318z"/>
			<path style="fill:#29201D;" d="M164.507,259.317c1.541-2.406,4.396-4.912,8.283-4.33c3.887,0.582,7,4.882,7.001,8.543
				c0,1.905-1.366,5.303-1.366,5.303s-9.646,0.657-12.021-9.101c-1.738,2.126-1.361,6.138-2.389,6.237
				C164.013,265.97,162.966,261.724,164.507,259.317z"/>
			<path style="fill:#FAB980;" d="M178.267,270.275c-0.824,1.087-2.165,1.457-2.997,0.827c-0.831-0.63-0.837-2.022-0.013-3.109
				c0.824-1.087,2.165-1.457,2.997-0.827C179.085,267.796,179.091,269.188,178.267,270.275z"/>
			<path style="fill:#FFFFFF;" d="M178.25,271.483c0.149,0.795-0.375,1.56-1.17,1.709c-0.795,0.149-1.56-0.375-1.709-1.17
				c-0.149-0.795,0.375-1.56,1.17-1.709C177.336,270.164,178.101,270.688,178.25,271.483z"/>
			<path style="fill:#6A94A8;" d="M162.467,291.285c0.174-0.922-0.326-8.43-0.32-8.432c0.801-0.374,0.966-0.366,1.827-0.568
				c0.89-0.21,2.992-1.916,3.043-0.906c0.006,0.124,3.278,2.694,3.278,2.694l8.786-4.657c2.048,1.019,5.769,0.782,5.623,1.663
				c-1.88,11.382,1.197,14.845,0.592,20.81c0,0,0.769,12.12,3.002,16.7c5.693,11.679-29.645,16.692-26.184,4
				c2.186-8.021,1.125-12.349-0.423-16.234C158.818,299.144,161.749,295.09,162.467,291.285z"/>
			<path style="fill:none;stroke:#784536;stroke-width:0.5;stroke-miterlimit:10;" d="M173.796,273.921c0,0-1.019,2.85-4.843,3.313"
				/>
			
				<ellipse transform="matrix(0.685 -0.7286 0.7286 0.685 -130.857 212.7863)" style="fill:#29201D;" cx="180.634" cy="257.714" rx="5.289" ry="5.289"/>
			<path style="fill:#FFFFFF;" d="M184.515,280.543c0,0,7.299,0.6,18.962,26.813l6.718,23.426l-7.29,1.49l-7.06-20.804
				l-13.69-18.406C182.155,293.062,179.537,283.789,184.515,280.543z"/>
			
				<line style="fill:none;stroke:#223640;stroke-width:0.5;stroke-miterlimit:10;" x1="195.845" y1="311.468" x2="197.614" y2="308.851"/>
			<path style="fill:#FFFFFF;" d="M189.327,298.056l2.428,22.79l15.953,56.936c-15.058,9.377-34.715-0.439-34.715-0.439
				l0.356-90.776l7.012-6.719l4.154,0.694L189.327,298.056z"/>
			<path style="fill:#FFFFFF;" d="M164.255,268.755c0,0,2.07-1.665,3.915,0.135c1.845,1.8,4.995,1.8,4.995,1.8
				s-2.97,7.155-6.21,5.31S164.255,268.755,164.255,268.755z"/>
			
				<line style="fill:none;stroke:#FFFFFF;stroke-width:0.5;stroke-miterlimit:10;" x1="175.97" y1="267.115" x2="172.115" y2="271.7"/>
		</g>
		<path style="fill:#FFFFFF;" d="M166.813,284.524l-2.678,92.764l-6.184,0.136l1.416-74.719l0.27-18.395c0,0,1.975-2.546,6.21-3.016
			L166.813,284.524z"/>
		<path style="fill:#FAB980;" d="M136.868,328.733l-3.696,7.869c0,0,0.003,7.179,0.87,7.341c1.137,0.213,1.086-5.942,1.086-5.942
			l3.031-2.717c0,0-0.554,1.877-0.559,4.433c-0.004,2.556,3.658-7.515,3.658-7.515L136.868,328.733z"/>
		<polyline style="fill:none;stroke:#223640;stroke-width:0.5;stroke-miterlimit:10;" points="173.346,352.095 180.556,301.431 
			175.89,294.453 182.258,285.133 179.508,279.981 		"/>
		<polyline style="fill:none;stroke:#223640;stroke-width:0.5;stroke-miterlimit:10;" points="164.494,351.658 162.985,303.381 
			165.509,294.465 162.051,286.413 167.016,281.378 		"/>
		
			<line style="fill:none;stroke:#223640;stroke-width:0.5;stroke-miterlimit:10;" x1="189.993" y1="303.601" x2="185.825" y2="296.909"/>
		
			<line style="fill:none;stroke:#223640;stroke-width:0.5;stroke-miterlimit:10;" x1="159.304" y1="309.129" x2="159.745" y2="294.923"/>
		<polygon style="fill:#6A94A8;" points="167.553,278.489 170.294,284.072 166.898,286.821 164.946,282.054 		"/>
		<polygon style="fill:#6A94A8;" points="177.974,276.995 170.294,284.072 172.589,287.996 180.361,279.849 		"/>
		<polyline style="fill:none;stroke:#223640;stroke-width:0.5;stroke-miterlimit:10;" points="173.464,287.177 170.294,284.072 
			166.898,286.821 		"/>
	</g>
	<path style="fill:#FFFFFF;" d="M533.545,138.817c0,0,1.429-18.929,16.786-18.929c15.358,0,7.5,21.429,7.5,21.429
		s8.929-11.786,15.715-7.143c6.786,4.643-4.286,10.357-4.286,10.357l30.358,3.214l-105.36,0.357l26.429-3.572
		c0,0-7.857-11.429,0.357-18.215c8.215-6.786,20.358,3.214,20.715,9.643"/>
	<path style="fill:#FFFFFF;" d="M127.181,148.37c0,0,1.165-15.436,13.689-15.436c12.524,0,6.116,17.475,6.116,17.475
		s7.281-9.611,12.815-5.825c5.534,3.786-3.495,8.446-3.495,8.446l24.757,2.621l-85.92,0.291l21.553-2.912
		c0,0-6.408-9.32,0.291-14.854c6.699-5.534,16.601,2.621,16.893,7.864"/>
	<path style="fill:#FFFFFF;" d="M665.275,198.62c0,0,1.165-15.436,13.689-15.436c12.524,0,6.116,17.475,6.116,17.475
		s7.281-9.611,12.815-5.825c5.534,3.786-3.495,8.446-3.495,8.446l24.757,2.621l-85.92,0.291l21.553-2.913
		c0,0-6.408-9.32,0.291-14.854c6.699-5.534,16.602,2.621,16.893,7.864"/>
	<g>
		<g>
			
				<ellipse transform="matrix(0.3649 -0.9311 0.9311 0.3649 -135.8488 260.0425)" style="fill:#FFFFFF;" cx="122.68" cy="229.595" rx="26.149" ry="26.149"/>
			<polygon style="fill:#FFFFFF;" points="109.793,238.926 96.813,262.514 119.231,243.539 			"/>
		</g>
		<g>
			<path style="fill:#DFE0CA;" d="M133.842,231.34c-1.134,6.101-6.998,10.127-13.099,8.993c-6.1-1.134-10.127-6.998-8.993-13.099
				c1.134-6.101,6.998-10.127,13.099-8.993C130.949,219.375,134.975,225.24,133.842,231.34z"/>
			<g>
				<path style="fill:#DFE0CA;" d="M126.78,214.514c-0.123,0.661-0.759,1.098-1.42,0.975c-0.661-0.123-1.098-0.759-0.975-1.42
					c0.123-0.661,0.759-1.098,1.42-0.975C126.467,213.217,126.903,213.853,126.78,214.514z"/>
				<g>
					
						<rect x="122.248" y="216.57" transform="matrix(0.1827 -0.9832 0.9832 0.1827 -111.3376 300.3878)" style="fill:#DFE0CA;" width="5.527" height="1.184"/>
				</g>
			</g>
			<g>
				<path style="fill:#DFE0CA;" d="M118.942,214.466c0.224,0.634-0.108,1.33-0.742,1.554s-1.33-0.108-1.554-0.742
					c-0.224-0.634,0.108-1.33,0.742-1.554C118.022,213.5,118.718,213.832,118.942,214.466z"/>
				<g>
					
						<rect x="118.143" y="214.88" transform="matrix(0.9428 -0.3335 0.3335 0.9428 -65.7786 52.0494)" style="fill:#DFE0CA;" width="1.183" height="5.527"/>
				</g>
			</g>
			<g>
				<path style="fill:#DFE0CA;" d="M112.13,218.344c0.511,0.437,0.571,1.206,0.134,1.717c-0.437,0.511-1.206,0.571-1.717,0.134
					c-0.511-0.437-0.571-1.206-0.134-1.717C110.85,217.967,111.618,217.907,112.13,218.344z"/>
				<g>
					
						<rect x="112.947" y="218.437" transform="matrix(0.6498 -0.7601 0.7601 0.6498 -128.3727 163.7633)" style="fill:#DFE0CA;" width="1.184" height="5.526"/>
				</g>
			</g>
			<g>
				<path style="fill:#DFE0CA;" d="M108.169,225.108c0.661,0.123,1.098,0.759,0.975,1.42c-0.123,0.661-0.759,1.098-1.42,0.975
					c-0.661-0.123-1.098-0.759-0.975-1.42C106.872,225.422,107.508,224.985,108.169,225.108z"/>
				<g>
					
						<rect x="110.226" y="224.113" transform="matrix(0.1827 -0.9832 0.9832 0.1827 -132.4868 294.377)" style="fill:#DFE0CA;" width="1.184" height="5.526"/>
				</g>
			</g>
			<g>
				<path style="fill:#DFE0CA;" d="M108.122,232.947c0.634-0.224,1.33,0.108,1.555,0.742c0.224,0.634-0.108,1.33-0.742,1.555
					c-0.634,0.224-1.33-0.108-1.554-0.742C107.155,233.867,107.487,233.171,108.122,232.947z"/>
				<g>
					
						<rect x="108.536" y="232.561" transform="matrix(0.9428 -0.3332 0.3332 0.9428 -71.3309 50.4124)" style="fill:#DFE0CA;" width="5.526" height="1.184"/>
				</g>
			</g>
			<g>
				<path style="fill:#DFE0CA;" d="M111.999,239.759c0.437-0.511,1.206-0.571,1.717-0.134c0.511,0.437,0.572,1.206,0.134,1.717
					c-0.437,0.511-1.206,0.571-1.717,0.134C111.622,241.039,111.562,240.27,111.999,239.759z"/>
				<g>
					
						<rect x="112.092" y="237.757" transform="matrix(0.6501 -0.7598 0.7598 0.6501 -140.9181 170.6581)" style="fill:#DFE0CA;" width="5.526" height="1.183"/>
				</g>
			</g>
			<g>
				<path style="fill:#DFE0CA;" d="M118.764,243.719c0.123-0.661,0.759-1.098,1.42-0.975c0.661,0.123,1.098,0.759,0.975,1.42
					c-0.123,0.661-0.759,1.098-1.42,0.975C119.077,245.016,118.641,244.38,118.764,243.719z"/>
				<g>
					
						<rect x="117.769" y="240.479" transform="matrix(0.1827 -0.9832 0.9832 0.1827 -138.5045 315.5234)" style="fill:#DFE0CA;" width="5.526" height="1.184"/>
				</g>
			</g>
			<g>
				<path style="fill:#DFE0CA;" d="M126.602,243.767c-0.224-0.634,0.108-1.33,0.742-1.554c0.634-0.224,1.33,0.108,1.554,0.742
					c0.224,0.634-0.108,1.33-0.742,1.554C127.522,244.734,126.826,244.401,126.602,243.767z"/>
				<g>
					
						<rect x="126.217" y="237.826" transform="matrix(0.9428 -0.3334 0.3334 0.9428 -72.9667 56.0536)" style="fill:#DFE0CA;" width="1.183" height="5.527"/>
				</g>
			</g>
			<g>
				<path style="fill:#DFE0CA;" d="M133.414,239.889c-0.511-0.437-0.572-1.206-0.134-1.717c0.437-0.511,1.206-0.571,1.717-0.134
					c0.511,0.437,0.571,1.206,0.134,1.717C134.694,240.266,133.926,240.326,133.414,239.889z"/>
				<g>
					
						<rect x="131.412" y="234.271" transform="matrix(0.6499 -0.76 0.76 0.6499 -133.9364 183.3155)" style="fill:#DFE0CA;" width="1.184" height="5.526"/>
				</g>
			</g>
			<g>
				<path style="fill:#DFE0CA;" d="M137.375,233.125c-0.661-0.123-1.098-0.759-0.975-1.42c0.123-0.661,0.759-1.098,1.42-0.975
					c0.661,0.123,1.098,0.759,0.975,1.42C138.672,232.811,138.036,233.248,137.375,233.125z"/>
				<g>
					
						<rect x="134.134" y="228.594" transform="matrix(0.1827 -0.9832 0.9832 0.1827 -117.3532 321.54)" style="fill:#DFE0CA;" width="1.184" height="5.526"/>
				</g>
			</g>
			<g>
				<path style="fill:#DFE0CA;" d="M137.422,225.286c-0.634,0.224-1.33-0.108-1.554-0.742c-0.224-0.634,0.108-1.33,0.742-1.554
					c0.634-0.224,1.33,0.108,1.555,0.742S138.057,225.062,137.422,225.286z"/>
				<g>
					
						<rect x="131.482" y="224.487" transform="matrix(0.9428 -0.3333 0.3333 0.9428 -67.3345 57.6034)" style="fill:#DFE0CA;" width="5.526" height="1.185"/>
				</g>
			</g>
			<g>
				<path style="fill:#DFE0CA;" d="M133.544,218.474c-0.437,0.511-1.206,0.571-1.717,0.134c-0.511-0.437-0.572-1.206-0.134-1.717
					c0.437-0.511,1.206-0.571,1.717-0.134C133.921,217.194,133.982,217.963,133.544,218.474z"/>
				<g>
					
						<rect x="127.926" y="219.292" transform="matrix(0.6501 -0.7598 0.7598 0.6501 -121.3481 176.2278)" style="fill:#DFE0CA;" width="5.526" height="1.183"/>
				</g>
			</g>
		</g>
		<g>
			<path style="fill:#FFFFFF;" d="M128.137,224.354c-0.244,1.312-1.911,2.102-3.725,1.765c-1.813-0.337-3.086-1.674-2.842-2.985
				c0.244-1.312,1.911-2.102,3.725-1.765C127.109,221.706,128.381,223.042,128.137,224.354z"/>
			<path style="fill:#FFFFFF;" d="M130.789,228.749c-0.145,0.782-1.139,1.252-2.219,1.052c-1.08-0.201-1.838-0.997-1.693-1.779
				c0.145-0.782,1.139-1.252,2.219-1.052C130.177,227.172,130.935,227.968,130.789,228.749z"/>
			<path style="fill:#FFFFFF;" d="M125.267,228.518c-0.104,0.558-0.813,0.895-1.585,0.751c-0.772-0.143-1.313-0.712-1.209-1.27
				c0.104-0.558,0.813-0.894,1.585-0.751C124.83,227.391,125.371,227.96,125.267,228.518z"/>
		</g>
	</g>
</g>
</svg>
