<?xml version="1.0" encoding="utf-8"?>
<!-- Generator: Adobe Illustrator 27.5.0, SVG Export Plug-In . SVG Version: 6.00 Build 0)  -->
<svg version="1.1" xmlns="http://www.w3.org/2000/svg" xmlns:xlink="http://www.w3.org/1999/xlink" x="0px" y="0px"
	 viewBox="0 0 500 500" style="enable-background:new 0 0 500 500;" xml:space="preserve">
<g id="BACKGROUND">
	<rect style="fill:#D3E5E1;" width="500" height="500"/>
</g>
<g id="OBJECTS">
	<path style="fill:#A8C9B5;" d="M119.397,459.447H63.109c-2.27,0-4.127-1.857-4.127-4.127v-0.502c0-2.27,1.857-4.127,4.127-4.127
		h56.288c2.27,0,4.127,1.857,4.127,4.127v0.502C123.524,457.59,121.667,459.447,119.397,459.447z"/>
	<path style="fill:#A8C9B5;" d="M447.301,459.447h-56.288c-2.27,0-4.127-1.857-4.127-4.127v-0.502c0-2.27,1.857-4.127,4.127-4.127
		h56.288c2.27,0,4.127,1.857,4.127,4.127v0.502C451.429,457.59,449.571,459.447,447.301,459.447z"/>
	<path style="fill:#A8C9B5;" d="M344.314,461.191H167.475c-2.722,0-4.949-2.227-4.949-4.949v-0.602c0-2.722,2.227-4.949,4.949-4.949
		h176.839c2.722,0,4.949,2.227,4.949,4.949v0.602C349.263,458.964,347.035,461.191,344.314,461.191z"/>
	<g>
		<path style="fill:#82AB85;" d="M390.615,386.512c0,0-21.406-22.379-16.541-29.839c4.865-7.46,17.514,6.162,17.514,6.162
			s-27.893-57.408-12.649-68.435c15.244-11.027,28.217,53.191,28.217,53.191s-14.919-75.57,9.081-77.841
			c24.001-2.27,12.325,73.949,12.325,73.949s3.243-42.488,19.785-38.272c16.541,4.216-6.162,54.164-6.162,54.164
			s8.108-14.271,15.568-9.73c7.46,4.541-0.609,28.459-8.757,36.974C440.848,395.352,390.615,386.512,390.615,386.512z"/>
		<path style="fill:#69886C;" d="M400.147,387.773c-1.376-2.942-2.861-5.855-4.526-8.645c-3.302-5.533-7.243-10.645-11.481-15.488
			c-0.488-0.558-1.502,0.202-1.042,0.804c3.806,4.973,7.121,10.328,10.06,15.854c1.459,2.742,2.88,5.494,4.149,8.331
			c1.277,2.854,2.341,5.936,4.259,8.443c0.397,0.518,1.383,0.429,1.352-0.366C402.793,393.559,401.46,390.58,400.147,387.773z"/>
		<path style="fill:#69886C;" d="M412.664,393.629c-0.354-1.503-0.727-3.003-1.111-4.498c-0.747-2.907-1.573-5.796-2.384-8.685
			c-1.622-5.781-3.305-11.545-5.047-17.291c-3.459-11.405-7.078-22.782-11.137-33.989c-2.321-6.408-4.939-12.651-7.583-18.93
			c-0.33-0.784-1.604-0.496-1.319,0.363c1.886,5.689,3.612,11.422,5.541,17.096c1.932,5.683,3.861,11.368,5.74,17.069
			c3.733,11.323,7.23,22.724,10.491,34.193c0.915,3.218,1.811,6.441,2.688,9.669c0.45,1.655,0.936,3.301,1.407,4.951
			c0.476,1.67,1.209,3.213,1.829,4.834c0.358,0.935,1.617,0.564,1.478-0.408C413.051,396.549,413.001,395.059,412.664,393.629z"/>
		<path style="fill:#69886C;" d="M420.421,374.049c-0.272-7.15-0.395-14.299-0.395-21.454c0-14.538,0.41-29.081,0.172-43.619
			c-0.135-8.255-0.715-16.445-1.777-24.634c-0.083-0.64-1.072-0.683-1.036,0c0.772,14.659,0.391,29.411-0.126,44.072
			c-0.513,14.53-0.959,29.006-0.487,43.544c0.263,8.107,0.328,16.292,2.152,24.226c0.209,0.911,1.409,0.592,1.506-0.204
			C421.314,388.678,420.7,381.378,420.421,374.049z"/>
		<path style="fill:#69886C;" d="M443.43,319.25c-2.448,9.847-6.166,19.3-8.862,29.072c-2.69,9.746-4.379,19.775-5.069,29.861
			c-0.382,5.584-0.968,11.619,0.803,17.006c0.181,0.552,1.054,0.63,1.199,0c1.105-4.82,0.746-9.828,0.982-14.747
			c0.246-5.138,0.753-10.265,1.543-15.348c0.772-4.971,1.796-9.904,3.068-14.771c1.287-4.926,2.926-9.744,4.384-14.62
			c1.596-5.342,2.909-10.73,2.767-16.342C444.233,318.903,443.546,318.784,443.43,319.25z"/>
		<path style="fill:#69886C;" d="M453.033,359.015c-3.452,5.14-5.871,11.011-7.791,16.875c-0.952,2.906-1.736,5.854-2.371,8.846
			c-0.167,0.787-0.323,1.574-0.444,2.37c-0.059,0.391-0.149,0.793-0.167,1.186c-0.019,0.435,0.165,0.688,0.204,1.097
			c0.106,1.107-0.159,2.32,0.625,3.275c0.116,0.141,0.403,0.182,0.552,0.071c0.936-0.696,1.104-1.914,1.514-2.944
			c0.242-0.608,0.504-1.082,0.634-1.758c0.152-0.79,0.286-1.582,0.429-2.374c0.545-3.005,1.221-5.995,2.002-8.948
			c1.559-5.894,3.77-11.539,5.872-17.249C454.331,358.815,453.38,358.498,453.033,359.015z"/>
		<path style="fill:#845555;" d="M450.334,382.296h-62.029c-2.322,0-4.102,2.062-3.764,4.359l9.488,64.394
			c0.275,1.867,1.877,3.25,3.763,3.25h43.054c1.887,0,3.488-1.383,3.763-3.25l9.488-64.394
			C454.436,384.358,452.655,382.296,450.334,382.296z"/>
		<g>
			<path style="fill:#A7696A;" d="M430.537,389.922c-11.126,0.004-22.252,0.007-33.378,0.01c-3.18,0.001-6.357,0.037-9.537,0.086
				c-0.858,0.013-1.719,0.017-2.58,0.034l0.581,3.945c0.313,0.006,0.625,0.016,0.939,0.02c2.737,0.042,5.475,0.101,8.212,0.102
				c5.563,0.001,11.126,0.003,16.689,0.005c11.126,0.003,22.252,0.007,33.379,0.01c2.717,0.001,5.434,0.009,8.151,0.011l0.628-4.261
				C445.927,389.857,438.229,389.919,430.537,389.922z"/>
			<path style="fill:#603E3D;" d="M430.537,425.923c-11.126,0.003-22.252,0.007-33.378,0.01c-2.274,0.001-4.547,0.033-6.821,0.062
				l0.603,4.092c1.278,0.018,2.556,0.033,3.834,0.033c5.563,0.001,11.126,0.003,16.689,0.005c11.126,0.004,22.252,0.007,33.379,0.01
				c0.949,0,1.899,0.003,2.848,0.005l0.627-4.258C442.39,425.887,436.462,425.921,430.537,425.923z"/>
			<path style="fill:#A7696A;" d="M411.464,418.125c11.126,0.004,22.252,0.007,33.379,0.01c1.538,0,3.077,0.005,4.616,0.008
				l0.628-4.262c-6.517-0.003-13.035,0.038-19.549,0.04c-11.126,0.003-22.252,0.007-33.378,0.01
				c-2.863,0.001-5.724,0.036-8.587,0.078l0.597,4.05c1.869,0.031,3.737,0.059,5.606,0.06
				C400.337,418.122,405.901,418.124,411.464,418.125z"/>
			<path style="fill:#603E3D;" d="M397.159,401.932c-3.18,0.001-6.357,0.037-9.537,0.086c-0.271,0.004-0.544,0.005-0.816,0.007
				l0.59,4.005c2.459,0.04,4.919,0.088,7.378,0.088c5.563,0.002,11.126,0.003,16.689,0.005c11.126,0.003,22.252,0.007,33.379,0.01
				c2.128,0.001,4.256,0.007,6.383,0.01l0.628-4.263c-7.106-0.013-14.214,0.038-21.317,0.04
				C419.411,401.926,408.285,401.929,397.159,401.932z"/>
		</g>
	</g>
	<g>
		<path style="fill:#69886C;" d="M87.46,381.775c-0.074-2.832-0.197-5.663-0.393-8.49c-0.385-5.56-0.985-11.103-1.77-16.62
			c-1.506-10.581-3.52-21.393-7.285-31.43c-1.85-4.931-4.444-9.536-8.143-13.324c-0.422-0.432-0.995,0.196-0.645,0.645
			c5.931,7.609,7.724,17.793,9.606,27.014c2.149,10.528,3.63,21.191,4.305,31.916c0.189,2.997,0.329,5.999,0.412,9.002
			c0.043,1.545,0.054,3.09,0.081,4.634c0.028,1.609,0.429,3.07,0.614,4.635c0.157,1.327,2.378,1.974,2.605,0.353
			c0.187-1.342,0.583-2.583,0.65-3.958C87.569,384.698,87.497,383.23,87.46,381.775z"/>
		<path style="fill:#69886C;" d="M112.881,329.664c-7.281,4.783-10.866,12.928-12.582,21.194c-1.006,4.846-1.496,9.767-2.028,14.682
			c-0.533,4.924-1.007,9.853-1.2,14.804c-0.111,2.855-0.139,5.714-0.045,8.57c0.046,1.409,0.034,2.86,0.373,4.235
			c0.157,0.639,0.339,1.336,0.634,1.927c0.313,0.625,0.845,0.897,1.304,1.39c0.35,0.376,0.985,0.263,1.237-0.159
			c0.262-0.438,0.667-0.75,0.871-1.231c0.187-0.441,0.214-0.963,0.283-1.436c0.184-1.257,0.159-2.427,0.108-3.688
			c-0.098-2.422-0.106-4.846-0.047-7.269c0.115-4.684,0.467-9.365,0.886-14.03c0.42-4.672,0.884-9.343,1.373-14.008
			c0.449-4.285,1.233-8.571,2.652-12.649c1.457-4.186,3.804-8.145,7.11-11.128C114.451,330.289,113.611,329.184,112.881,329.664z"/>
		<path style="fill:#69886C;" d="M95.005,374.581c-0.035-3.691-0.255-7.38-0.439-11.066c-0.378-7.552-0.824-15.1-1.337-22.643
			c-0.513-7.544-1.094-15.082-1.743-22.615c-0.619-7.189-1.439-14.372-1.846-21.577c-0.452-8.016-0.234-16.047,1.394-23.931
			c0.229-1.111-1.28-1.501-1.678-0.463c-4.032,10.5-3.249,22.062-2.111,33.26c-0.325-2.495-0.649-4.99-0.973-7.484
			c-1.399-10.755-2.601-21.564-4.493-32.246c-0.891-5.028-1.794-10.192-3.676-14.962c-1.602-4.062-4.184-8.199-8.232-10.168
			c-1.29-0.628-2.235,1.061-1.109,1.896c6.971,5.167,8.388,14.519,9.78,22.517c1.824,10.483,2.879,21.098,4.136,31.659
			c1.252,10.523,2.503,21.047,3.755,31.57c0.618,5.192,1.323,10.376,1.735,15.591c0.411,5.195,0.501,10.407,0.523,15.617
			c0.049,11.567-0.67,23.452,3.226,34.523c0.184,0.522,1.046,0.479,1.017-0.138c-0.248-5.379-0.43-10.765-0.542-16.152
			c0.177,2.888,0.387,5.777,0.923,8.609c0.17,0.899,1.373,0.563,1.465-0.198C95.245,382.341,95.041,378.444,95.005,374.581z"/>
		<path style="fill:#845555;" d="M122.49,382.296H60.461c-2.322,0-4.102,2.062-3.764,4.359l9.488,64.394
			c0.275,1.867,1.877,3.25,3.764,3.25h43.054c1.887,0,3.488-1.383,3.764-3.25l9.488-64.394
			C126.592,384.358,124.812,382.296,122.49,382.296z"/>
		<path style="fill:#82AB85;" d="M64.38,309.143c0,0-18.859-31.121-26.643,3.421c-7.784,34.542,5.838,59.353,5.838,59.353
			s45.732-26.758,47.678-49.624C93.199,299.428,74.597,296.007,64.38,309.143z"/>
		<path style="fill:#82AB85;" d="M95.631,269.874c0,0-26.655-5.959-11.993,16.207c14.662,22.166,35.179,27.682,35.179,27.682
			s9.273-38.673-2.099-51.609C105.345,249.217,93.826,257.514,95.631,269.874z"/>
		<path style="fill:#82AB85;" d="M65.595,238.864c0,0-13.983-16.691-15.446,4.445c-1.463,21.136,8.849,34.572,8.849,34.572
			s24.614-19.983,23.686-33.683C81.756,230.499,70.443,230.167,65.595,238.864z"/>
		<path style="fill:#82AB85;" d="M120.091,330.426c0,0,17.1-23.854,21.212,4.407c4.112,28.261-8.385,47.366-8.385,47.366
			s-35.111-24.361-35.254-42.869C97.52,320.822,112.692,319.228,120.091,330.426z"/>
		<g>
			<path style="fill:#A7696A;" d="M102.612,389.922c-11.126,0.004-22.252,0.007-33.378,0.01c-3.18,0.001-6.357,0.037-9.537,0.086
				c-0.858,0.013-1.719,0.017-2.58,0.034l0.581,3.945c0.313,0.006,0.625,0.016,0.939,0.02c2.737,0.042,5.475,0.101,8.212,0.102
				c5.563,0.001,11.126,0.003,16.689,0.005c11.126,0.003,22.252,0.007,33.379,0.01c2.717,0.001,5.434,0.009,8.151,0.011l0.628-4.261
				C118.002,389.857,110.304,389.919,102.612,389.922z"/>
			<path style="fill:#603E3D;" d="M102.612,425.923c-11.126,0.003-22.252,0.007-33.378,0.01c-2.274,0.001-4.548,0.033-6.821,0.062
				l0.603,4.092c1.278,0.018,2.556,0.033,3.834,0.033c5.563,0.001,11.126,0.003,16.689,0.005c11.126,0.004,22.252,0.007,33.379,0.01
				c0.949,0,1.899,0.003,2.848,0.005l0.627-4.258C114.465,425.887,108.537,425.921,102.612,425.923z"/>
			<path style="fill:#A7696A;" d="M83.539,418.125c11.126,0.004,22.252,0.007,33.379,0.01c1.538,0,3.077,0.005,4.616,0.008
				l0.628-4.262c-6.517-0.003-13.035,0.038-19.549,0.04c-11.126,0.003-22.252,0.007-33.378,0.01
				c-2.863,0.001-5.725,0.036-8.587,0.078l0.597,4.05c1.869,0.031,3.737,0.059,5.606,0.06
				C72.412,418.122,77.976,418.124,83.539,418.125z"/>
			<path style="fill:#603E3D;" d="M69.234,401.932c-3.18,0.001-6.357,0.037-9.537,0.086c-0.271,0.004-0.544,0.005-0.816,0.007
				l0.59,4.005c2.459,0.04,4.919,0.088,7.378,0.088c5.563,0.002,11.126,0.003,16.689,0.005c11.126,0.003,22.252,0.007,33.379,0.01
				c2.128,0.001,4.256,0.007,6.383,0.01l0.628-4.263c-7.106-0.013-14.214,0.038-21.317,0.04
				C91.486,401.926,80.36,401.929,69.234,401.932z"/>
		</g>
		<path style="fill:#69886C;" d="M65.709,342.591c-0.149-1.145-0.318-2.288-0.513-3.426c-0.386-2.253-0.868-4.494-1.37-6.723
			c-0.504-2.234-1.085-4.436-1.871-6.588c-0.646-1.769-1.182-3.793-2.537-5.136c0.07-0.163,0.14-0.325,0.21-0.488
			c0.925-2.153,1.927-4.254,3.049-6.311c1.084-1.988,2.297-3.841,3.027-5.992c0.221-0.649-0.655-1.085-1.108-0.645
			c-1.28,1.242-2.221,2.713-3.103,4.237c-0.139-0.079-0.291-0.139-0.46-0.155c-0.972-0.09-1.76,0.307-2.628,0.7
			c-0.766,0.346-1.52,0.717-2.261,1.113c-1.526,0.814-2.998,1.731-4.403,2.74c-2.807,2.015-5.249,4.319-7.347,7.065
			c-0.381,0.499,0.42,1.061,0.846,0.653c2.367-2.267,4.967-4.37,7.759-6.091c1.36-0.838,2.771-1.593,4.223-2.259
			c0.75-0.344,1.512-0.659,2.284-0.948c0.168-0.063,0.329-0.122,0.489-0.182c-0.97,1.709-1.938,3.422-2.863,5.154
			c-2.204,4.124-3.876,8.622-5.391,13.036c-0.042,0.123-0.078,0.247-0.119,0.37c-0.022,0.007-0.045,0.007-0.067,0.015
			c-0.294,0.109-0.554,0.293-0.814,0.465c-0.498,0.329-0.991,0.668-1.478,1.014c-0.988,0.701-1.955,1.432-2.9,2.19
			c-0.92,0.737-1.742,1.485-2.51,2.381c-0.799,0.933-1.643,1.819-2.461,2.735c-0.252,0.282,0.125,0.647,0.41,0.41
			c0.916-0.761,1.833-1.487,2.851-2.108c0.99-0.604,1.915-1.254,2.863-1.923c0.919-0.648,1.856-1.27,2.811-1.864
			c0.095-0.059,0.192-0.114,0.287-0.172c-0.7,2.33-1.299,4.691-1.819,7.069c-0.053,0.072-0.107,0.144-0.135,0.235
			c-0.102,0.331-0.217,0.515-0.188,0.882c0.006,0.07,0.029,0.141,0.039,0.213c-1.072,5.267-1.706,10.623-1.859,15.985
			c-0.016,0.57,0.924,0.724,1.017,0.138c0.634-3.988,1.416-7.944,2.332-11.866c0.159,0.409,0.316,0.819,0.495,1.222
			c0.455,1.02,0.821,2.059,1.17,3.119c0.176,0.533,0.323,1.082,0.525,1.605c0.22,0.569,0.502,1.102,0.698,1.681
			c0.219,0.647,1.09,0.372,0.999-0.275c-0.086-0.612-0.074-1.232-0.164-1.842c-0.088-0.59-0.241-1.177-0.372-1.759
			c-0.249-1.099-0.508-2.192-0.729-3.297c-0.222-1.108-0.579-2.165-0.945-3.233c-0.185-0.539-0.354-1.095-0.588-1.616
			c0.957-3.638,2.036-7.246,3.253-10.816c1.118-3.28,2.443-6.46,3.804-9.633c0.388,1.143,0.941,2.263,1.326,3.339
			c0.747,2.082,1.525,4.154,2.191,6.264c0.666,2.11,1.168,4.255,1.588,6.426c0.202,1.046,0.383,2.096,0.544,3.149
			c0.154,1.013,0.083,2.133,0.852,2.887c0.286,0.281,0.733,0.203,0.944-0.122C66.177,344.712,65.84,343.601,65.709,342.591z"/>
		<path style="fill:#69886C;" d="M68.542,258.823c-0.089-0.357-0.16-0.72-0.304-1.059c-0.139-0.326-0.275-0.655-0.421-0.977
			c-0.279-0.616-0.672-1.194-1.014-1.778c-0.343-0.587-0.778-1.131-1.172-1.686c-0.246-0.348-0.477-0.749-0.77-1.059
			c-0.304-0.322-0.83-0.627-1.297-0.655c0.452-2.199,0.982-4.383,1.629-6.533c0.4-1.328,0.836-2.645,1.309-3.949
			c0.366-1.009,0.746-2.103,0.123-3.086c-0.109-0.173-0.314-0.263-0.515-0.21c-1.044,0.278-1.519,1.215-1.872,2.165
			c-0.314,0.845-0.588,1.707-0.851,2.572c-0.136,0.041-0.271,0.089-0.404,0.153c-0.604,0.289-1.122,0.719-1.648,1.132
			c-0.988,0.775-1.919,1.622-2.784,2.532c-1.743,1.833-2.905,4.15-3.677,6.537c-0.102,0.315,0.321,0.43,0.492,0.207
			c1.45-1.882,3.147-3.548,4.798-5.247c0.733-0.755,1.518-1.463,2.34-2.12c-0.568,2.16-1.068,4.339-1.442,6.541
			c-0.327,1.926-0.614,3.877-0.775,5.832c-0.103,0.087-0.204,0.177-0.305,0.258c-0.171,0.138-0.306,0.319-0.451,0.483
			c-0.154,0.174-0.311,0.345-0.469,0.515c-0.308,0.331-0.624,0.656-0.947,0.973c-0.209,0.205-0.424,0.393-0.58,0.645
			c-0.117,0.188-0.228,0.379-0.346,0.565c-0.171,0.268-0.119,0.688,0.117,0.904c0.261,0.239,0.59,0.263,0.904,0.117
			c0.206-0.096,0.418-0.186,0.619-0.293c0.254-0.135,0.464-0.356,0.674-0.551c0.216-0.201,0.425-0.412,0.635-0.619
			c-0.083,2.429-0.238,5.169,0.395,7.456c0.136,0.491,0.928,0.535,1.039,0c0.242-1.166,0.187-2.382,0.257-3.568
			c0.081-1.388,0.202-2.774,0.36-4.156c0.236-2.063,0.474-4.124,0.798-6.173c0.115,0.139,0.232,0.277,0.339,0.415
			c0.417,0.537,0.81,1.11,1.272,1.608c0.458,0.494,0.895,1.036,1.401,1.479c0.264,0.231,0.534,0.46,0.807,0.68
			c0.282,0.227,0.608,0.398,0.918,0.584C68.148,259.711,68.659,259.289,68.542,258.823z"/>
		<path style="fill:#69886C;" d="M119.045,296.011c-0.117-0.246-0.217-0.501-0.409-0.702c-0.164-0.172-0.37-0.331-0.553-0.483
			c-0.423-0.351-0.9-0.673-1.38-0.941c-0.428-0.239-0.851-0.499-1.29-0.719c-0.297-0.149-0.617-0.235-0.933-0.332
			c-0.238-0.073-0.458-0.099-0.683-0.099c-0.405-0.071-0.826-0.16-1.171,0.123c-0.029,0.024-0.04,0.057-0.065,0.083
			c-1.499-3.15-3.156-6.233-4.952-9.222c-0.727-1.211-1.492-2.396-2.273-3.569c0.302,0.072,0.599,0.145,0.877,0.232
			c0.87,0.27,1.741,0.531,2.598,0.843c0.811,0.296,1.609,0.624,2.392,0.987c0.907,0.421,1.841,0.742,2.773,1.102
			c0.777,0.301,1.33-0.818,0.786-1.351c-0.717-0.703-1.448-1.37-2.302-1.902c-0.829-0.516-1.681-0.997-2.551-1.441
			c-0.929-0.474-1.88-0.92-2.854-1.291c-0.936-0.356-2.038-0.875-3.047-0.866c-0.394,0.003-0.728,0.142-0.987,0.361
			c-0.628-0.859-1.266-1.71-1.923-2.549c-1.187-1.517-2.419-2.997-3.695-4.44c-0.685-0.775-1.365-1.567-2.123-2.27
			c-0.795-0.737-1.388-0.924-2.429-1.189c-0.512-0.13-0.968,0.332-0.841,0.841c0.274,1.1,0.396,1.58,1.15,2.468
			c0.547,0.644,1.134,1.252,1.705,1.875c-0.026,0.02-0.055,0.027-0.081,0.051c-0.556,0.503-0.556,1.157-0.534,1.852
			c0.021,0.653,0.034,1.307,0.076,1.959c0.083,1.307,0.185,2.612,0.277,3.918c0.092,1.306,0.185,2.612,0.277,3.918
			c0.087,1.236-0.019,2.63,0.571,3.735c0.243,0.455,1.065,0.519,1.288,0c0.135-0.313,0.29-0.593,0.328-0.936
			c0.029-0.264-0.006-0.574-0.009-0.84l-0.02-1.959c-0.014-1.306-0.027-2.612-0.04-3.918c-0.014-1.306-0.02-2.612-0.04-3.918
			c-0.008-0.524-0.039-1.047-0.066-1.57c0.616,0.721,1.222,1.45,1.817,2.189c2.38,2.957,4.593,6.062,6.627,9.266
			c0.477,0.751,0.939,1.511,1.391,2.277c-0.163,0.06-0.314,0.175-0.427,0.357c-0.215,0.345-0.377,0.659-0.463,1.058
			c-0.076,0.353-0.153,0.705-0.229,1.057c-0.142,0.654-0.284,1.309-0.425,1.963c-0.142,0.654-0.284,1.309-0.426,1.963
			c-0.15,0.692-0.425,1.463-0.194,2.164c0.133,0.403,0.619,0.545,0.935,0.247c0.534-0.504,0.661-1.294,0.857-1.97
			c0.186-0.642,0.372-1.284,0.558-1.926c0.186-0.642,0.372-1.284,0.558-1.927c0.113-0.389,0.229-0.759,0.31-1.136
			c1.06,1.9,2.057,3.834,2.977,5.808c0.829,1.777,1.587,3.582,2.314,5.403c0.594,1.487,1.021,3.447,2.488,4.313
			c0.34,0.2,0.691-0.006,0.822-0.334c0.67-1.674-0.42-3.738-1.034-5.293c-0.562-1.423-1.164-2.83-1.789-4.226
			c0.283,0.219,0.563,0.42,0.888,0.583c0.672,0.337,1.334,0.672,2.038,0.939c0.321,0.121,0.637,0.218,0.969,0.305
			c0.291,0.076,0.525,0.097,0.822,0.054c0.132-0.019,0.264-0.04,0.397-0.059C119.104,296.86,119.198,296.331,119.045,296.011z"/>
		<path style="fill:#69886C;" d="M136.459,363.23c0.021-0.172-0.019-0.32-0.076-0.464c-0.053-0.605-0.537-1.097-0.946-1.539
			c-0.443-0.479-1.01-0.752-1.589-1.032c-0.575-0.278-1.17-0.576-1.779-0.768c-0.32-0.101-0.751-0.12-1.097-0.133
			c-0.529-0.019-0.968,0.215-1.283,0.622c-0.006,0.008-0.007,0.017-0.013,0.025c-0.957-3.553-1.939-7.099-2.951-10.636
			c-0.703-2.456-1.405-4.908-2.085-7.368c0.372,0.206,0.745,0.411,1.112,0.629c1.086,0.645,2.155,1.323,3.192,2.044
			c0.974,0.677,1.915,1.397,2.823,2.161c1.002,0.844,1.889,1.763,3.164,2.183c0.596,0.196,1.216-0.435,1.027-1.027
			c-0.421-1.32-1.411-2.188-2.419-3.076c-1.007-0.888-2.059-1.727-3.139-2.524c-1.019-0.752-2.069-1.455-3.162-2.095
			c-0.576-0.337-1.16-0.66-1.751-0.969c-0.578-0.302-1.133-0.607-1.767-0.71c-0.471-1.836-0.951-3.669-1.438-5.501
			c-0.222-0.835-0.437-1.672-0.695-2.497c-0.135-0.431-0.265-0.871-0.446-1.285c-0.223-0.508-0.536-0.787-0.829-1.267
			c-0.403-0.66-1.538-0.417-1.506,0.408c0.037,0.959-0.005,1.612,0.257,2.571c0.159,0.583,0.34,1.158,0.524,1.732
			c-0.358,0.507-0.657,1.02-0.936,1.595c-0.35,0.72-0.813,1.356-1.167,2.06c-0.734,1.456-1.286,3.04-1.852,4.566
			c-0.55,1.484-1.094,2.97-1.632,4.459c-0.27,0.749-0.532,1.484-0.725,2.257c-0.094,0.378-0.225,0.765-0.285,1.15
			c-0.071,0.457-0.021,0.915-0.121,1.371c-0.064,0.294,0.329,0.475,0.492,0.207c0.413-0.677,0.957-1.242,1.36-1.937
			c0.4-0.689,0.738-1.386,1.071-2.108c0.662-1.437,1.329-2.871,2.003-4.303c0.677-1.437,1.316-2.884,1.941-4.345
			c0.314-0.734,0.422-1.504,0.71-2.252c0.001-0.003,0.002-0.005,0.003-0.008c0.394,1.24,0.79,2.479,1.177,3.722
			c1.107,3.554,2.018,7.146,2.904,10.762c0.063,0.257,0.119,0.515,0.182,0.772c-0.464,0.447-0.856,1.059-1.035,1.392
			c-0.533,0.991-0.814,2.132-1.116,3.212c-0.615,2.203-1.005,4.609-0.743,6.895c0.054,0.469,0.747,0.809,1.004,0.272
			c0.985-2.06,1.69-4.268,2.448-6.42c0.133-0.378,0.285-0.753,0.436-1.129c0.462,1.953,0.938,3.903,1.38,5.862
			c0.419,1.855,0.854,3.705,1.294,5.556c0.19,0.797,0.355,1.562,0.692,2.312c0.413,0.92,1.072,1.663,1.507,2.56
			c0.175,0.362,0.734,0.173,0.734-0.199c-0.001-0.937,0.261-1.833,0.234-2.778c-0.026-0.916-0.238-1.758-0.449-2.645
			c-0.29-1.219-0.607-2.43-0.919-3.643c0.16,0.111,0.329,0.212,0.487,0.311c0.318,0.197,0.683,0.304,1.031,0.437
			c0.126,0.048,0.25,0.099,0.375,0.149c0.031,0.014,0.063,0.027,0.094,0.041c0.574,0.253,1.148,0.634,1.762,0.759
			c0.553,0.113,1.28,0.391,1.836,0.158C136.104,363.761,136.413,363.614,136.459,363.23z"/>
	</g>
	<g>
		<path style="fill:#845555;" d="M288.044,59.095c-28.47,0-37.461,28.947-36.245,48.65c1.216,19.703-9.973,18.487-6.811,33.326
			c3.162,14.838-20.19,39.65,2.676,59.84c22.866,20.19,70.698,21.354,78.327,8.514c9.973-16.784,14.109-37.461,8.027-46.948
			c-6.081-9.487-1.216-29.19-7.054-38.191C321.126,115.286,340.343,59.095,288.044,59.095z"/>
		<path style="fill:#CD5E41;" d="M258.854,445.055c-1.297,0.568-1.541,8.919,0.162,10.298c1.703,1.378,16.622,1.703,21.082,1.541
			c4.46-0.162,3.892-7.135-0.568-8.676c-2.747-0.949-10.055-1.784-10.055-1.784s-4.784-3.081-5.595-2.838
			C263.07,443.839,258.854,445.055,258.854,445.055z"/>
		<path style="fill:#E7B9A3;" d="M259.34,425.27c0,0-0.811,16.379-0.486,19.785c0.324,3.405,9.568,3.324,10.622,1.378
			c1.054-1.946,4.784-19.136,4.865-20.757C274.422,424.054,260.313,423.73,259.34,425.27z"/>
		<path style="fill:#CD5E41;" d="M315.628,445.273c-1.29,0.583-1.431,8.937,0.288,10.295c1.72,1.357,16.642,1.499,21.099,1.282
			c4.457-0.217,3.804-7.183-0.674-8.668c-2.759-0.915-10.076-1.66-10.076-1.66s-4.821-3.022-5.629-2.769
			C319.83,444.005,315.628,445.273,315.628,445.273z"/>
		<path style="fill:#E7B9A3;" d="M313.414,426.742c0,0,1.393,16.34,2.171,19.671c0.778,3.331,9.927,2.011,10.711-0.059
			c0.784-2.07,2.174-19.605,2.037-21.223C328.196,423.514,314.171,425.085,313.414,426.742z"/>
		<path style="fill:#4C6381;" d="M253.989,251.75c0,0-3.162,16.541-1.216,36.488c1.946,19.947,6.811,58.624,7.298,77.598
			c0.487,18.974-2.903,54.213-2.676,58.624c0.228,4.411,15.325,7.054,17.757,4.135c2.432-2.919,13.865-45.245,17.514-60.813
			c3.649-15.568,5.352-35.272,5.352-35.272s12.889,90.946,13.379,95.841c0.487,4.865,16.541,1.703,18.244-0.486
			c1.703-2.189-0.973-148.384-9.73-178.547c0,0-29.677-15.082-31.38-13.865C286.828,236.669,253.989,251.75,253.989,251.75z"/>
		<path style="fill:#E7B9A3;" d="M329.344,183.671c0,0,0.539,7.333,3.025,10.883c2.487,3.55,36.316,16.954,39.608,18.315
			c3.292,1.36,8.114-3.187,10.013-2.06s-1.61,4.378-1.61,4.378s1.333-0.213,4.231-0.519c2.898-0.306,4.76-0.567,5.162,1.252
			c0,0,2.056,0.538,2.093,1.884c0.036,1.346-0.805,2.189-0.805,2.189s0.112,2.141-1.385,2.833c0,0-0.354,2.012-2.785,2.447
			c-2.431,0.434-8.138-0.186-11.751-1.836c-3.614-1.65-5.006-1.884-6.109-2.439s-34.269-6.747-42.309-10.925
			c-8.041-4.178-11.578-17.234-12.487-19.947S329.344,183.671,329.344,183.671z"/>
		<path style="fill:#CE5F57;" d="M270.043,142.773c-7.054,1.773-17.028,5.108-25.055,13.622c-8.027,8.514,0.973,25.46,1.216,24.731
			c0.243-0.73,7.217,2.351,7.217,2.351s6.162,51.245-2.352,69.732c0,0,46.704,19.703,71.516-2.676c0,0-7.541-18.001-8.514-32.596
			c-0.973-14.595,2.676-25.055,2.676-25.055s12.892-3.892,15.811-6.811c0,0-8.027-24.893-12.649-30.488
			c-4.622-5.595-21.902-10.111-21.902-10.111s-14.1-2.457-15.073-2.457C281.963,143.016,270.043,142.773,270.043,142.773z"/>
		<path style="fill:#E7B9A3;" d="M274.908,129.881c0,0,0.73,9.73-4.865,12.892c0,0,3.826,9,15.082,9c9.73,0,12.883-6.3,12.883-6.3
			s-8.018-4.16-5.099-17.782c0,0-10.703-1.459-11.433-1.459C280.746,126.232,274.908,129.881,274.908,129.881z"/>
		<path style="fill:#A2A2A8;" d="M310.348,268.823c0,0-1.703,186.858-1.703,188.156c0,1.297,4.541,1.297,4.541,0
			c0-1.297,2.432-189.575,2.432-189.575L310.348,268.823z"/>
		<path style="fill:#3A3941;" d="M294.415,242.551c-3.892,0.973-6.203,4.5-4.5,9c1.703,4.5,13.379,5.108,16.42,8.027
			c3.041,2.919,2.311,8.149,2.676,9.852c0.365,1.703,5.96,1.581,7.541,0.243c1.581-1.338,2.311-12.771,1.824-15.811
			c-0.487-3.041-9.973-11.798-10.582-12.284C307.186,241.092,294.415,242.551,294.415,242.551z"/>
		<path style="fill:#DE9B7F;" d="M288.983,240.524c0,0,5.716,1.338,8.271,4.135c2.554,2.797,2.797,7.906,4.865,7.662
			c2.068-0.243,1.946-3.162,1.703-5.473c0,0,3.284,2.433,4.5,6.568c1.216,4.135,4.135,4.135,4.865,2.676
			c0,0,2.676,1.946,3.405,0.851c0.73-1.095,0.73-2.189,0.73-2.189s1.703-0.608,1.338-3.041c-0.365-2.432-2.676-9.122-7.054-13.987
			c-4.379-4.865-15.099-6.851-18.366-8.149C293.24,229.578,288.861,237.362,288.983,240.524z"/>
		<path style="fill:#3A3941;" d="M313.187,456.978c0-0.183,0.048-4.104,0.132-10.698c-1.775,0.493-3.301,0.631-4.585,0.572
			c-0.056,6.244-0.088,9.948-0.088,10.126C308.646,458.276,313.187,458.276,313.187,456.978z"/>
		<path style="fill:#6B88AA;" d="M173.549,441.649c-0.953,2.935-1.307,10.062-0.784,13.328s24.435,1.96,28.486,0.915
			c4.051-1.045,3.92-8.886,0.653-10.454c-3.267-1.568-9.408-2.352-12.022-2.613C187.27,442.564,173.549,441.649,173.549,441.649z"/>
		<path style="fill:#6B88AA;" d="M216.186,441.649c-0.953,2.935-1.307,10.062-0.784,13.328c0.523,3.267,24.435,1.96,28.486,0.915
			c4.051-1.045,3.92-8.886,0.653-10.454c-3.267-1.568-9.408-2.352-12.022-2.613C229.906,442.564,216.186,441.649,216.186,441.649z"
			/>
		<path style="fill:#3A3941;" d="M159.85,261.643c0,0-1.946,22.704,1.297,45.245c3.243,22.541,9.892,56.759,9.892,70.867
			c0,14.109,0.649,62.11,0.811,64.381c0.162,2.27,15.974,3.73,19.257,0.811c5.657-5.028,20.149-94.22,20.149-94.22
			s4.296,84.996,3.73,92.922c-0.162,2.27,18.001,3.73,19.622,0.973c1.622-2.757,8.919-42.975,11.028-86.273
			s-1.946-89.517-1.946-89.517s-48.813-17.352-49.624-17.19C193.257,249.804,159.85,261.643,159.85,261.643z"/>
		<path style="fill:#DE9B7F;" d="M149.39,228.885c0,0,4.135,2.919,5.23,5.352c1.095,2.432,0.73,1.703,0.608,3.892
			c-0.122,2.189-3.77,1.095-5.108,1.946c-1.338,0.851-1.824,1.703-0.608,3.162c0,0-2.189-0.243-2.554,2.311
			c-0.365,2.554,4.014,3.041,8.392,3.527c4.379,0.486,7.784-1.338,9.973-3.77c2.189-2.433,3.162-9.973,1.824-14.838
			c-1.338-4.865-5.906-13.145-6.446-13.136c-0.54,0.009-9,5.473-9.365,6.081C150.971,224.02,149.39,228.885,149.39,228.885z"/>
		<path style="fill:#6B88AA;" d="M192.77,133.367c0,0-12,1.46-18.487,4.703c-6.487,3.243-36.488,27.406-42.488,41.839
			c-6,14.433,16.095,50.191,19.176,51.651c3.081,1.46,12.203-7.095,13.501-9.365c1.297-2.27-10.298-23.15-10.135-28.825
			c0.162-5.676,18.325-16.379,18.325-16.379s-4.541,61.786-15.406,86.111c0,0,51.083,21.731,87.895,6.162
			c0,0,3.243-28.704,0.487-51.407c0,0,35.785,25.367,43.299,24.001c3.568-0.649,6.933-11.798,6.284-13.582
			c-0.649-1.784-28.339-23.393-33.528-29.069c-5.189-5.676-13.136-44.272-18.811-51.245c-5.676-6.973-25.623-11.676-25.623-11.676
			s-14.433-3.406-15.082-3.568C201.527,132.557,192.77,133.367,192.77,133.367z"/>
		<path style="fill:#DE9B7F;" d="M195.203,125.097c0,0-1.622,5.676-2.433,8.271c0,0,13.622,6.811,24.487,2.919
			c0,0-1.135-12.325-1.622-12.811C215.149,122.989,195.203,125.097,195.203,125.097z"/>
		<path style="fill:#FFFFFF;" d="M215.798,39.31c-4.231,1.31-14.271-2.919-19.136,0.973c-4.865,3.892-13.136,2.919-15.893,10.865
			c-2.757,7.946-3.081,9.568-5.838,12.649c-2.757,3.081-4.216,8.919-2.108,13.622c2.108,4.703,1.784,9.406,1.46,12.973
			c-0.324,3.568,4.054,10.541,7.298,13.622c3.243,3.081,0.96,5.96,2.919,11.838c1.459,4.379,7.784,12.325,13.298,12.487
			c5.514,0.162,8.271,1.946,12.163,4.054c3.892,2.108,10.379,2.432,12.973-0.973c2.595-3.405,8.271-2.108,9.568-5.514
			c1.297-3.406,6-6.649,6.649-12.811c0.649-6.162,0.162-8.433,1.46-10.541c1.297-2.108,5.514-5.838,4.379-12.001
			c-1.135-6.162,3.892-15.893,0.811-20.595c-3.081-4.703-6.811-9.73-7.946-16.055c-1.135-6.325-5.189-12.001-8.595-12.487
			C225.853,40.932,222.609,37.202,215.798,39.31z"/>
		<path style="fill:#DE9B7F;" d="M186.283,83.257c0,0-5.027-4.379-6.487,2.595c-1.46,6.973,3.694,10.541,6.973,10.541
			C188.067,96.393,187.905,84.879,186.283,83.257z"/>
		<path style="fill:#DE9B7F;" d="M201.608,64.527c-7.135,2.433-10.541,11.514-11.19,18.812c-0.649,7.298-0.487,17.839,6.325,19.136
			c6.811,1.297,10.389-6.92,18.325-6.487c8.919,0.487,9.406,2.757,12.163,5.676c2.757,2.919,4.378,1.297,5.676,0
			c1.297-1.297,4.054-14.271,2.595-21.244c-1.46-6.973-5.189-14.109-6.811-15.244C226.744,67.122,211.014,74.257,201.608,64.527z"/>
		<path style="fill:#D3795C;" d="M185.523,86.687c-0.371-0.629-0.89-1.202-1.613-1.409c-0.52-0.149-1.549-0.155-1.681,0.525
			c-0.025,0.127,0.053,0.216,0.176,0.231c0.365,0.045,0.697-0.094,1.072,0.038c0.351,0.124,0.64,0.395,0.843,0.701
			c0.227,0.342,0.381,0.721,0.518,1.105c-0.285-0.027-0.575,0.023-0.839,0.183c-0.592,0.359-0.872,1.084-1.028,1.729
			c-0.149,0.618-0.178,1.328,0.196,1.877c0.478,0.7,1.308,0.844,2.05,0.507c0.637-0.29,1.061-0.9,1.226-1.567
			C186.773,89.281,186.192,87.82,185.523,86.687z"/>
		<path style="fill:#D3795C;" d="M160.203,236.329c-0.063-0.102-0.243-0.124-0.3,0c-0.232,0.5-0.443,0.97-0.606,1.497
			c-0.176,0.572-0.396,1.099-0.71,1.61c-0.541,0.881-1.268,1.629-2.093,2.249c-1.642,1.235-3.715,1.885-5.765,1.826
			c-0.333-0.01-0.421,0.534-0.08,0.594c2.31,0.411,4.703-0.154,6.613-1.515c0.95-0.677,1.767-1.545,2.385-2.534
			c0.358-0.573,0.7-1.236,0.848-1.899C160.642,237.497,160.564,236.908,160.203,236.329z"/>
		<path style="fill:#D3795C;" d="M313.181,252.669c-0.356-1.197-0.805-2.385-1.35-3.509c-0.539-1.113-1.175-2.183-1.904-3.182
			c-0.66-0.905-1.43-2.007-2.415-2.578c-0.164-0.095-0.358,0.096-0.261,0.261c0.549,0.931,1.359,1.712,1.951,2.625
			c0.619,0.955,1.151,1.965,1.606,3.007c0.453,1.039,0.85,2.098,1.181,3.182c0.159,0.52,0.32,1.041,0.443,1.57
			c0.139,0.597,0.14,1.21,0.257,1.811c0.044,0.227,0.383,0.318,0.533,0.141C314.016,255.067,313.49,253.707,313.181,252.669z"/>
		<path style="fill:#D3795C;" d="M316.961,251.738c-0.527-1.694-1.222-3.337-2.083-4.888c-0.951-1.713-2.123-3.513-3.614-4.808
			c-0.168-0.146-0.46,0.042-0.326,0.251c0.97,1.51,2.035,2.928,2.888,4.515c0.86,1.599,1.562,3.285,2.079,5.025
			c0.128,0.428,0.27,1.834,0.974,1.71C317.617,253.414,317.079,252.117,316.961,251.738z"/>
		<path style="fill:#50667E;" d="M216.761,136.026c-0.002,0.005-0.001,0.003-0.003,0.007c-0.125,0.04-0.25,0.079-0.376,0.117
			c-0.274,0.083-0.55,0.162-0.827,0.236c-0.484,0.13-0.972,0.246-1.463,0.349c-1.036,0.218-2.082,0.373-3.138,0.462
			c-2.088,0.176-4.208,0.132-6.285-0.16c-2.09-0.294-4.159-0.822-6.137-1.558c-1.001-0.373-1.979-0.809-2.952-1.247
			c-0.938-0.423-1.879-1.036-2.866-1.318c-0.535-0.153-0.787,0.479-0.496,0.852c0.534,0.685,1.424,1.227,2.147,1.693
			c0.753,0.485,1.539,0.909,2.359,1.269c1.715,0.753,3.49,1.364,5.318,1.775c3.609,0.812,7.329,0.948,10.988,0.418
			c1.028-0.149,2.048-0.355,3.053-0.619c1.002-0.263,2.102-0.426,2.48-1.518C218.925,135.743,217.235,135.008,216.761,136.026z"/>
		<path style="fill:#50667E;" d="M175.467,165.11c-0.085-0.108-0.281-0.12-0.392-0.051c-0.023,0.025-0.047,0.051-0.07,0.076
			c-0.167,0.043-0.325,0.172-0.404,0.31c-0.448,0.782-0.459,1.872-0.608,2.751c-0.166,0.984-0.336,1.968-0.494,2.954
			c-0.152,0.952-0.301,1.903-0.432,2.858c-0.115,0.84-0.401,1.9-0.191,2.732c0.065,0.257,0.379,0.25,0.515,0.067
			c0.274-0.368,0.382-0.87,0.512-1.309c0.146-0.493,0.268-0.996,0.393-1.495c0.25-1.001,0.463-2.01,0.675-3.02
			c0.212-1.011,0.393-2.028,0.579-3.044c0.093-0.508,0.196-1.016,0.262-1.529C175.882,165.864,175.806,165.543,175.467,165.11z"/>
		<path style="fill:#50667E;" d="M245.822,212.35c-0.211-1.645-0.427-3.29-0.647-4.934c-0.441-3.283-0.906-6.562-1.404-9.836
			c-0.997-6.549-2.084-13.091-3.353-19.593c-0.718-3.676-1.506-7.335-2.391-10.974c-0.07-0.287-0.57-0.234-0.529,0.072
			c1.746,13.113,3.905,26.17,5.673,39.281c0.245,1.821,0.484,3.642,0.716,5.464c0.121,0.949,0.23,1.9,0.36,2.847
			c0.126,0.919,0.246,1.839,0.678,2.668c0.25,0.479,1.026,0.365,1.151-0.15C246.453,215.65,246.021,213.903,245.822,212.35z"/>
		<path style="fill:#50667E;" d="M295.629,228.562c-0.245-0.123-0.439-0.16-0.705-0.092c-0.304,0.078-0.56,0.336-0.639,0.639
			c-0.316,1.21-0.501,2.408-0.943,3.59c-0.424,1.135-0.952,2.227-1.486,3.313c-0.472,0.959-0.974,1.908-1.429,2.875
			c-0.459,0.978-1.106,1.802-1.814,2.614c-0.244,0.281-0.016,0.855,0.403,0.693c2.184-0.847,3.426-3.142,4.412-5.127
			c0.594-1.195,1.167-2.403,1.649-3.648c0.485-1.253,1.012-2.708,1.004-4.067C296.08,229.045,295.913,228.705,295.629,228.562z"/>
		<path style="fill:#50667E;" d="M163.934,221.473c-0.304,0.536-0.448,1.147-0.761,1.688c-0.32,0.552-0.705,1.061-1.127,1.538
			c-0.903,1.022-1.938,1.937-2.979,2.815c-1.111,0.937-2.296,1.781-3.564,2.493c-1.427,0.802-2.811,1.068-4.409,1.28
			c-0.319,0.042-0.465,0.535-0.084,0.619c1.504,0.332,3.234-0.097,4.645-0.621c1.54-0.571,2.878-1.501,4.146-2.531
			c1.175-0.954,2.343-1.966,3.346-3.103c0.88-0.997,2.026-2.438,2.059-3.833C165.222,221.139,164.265,220.889,163.934,221.473z"/>
		<path style="fill:#50667E;" d="M245.437,268.588c-0.357-0.497-1.13-0.393-1.262,0.194c-0.028,0.017-0.053,0.034-0.116,0.06
			c-0.101,0.042-0.188,0.107-0.288,0.149c-0.313,0.131-0.658,0.212-0.983,0.311c-0.701,0.214-1.406,0.419-2.112,0.616
			c-1.41,0.392-2.828,0.75-4.255,1.074c-2.846,0.647-5.721,1.17-8.613,1.559c-5.713,0.769-11.492,1.039-17.253,0.926
			c-11.812-0.232-23.42-2.186-34.91-4.821c-6.157-1.412-12.579-2.968-18.111-6.121c-0.476-0.272-0.833,0.403-0.418,0.716
			c4.777,3.602,10.556,5.203,16.271,6.671c5.965,1.533,11.991,2.799,18.081,3.73c12.097,1.849,24.441,2.426,36.599,0.812
			c3.343-0.444,6.664-1.04,9.943-1.829c1.661-0.4,3.311-0.845,4.947-1.339c0.698-0.211,1.658-0.358,2.205-0.881
			C245.649,269.948,245.846,269.158,245.437,268.588z"/>
		<path style="fill:#474651;" d="M214.687,304.679c-0.023-0.833,0.041-1.673-0.437-2.393c-0.24-0.361-0.793-0.405-1.023,0
			c-0.367,0.647-0.337,1.274-0.314,2c0.024,0.785,0.045,1.57,0.062,2.356c0.033,1.484,0.074,2.967,0.099,4.451
			c0.049,3.014,0.043,6.019-0.041,9.033c-0.168,6.021-0.556,12.031-1.076,18.031c-0.143,1.65-0.321,3.297-0.444,4.949
			c-0.126,1.697-0.455,3.501-0.309,5.198c0.032,0.371,0.514,0.441,0.643,0.087c0.512-1.402,0.627-2.997,0.861-4.466
			c0.236-1.483,0.414-2.971,0.576-4.464c0.325-2.996,0.588-5.996,0.79-9.003c0.408-6.057,0.541-12.118,0.664-18.186
			c0.033-1.657,0.036-3.318,0.009-4.975C214.732,306.424,214.711,305.552,214.687,304.679z"/>
		<path style="fill:#474651;" d="M180.217,273.673c-0.269,0.203-0.536,0.354-0.831,0.513c-0.346,0.186-0.509,0.432-0.744,0.743
			c-0.434,0.573-0.893,1.127-1.374,1.661c-0.963,1.071-2.012,2.065-3.134,2.968c-1.095,0.882-2.273,1.646-3.488,2.351
			c-0.654,0.379-1.321,0.754-2.001,1.083c-0.375,0.181-0.762,0.351-1.171,0.44c-0.064,0.014-1.166,0.091-1.156,0.074
			c0.049-0.092-0.01-0.245-0.132-0.231c-0.463,0.052-0.447,0.525-0.266,0.876c0.375,0.726,1.653,0.552,2.308,0.462
			c1.883-0.26,3.658-1.382,5.204-2.431c1.549-1.051,3.002-2.253,4.311-3.591c0.655-0.669,1.275-1.372,1.856-2.106
			c0.258-0.326,0.594-0.665,0.786-1.036c0.207-0.401,0.195-0.978,0.301-1.416C180.745,273.79,180.454,273.495,180.217,273.673z"/>
		<path style="fill:#474651;" d="M241.234,285.635c-0.312-0.858-1.012-1.458-1.656-2.073c-0.665-0.636-1.3-1.303-1.862-2.034
			c-1.123-1.461-1.96-3.028-2.701-4.707c-0.284-0.643-1.26-0.175-1.103,0.465c0.455,1.855,1.395,3.696,2.536,5.22
			c0.579,0.773,1.205,1.515,1.902,2.186c0.697,0.671,1.546,1.359,2.558,1.369C241.114,286.062,241.309,285.842,241.234,285.635z"/>
		<g>
			<path style="fill:#50667E;" d="M198.036,442.953c-0.37-0.233-0.855-0.142-1.248-0.016c-0.294,0.094-0.584,0.217-0.86,0.356
				c-0.495,0.25-0.957,0.596-1.35,0.986c-0.393,0.39-0.74,0.849-0.992,1.342c-0.139,0.271-0.277,0.561-0.349,0.858
				c-0.027,0.112-0.046,0.226-0.062,0.34c-0.039,0.262-0.017,0.475,0.034,0.73c0.061,0.305,0.372,0.531,0.661,0.57
				c0.309,0.042,0.635-0.102,0.793-0.38c0.084-0.148,0.164-0.285,0.222-0.449c0.019-0.054,0.037-0.109,0.057-0.163
				c0.012-0.033,0.047-0.123,0.04-0.108c0.029-0.071,0.059-0.141,0.086-0.213c0.002-0.004,0.003-0.009,0.005-0.013
				c0.051-0.065,0.09-0.196,0.125-0.262c0.102-0.193,0.222-0.373,0.348-0.552c0.037-0.044,0.073-0.088,0.111-0.131
				c0.076-0.086,0.156-0.17,0.238-0.25c0.082-0.081,0.168-0.158,0.256-0.232c0.029-0.025,0.167-0.11,0.04-0.036
				c-0.134,0.078,0.039-0.028,0.067-0.048c0.179-0.128,0.368-0.243,0.564-0.344c0.051-0.026,0.103-0.051,0.155-0.076
				c0.005-0.002,0.013-0.005,0.019-0.007c-0.014,0.004-0.015,0.005-0.033,0.01c0.109-0.034,0.214-0.082,0.324-0.116
				c0.311-0.097,0.715-0.155,0.926-0.422c0.18-0.228,0.281-0.439,0.241-0.735C198.417,443.317,198.272,443.101,198.036,442.953z"/>
			<path style="fill:#50667E;" d="M196.996,444.854C197.156,444.803,197.061,444.828,196.996,444.854L196.996,444.854z"/>
		</g>
		<path style="fill:#50667E;" d="M238.004,443.031c-0.155-0.309-0.505-0.464-0.842-0.457c-0.32,0.008-0.601,0.137-0.884,0.273
			c-0.734,0.354-1.407,0.855-1.961,1.453c-0.321,0.346-0.622,0.749-0.828,1.177c-0.105,0.218-0.208,0.443-0.281,0.674
			c-0.04,0.128-0.078,0.257-0.088,0.392c-0.005,0.065-0.005,0.12,0.006,0.185c0.003,0.072,0.025,0.139,0.064,0.201
			c-0.032-0.122-0.048-0.136-0.048-0.043c-0.036,0.345,0.493,0.572,0.712,0.295c0.044-0.029,0.049-0.044,0.022-0.047
			c0.17-0.08,0.286-0.224,0.417-0.393c-0.08,0.103,0.079-0.099,0.066-0.082c0.036-0.047,0.072-0.094,0.107-0.141
			c0.008-0.011,0.005-0.007,0.008-0.011c0.007-0.008,0.007-0.007,0.02-0.023c0.039-0.047,0.078-0.094,0.117-0.14
			c0.249-0.291,0.504-0.57,0.776-0.84c0.125-0.125,0.256-0.244,0.391-0.358c0.04-0.033,0.081-0.065,0.121-0.099
			c0.002-0.002,0,0,0.002-0.001c0.003-0.002,0.001-0.001,0.004-0.003c0.084-0.062,0.166-0.124,0.251-0.183
			c0.315-0.22,0.65-0.411,1-0.57c0.014-0.006,0.035-0.016,0.054-0.025c0.068-0.026,0.137-0.049,0.204-0.085
			c0.118-0.064,0.249-0.152,0.338-0.247C237.971,443.702,238.162,443.344,238.004,443.031z"/>
		<path style="fill:#50667E;" d="M194.097,442.666c-0.155-0.309-0.505-0.464-0.842-0.457c-0.32,0.008-0.602,0.137-0.884,0.273
			c-0.734,0.354-1.407,0.855-1.961,1.452c-0.321,0.346-0.623,0.749-0.828,1.177c-0.105,0.218-0.208,0.443-0.281,0.674
			c-0.04,0.128-0.078,0.257-0.088,0.392c-0.005,0.065-0.005,0.12,0.006,0.185c0.003,0.072,0.025,0.139,0.064,0.201
			c-0.032-0.122-0.048-0.136-0.048-0.043c-0.036,0.345,0.493,0.572,0.712,0.295c0.044-0.029,0.049-0.044,0.022-0.047
			c0.17-0.08,0.286-0.224,0.417-0.393c-0.081,0.103,0.079-0.099,0.066-0.082c0.036-0.047,0.072-0.094,0.107-0.141
			c0.008-0.011,0.005-0.007,0.008-0.011c0.007-0.008,0.006-0.007,0.02-0.023c0.039-0.047,0.077-0.094,0.117-0.14
			c0.249-0.291,0.504-0.57,0.777-0.84c0.125-0.125,0.256-0.244,0.391-0.358c0.04-0.033,0.081-0.065,0.121-0.099
			c0.002-0.002,0,0,0.001-0.001c0.003-0.002,0.001-0.001,0.004-0.003c0.083-0.061,0.166-0.124,0.251-0.183
			c0.315-0.22,0.65-0.411,1-0.57c0.014-0.006,0.035-0.016,0.054-0.024c0.068-0.026,0.136-0.049,0.204-0.085
			c0.118-0.064,0.249-0.152,0.338-0.247C194.064,443.337,194.255,442.979,194.097,442.666z"/>
		<g>
			<path style="fill:#50667E;" d="M241.659,444.598c-0.131-0.072-0.271-0.099-0.414-0.115c-0.097-0.039-0.197-0.069-0.303-0.065
				c-0.025-0.001-0.03,0-0.027,0.002c-0.041-0.006-0.082-0.011-0.123-0.017c-0.087-0.004-0.179,0.014-0.265,0.029
				c-0.188,0.032-0.366,0.11-0.541,0.182c-0.411,0.169-0.795,0.397-1.158,0.652c-0.345,0.242-0.693,0.527-0.968,0.85
				c-0.149,0.175-0.29,0.358-0.426,0.544c-0.177,0.242-0.256,0.509-0.214,0.807v-0.294c-0.005,0.019-0.01,0.038-0.015,0.057
				c-0.107,0.408,0.257,0.688,0.62,0.623c0.257-0.034,0.466-0.173,0.664-0.338c0.076-0.064,0.152-0.127,0.23-0.188
				c0.007-0.005,0.008-0.006,0.022-0.016c0.06-0.044,0.119-0.088,0.178-0.134c-0.002,0.002,0.088-0.068,0.113-0.088
				c0.02-0.015,0.041-0.031,0.061-0.046c0.077-0.056,0.155-0.112,0.233-0.165c0.167-0.113,0.335-0.227,0.505-0.335
				c0.325-0.204,0.668-0.377,1.01-0.55c0.094-0.048,0.191-0.092,0.278-0.152c0.067-0.046,0.144-0.099,0.2-0.159
				c0.039-0.051,0.078-0.101,0.117-0.151c-0.051,0.068-0.056,0.084-0.016,0.048c0.061-0.032,0.095-0.119,0.137-0.171
				c-0.003,0.006-0.001,0.008,0.034-0.021c0.08-0.066,0.153-0.163,0.206-0.251C241.905,444.954,241.843,444.7,241.659,444.598z"/>
			<path style="fill:#50667E;" d="M237.843,447.848c-0.005,0.001-0.01,0.002-0.016,0.003c-0.025,0.003-0.045,0.02-0.072,0.021
				L237.843,447.848z"/>
			<path style="fill:#50667E;" d="M238.034,447.796c-0.064,0.017-0.128,0.034-0.191,0.052c0.046-0.01,0.093-0.003,0.138-0.025
				C237.998,447.814,238.016,447.805,238.034,447.796z"/>
		</g>
		<path style="fill:#E2E2E2;" d="M229.431,64.672c-0.911,0.068-1.649,0.803-2.412,1.255c-0.843,0.499-1.72,0.947-2.623,1.326
			c-1.791,0.751-3.701,1.271-5.627,1.515c-3.776,0.479-7.732-0.008-11.236-1.509c-2.039-0.873-3.807-2.018-5.617-3.283
			c-0.36-0.251-0.746,0.293-0.457,0.592c2.777,2.88,6.77,4.535,10.608,5.392c4.002,0.894,8.396,0.365,12.197-1.095
			c1.068-0.41,2.11-0.89,3.107-1.451c0.895-0.504,2.177-1.073,2.56-2.087C230.045,65.025,229.747,64.648,229.431,64.672z"/>
		<path style="fill:#E2E2E2;" d="M188.19,88.122c-0.234-1.518-0.517-3.142-1.183-4.53c-0.096-0.2-0.444-0.107-0.425,0.115
			c0.127,1.48,0.489,2.938,0.632,4.424c0.144,1.501,0.199,2.998,0.167,4.506c-0.062,3.003-0.74,5.919-0.992,8.899
			c-0.017,0.2,0.28,0.267,0.371,0.1c1.484-2.722,1.766-5.94,1.779-8.999C188.546,91.131,188.42,89.611,188.19,88.122z"/>
		<path style="fill:#FFFFFF;" d="M207.138,74.722c-0.856-0.947-2.314-0.943-3.477-0.74c-0.479,0.084-0.939,0.267-1.373,0.48
			c-0.41,0.201-0.778,0.481-0.961,0.914c-0.26,0.617-0.113,1.443,0.508,1.796c0.259,0.148,0.543,0.278,0.851,0.264
			c0.362-0.016,0.656-0.166,0.982-0.304c-0.12,0.051-0.24,0.101-0.359,0.152c0.247-0.099,0.504-0.158,0.765-0.206
			c0.205-0.013,0.409-0.012,0.614,0.006c0.461,0.089,0.909,0.218,1.385,0.207c0.605-0.013,1.14-0.367,1.376-0.925
			C207.691,75.793,207.551,75.178,207.138,74.722z"/>
		<path style="fill:#FFFFFF;" d="M228.522,75.402c-0.229-0.201-0.471-0.397-0.728-0.562c-0.25-0.16-0.547-0.261-0.827-0.357
			c-0.48-0.164-0.998-0.239-1.502-0.269c-0.491-0.03-0.996,0.03-1.475,0.13c-0.182,0.038-0.36,0.088-0.534,0.151
			c-0.407,0.147-0.7,0.375-0.969,0.696c-0.339,0.404-0.478,0.89-0.264,1.397c0.197,0.467,0.654,0.782,1.168,0.786
			c0.299,0.003,0.54,0.037,0.848-0.038c0.11-0.027,0.221-0.045,0.332-0.067c0.22-0.017,0.441-0.016,0.661,0.001
			c0.263,0.049,0.52,0.119,0.77,0.215c0.188,0.088,0.375,0.178,0.57,0.256c-0.126-0.053-0.253-0.107-0.379-0.16
			c0.161,0.069,0.317,0.146,0.469,0.233c0.595,0.342,1.373,0.241,1.861-0.24c0.089-0.088,0.174-0.204,0.24-0.311
			C229.099,76.717,229.021,75.838,228.522,75.402z"/>
		<path style="fill:#845555;" d="M207.774,82.94c-0.088-0.271-0.239-0.505-0.452-0.703c-0.147-0.114-0.295-0.228-0.442-0.342
			c-0.251-0.16-0.521-0.246-0.812-0.259c-0.194-0.052-0.387-0.052-0.581,0c-0.291,0.013-0.561,0.1-0.812,0.259
			c-0.465,0.3-0.88,0.749-1.004,1.306c-0.133,0.599-0.224,1.204-0.246,1.817c-0.005,0.15-0.005,0.3-0.006,0.451
			c-0.015,0.143-0.03,0.287-0.044,0.43c-0.012,0.116-0.027,0.232-0.036,0.348c-0.028,0.355,0.059,0.585,0.18,0.873
			c0.07,0.166,0.14,0.332,0.21,0.497c0.108,0.14,0.217,0.281,0.326,0.421c0.141,0.109,0.281,0.217,0.421,0.326
			c0.239,0.152,0.497,0.235,0.774,0.247c0.184,0.05,0.369,0.05,0.553,0c0.188-0.001,0.363-0.048,0.526-0.142
			c0.176-0.049,0.329-0.139,0.459-0.268c0.227-0.147,0.405-0.341,0.536-0.584c0.029-0.044,0.059-0.088,0.087-0.132
			c0.02-0.029,0.039-0.059,0.055-0.09c0.162-0.254,0.25-0.529,0.263-0.824c0.028-0.206,0.048-0.407,0.064-0.614
			c0.019-0.242,0.037-0.483,0.056-0.725l0.112-1.451C207.973,83.481,207.911,83.201,207.774,82.94z"/>
		<path style="fill:#845555;" d="M229.18,82.94c-0.088-0.271-0.239-0.505-0.452-0.703c-0.147-0.114-0.295-0.228-0.442-0.342
			c-0.251-0.16-0.521-0.246-0.812-0.259c-0.194-0.052-0.387-0.052-0.581,0c-0.291,0.013-0.562,0.1-0.812,0.259
			c-0.465,0.3-0.88,0.749-1.004,1.306c-0.133,0.599-0.224,1.204-0.246,1.817c-0.005,0.15-0.006,0.3-0.006,0.451
			c-0.015,0.143-0.03,0.287-0.044,0.43c-0.012,0.116-0.027,0.232-0.036,0.348c-0.028,0.355,0.059,0.585,0.18,0.873
			c0.07,0.166,0.14,0.332,0.21,0.497c0.109,0.14,0.217,0.281,0.326,0.421c0.14,0.109,0.281,0.217,0.421,0.326
			c0.239,0.152,0.497,0.235,0.774,0.247c0.184,0.05,0.369,0.05,0.553,0c0.188-0.001,0.363-0.048,0.525-0.142
			c0.176-0.049,0.329-0.139,0.459-0.268c0.227-0.147,0.405-0.341,0.536-0.584c0.029-0.044,0.059-0.088,0.087-0.132
			c0.02-0.029,0.039-0.059,0.055-0.09c0.162-0.254,0.25-0.529,0.263-0.824c0.028-0.206,0.048-0.407,0.064-0.614
			c0.019-0.242,0.037-0.483,0.056-0.725l0.112-1.451C229.38,83.481,229.317,83.201,229.18,82.94z"/>
		<g>
			<path style="fill:#D3795C;" d="M218.499,92.754c-0.486-0.134-1.106-0.009-1.576,0.149c-0.205,0.069-0.403,0.148-0.613,0.201
				c-0.098,0.024-0.197,0.046-0.296,0.064c-0.015,0.003-0.044,0.007-0.071,0.011c-0.007,0.001-0.018,0.002-0.021,0.002
				c-0.408,0.037-0.836,0.054-1.245,0.022c-0.024-0.002-0.053-0.003-0.081-0.008c0.015,0.004,0.007,0.005-0.037-0.004
				c-0.023-0.003-0.047-0.009-0.066-0.006c0.011-0.001,0.024,0,0.037,0.001c-0.094-0.019-0.187-0.039-0.28-0.065
				c-0.108-0.031-0.215-0.066-0.32-0.106c-0.01-0.004-0.053-0.023-0.079-0.034c-0.037-0.019-0.082-0.04-0.082-0.04
				c-0.403-0.197-0.866-0.138-1.149,0.229c-0.247,0.319-0.277,0.892,0.07,1.17c0.917,0.733,2.041,1.254,3.233,1.247
				c1.286-0.007,3.063-0.458,3.222-1.987C219.183,93.223,218.843,92.848,218.499,92.754z"/>
			<path style="fill:#D3795C;" d="M214.558,93.191c0.013,0.002,0.024,0.002,0.037,0.004c-0.014-0.004-0.038-0.007-0.065-0.009
				c0.005,0.001,0.009,0.002,0.014,0.003C214.552,93.19,214.551,93.19,214.558,93.191z"/>
		</g>
		<path style="fill:#D3795C;" d="M208.999,88.533c-0.258,0.033-0.364,0.377-0.137,0.503c-0.012,0.012-0.015,0.047-0.01,0.109
			c-0.018,0.042-0.037,0.084-0.055,0.127c-0.05,0.123-0.116,0.247-0.172,0.368c-0.115,0.247-0.238,0.49-0.361,0.733
			c-0.228,0.446-0.482,0.879-0.761,1.295c-0.598,0.89-1.318,1.701-2.117,2.415c-0.782,0.699-1.655,1.284-2.58,1.776
			c-0.461,0.245-0.936,0.452-1.422,0.642c-0.255,0.099-0.521,0.176-0.773,0.28c-0.089,0.036-0.555,0.348-0.641,0.277
			c-0.117-0.097-0.265-0.028-0.283,0.117c-0.079,0.638,0.763,0.709,1.207,0.632c0.665-0.115,1.327-0.412,1.935-0.693
			c1.243-0.574,2.379-1.371,3.376-2.309c0.994-0.935,1.842-2.03,2.494-3.229c0.322-0.591,0.612-1.214,0.8-1.862
			C209.616,89.311,209.653,88.449,208.999,88.533z"/>
		<path style="fill:#D3795C;" d="M232.744,98.125c-0.583-0.237-1.233-0.278-1.834-0.477c-0.597-0.198-1.161-0.451-1.712-0.755
			c-1.014-0.56-1.945-1.25-2.778-2.054c-0.82-0.792-1.561-1.649-2.177-2.61c-0.303-0.473-0.586-0.962-0.836-1.465
			c-0.238-0.479-0.42-1.036-0.784-1.435c-0.116-0.127-0.286-0.013-0.304,0.126c-0.08,0.612,0.216,1.274,0.445,1.829
			c0.229,0.556,0.491,1.094,0.795,1.613c0.642,1.094,1.431,2.122,2.352,2.995c0.926,0.877,1.97,1.642,3.097,2.24
			c1.041,0.552,2.806,1.379,3.852,0.43C233.02,98.416,232.913,98.194,232.744,98.125z"/>
		<path style="fill:#D3795C;" d="M220.712,71.964c-0.941-0.111-1.826,0.089-2.757,0.198c-0.926,0.108-1.858,0.18-2.79,0.203
			c-0.93,0.023-1.865,0.004-2.793-0.052c-0.787-0.048-1.443-0.139-2.122-0.566c-0.102-0.064-0.27,0.045-0.219,0.169
			c0.267,0.653,0.949,0.921,1.597,1.073c0.979,0.23,2.037,0.269,3.039,0.29c1.065,0.022,2.132-0.016,3.19-0.135
			c1.034-0.116,2.063-0.22,2.965-0.777C221.017,72.245,220.916,71.988,220.712,71.964z"/>
		<path style="fill:#DE9B7F;" d="M221.94,103.696c-0.608-0.871-1.644-1.234-2.642-1.247c-1.22-0.015-2.376,0.522-3.603,0.404
			c-1.155-0.11-2.273-0.571-3.447-0.489c-0.954,0.067-1.945,0.396-2.588,1.18c-0.728,0.887-0.799,2.112-0.368,3.162
			c0.02,0.049,0.053,0.088,0.074,0.135c0.622,1.618,2.365,2.648,3.892,3.179c2.133,0.742,4.603,0.679,6.551-0.579
			C221.489,108.359,223.371,105.748,221.94,103.696z"/>
		<path style="fill:#FFFFFF;" d="M219.691,104.81c-0.387-0.516-1.048-0.731-1.684-0.739c-0.778-0.009-1.515,0.309-2.297,0.24
			c-0.736-0.065-1.449-0.339-2.197-0.29c-0.609,0.04-1.24,0.235-1.65,0.699c-0.464,0.526-0.509,1.251-0.235,1.874
			c0.013,0.029,0.034,0.052,0.048,0.08c0.396,0.959,1.508,1.569,2.481,1.884c1.36,0.44,2.934,0.402,4.177-0.343
			C219.404,107.572,220.603,106.025,219.691,104.81z"/>
		<path style="fill:#E2E2E2;" d="M218.785,111.822c-1.139,0.206-2.337,0.354-3.498,0.191c-1.273-0.179-2.525-0.591-3.741-0.996
			c-0.252-0.084-0.422,0.311-0.182,0.432c1.279,0.644,2.549,1.286,3.985,1.492c1.253,0.18,2.64,0.085,3.578-0.876
			C219.033,111.954,218.922,111.797,218.785,111.822z"/>
		<path style="fill:#DC967A;" d="M292.312,134.612c-0.122-1.975,0.028-4.266,0.597-6.92c0,0-10.703-1.459-11.433-1.459
			c-0.73,0-6.568,3.649-6.568,3.649s0.411,5.512-1.771,9.587c1.144,0.112,2.347-0.002,3.492-0.143
			c3.941-0.486,7.926-1.037,11.602-2.54C289.661,136.2,291.025,135.464,292.312,134.612z"/>
		<path style="fill:#E7B9A3;" d="M308.259,102.241c0,0,5.849,1.404,5.147,5.849c-0.702,4.445-3.743,6.785-6.551,6.785
			c0,0-8.656,21.991-25.501,20.12c-16.845-1.872-19.886-29.946-17.78-40.24c0,0,18.248-5.615,23.863-13.569
			C287.437,81.185,293.286,96.392,308.259,102.241z"/>
		<path style="fill:#DC967A;" d="M311.521,105.799c-0.201-0.223-0.489-0.321-0.779-0.354c-0.508-0.057-0.998,0.16-1.38,0.482
			c-0.81,0.681-1.212,1.873-1.342,2.889c-0.073,0.571-0.064,1.178,0.135,1.725c0.211,0.579,0.677,1.144,1.349,1.138
			c0.629-0.005,1.12-0.581,1.378-1.103c0.286-0.579,0.36-1.296-0.12-1.801c-0.385-0.406-1.001-0.498-1.499-0.286
			c0.107-0.518,0.309-1.024,0.592-1.435c0.161-0.233,0.384-0.439,0.643-0.496c0.112-0.025,0.199-0.005,0.269,0.022
			c0.141,0.046,0.178,0.064,0.113,0.053c0.05,0.037,0.065,0.042,0.046,0.017c0.099,0.066,0.158,0.137,0.281,0.17
			c0.181,0.048,0.378-0.032,0.474-0.193C311.84,106.356,311.719,106.018,311.521,105.799z"/>
		<path style="fill:#9C6363;" d="M321.333,103.022c-1.572-0.114-3.203,0.293-4.789,0.3c-1.595,0.007-3.185-0.142-4.75-0.448
			c-3.173-0.622-6.205-1.817-8.968-3.494c-5.325-3.232-9.406-8.241-12.343-13.675c-0.437-0.808-0.845-1.63-1.222-2.467
			c-0.272-0.603-0.491-1.269-0.817-1.858c0.035-0.113,0.072-0.224,0.083-0.357c0.03-0.348-0.347-0.741-0.7-0.7
			c-0.234,0.027-0.452,0.106-0.661,0.211c-0.004,0.002-0.008,0.004-0.012,0.006c-0.734,0.375-1.331,1.137-1.926,1.665
			c-0.842,0.746-1.689,1.482-2.577,2.174c-1.757,1.369-3.625,2.601-5.567,3.691c-2.099,1.177-4.285,2.197-6.518,3.09
			c-2.161,0.865-4.361,1.678-6.629,2.216c-1.29,0.306-2.637,0.581-3.961,0.669c-0.639,0.043-1.278,0.04-1.918,0.025
			c-0.53-0.012-1.192-0.148-1.65,0.173c-0.087,0.061-0.131,0.174-0.071,0.272c0.48,0.787,1.975,0.803,2.799,0.876
			c1.235,0.109,2.486,0.106,3.715-0.054c2.462-0.32,4.865-1.048,7.179-1.928c4.589-1.745,9.022-3.923,12.964-6.872
			c1.059-0.792,2.089-1.624,3.079-2.501c0.49-0.435,0.959-0.892,1.421-1.356c0.088,0.245,0.178,0.49,0.272,0.732
			c0.277,0.721,0.575,1.434,0.884,2.142c0.581,1.331,1.231,2.633,1.95,3.896c1.448,2.542,3.297,4.889,5.362,6.958
			c4.224,4.231,9.625,7.3,15.523,8.42c1.666,0.316,3.364,0.492,5.06,0.489c1.683-0.004,3.668-0.024,5.187-0.823
			C322.468,104.101,322.06,103.075,321.333,103.022z"/>
		<path style="fill:#9C6363;" d="M256.473,98.705c-0.035-0.247-0.437-0.185-0.431,0.058c0.042,1.713,0.031,3.43,0.075,5.145
			c0.042,1.644,0.068,3.292,0.026,4.936c-0.083,3.307-0.403,6.569-1.27,9.771c-0.434,1.604-1.016,3.156-1.753,4.646
			c-0.702,1.419-1.481,2.802-2.045,4.286c-0.575,1.514-0.819,3.09-0.581,4.698c0.25,1.685,0.993,3.301,1.027,5.017
			c0.06,2.981-2.657,7.468,0.627,9.623c0.27,0.177,0.72-0.124,0.585-0.449c-0.512-1.232-0.641-2.726-0.467-4.039
			c0.218-1.645,0.801-3.22,0.822-4.895c0.021-1.672-0.588-3.245-0.941-4.856c-0.355-1.622-0.158-3.143,0.424-4.686
			c0.566-1.498,1.392-2.883,2.079-4.326c0.689-1.447,1.25-2.953,1.672-4.5c0.845-3.1,1.133-6.382,1.132-9.587
			C257.454,105.888,256.99,102.314,256.473,98.705z"/>
		<path style="fill:#9C6363;" d="M263.227,122.858c0.368-1.642,0.763-4.076-0.301-5.554c-0.133-0.185-0.488-0.146-0.471,0.128
			c0.062,1.012,0.268,1.931,0.14,2.958c-0.121,0.976-0.388,1.92-0.697,2.85c-0.608,1.831-1.347,3.631-1.565,5.563
			c-0.224,1.987,0.268,3.93,0.611,5.872c0.365,2.067,0.19,4.237,0.773,6.249c0.05,0.174,0.341,0.248,0.424,0.055
			c0.806-1.859,0.531-3.951,0.242-5.914c-0.313-2.13-0.98-4.236-0.687-6.408C261.966,126.667,262.791,124.808,263.227,122.858z"/>
		<path style="fill:#9C6363;" d="M270.139,131.523c-0.065-0.212-0.324-0.279-0.485-0.128c-0.202,0.189-0.294,0.489-0.384,0.746
			c-0.086,0.247-0.155,0.505-0.21,0.76c-0.123,0.564-0.202,1.135-0.241,1.711c-0.039,0.582-0.049,1.165,0.032,1.744
			c0.07,0.508,0.257,1.09,0.667,1.418c0.087,0.07,0.218,0.072,0.28-0.036c0.236-0.412,0.277-0.962,0.259-1.432
			c-0.021-0.546-0.069-1.09-0.069-1.638c0-0.524,0.023-1.053,0.072-1.575c0.024-0.26,0.051-0.519,0.076-0.779
			C270.161,132.055,270.216,131.775,270.139,131.523z"/>
		<path style="fill:#9C6363;" d="M327.927,160.249c-1.038-1.774-2.246-3.423-2.737-5.453c-0.487-2.013-0.382-4.121-0.267-6.171
			c0.117-2.092,0.286-4.192,0.025-6.28c-0.266-2.132-0.95-4.153-1.687-6.161c-1.487-4.049-2.652-8.164-3.018-12.48
			c-0.409-4.828,0.002-9.774,1.075-14.496c0.066-0.292-0.355-0.408-0.448-0.123c-2.584,7.962-2.479,16.866,0.078,24.833
			c0.658,2.051,1.496,4.044,2.041,6.131c0.542,2.08,0.573,4.18,0.455,6.315c-0.115,2.083-0.352,4.169-0.22,6.257
			c0.131,2.062,0.655,3.992,1.668,5.798c1.112,1.983,2.483,3.77,3.006,6.026c0.515,2.225,0.305,4.577-0.026,6.807
			c-0.041,0.279,0.283,0.428,0.454,0.192C330.747,168.103,329.878,163.581,327.927,160.249z"/>
		<path style="fill:#9C6363;" d="M312.675,126.085c-0.201-2.424,0.029-4.835,0.421-7.228c0.11-0.669,0.219-1.338,0.331-2.007
			c0.113-0.678,0.405-1.285,0.57-1.95c0.318-1.279,0.783-2.562,0.949-3.871c0.026-0.206-0.297-0.278-0.386-0.105
			c-1.055,2.049-1.416,4.409-2.081,6.584c-0.681,2.228-1.012,4.623-1.042,6.95c-0.03,2.37,0.498,4.655,0.907,6.974
			c0.403,2.285,0.507,4.61,0.299,6.922c-0.113,1.251-0.324,2.492-0.609,3.715c-0.298,1.279-0.721,2.529-0.971,3.818
			c-0.093,0.481,0.527,0.773,0.803,0.339c1.181-1.861,1.638-4.2,1.926-6.357c0.299-2.243,0.326-4.518,0.055-6.765
			C313.561,130.747,312.871,128.452,312.675,126.085z"/>
		<path style="fill:#9C6363;" d="M305.905,127.578c0.06-0.868,0.165-1.757,0.417-2.592c0.12-0.399,0.285-0.794,0.493-1.156
			c0.163-0.282,0.427-0.509,0.491-0.832c0.015-0.076-0.034-0.16-0.12-0.157c-0.584,0.016-1.067,0.747-1.32,1.214
			c-0.384,0.707-0.615,1.494-0.767,2.281c-0.375,1.944-0.375,3.922-0.038,5.87c0.178,1.028,0.447,2.043,0.57,3.08
			c0.121,1.02,0.109,2.048,0.035,3.071c-0.077,1.058-0.23,2.102-0.417,3.146c-0.159,0.89-0.482,1.993-0.11,2.852
			c0.075,0.173,0.318,0.163,0.436,0.056c0.653-0.595,0.805-1.723,0.96-2.553c0.169-0.903,0.302-1.817,0.389-2.732
			c0.187-1.967-0.034-3.87-0.459-5.791C306.043,131.427,305.769,129.537,305.905,127.578z"/>
		<path style="fill:#9C6363;" d="M300.343,137.463c-0.201-1.29-0.564-2.533-0.647-3.843c-0.036-0.577-0.044-1.159-0.02-1.736
			c0.022-0.54,0.127-1.057-0.092-1.564c-0.044-0.103-0.204-0.11-0.273-0.035c-0.654,0.701-0.583,2.187-0.578,3.088
			c0.007,1.189,0.204,2.343,0.401,3.512c0.201,1.194,0.243,2.395,0.125,3.6c-0.104,1.061-0.608,2.279-0.366,3.336
			c0.047,0.204,0.284,0.221,0.423,0.112c0.838-0.661,0.988-1.98,1.106-2.971C300.561,139.796,300.523,138.622,300.343,137.463z"/>
		<path style="fill:#9C6363;" d="M285.121,73.727c-0.4,0.3-0.886,0.447-1.297,0.767c-0.437,0.341-0.849,0.698-1.259,1.071
			c-0.759,0.689-1.532,1.364-2.321,2.02c-1.597,1.328-3.269,2.558-5,3.706c-3.514,2.33-7.214,4.354-11.104,5.987
			c-1.087,0.456-2.196,0.855-3.306,1.25c-1.129,0.402-2.382,0.996-3.604,0.862c-0.343-0.038-0.371,0.419-0.157,0.579
			c0.879,0.659,1.956,0.364,2.941,0.129c1.069-0.255,2.122-0.565,3.165-0.91c2.122-0.701,4.203-1.493,6.238-2.419
			c4.053-1.843,7.829-4.236,11.314-6.998c0.947-0.751,1.875-1.527,2.767-2.343c0.458-0.42,0.925-0.838,1.334-1.306
			c0.193-0.221,0.393-0.449,0.56-0.69c0.208-0.299,0.281-0.657,0.49-0.946C286.197,74.047,285.56,73.397,285.121,73.727z"/>
		<path style="fill:#9C6363;" d="M282.11,67.629c0.014-0.293-0.443-0.433-0.572-0.155c-0.227,0.493-0.652,0.905-0.967,1.348
			c-0.325,0.457-0.679,0.9-1.039,1.331c-0.697,0.835-1.457,1.603-2.249,2.348c-1.689,1.591-3.492,3.056-5.398,4.38
			c-3.828,2.659-7.985,4.84-12.299,6.596c-0.519,0.211-0.336,1.008,0.238,0.863c7.427-1.875,14.177-6.052,19.596-11.424
			c0.731-0.724,1.465-1.493,1.999-2.379c0.258-0.428,0.486-0.951,0.607-1.436C282.15,68.611,282.086,68.129,282.11,67.629z"/>
		<path style="fill:#9C6363;" d="M277.654,65.707c-1.079,1.039-2.217,2.011-3.292,3.058c-1.052,1.024-2.129,2.017-3.287,2.921
			c-1.167,0.911-2.389,1.728-3.647,2.506c-1.271,0.787-2.65,1.418-3.88,2.264c-0.369,0.254-0.139,0.795,0.3,0.712
			c1.501-0.283,2.953-1.041,4.286-1.769c1.337-0.731,2.613-1.604,3.816-2.538c1.212-0.941,2.388-1.95,3.439-3.071
			c1.078-1.15,1.873-2.438,2.598-3.827C278.096,65.753,277.831,65.537,277.654,65.707z"/>
		<path style="fill:#9C6363;" d="M320.859,94.651c-1.126,0.164-2.368,0.092-3.506,0.003c-1.184-0.093-2.352-0.389-3.479-0.756
			c-2.263-0.736-4.47-1.708-6.563-2.838c-2.104-1.137-4.083-2.477-5.864-4.076c-1.806-1.622-3.359-3.493-4.807-5.435
			c-0.825-1.106-1.682-2.191-2.473-3.322c-0.76-1.088-1.471-2.236-2.346-3.237c-0.217-0.247-0.674,0.014-0.561,0.327
			c0.424,1.175,1.036,2.294,1.629,3.391c0.616,1.14,1.192,2.307,1.893,3.399c1.395,2.173,3.019,4.223,4.884,6.012
			c3.759,3.608,8.631,6.119,13.544,7.758c1.368,0.456,2.802,0.815,4.252,0.818c1.457,0.003,2.687-0.485,3.69-1.539
			C321.378,94.921,321.145,94.61,320.859,94.651z"/>
		<path style="fill:#9C6363;" d="M321.378,85.289c-0.49,0.103-1.013,0.046-1.514,0.083c-0.531,0.04-1.059,0.07-1.592,0.088
			c-1.038,0.036-2.052-0.035-3.064-0.275c-2.087-0.495-3.999-1.499-5.824-2.6c-3.44-2.075-6.41-4.648-9.294-7.424
			c-0.805-0.775-1.582-1.572-2.345-2.387c-0.38-0.406-0.767-0.803-1.149-1.205c-0.311-0.327-0.573-0.723-1.069-0.705
			c-0.101,0.004-0.169,0.064-0.204,0.155c-0.148,0.389,0.046,0.729,0.242,1.065c0.282,0.483,0.56,0.952,0.876,1.415
			c0.607,0.888,1.267,1.739,1.947,2.572c1.367,1.675,2.965,3.158,4.632,4.53c1.68,1.382,3.451,2.656,5.307,3.79
			c1.967,1.202,4.063,2.292,6.32,2.826c1.209,0.286,2.499,0.444,3.74,0.309c0.656-0.071,1.323-0.236,1.921-0.514
			c0.579-0.27,0.961-0.679,1.449-1.074C322.084,85.675,321.722,85.216,321.378,85.289z"/>
		<path style="fill:#9C6363;" d="M315.243,74.389c-0.623-0.357-1.151-0.758-1.83-1.021c-0.674-0.261-1.355-0.496-2.037-0.739
			c-1.382-0.491-2.714-1.055-4.021-1.722c-1.279-0.653-2.521-1.399-3.72-2.187c-0.605-0.398-1.208-0.783-1.788-1.216
			c-0.5-0.373-1.106-1.024-1.726-1.144c-0.268-0.052-0.474,0.156-0.423,0.423c0.122,0.642,0.835,1.259,1.275,1.715
			c0.519,0.537,1.058,1.08,1.628,1.563c1.191,1.01,2.468,1.881,3.829,2.644c1.329,0.745,2.748,1.373,4.184,1.881
			c0.752,0.266,1.514,0.467,2.302,0.589c0.798,0.123,1.459-0.021,2.242-0.127C315.476,75.005,315.489,74.53,315.243,74.389z"/>
		<path style="fill:#A44336;" d="M297.532,144.951c-0.646,0.774-1.11,1.58-1.929,2.207c-0.794,0.608-1.7,1.071-2.606,1.488
			c-2.05,0.942-4.289,1.59-6.536,1.822c-4.175,0.43-8.301-0.543-11.703-3.032c-0.868-0.635-1.677-1.376-2.404-2.169
			c-0.362-0.395-0.72-0.795-1.02-1.24c-0.317-0.469-0.549-0.99-0.993-1.354c-0.235-0.192-0.61-0.078-0.616,0.255
			c-0.015,0.97,0.739,2.001,1.244,2.791c0.582,0.911,1.296,1.735,2.091,2.464c1.607,1.474,3.513,2.562,5.566,3.285
			c4.72,1.663,10.03,1.085,14.585-0.818c1.179-0.492,2.341-1.051,3.37-1.816c0.986-0.733,2.161-1.763,2.439-3.015
			C299.198,145.02,298.143,144.219,297.532,144.951z"/>
		<path style="fill:#A44336;" d="M332.69,186.027c-0.029-0.038-0.057-0.075-0.086-0.113c-0.357-0.468-1.093-0.593-1.425,0
			c-0.189,0.338-1.023,0.589-1.391,0.774c-0.623,0.312-1.251,0.616-1.883,0.911c-1.231,0.576-2.478,1.113-3.736,1.626
			c-1.218,0.496-2.444,0.963-3.68,1.413c-0.868,0.316-1.81,0.612-2.687,0.997c0.21-1.286,0.38-2.58,0.482-3.877
			c0.183-2.317,0.06-4.621-0.435-6.894c-0.247-1.136-0.572-2.259-0.951-3.358c-0.366-1.061-0.702-2.401-1.381-3.306
			c-0.118-0.157-0.395-0.121-0.394,0.107c0.005,1.073,0.486,2.188,0.745,3.223c0.263,1.051,0.517,2.104,0.694,3.174
			c0.383,2.309,0.272,4.619-0.03,6.929c-0.293,2.248-0.667,4.489-1.155,6.703c-0.245,1.108-0.556,2.197-0.819,3.3
			c-0.273,1.143-0.34,2.217-0.296,3.384c0.008,0.2,0.291,0.368,0.439,0.182c0.735-0.925,1.266-1.812,1.637-2.945
			c0.376-1.15,0.626-2.362,0.881-3.544c0.117-0.542,0.227-1.087,0.331-1.633c1.184-0.112,2.404-0.499,3.504-0.856
			c1.402-0.456,2.793-0.957,4.159-1.511c1.326-0.538,2.64-1.107,3.936-1.714c0.632-0.295,1.26-0.599,1.883-0.912
			c0.598-0.299,1.3-0.544,1.657-1.142C332.841,186.694,332.88,186.276,332.69,186.027z"/>
		<path style="fill:#A44336;" d="M305.867,259.335c-0.758-0.573-1.573-0.155-2.419-0.002c-0.909,0.165-1.83,0.263-2.747,0.379
			c-1.903,0.241-3.807,0.474-5.715,0.668c-3.718,0.377-7.461,0.606-11.199,0.439c-3.654-0.163-7.273-0.764-10.874-1.378
			c-3.517-0.599-7.005-1.408-10.44-2.368c-3.867-1.08-7.618-2.546-11.314-4.104c-0.468-0.197-0.811,0.61-0.348,0.826
			c3.318,1.545,6.738,2.79,10.185,4.012c3.439,1.219,6.947,2.254,10.502,3.077c3.614,0.837,7.285,1.479,10.988,1.751
			c3.904,0.286,7.826,0.109,11.72-0.25c2.126-0.196,4.247-0.447,6.366-0.708c1.051-0.129,2.108-0.241,3.154-0.413
			c0.947-0.156,2.131-0.255,2.375-1.354C306.156,259.665,306.057,259.479,305.867,259.335z"/>
		<path style="fill:#A44336;" d="M323.184,250.106c-0.208-0.208-0.471-0.246-0.749-0.198c-0.46,0.08-0.793,0.551-1.131,0.849
			c-0.148,0.13-0.293,0.263-0.444,0.39c-0.075,0.063-0.152,0.125-0.229,0.186c-0.021,0.017-0.022,0.017-0.027,0.021
			c-0.069,0.052-0.138,0.105-0.206,0.159c-0.034,0.027-0.068,0.053-0.102,0.081c-0.004,0.003-0.001,0.001-0.005,0.004
			c-0.078,0.058-0.155,0.117-0.234,0.173c-0.161,0.116-0.318,0.238-0.48,0.353c-0.089,0.063-0.229,0.178-0.273,0.212
			c-0.029,0.023-0.173,0.124-0.237,0.178c-0.156,0.135-0.265,0.317-0.28,0.517c-0.002,0.002-0.004,0.005-0.006,0.007
			c-0.075,0.097,0.001,0.28,0.121,0.298c0.016,0.002,0.032,0.005,0.048,0.007c0.314,0.24,0.803,0.124,1.171-0.01
			c0.418-0.153,0.822-0.336,1.209-0.557c0.382-0.219,0.745-0.489,1.088-0.764c0.361-0.29,0.898-0.678,0.963-1.157
			C323.42,250.573,323.398,250.32,323.184,250.106z"/>
		<path style="fill:#A44336;" d="M257.207,177.851c-0.134-0.814-0.329-1.8-0.864-2.452c-0.171-0.209-0.518-0.032-0.516,0.214
			c0.003,0.409,0.123,0.812,0.198,1.212c0.083,0.442,0.135,0.89,0.169,1.339c0.062,0.819,0.045,1.641-0.007,2.46
			c-0.053,0.837-0.138,1.67-0.261,2.5c-0.111,0.751-0.472,1.776-0.105,2.489c0.127,0.247,0.471,0.261,0.657,0.085
			c0.608-0.574,0.583-1.808,0.686-2.586c0.117-0.883,0.218-1.773,0.232-2.664C257.41,179.576,257.348,178.709,257.207,177.851z"/>
		<path style="fill:#CA4E45;" d="M312.132,193.214c-0.189-0.089-0.399-0.192-0.599-0.253c-0.793-0.24-1.89-0.011-2.439,0.645
			c-0.993,1.185-1.988,2.26-3.582,2.488c-2.165,0.309-4.424-0.614-6.435-1.271c-2.393-0.781-4.911-1.524-7.458-1.359
			c-2.384,0.155-4.542,1.019-6.764,1.817c-3.449,1.239-6.726,1.314-10.222,0.181c-3.456-1.12-5.866-3.623-8.761-5.625
			c-1.1-0.76-2.163,0.493-2.009,1.544c0.48,3.27,3.314,5.949,6.043,7.61c2.973,1.81,6.412,2.789,9.893,2.832
			c1.671,0.02,3.382-0.195,4.997-0.623c1.955-0.518,3.783-1.425,5.75-1.903c3.922-0.953,7.755,1.563,11.549,2.198
			c2.444,0.409,4.838,0.332,7.114-0.715c1.928-0.888,3.758-2.543,4.078-4.735C313.434,195.018,313.206,193.716,312.132,193.214z"/>
		<path style="fill:#344357;" d="M298.84,297.437c-0.262-3.477-0.545-6.977-1.108-10.419c-0.057-0.347-0.622-0.263-0.61,0.083
			c0.099,3.098,0.331,6.192,0.466,9.289c0.136,3.101,0.214,6.206,0.258,9.309c0.087,6.213-0.075,12.426-0.368,18.632
			c-0.083,1.748-0.183,3.495-0.301,5.241c-0.056,0.829-0.124,1.656-0.139,2.487c-0.008,0.427-0.031,0.856,0.015,1.281
			c0.055,0.502,0.257,0.959,0.274,1.466c0.014,0.386,0.614,0.504,0.7,0.095c0.087-0.411,0.271-0.743,0.423-1.126
			c0.141-0.356,0.192-0.721,0.246-1.098c0.11-0.772,0.195-1.542,0.249-2.32c0.109-1.571,0.203-3.143,0.283-4.716
			c0.16-3.147,0.25-6.293,0.261-9.444C299.51,309.937,299.311,303.679,298.84,297.437z"/>
		<path style="fill:#344357;" d="M268.214,261.259c-0.138-0.227-0.374-0.295-0.622-0.253c-0.807,0.135-1.075,0.991-1.448,1.626
			c-0.337,0.576-0.708,1.135-1.117,1.662c-0.841,1.084-1.834,2.066-2.914,2.91c-1.054,0.824-2.222,1.504-3.438,2.056
			c-0.608,0.276-1.21,0.561-1.827,0.816c-0.607,0.251-1.38,0.399-1.882,0.831c-0.243,0.209-0.077,0.555,0.172,0.651
			c0.616,0.236,1.463,0.02,2.094-0.089c0.737-0.127,1.469-0.334,2.158-0.624c1.399-0.589,2.704-1.373,3.904-2.3
			c1.185-0.915,2.244-1.966,3.163-3.149c0.458-0.589,0.885-1.2,1.266-1.843C268.137,262.853,268.692,262.046,268.214,261.259z"/>
		<path style="fill:#344357;" d="M273.505,428.613c-2.63,0.777-5.426,0.852-8.104,0.279c-1.544-0.331-3.059-0.782-4.477-1.485
			c-0.706-0.35-1.381-0.751-2.039-1.183c-0.461-0.302-1.111-0.939-1.705-0.81c-0.056,0.012-0.122,0.071-0.13,0.13
			c-0.074,0.543,0.401,0.934,0.754,1.284c0.499,0.494,1.082,0.926,1.663,1.319c1.17,0.792,2.443,1.436,3.771,1.919
			c2.602,0.945,5.465,1.181,8.202,0.816c0.665-0.089,1.325-0.207,1.976-0.37c0.701-0.176,1.455-0.347,1.91-0.957
			C276.281,428.271,274.258,428.391,273.505,428.613z"/>
		<path style="fill:#344357;" d="M330.233,427.349c-0.31,0.141-0.712,0.119-1.044,0.254c-0.294,0.12-0.58,0.253-0.87,0.383
			c-0.647,0.293-1.338,0.506-2.018,0.71c-1.471,0.441-2.987,0.769-4.513,0.951c-1.487,0.177-2.991,0.216-4.488,0.206
			c-0.946-0.007-3.351-0.562-3.41,0.951c-0.007,0.179,0.105,0.376,0.264,0.46c-0.281-0.148,0.072,0.174,0.139,0.226
			c0.173,0.133,0.388-0.052,0.399-0.229c0-0.001,0-0.003,0.001-0.004c0.048-0.016,0.098-0.032,0.152-0.042
			c0.362-0.07,0.797,0.077,1.159,0.129c0.751,0.108,1.509,0.197,2.267,0.238c1.57,0.086,3.168-0.066,4.721-0.289
			c1.524-0.218,3.027-0.572,4.49-1.052c0.685-0.225,1.415-0.454,2.046-0.809c0.271-0.152,0.535-0.356,0.75-0.581
			c0.292-0.307,0.294-0.623,0.464-0.99C330.905,427.51,330.58,427.191,330.233,427.349z"/>
		<path style="fill:#9A4B33;" d="M276.933,447.347c0.237-0.228,0.318-0.524,0.327-0.846c0.003-0.118-0.09-0.252-0.21-0.276
			c-0.292-0.059-0.588-0.069-0.854,0.082c-0.254,0.144-0.495,0.34-0.728,0.516c-0.288,0.217-0.581,0.429-0.872,0.642
			c-0.564-0.571-1.13-1.141-1.725-1.68c-0.207-0.188-0.515-0.224-0.74-0.044c-0.198,0.158-0.318,0.501-0.145,0.727
			c0.469,0.616,0.96,1.219,1.459,1.816c-0.315,0.214-0.63,0.428-0.944,0.644c-0.503,0.347-1.023,0.668-1.479,1.077
			c-0.256,0.23,0.017,0.63,0.323,0.554c0.598-0.147,1.151-0.428,1.7-0.7c0.405-0.201,0.798-0.43,1.188-0.662
			c0.314,0.362,0.625,0.727,0.944,1.083c0.018,0.043,0.034,0.091,0.052,0.122c0.121,0.207,0.344,0.362,0.577,0.402
			c0.335,0.058,0.716-0.035,0.889-0.362c0.168-0.318,0.124-0.689-0.123-0.954c-0.348-0.374-0.711-0.735-1.07-1.099
			c0.212-0.14,0.43-0.271,0.637-0.418C276.406,447.78,276.696,447.576,276.933,447.347z"/>
		<g>
			<path style="fill:#9A4B33;" d="M333.252,445.646c-0.15-0.32-0.478-0.469-0.812-0.37c-0.059,0.026-0.065,0.028-0.019,0.005
				c-0.035,0.011-0.068,0.026-0.099,0.044c-0.052,0.03-0.094,0.066-0.13,0.112c-0.077,0.097-0.102,0.207-0.069,0.328
				c0,0,0,0,0.001,0c-0.175,0.158-0.363,0.3-0.548,0.447c-0.319,0.253-0.63,0.514-0.941,0.776c-0.184-0.164-0.365-0.332-0.553-0.491
				c-0.191-0.161-0.388-0.312-0.591-0.457c-0.158-0.114-0.355-0.234-0.555-0.266c-0.014-0.008-0.029-0.016-0.044-0.024
				c-0.156-0.084-0.352-0.052-0.46,0.092c-0.115,0.154-0.085,0.324,0.028,0.468c0.012,0.015,0.024,0.031,0.036,0.046
				c0.131,0.344,0.447,0.638,0.694,0.889c0.176,0.179,0.343,0.366,0.513,0.55c-0.152,0.135-0.307,0.267-0.458,0.404
				c-0.19,0.173-0.392,0.34-0.568,0.526c-0.088,0.093-0.187,0.18-0.271,0.276c-0.047,0.054-0.064,0.108-0.098,0.168
				c0.014-0.024-0.093,0.103-0.104,0.116c-0.218,0.231,0.058,0.603,0.341,0.443c0.069-0.039,0.137-0.076,0.208-0.11
				c0.115-0.033,0.214-0.086,0.334-0.154c0.15-0.086,0.293-0.175,0.437-0.272c0.285-0.193,0.57-0.385,0.855-0.578
				c0.013-0.009,0.025-0.019,0.038-0.027c0.157,0.179,0.317,0.357,0.47,0.54c0.13,0.156,0.256,0.315,0.385,0.471
				c0.072,0.087,0.145,0.172,0.216,0.259c0.002,0.002,0.001,0.002,0.002,0.004c-0.032-0.086-0.027-0.078,0.011,0.015
				c0.015,0.022,0.016,0.023,0,0.001c0.001,0.003,0.001,0.002,0.002,0.005c0.018,0.043,0.036,0.087,0.055,0.13
				c0.114,0.264,0.512,0.399,0.774,0.315c0.314-0.102,0.462-0.346,0.503-0.66c0.044-0.336-0.202-0.612-0.4-0.852
				c-0.144-0.173-0.293-0.34-0.446-0.505c-0.161-0.174-0.333-0.338-0.499-0.507c0.216-0.161,0.44-0.312,0.652-0.476
				C332.622,446.952,333.605,446.401,333.252,445.646z"/>
			<path style="fill:#9A4B33;" d="M331.489,449.861c0,0.001,0,0,0.001,0.001c0.007,0.011,0.006,0.009,0.011,0.015
				c0-0.001,0-0.001,0-0.001C331.496,449.87,331.496,449.869,331.489,449.861z"/>
		</g>
		<g>
			<path style="fill:#845555;" d="M274.548,97.951c-0.008,0.001-0.016,0.006-0.025,0.007
				C274.881,97.913,274.711,97.931,274.548,97.951z"/>
			<path style="fill:#845555;" d="M272.384,97.226c-0.017-0.001-0.035,0.001-0.052,0c0.013,0.002,0.053,0.005,0.124,0.009
				c-0.006-0.001-0.012-0.003-0.018-0.004C272.42,97.229,272.402,97.227,272.384,97.226z"/>
			<path style="fill:#845555;" d="M275.871,98.007c0.001-0.211-0.032-0.411-0.113-0.605c-0.127-0.302-0.361-0.487-0.627-0.66
				c-0.216-0.14-0.446-0.244-0.682-0.344c-0.524-0.221-1.068-0.338-1.638-0.368c-0.504-0.027-1.034,0.037-1.517,0.182
				c-0.653,0.196-1.398,0.553-1.509,1.304c-0.063,0.423,0.099,0.917,0.579,1.02c0.297,0.064,0.607,0.086,0.904-0.002
				c0.082-0.024,0.159-0.064,0.237-0.101c0.007-0.002,0.005-0.001,0.018-0.006c0.097-0.034,0.193-0.068,0.293-0.095
				c0.089-0.024,0.18-0.045,0.271-0.062c0.015-0.003,0.031-0.005,0.046-0.008c0.011-0.001,0.011-0.001,0.029-0.003
				c0.178-0.015,0.358-0.012,0.536-0.001c-0.029-0.005,0.037-0.007,0.093,0.002c0.004,0.001,0.009,0.002,0.013,0.003
				c0.023,0.003,0.047,0.006,0.07,0.007c-0.026-0.001-0.032-0.002-0.052-0.003c0.081,0.015,0.161,0.031,0.241,0.051
				c0.1,0.025,0.199,0.054,0.297,0.088c0.024,0.008,0.047,0.017,0.07,0.025c0.166,0.084,0.33,0.166,0.484,0.271
				c0.047,0.032,0.16,0.155,0.032,0.018c-0.108-0.083-0.091-0.071,0.049,0.038c0.112,0.103,0.243,0.172,0.394,0.208
				c0.112,0.025,0.242,0.041,0.357,0.043c-0.034,0,0.065-0.014,0.166-0.026C275.432,98.912,275.868,98.583,275.871,98.007z"/>
		</g>
		<path style="fill:#845555;" d="M273.942,102.814c-0.072-0.248-0.196-0.463-0.371-0.645c-0.121-0.104-0.242-0.209-0.363-0.313
			c-0.206-0.146-0.428-0.226-0.666-0.238c-0.159-0.048-0.318-0.048-0.477,0c-0.238,0.012-0.461,0.091-0.666,0.238
			c-0.121,0.104-0.242,0.209-0.363,0.313c-0.222,0.25-0.376,0.545-0.461,0.884c-0.017,0.119-0.034,0.238-0.05,0.357
			c-0.039,0.287-0.067,0.565-0.075,0.854c-0.007,0.239-0.013,0.477-0.019,0.716c-0.005,0.175,0.02,0.348,0.063,0.515
			c0.004,0.026,0.006,0.053,0.01,0.079c0.039,0.183,0.129,0.354,0.199,0.527c0.154,0.291,0.362,0.523,0.622,0.696
			c0.199,0.142,0.414,0.218,0.645,0.23c0.231,0.058,0.461,0.046,0.692-0.035c0.294-0.092,0.549-0.258,0.765-0.499
			c0.212-0.261,0.453-0.609,0.508-0.972c0.035-0.229,0.059-0.472,0.085-0.697c0.016-0.137,0.03-0.274,0.041-0.412
			c0.022-0.275,0.033-0.551,0.034-0.827C274.106,103.31,274.054,103.053,273.942,102.814z"/>
		<g>
			<path style="fill:#845555;" d="M295.143,99.653c-0.009,0.001-0.016,0.005-0.025,0.007
				C295.476,99.616,295.306,99.633,295.143,99.653z"/>
			<path style="fill:#845555;" d="M292.979,98.929c-0.017-0.001-0.035,0.001-0.052,0c0.013,0.002,0.053,0.005,0.124,0.009
				c-0.006-0.001-0.012-0.003-0.018-0.004C293.015,98.932,292.997,98.93,292.979,98.929z"/>
			<path style="fill:#845555;" d="M296.467,99.71c0.001-0.21-0.032-0.411-0.114-0.605c-0.127-0.301-0.361-0.487-0.626-0.66
				c-0.216-0.14-0.446-0.244-0.683-0.344c-0.524-0.221-1.068-0.338-1.638-0.368c-0.504-0.027-1.034,0.037-1.517,0.182
				c-0.653,0.196-1.398,0.553-1.51,1.304c-0.063,0.423,0.099,0.916,0.579,1.02c0.297,0.064,0.606,0.085,0.904-0.002
				c0.082-0.024,0.159-0.064,0.237-0.101c0.008-0.003,0.006-0.001,0.018-0.006c0.097-0.034,0.193-0.068,0.293-0.095
				c0.089-0.025,0.18-0.045,0.271-0.062c0.015-0.003,0.031-0.006,0.046-0.008c0.011-0.001,0.011-0.001,0.029-0.003
				c0.178-0.015,0.358-0.012,0.536-0.001c-0.029-0.005,0.038-0.007,0.093,0.002c0.005,0.001,0.009,0.002,0.013,0.003
				c0.023,0.003,0.047,0.006,0.07,0.007c-0.026-0.001-0.032-0.002-0.052-0.003c0.081,0.015,0.161,0.031,0.241,0.051
				c0.1,0.025,0.199,0.054,0.297,0.088c0.024,0.008,0.047,0.017,0.07,0.025c0.166,0.084,0.329,0.166,0.484,0.271
				c0.047,0.032,0.16,0.155,0.032,0.019c-0.108-0.083-0.091-0.071,0.049,0.038c0.112,0.102,0.244,0.172,0.395,0.208
				c0.112,0.025,0.242,0.042,0.357,0.043c-0.034,0,0.065-0.014,0.166-0.026C296.027,100.614,296.464,100.286,296.467,99.71z"/>
		</g>
		<path style="fill:#845555;" d="M294.538,104.517c-0.072-0.248-0.196-0.463-0.371-0.645c-0.121-0.104-0.242-0.209-0.363-0.313
			c-0.206-0.146-0.428-0.226-0.666-0.238c-0.159-0.048-0.318-0.048-0.477,0c-0.238,0.012-0.461,0.091-0.666,0.238
			c-0.121,0.104-0.242,0.209-0.363,0.313c-0.222,0.25-0.376,0.545-0.461,0.884c-0.017,0.119-0.034,0.238-0.05,0.357
			c-0.039,0.288-0.067,0.565-0.075,0.854c-0.007,0.239-0.013,0.477-0.019,0.716c-0.005,0.175,0.02,0.348,0.063,0.515
			c0.003,0.026,0.006,0.053,0.01,0.079c0.039,0.183,0.129,0.354,0.199,0.527c0.154,0.291,0.362,0.523,0.622,0.696
			c0.199,0.142,0.414,0.218,0.645,0.23c0.23,0.058,0.461,0.046,0.692-0.035c0.294-0.092,0.549-0.258,0.765-0.499
			c0.212-0.261,0.453-0.609,0.508-0.972c0.035-0.229,0.059-0.472,0.085-0.697c0.016-0.137,0.03-0.274,0.041-0.411
			c0.022-0.275,0.033-0.551,0.034-0.827C294.701,105.013,294.65,104.756,294.538,104.517z"/>
		<path style="fill:#DC967A;" d="M284.186,113.495c0.02-0.028,0.018-0.115,0.022-0.147c0.018-0.145-0.143-0.214-0.257-0.196
			c-0.03,0.004-0.061,0.01-0.091,0.017c-0.005-0.001-0.002-0.001-0.008-0.001c-0.038-0.004-0.073,0.002-0.112,0.005
			c-0.081-0.033-0.168-0.052-0.273-0.049c0.073-0.002-0.134,0.009-0.207,0.023c-0.032-0.006-0.066-0.01-0.093-0.011
			c-0.282-0.012-0.564,0.126-0.824,0.215c-0.216,0.074-0.436,0.123-0.66,0.161c-0.013,0.001-0.011,0.002-0.029,0.003
			c-0.059,0.004-0.118,0.009-0.177,0.012c-0.118,0.005-0.237,0.009-0.355,0.01c-0.233,0.001-0.469-0.017-0.701-0.036
			c-0.023-0.002-0.046-0.005-0.069-0.007c-0.003-0.003-0.117-0.021-0.133-0.024c-0.103-0.021-0.205-0.047-0.305-0.077
			c-0.11-0.033-0.217-0.076-0.325-0.115c-0.146-0.051-0.122-0.036-0.23-0.09c-0.219-0.109-0.445-0.222-0.683-0.183
			c-0.244,0.004-0.506,0.179-0.389,0.458c0.005,0.011,0.009,0.023,0.014,0.034c0.023,0.497,0.619,0.96,0.99,1.196
			c0.542,0.343,1.126,0.545,1.76,0.621c0.565,0.067,1.169-0.009,1.713-0.172c0.339-0.101,0.706-0.247,0.962-0.502
			c0.047-0.047,0.256-0.28,0.257-0.396c0.014-0.018,0.016-0.021,0.034-0.044c0.091-0.14,0.128-0.304,0.12-0.468
			c0.018-0.075,0.034-0.145,0.04-0.231C284.181,113.497,284.181,113.502,284.186,113.495z"/>
		<path style="fill:#FFFFFF;" d="M284.202,120.129v0.034c-0.049-0.24-0.18-0.449-0.387-0.581c-0.081-0.076-0.16-0.152-0.258-0.204
			c-0.625-0.472-1.446-0.304-2.195-0.172c-0.269,0.026-0.537,0.027-0.806,0.006c-0.264-0.051-0.528-0.114-0.788-0.177
			c-0.16-0.039-0.31-0.1-0.468-0.146c-0.297-0.086-0.799-0.095-1.101,0.003c-0.572,0.184-0.896,0.647-0.939,1.233
			c-0.029,0.407,0.183,0.876,0.42,1.183c0.218,0.282,0.509,0.487,0.796,0.697c0.422,0.309,0.947,0.495,1.458,0.602
			c0.512,0.106,1.051,0.175,1.575,0.147c0.326-0.017,0.657-0.06,0.976-0.121c0.318-0.061,0.649-0.26,0.924-0.44
			c0.418-0.273,0.755-0.723,0.812-1.234C284.298,120.688,284.309,120.404,284.202,120.129z"/>
		<path style="fill:#DB9380;" d="M300.555,112.414c-0.347-0.905-1.44-1.721-2.364-1.939c-1.719-0.406-4.288,0.051-4.496,1.813
			c-0.022,0.19,0.002,0.39,0.06,0.577c0.16,0.518,0.496,0.953,0.962,1.309c1.262,0.966,3.856,0.989,5.169,0.086
			C300.676,113.716,300.797,113.044,300.555,112.414z"/>
		<path style="fill:#DB9380;" d="M272.338,110.529c-0.347-0.905-1.44-1.721-2.364-1.939c-1.719-0.406-4.289,0.051-4.496,1.813
			c-0.022,0.19,0.002,0.39,0.06,0.577c0.16,0.518,0.496,0.953,0.962,1.309c1.262,0.966,3.856,0.99,5.169,0.086
			C272.459,111.831,272.579,111.158,272.338,110.529z"/>
		<path style="fill:#DC967A;" d="M388.904,216.604c-0.657-0.203-1.353-0.104-2.023-0.026c-0.66,0.076-1.321,0.153-1.981,0.229
			c-0.642,0.074-1.286,0.14-1.926,0.23c-0.641,0.09-1.406,0.101-1.996,0.378c-0.174,0.082-0.127,0.369,0.054,0.409
			c0.636,0.143,1.396-0.013,2.04-0.066c0.661-0.055,1.321-0.132,1.981-0.2c0.66-0.068,1.321-0.136,1.981-0.205
			c0.652-0.068,1.328-0.13,1.908-0.46C389.063,216.823,389.031,216.643,388.904,216.604z"/>
		<path style="fill:#DC967A;" d="M389.51,219.802c-1.193-0.353-2.496-0.186-3.727-0.153c-1.286,0.033-2.561,0.109-3.843,0.196
			c-0.285,0.019-0.291,0.439,0,0.448c1.283,0.036,2.559,0.061,3.843,0.043c1.233-0.017,2.547,0.099,3.727-0.301
			C389.621,219.996,389.628,219.837,389.51,219.802z"/>
		<path style="fill:#DC967A;" d="M388.31,222.352c-0.227-0.092-0.536-0.122-0.777-0.155c-0.24-0.032-0.487-0.043-0.729-0.038
			c-0.548,0.011-1.094,0.023-1.642,0.049c-0.527,0.024-1.055,0.032-1.581,0.071c-0.265,0.019-0.527,0.04-0.791,0.075
			c-0.262,0.035-0.508,0.112-0.768,0.152c-0.139,0.022-0.138,0.257,0,0.28c0.261,0.044,0.506,0.123,0.768,0.157
			c0.283,0.038,0.566,0.059,0.851,0.074c0.526,0.028,1.055,0.023,1.581,0.027c0.528,0.003,1.053-0.014,1.581-0.039
			c0.27-0.013,0.561-0.038,0.824-0.104c0.238-0.061,0.505-0.108,0.724-0.222C388.503,222.599,388.44,222.405,388.31,222.352z"/>
		<path style="fill:#DC967A;" d="M379.441,215.506c-0.462-0.157-1.014,0.247-1.422,0.43c-0.45,0.203-0.923,0.358-1.407,0.453
			c-0.463,0.091-0.923,0.124-1.393,0.085c-0.505-0.042-0.952-0.22-1.441-0.326c-0.144-0.031-0.226,0.128-0.137,0.236
			c0.319,0.387,0.881,0.596,1.354,0.712c0.523,0.128,1.091,0.145,1.623,0.079c0.561-0.07,1.107-0.227,1.631-0.437
			c0.448-0.179,1.228-0.435,1.339-0.972C379.613,215.649,379.555,215.545,379.441,215.506z"/>
		<path style="fill:#DC967A;" d="M377.742,219.021c0.105-0.361,0.292-0.741,0.294-1.12c0.001-0.133-0.148-0.216-0.262-0.15
			c-0.363,0.211-0.561,0.669-0.699,1.048c-0.154,0.422-0.248,0.858-0.291,1.305c-0.078,0.812-0.068,1.895,0.615,2.453
			c0.066,0.054,0.198,0.048,0.215-0.057c0.063-0.387,0.033-0.761-0.024-1.151c-0.056-0.389-0.077-0.778-0.051-1.17
			C377.565,219.788,377.633,219.398,377.742,219.021z"/>
	</g>
</g>
</svg>
