<?xml version="1.0" encoding="utf-8"?>
<!-- Generator: Adobe Illustrator 27.5.0, SVG Export Plug-In . SVG Version: 6.00 Build 0)  -->
<svg version="1.1" xmlns="http://www.w3.org/2000/svg" xmlns:xlink="http://www.w3.org/1999/xlink" x="0px" y="0px"
	 viewBox="0 0 750 500" style="enable-background:new 0 0 750 500;" xml:space="preserve">
<g id="BACKGROUND">
	<rect style="fill:#CDD7FF;" width="750" height="500"/>
</g>
<g id="OBJECTS">
	<path style="fill:#E0E6FF;" d="M582.552,133.123c-19.647-16.281-46.134-19.207-70.768-18.076
		c-38.786,1.781-74.724,14.214-113.885,6.701c-24.85-4.767-47.441-18.352-70.205-28.828
		c-52.764-24.281-122.421-27.326-162.665,21.639c-18.999,23.116-28.371,53.141-29.962,83.021
		c-3.252,61.064,25.645,121.975,72.042,161.809c46.397,39.834,108.788,59.085,169.912,57.253
		c90.29-2.706,184.088-57.045,222.597-140.627C620.524,230.636,625.305,168.552,582.552,133.123z"/>
	<g>
		<g>
			<path style="fill:#162A45;" d="M291.822,220.404c-21.545-10.838-38.664-29.129-46.315-50.229l4.232-1.535
				c8.858,24.426,31.143,44.911,58.153,53.462c24.715,7.824,53.393,6.408,80.751-3.989c9.344-3.551,18.499-8.108,27.351-12.515
				c4.445-2.213,9.041-4.5,13.623-6.644c11.778-5.508,27.43-11.977,44.067-13.121c17.168-1.182,33.161,3.789,43.879,13.64
				c12.471,11.461,16.905,29.915,10.542,43.881l-4.096-1.866c5.577-12.244,1.585-28.52-9.493-38.7
				c-9.81-9.015-24.581-13.56-40.523-12.464c-15.894,1.094-31.045,7.366-42.468,12.708c-4.533,2.12-9.103,4.395-13.524,6.595
				c-8.951,4.456-18.207,9.063-27.759,12.693c-28.302,10.756-58.031,12.202-83.71,4.073
				C301.454,224.786,296.531,222.773,291.822,220.404z"/>
			
				<ellipse transform="matrix(0.9511 -0.309 0.309 0.9511 -51.3615 173.897)" style="fill:#4D52A8;" cx="523.35" cy="249.108" rx="20.213" ry="20.213"/>
			<path style="fill:#252A5E;" d="M532.335,253.628c-2.496,4.963-8.543,6.962-13.506,4.465c-4.963-2.496-6.962-8.543-4.465-13.506
				c2.496-4.963,8.543-6.962,13.506-4.466C532.832,242.619,534.831,248.665,532.335,253.628z"/>
			<g>
				<path style="fill:#383D84;" d="M225.897,161.893c-4.2-2.501-7.241-6.702-8.228-11.584l-15.148-74.958
					c-0.551-2.724,0.019-5.481,1.606-7.762c1.587-2.282,3.972-3.776,6.717-4.208l10.685-1.684l0.701,4.447l-10.685,1.684
					c-1.52,0.24-2.842,1.067-3.721,2.331c-0.879,1.264-1.195,2.791-0.89,4.301l15.148,74.958c0.912,4.509,4.183,8.237,8.533,9.726
					l16.923,5.795l16.953-5.698c4.361-1.466,7.651-5.174,8.588-9.677l15.576-74.871c0.313-1.507,0.006-3.036-0.866-4.305
					c-0.872-1.269-2.189-2.104-3.707-2.353l-10.675-1.744l0.726-4.443l10.675,1.744c2.742,0.449,5.12,1.957,6.692,4.247
					c1.573,2.29,2.128,5.05,1.562,7.771l-15.576,74.871c-1.26,6.063-5.691,11.055-11.561,13.028l-18.402,6.185l-18.366-6.29
					C228.01,163.01,226.919,162.502,225.897,161.893z"/>
				<path style="fill:#162A45;" d="M279.691,150.938l8.9-42.78l-2.756-0.012c-1.522-0.006-3.012-0.057-4.429-0.15l-1.953-0.128
					l-8.578,41.236c-0.775,3.724-3.496,6.79-7.102,8.002l-16.229,5.455l-16.2-5.547c-3.6-1.232-6.301-4.314-7.056-8.042l-8.023-39.7
					l-8.624,2.781l7.821,38.703c1.102,5.45,4.485,10.215,9.282,13.071c1.165,0.694,2.404,1.267,3.682,1.705l19.089,6.538
					l19.127-6.429C273.268,163.414,278.268,157.779,279.691,150.938z"/>
				<path style="fill:#4D52A8;" d="M224.285,58.491l-7.518,1.214c-2.716,0.438-4.562,2.996-4.124,5.712
					c0.439,2.716,2.996,4.562,5.712,4.124l7.518-1.214c1.071-0.173,1.799-1.181,1.626-2.252l-0.962-5.958
					C226.364,59.046,225.356,58.319,224.285,58.491z"/>
				<path style="fill:#4D52A8;" d="M270.355,59.012l7.58,0.739c2.738,0.267,4.741,2.703,4.474,5.441
					c-0.267,2.738-2.703,4.741-5.441,4.474l-7.58-0.739c-1.079-0.105-1.869-1.066-1.764-2.145l0.586-6.006
					C268.315,59.696,269.275,58.906,270.355,59.012z"/>
			</g>
		</g>
		<g>
			<path style="fill:#A9B3FF;" d="M510.697,258.002c0,29.309-8.938,56.523-24.228,79.079c-25.375,37.444-68.269,62.04-116.902,62.04
				c-63.89,0-117.872-42.448-135.257-100.688v-0.011c-3.822-12.805-5.873-26.367-5.873-40.42c0-62.686,40.877-115.833,97.422-134.22
				c13.763-4.491,28.451-6.909,43.707-6.909c25.186,0,48.834,6.597,69.306,18.165C481.745,159.254,510.697,205.246,510.697,258.002z
				"/>
			<path style="fill:#7B85E8;" d="M404.226,351.301c-0.825,2.496-2.708,3.488-3.9,5.55c-1.315,2.273-1.326,5.739-2.162,8.258
				c-0.981,2.964-2.318,5.817-4.324,8.224c-4.112,4.915-12.025,7.266-17.017,3.254c-2.162-1.727-3.421-4.291-5.137-6.452
				c-4.525-5.661-11.913-8.18-19.034-9.495c-7.121-1.315-14.51-1.75-21.219-4.491c-6.698-2.741-12.816-8.559-13.217-15.791
				c-0.323-5.75,2.976-11.434,1.794-17.062c-2.608-12.448-23.637-14.042-25.487-26.624c-1.07-7.232,5.394-13.484,12.114-16.371
				c6.709-2.886,14.276-3.889,20.383-7.912c6.107-4.012,10.074-12.961,5.505-18.667c-2.552-3.176-6.887-4.302-10.052-6.887
				c-4.625-3.767-6.14-10.052-8.826-15.379c-2.686-5.338-8.369-10.453-14.008-8.47c-5.639,1.984-6.854,9.372-6.564,15.357
				c0.29,5.973,0.736,12.972-3.823,16.85c-3.845,3.276-9.907,2.898-13.674,6.274c-4.112,3.678-3.823,10.197-2.363,15.513
				c1.46,5.327,3.767,10.788,2.552,16.17c-1.326,5.862-6.765,10.164-12.604,11.545c-5.851,1.382-12.013,0.29-17.73-1.56
				c-3.834-1.237-7.556-2.819-11.122-4.703v-0.011c-3.822-12.805-5.873-26.367-5.873-40.42c0-62.686,40.877-115.833,97.422-134.22
				c0.724,2.764,0.981,5.65,0.802,8.492c-0.167,2.686-0.825,5.26-1.527,7.846c-0.646,2.363-2.374,3.221-3.778,5.149
				c-1.081,1.482-1.716,3.41-1.248,5.193c0.279,1.048,0.914,1.961,1.415,2.931c2.195,4.235,0.568,7.701,0.568,12.025
				c0,4.636-1.282,9.506,0.769,13.908c1.816,3.934,5.962,6.408,10.23,7.155c4.257,0.736,8.648-0.045,12.805-1.204
				c5.851-1.627,11.69-4.023,17.742-3.51c6.04,0.502,12.314,5.294,11.779,11.334c-0.323,3.533-2.864,6.72-2.53,10.253
				c0.513,5.305,6.965,7.968,8.982,12.894c1.816,4.458-0.546,9.695-4.146,12.883c-3.611,3.187-8.258,4.87-12.615,6.921
				c-7.221,3.399-16.605,12.582-12.76,21.653c1.304,3.076,3.878,5.383,6.319,7.656c2.429,2.285,4.892,4.77,5.84,7.968
				c0.78,2.663,0.412,5.527,0.747,8.28c1.181,9.996,10.476,7.188,17.641,8.737c5.093,1.092,10.241,4.235,11.59,9.272
				c1.493,5.539-2.017,11.189-2.095,16.928c-0.067,4.97,2.441,9.584,5.138,13.763c2.708,4.168,5.728,8.302,6.909,13.128
				C405.062,345.986,405.062,348.805,404.226,351.301z"/>
			<path style="fill:#7B85E8;" d="M510.697,258.002c0,29.309-8.938,56.523-24.228,79.079c-0.156,0.078-0.323,0.156-0.479,0.223
				c-8.325,3.733-17.273,6.954-26.356,6.118c-9.094-0.836-18.277-6.753-20.227-15.669c-2.831-12.961,9.796-27.259,3.143-38.737
				c-3.444-5.951-10.687-8.236-17.14-10.62c-6.441-2.374-13.484-6.274-14.721-13.039c-1.226-6.698,3.867-12.816,8.971-17.329
				c5.115-4.525,10.988-9.227,12.08-15.958c0.88-5.394-1.582-11.055-0.022-16.293c2.329-7.834,12.036-10.598,17.251-16.906
				c5.739-6.954,4.614-18.533-2.374-24.25c-5.45-4.447-12.938-5.137-19.592-7.422c-6.653-2.285-13.484-7.957-12.414-14.911
				c0.747-4.825,5.104-8.291,9.562-10.308c4.447-2.028,9.35-3.154,13.384-5.917c0.457-0.312,0.903-0.658,1.337-1.025
				C481.745,159.254,510.697,205.246,510.697,258.002z"/>
		</g>
	</g>
	<g>
		<defs>
			<rect id="SVGID_1_" width="750" height="500"/>
		</defs>
		<clipPath id="SVGID_00000114775064706026073780000012669769649857029773_">
			<use xlink:href="#SVGID_1_"  style="overflow:visible;"/>
		</clipPath>
		<g style="clip-path:url(#SVGID_00000114775064706026073780000012669769649857029773_);">
			<g>
				<g>
					<g>
						<polygon style="fill:#162A45;" points="331.484,343.451 331.247,570.424 361.81,570.424 373.671,339.516 						"/>
						<polygon style="fill:#162A45;" points="413.982,342.486 421.58,570.424 391.504,570.424 367.397,335.837 						"/>
					</g>
				</g>
				<g>
					<path style="fill:#383D84;" d="M372.245,366.59c-0.135,0-0.246-0.107-0.25-0.242l-0.913-29.739
						c-0.004-0.138,0.105-0.254,0.242-0.258c0.161,0.009,0.253,0.104,0.258,0.242l0.913,29.739c0.004,0.138-0.104,0.254-0.242,0.258
						C372.249,366.59,372.247,366.59,372.245,366.59z"/>
					<path style="fill:#383D84;" d="M372.097,361.764h-3.83c-0.134,0-0.244-0.105-0.25-0.239l-0.869-20.349
						c-0.006-0.138,0.102-0.255,0.239-0.261c0.158-0.015,0.255,0.102,0.261,0.239l0.859,20.109h3.59c0.138,0,0.25,0.112,0.25,0.25
						S372.235,361.764,372.097,361.764z"/>
					<path style="fill:#383D84;" d="M410.392,359.756c-2.125,0-4.054-0.699-5.748-2.086c-6.346-5.196-7.379-18.154-7.42-18.703
						c-0.01-0.138,0.093-0.258,0.231-0.268c0.136-0.026,0.258,0.092,0.268,0.23c0.01,0.133,1.059,13.295,7.239,18.354
						c1.917,1.569,4.153,2.204,6.644,1.895c0.124-0.014,0.262,0.08,0.279,0.217c0.017,0.138-0.08,0.262-0.217,0.279
						C411.234,359.729,410.809,359.756,410.392,359.756z"/>
					<path style="fill:#383D84;" d="M332.853,360.459c-0.07,0-0.139-0.029-0.189-0.086c-0.09-0.105-0.079-0.263,0.025-0.353
						c0.066-0.059,6.669-5.968,5.393-19.876c-0.013-0.137,0.089-0.259,0.226-0.271c0.132-0.017,0.259,0.089,0.272,0.227
						c1.301,14.182-5.495,20.239-5.564,20.299C332.97,360.439,332.912,360.459,332.853,360.459z"/>
				</g>
			</g>
			<g>
				<path style="fill:#EFAD9C;" d="M321.603,298.409c-1.362,0-2.747-0.255-4.09-0.793c-5.639-2.261-8.378-8.664-6.117-14.303
					l22.58-56.325c2.26-5.639,8.663-8.378,14.303-6.117c5.639,2.261,8.377,8.664,6.117,14.303l-22.58,56.325
					C330.095,295.795,325.966,298.409,321.603,298.409z"/>
				<g>
					<g>
						<path style="fill:#D35D57;" d="M337.36,259.176c-3.181,25.176-6.177,62.803-7.071,93.434
							c29.101,2.464,57.609,2.214,85.439-1.14c-2.339-26.583-3.604-63.565-1.186-92.535l-12.692-44.368l-30.978-3.361l-23.891,4.817
							L337.36,259.176z"/>
					</g>
				</g>
				<path style="fill:#FFFFFF;" d="M357.106,213.982l-3.642,53.076l-4.14,123.756c0,0-21.319,0.227-24.894-0.539l8.466-122.425
					l14.085-51.827L357.106,213.982z"/>
				<path style="fill:#FFFFFF;" d="M390.757,213.364l-12.199,52.996l6.596,124.485c0,0,26.34,0.962,36.426-0.826l-9.057-136.596
					l-10.673-38.856L390.757,213.364z"/>
				<polygon style="fill:#EFAD9C;" points="359.836,213.431 366.112,226.998 389.787,213.259 370.872,211.206 				"/>
				<path style="fill:#EFAD9C;" d="M401.863,301.83c-0.638,0-1.285-0.056-1.936-0.172c-5.982-1.062-9.969-6.772-8.907-12.753
					l10.61-59.748c1.063-5.981,6.768-9.978,12.754-8.907c5.981,1.061,9.969,6.771,8.907,12.753l-10.61,59.748
					C411.734,298.082,407.095,301.83,401.863,301.83z"/>
				<path style="fill:#EFAD9C;" d="M320.739,276.578l67.212-8.083c3.892-0.468,7.426,2.307,7.894,6.199
					c0.435,3.616-1.932,6.923-5.391,7.749l-65.829,15.789c-5.917,1.419-11.865-2.227-13.284-8.145
					c-1.419-5.917,2.227-11.865,8.145-13.284C319.9,276.704,320.324,276.629,320.739,276.578z"/>
				<path style="fill:#FFFFFF;" d="M364.005,268.807l-28.532,3.447l0.083-1.247c0.743,0.052,1.495,0.094,2.264,0.116l9.161-55.1
					c-7.738,1.795-14.132,7.218-17.166,14.559l-20.839,50.341c-1.614,3.893-1.427,8.3,0.511,12.042
					c3.066,5.92,9.819,8.932,16.272,7.259l42.139-10.927L364.005,268.807z"/>
				<g>
					<path style="fill:#EFAD9C;" d="M397.301,300.845l-51.398-21.125c-3.628-1.491-5.361-5.641-3.869-9.27
						c1.362-3.314,4.944-5.046,8.319-4.184l53.857,13.691c5.903,1.5,9.471,7.502,7.971,13.404c-1.501,5.902-7.502,9.471-13.404,7.97
						C398.287,301.209,397.756,301.028,397.301,300.845z"/>
					<path style="fill:#FFFFFF;" d="M411.308,215.705l-9.457-1.137l-9.304,42.398l-0.21-0.037l-4.119,16.835l-26.723-6.467
						c-4,6.383-6.305,20.255-6.305,20.255l40.667,15.602c3.715,1.425,7.854,1.247,11.432-0.493c4.15-2.018,7.079-5.905,7.873-10.451
						l5.292-30.278l-0.046-0.008l4.73-27.666C426.682,225.255,420.375,216.795,411.308,215.705z"/>
					<g>
						<path style="fill:#EFAD9C;" d="M349.618,266.112c-5.087-1.174-15.554,0.098-17.217,0.587
							c-1.663,0.489-3.791,2.177-3.106,3.253c0,0-2.91,0.832-2.323,2.788c0,0-2.788,2.144-1.712,3.628l3.305-0.415
							c4.619,5.42,16.175,5.745,19.563,4.004C352.688,277.614,349.618,266.112,349.618,266.112z"/>
					</g>
				</g>
				<g>
					
						<line style="fill:none;stroke:#A9B3FF;stroke-width:0.5;stroke-linecap:round;stroke-linejoin:round;stroke-miterlimit:10;" x1="330.989" y1="298.867" x2="363.029" y2="290.559"/>
					
						<line style="fill:none;stroke:#A9B3FF;stroke-width:0.5;stroke-linecap:round;stroke-linejoin:round;stroke-miterlimit:10;" x1="328.564" y1="275.952" x2="316.835" y2="277.424"/>
					<g>
						<path style="fill:#A9B3FF;" d="M391.008,264.231c-0.012,0-0.024-0.001-0.037-0.003c-0.137-0.02-0.232-0.147-0.211-0.283
							c0.026-0.178,2.629-17.919,5.081-30.046c0.027-0.136,0.161-0.217,0.294-0.195c0.136,0.027,0.223,0.159,0.196,0.295
							c-2.449,12.113-5.05,29.841-5.076,30.019C391.236,264.141,391.13,264.231,391.008,264.231z"/>
						<path style="fill:#A9B3FF;" d="M393.149,250.536c-0.116,0-0.22-0.082-0.245-0.2c-0.974-4.773-0.4-11.74-0.395-11.811
							c0.012-0.138,0.137-0.239,0.27-0.228c0.138,0.012,0.24,0.133,0.228,0.271c-0.006,0.068-0.573,6.965,0.387,11.668
							c0.027,0.135-0.06,0.268-0.195,0.295C393.183,250.533,393.166,250.536,393.149,250.536z"/>
					</g>
					<g>
						<path style="fill:#A9B3FF;" d="M335.238,265.878c-0.004,0-0.008,0-0.013,0c-0.138-0.008-0.244-0.125-0.237-0.263
							c0.01-0.205,1.068-20.648,2.68-29.755c0.024-0.136,0.155-0.23,0.29-0.202c0.136,0.024,0.227,0.153,0.203,0.29
							c-1.606,9.075-2.663,29.487-2.673,29.692C335.48,265.775,335.37,265.878,335.238,265.878z"/>
						<path style="fill:#A9B3FF;" d="M336.234,251.017c-0.09,0-0.177-0.049-0.222-0.134c-2.819-5.389-2.398-12.284-2.394-12.354
							c0.009-0.138,0.133-0.257,0.266-0.232c0.138,0.009,0.242,0.128,0.233,0.266c-0.004,0.067-0.414,6.826,2.338,12.088
							c0.064,0.123,0.017,0.273-0.106,0.338C336.314,251.008,336.273,251.017,336.234,251.017z"/>
					</g>
					
						<path style="fill:none;stroke:#A9B3FF;stroke-width:0.5;stroke-linecap:round;stroke-linejoin:round;stroke-miterlimit:10;" d="
						M355.189,287.551l40.667,15.602c3.715,1.425,7.854,1.247,11.432-0.493c4.15-2.018,7.079-5.905,7.873-10.451"/>
				</g>
				<g>
					<path style="fill:#EFAD9C;" d="M383.685,269.035c0,0,13.92-3.362,17.07-2.548c3.15,0.815,15.217,7.902,14.509,9.141
						c-0.708,1.239-10.848-3.773-10.848-3.773s10.635,6.129,9.671,7.126s-11.14-4.304-11.14-4.304s8.851,4.938,7.926,6.353
						c-0.925,1.415-9.767-3.919-9.767-3.919s6.862,5.2,5.927,6.344c-1.09,1.334-8.569-4.295-8.569-4.295s-4.988,1.516-10.499-3.538
						L383.685,269.035z"/>
				</g>
			</g>
			<g>
				<g>
					<path style="fill:#EFAD9C;" d="M383.097,192.721l1.621,23.195c0,0-13.235,6.593-22.001,1.459l0.307-17.603L383.097,192.721z"/>
					<path style="fill:#31184C;" d="M362.823,211.235c11.635-0.987,15.724-7.338,15.724-7.338l-15.616,1.101L362.823,211.235z"/>
				</g>
				<g>
					<path style="fill:#162A45;" d="M396.107,165.084c-1.293-3.435-3.801-6.492-7.146-8.003
						c-6.275-20.679-41.708-18.684-45.19-2.913c-1.085,4.915-0.345,8.83,1.995,11.106c-3.144,5.298,1.092,12.866,3.064,16.532
						l34.136,16.069c7.561-4.82,12.848-13.055,14.084-21.935C397.556,172.305,397.4,168.52,396.107,165.084z"/>
					<path style="fill:#EFAD9C;" d="M359.621,154.068c21.657-2.686,33.027,7.732,31.194,27.962
						c-1.459,16.105-10.81,26.125-26.036,26.174c-14.025,0.045-16.302-11.402-16.491-23.409
						C348.018,167.676,346.762,155.663,359.621,154.068z"/>
					<path style="fill:#162A45;" d="M347.244,167.777c2.376-0.801,4.331-2.758,5.13-5.134c7.914,1.603,16.258,1.032,23.879-1.635
						c-0.718,0.863-0.141,2.283,0.842,2.825c0.983,0.542,2.178,0.464,3.297,0.371c-1.095,1.557-1.26,3.719-0.413,5.424
						c0.847,1.705,2.669,2.88,4.571,2.948c-0.709,4.786,1.48,9.888,5.437,12.672c1.819-2.415,2.632-5.507,2.607-8.531
						c-0.025-3.023-0.783-5.996-1.747-8.861c-1.417-4.215-3.36-8.374-6.542-11.481c-3.176-3.101-7.431-4.963-11.808-5.697
						c-4.377-0.734-8.881-0.392-13.231,0.487c-3.226,0.652-6.58,1.712-8.732,4.203C347.859,158.467,347.266,163.682,347.244,167.777
						z"/>
					<g>
						<path style="fill:#162A45;" d="M348.83,176.529c0,0,5.421-0.921,8.765-0.324C355.77,173.679,350.935,174.901,348.83,176.529z"
							/>
						<path style="fill:#162A45;" d="M375.08,176.529c0,0-5.421-0.921-8.765-0.324C368.141,173.679,372.975,174.901,375.08,176.529z
							"/>
						<g>
							<path style="fill:#31184C;" d="M355.898,184.512c0,1.074-0.707,1.945-1.578,1.945c-0.872,0-1.578-0.871-1.578-1.945
								c0-1.074,0.707-1.945,1.578-1.945C355.191,182.568,355.898,183.438,355.898,184.512z"/>
							<path style="fill:#FFFFFF;" d="M354.32,183.805c0,0.346-0.222,0.626-0.495,0.626c-0.274,0-0.496-0.28-0.496-0.626
								c0-0.346,0.222-0.626,0.496-0.626C354.098,183.179,354.32,183.459,354.32,183.805z"/>
						</g>
						<g>
							<path style="fill:#31184C;" d="M371.169,184.512c0,1.074-0.707,1.945-1.578,1.945c-0.872,0-1.578-0.871-1.578-1.945
								c0-1.074,0.707-1.945,1.578-1.945C370.462,182.568,371.169,183.438,371.169,184.512z"/>
							<path style="fill:#FFFFFF;" d="M369.59,183.805c0,0.346-0.222,0.626-0.495,0.626c-0.274,0-0.496-0.28-0.496-0.626
								c0-0.346,0.222-0.626,0.496-0.626C369.369,183.179,369.59,183.459,369.59,183.805z"/>
						</g>
						<path style="fill:#AD6253;" d="M360.292,191.674c-0.03,0-0.061-0.002-0.092-0.008c-0.928-0.173-1.585-0.559-1.898-1.117
							c-0.177-0.315-0.33-0.844-0.053-1.577c0.158-0.416,0.478-0.949,0.815-1.513c0.31-0.516,0.629-1.049,0.759-1.396
							c0.096-0.259,0.384-0.389,0.643-0.293c0.259,0.096,0.39,0.384,0.294,0.643c-0.161,0.433-0.49,0.98-0.837,1.561
							c-0.301,0.501-0.612,1.02-0.738,1.353c-0.114,0.302-0.118,0.542-0.011,0.732c0.162,0.287,0.591,0.509,1.209,0.624
							c0.271,0.051,0.451,0.312,0.4,0.583C360.738,191.506,360.528,191.674,360.292,191.674z"/>
						<path style="fill:#FFFFFF;" d="M356.485,194.191c3.465,0.247,7.095,0.086,10.854-0.393
							C365.405,198.118,357.681,197.36,356.485,194.191z"/>
					</g>
					<g>
						<path style="fill:#EFAD9C;" d="M387.215,185.028c-1.284,3.173-0.361,6.234,1.936,7.164c2.297,0.93,5.2-0.888,6.484-4.061
							c1.284-3.173,0.462-6.499-1.835-7.429C391.502,179.771,388.498,181.855,387.215,185.028z"/>
						<path style="fill:#AD6253;" d="M389.43,189.119c-0.206,0-0.398-0.128-0.471-0.332c-0.093-0.26,0.042-0.546,0.303-0.639
							c0.511-0.183,1.076-0.667,1.108-1.298c0.013-0.249-0.08-0.492-0.188-0.772c-0.106-0.278-0.228-0.593-0.25-0.954
							c-0.042-0.664,0.218-1.354,0.694-1.848c0.607-0.631,1.403-0.939,2.124-0.82c1.205,0.196,1.835,1.369,1.835,2.427
							c0,0.276-0.224,0.5-0.5,0.5c-0.276,0-0.5-0.224-0.5-0.5c0-0.62-0.349-1.335-0.996-1.44c-0.469-0.077-0.964,0.236-1.245,0.527
							c-0.285,0.295-0.44,0.704-0.415,1.092c0.013,0.208,0.097,0.427,0.185,0.658c0.13,0.338,0.277,0.722,0.253,1.183
							c-0.057,1.095-0.931,1.888-1.771,2.188C389.542,189.11,389.485,189.119,389.43,189.119z"/>
					</g>
				</g>
			</g>
		</g>
		<g style="clip-path:url(#SVGID_00000114775064706026073780000012669769649857029773_);">
			<g>
				<path style="fill:#7B85E8;" d="M366.249,35.795c-1.563,3.059-1.998,6.598-1.769,10.026c0.591,8.842,5.704,17.263,13.277,21.866
					c1.717-5.682,2.534-11.92,1.749-17.803c-0.395-2.953-1.134-5.929-2.775-8.416C374.428,37.979,370.427,35.892,366.249,35.795z"/>
				<path style="fill:#7B85E8;" d="M367.297,73.676c-5.052-1.764-9.312-5.681-11.492-10.568c-2.18-4.887-2.249-10.673-0.187-15.611
					c5.473,1.356,10.213,5.749,11.61,11.212c0.629,2.46,0.652,5.029,0.671,7.568C367.919,68.852,367.277,71.101,367.297,73.676z"/>
				<path style="fill:#7B85E8;" d="M350.936,48.699c2.077,3.838,3.108,8.235,2.956,12.596c-0.153,4.361-1.489,8.675-3.829,12.358
					c-1.529,2.406-3.536,4.588-6.095,5.844c-2.857-3.374-4.138-7.806-4.396-12.22c-0.174-2.976,0.06-6.021,1.141-8.799
					C342.4,54.138,346.453,49.957,350.936,48.699z"/>
				<path style="fill:#4D52A8;" d="M354.286,39.499c-3.526,6.288-5.965,13.14-7.224,20.238c-0.145,0.815,1.125,1.014,1.27,0.199
					c1.13-6.37,3.245-12.514,6.237-18.241c0.148,1.415,0.326,2.827,0.547,4.234c0.557,3.553,1.349,7.066,2.353,10.519
					c0.231,0.794,1.427,0.322,1.197-0.469c-2.89-9.943-3.862-20.413-2.92-30.717c8.073,5.937,13.456,15.188,14.577,25.154
					c0.092,0.821,1.37,0.679,1.277-0.146c-0.908-8.075-4.521-15.748-10.1-21.648c-1.593-1.684-3.336-3.211-5.217-4.566
					c-0.135-0.097-0.274-0.122-0.407-0.116c0.18-1.669,0.406-3.334,0.686-4.99c0.59-3.481,1.402-6.923,2.436-10.299
					c0.239-0.781-0.93-1.319-1.171-0.53c-3.096,10.106-4.272,20.761-3.463,31.289C354.337,39.442,354.307,39.462,354.286,39.499z"/>
			</g>
			<g>
				<path style="fill:#7B85E8;" d="M621.755,441.533c2.961-1.742,5.228-4.494,6.875-7.509c4.249-7.777,4.456-17.626,0.538-25.576
					c-4.499,3.872-8.538,8.696-11.034,14.081c-1.253,2.703-2.227,5.611-2.177,8.59C616.028,435.298,618.283,439.208,621.755,441.533
					z"/>
				<path style="fill:#7B85E8;" d="M641.209,409.011c3.315,4.201,4.806,9.792,4.021,15.085c-0.784,5.293-3.833,10.212-8.223,13.271
					c-3.89-4.083-5.53-10.333-3.775-15.692c0.79-2.413,2.15-4.593,3.497-6.745C638.094,412.747,639.843,411.194,641.209,409.011z"/>
				<path style="fill:#7B85E8;" d="M641.602,438.868c0.309-4.353,1.799-8.616,4.269-12.213c2.47-3.597,5.914-6.519,9.865-8.37
					c2.582-1.209,5.447-1.972,8.28-1.658c0.599,4.381-0.7,8.807-2.852,12.67c-1.451,2.604-3.284,5.047-5.687,6.811
					C651.724,438.861,646.06,440.213,641.602,438.868z"/>
				<path style="fill:#4D52A8;" d="M633.837,444.83c6.35-3.412,12.088-7.883,16.96-13.195c0.559-0.61-0.405-1.46-0.964-0.85
					c-4.374,4.768-9.456,8.815-15.055,12.04c0.635-1.273,1.243-2.56,1.812-3.866c1.438-3.296,2.655-6.685,3.662-10.137
					c0.232-0.794-1.031-1.037-1.262-0.247c-2.9,9.941-7.701,19.295-14.028,27.482c-3.623-9.343-3.198-20.037,1.207-29.047
					c0.363-0.742-0.791-1.309-1.156-0.563c-3.569,7.3-4.64,15.713-3.101,23.686c0.439,2.276,1.091,4.5,1.95,6.654
					c0.062,0.154,0.165,0.25,0.281,0.316c-1.048,1.312-2.132,2.595-3.258,3.841c-2.367,2.62-4.9,5.088-7.585,7.381
					c-0.622,0.531,0.076,1.612,0.704,1.076c8.038-6.863,14.75-15.221,19.72-24.538C633.763,444.851,633.799,444.85,633.837,444.83z"
					/>
			</g>
			<g>
				<g>
					<path style="fill:#4D52A8;" d="M10.386,397.044c0.553-0.646,1.158-1.257,1.873-1.717c0.715-0.46,1.55-0.762,2.4-0.744
						c1.445,0.03,2.775,1.021,3.405,2.322c0.629,1.301,0.613,2.855,0.158,4.227c-0.455,1.372-1.319,2.578-2.319,3.622
						c-2.183,2.282-5.115,3.881-8.228,4.507c-0.375,0.075-1.257,0.385-1.606,0.117c-0.303-0.233-0.172-0.765-0.153-1.087
						c0.053-0.906,0.235-1.798,0.401-2.689c0.234-1.26,0.601-2.496,1.09-3.681C8.137,400.154,9.141,398.498,10.386,397.044z"/>
					<path style="fill:#4D52A8;" d="M16.39,373.659c0.723-0.447,1.485-0.846,2.306-1.067c0.821-0.221,1.708-0.255,2.513,0.02
						c1.368,0.468,2.334,1.815,2.539,3.247c0.204,1.431-0.283,2.906-1.133,4.075c-0.851,1.169-2.04,2.055-3.31,2.747
						c-2.773,1.511-6.052,2.144-9.208,1.794c-0.38-0.042-1.315-0.015-1.565-0.376c-0.218-0.314,0.069-0.781,0.185-1.082
						c0.326-0.847,0.771-1.642,1.199-2.44c0.606-1.13,1.331-2.196,2.157-3.176C13.302,375.938,14.762,374.665,16.39,373.659z"/>
					<path style="fill:#4D52A8;" d="M18.417,353.359c0.617-0.585,1.281-1.131,2.04-1.515c0.759-0.384,1.621-0.598,2.464-0.492
						c1.434,0.179,2.655,1.302,3.147,2.661c0.492,1.359,0.316,2.903-0.279,4.22c-0.595,1.318-1.578,2.428-2.68,3.364
						c-2.407,2.044-5.488,3.333-8.649,3.634c-0.381,0.036-1.29,0.253-1.609-0.049c-0.277-0.263-0.092-0.778-0.04-1.097
						c0.147-0.896,0.42-1.764,0.676-2.633c0.363-1.23,0.855-2.421,1.464-3.549C15.859,356.22,17.029,354.676,18.417,353.359z"/>
					<path style="fill:#4D52A8;" d="M23.459,334.788c0.617-0.585,1.281-1.131,2.04-1.515c0.759-0.384,1.621-0.598,2.464-0.492
						c1.434,0.179,2.655,1.302,3.147,2.661c0.492,1.359,0.316,2.903-0.279,4.22c-0.595,1.318-1.578,2.428-2.68,3.364
						c-2.407,2.044-5.488,3.333-8.649,3.634c-0.381,0.036-1.29,0.253-1.609-0.049c-0.277-0.263-0.092-0.778-0.04-1.097
						c0.147-0.896,0.42-1.764,0.676-2.633c0.363-1.23,0.855-2.421,1.464-3.549C20.901,337.649,22.071,336.105,23.459,334.788z"/>
					<path style="fill:#4D52A8;" d="M1.757,392.795c-0.39-0.755-0.838-1.49-1.428-2.101c-0.59-0.612-1.334-1.098-2.165-1.275
						c-1.413-0.303-2.936,0.356-3.847,1.477c-0.912,1.122-1.253,2.638-1.125,4.077c0.128,1.44,0.692,2.812,1.424,4.058
						c1.6,2.723,4.086,4.953,6.972,6.277c0.347,0.159,1.135,0.663,1.536,0.483c0.348-0.157,0.343-0.705,0.398-1.022
						c0.156-0.894,0.184-1.804,0.227-2.709c0.062-1.28-0.011-2.567-0.215-3.833C3.231,396.338,2.635,394.495,1.757,392.795z"/>
					<path style="fill:#4D52A8;" d="M5.299,372.933c-0.279-0.803-0.619-1.593-1.117-2.282c-0.498-0.689-1.165-1.275-1.963-1.569
						c-1.357-0.499-2.957-0.063-4.017,0.919s-1.613,2.434-1.69,3.878c-0.077,1.444,0.288,2.882,0.837,4.219
						c1.2,2.921,3.345,5.48,6.016,7.199c0.321,0.207,1.03,0.817,1.452,0.695c0.367-0.106,0.439-0.649,0.539-0.956
						c0.281-0.863,0.437-1.76,0.608-2.65c0.242-1.259,0.352-2.543,0.329-3.825C6.258,376.649,5.927,374.74,5.299,372.933z"/>
					<path style="fill:#4D52A8;" d="M10.163,353.646c-0.18-0.831-0.421-1.656-0.832-2.401c-0.411-0.744-1.002-1.407-1.758-1.795
						c-1.286-0.66-2.927-0.421-4.099,0.425c-1.172,0.846-1.896,2.221-2.147,3.644c-0.251,1.424-0.064,2.895,0.319,4.289
						c0.837,3.045,2.656,5.845,5.099,7.875c0.294,0.244,0.923,0.936,1.357,0.866c0.377-0.061,0.514-0.591,0.651-0.884
						c0.383-0.823,0.647-1.694,0.925-2.556c0.393-1.22,0.657-2.482,0.79-3.757C10.664,357.451,10.568,355.517,10.163,353.646z"/>
					<path style="fill:#4D52A8;" d="M18.333,333.796c-0.117-0.842-0.295-1.683-0.649-2.456c-0.353-0.773-0.893-1.478-1.618-1.922
						c-1.233-0.755-2.887-0.64-4.12,0.115c-1.233,0.755-2.058,2.071-2.416,3.472c-0.358,1.401-0.282,2.882-0.005,4.301
						c0.605,3.1,2.208,6.029,4.491,8.237c0.275,0.266,0.85,1.003,1.288,0.966c0.38-0.032,0.558-0.551,0.715-0.832
						c0.444-0.791,0.773-1.641,1.115-2.479c0.484-1.187,0.843-2.425,1.071-3.687C18.546,337.628,18.596,335.692,18.333,333.796z"/>
				</g>
				<path style="fill:#252A5E;" d="M19.38,358.244c0.412-0.398-0.163-1.081-0.577-0.681c-2.665,2.572-5.151,5.323-7.444,8.229
					c0.123-0.52,0.238-1.042,0.365-1.562c1.257-5.154,2.67-10.269,4.232-15.339c0.169-0.548-0.669-0.857-0.839-0.307
					c-1.922,6.24-3.61,12.55-5.07,18.913c-0.016,0.021-0.032,0.042-0.048,0.063c-0.101,0.135-0.103,0.271-0.056,0.389
					c-0.168,0.738-0.326,1.479-0.489,2.219c-0.941-5.089-1.882-10.178-2.824-15.268c-0.104-0.564-0.983-0.401-0.878,0.166
					c1.064,5.756,2.129,11.512,3.193,17.268c0.004,0.023,0.017,0.038,0.024,0.059c-0.26,1.232-0.514,2.465-0.755,3.701
					c-0.763,3.91-1.433,7.839-2.02,11.78c-1.59-4.438-3-8.938-4.208-13.495c-0.146-0.552-1.025-0.392-0.878,0.166
					c1.347,5.083,2.932,10.1,4.748,15.034c0.018,0.048,0.045,0.079,0.07,0.113c-0.688,4.846-1.245,9.71-1.664,14.587
					c-0.069,0.8-0.127,1.601-0.188,2.402c-1.567-2.944-3.135-5.887-4.702-8.831c-0.269-0.506-1.077-0.124-0.806,0.386
					c1.787,3.356,3.574,6.713,5.361,10.069c0.005,0.01,0.012,0.018,0.018,0.027c-0.28,3.976-0.471,7.958-0.573,11.943
					c-0.015,0.572,0.875,0.649,0.89,0.074c0.073-2.831,0.196-5.661,0.359-8.488c0.022-0.02,0.047-0.033,0.066-0.059
					c2.123-2.828,4.05-5.796,5.772-8.885c0.278-0.498-0.452-1.014-0.731-0.513c-1.511,2.711-3.19,5.323-5.011,7.836
					c0.386-6.069,0.977-12.125,1.778-18.154c0.302-2.27,0.634-4.535,0.994-6.797c0.035-0.016,0.07-0.026,0.104-0.053
					c2.863-2.274,5.874-4.354,9.019-6.219c0.49-0.291,0.11-1.1-0.386-0.805c-2.964,1.758-5.81,3.707-8.53,5.822
					c0.889-5.413,1.951-10.796,3.173-16.143C13.446,364.452,16.289,361.227,19.38,358.244z"/>
				<path style="fill:#252A5E;" d="M23.923,339.337c-0.18-0.015-0.305,0.068-0.382,0.183c-0.038,0.019-0.075,0.034-0.111,0.067
					c-2.602,2.411-5.046,4.986-7.339,7.692c0.227-3.488-0.019-6.996-0.735-10.422c-0.118-0.561-0.996-0.399-0.878,0.166
					c0.796,3.805,1.002,7.696,0.61,11.564c-0.047,0.467,0.544,0.618,0.811,0.293c2.503-3.053,5.212-5.929,8.108-8.612
					c0.027-0.025,0.039-0.053,0.058-0.08C24.427,340.027,24.413,339.377,23.923,339.337z"/>
			</g>
			<g>
				<g>
					<path style="fill:#4D52A8;" d="M720.183,153.142c-0.847-0.065-1.708-0.069-2.538,0.112c-0.831,0.181-1.634,0.559-2.222,1.173
						c-1,1.044-1.239,2.685-0.763,4.05c0.476,1.365,1.587,2.451,2.879,3.099s2.756,0.888,4.202,0.919
						c3.157,0.068,6.36-0.876,9.003-2.637c0.318-0.212,1.161-0.617,1.217-1.053c0.049-0.378-0.42-0.662-0.661-0.876
						c-0.679-0.602-1.439-1.104-2.186-1.616c-1.057-0.725-2.191-1.339-3.375-1.83C723.972,153.748,722.091,153.288,720.183,153.142z
						"/>
					<path style="fill:#4D52A8;" d="M699.393,140.865c-0.827,0.196-1.648,0.453-2.384,0.877c-0.736,0.425-1.387,1.029-1.761,1.792
						c-0.636,1.298-0.365,2.934,0.503,4.09c0.868,1.156,2.256,1.854,3.684,2.077c1.428,0.224,2.896,0.009,4.282-0.401
						c3.029-0.895,5.794-2.767,7.777-5.248c0.239-0.299,0.918-0.941,0.84-1.374c-0.068-0.376-0.601-0.503-0.896-0.634
						c-0.83-0.368-1.706-0.615-2.573-0.876c-1.227-0.369-2.494-0.61-3.771-0.718C703.188,140.291,701.256,140.424,699.393,140.865z"
						/>
					<path style="fill:#4D52A8;" d="M683.597,127.955c-0.85,0.023-1.706,0.107-2.513,0.373c-0.807,0.266-1.568,0.724-2.089,1.396
						c-0.887,1.141-0.955,2.799-0.341,4.107c0.614,1.309,1.831,2.275,3.184,2.785c1.352,0.51,2.833,0.599,4.274,0.481
						c3.147-0.258,6.236-1.528,8.683-3.552c0.295-0.244,1.091-0.734,1.102-1.174c0.01-0.382-0.486-0.615-0.748-0.803
						c-0.737-0.529-1.545-0.95-2.341-1.382c-1.127-0.612-2.317-1.106-3.546-1.472C687.429,128.167,685.51,127.903,683.597,127.955z"
						/>
					<path style="fill:#4D52A8;" d="M666.894,118.4c-0.85,0.023-1.706,0.107-2.513,0.373c-0.807,0.266-1.568,0.724-2.089,1.396
						c-0.887,1.142-0.955,2.799-0.341,4.107c0.614,1.308,1.831,2.274,3.184,2.785c1.353,0.51,2.833,0.599,4.274,0.481
						c3.148-0.258,6.236-1.528,8.683-3.552c0.294-0.244,1.091-0.734,1.102-1.173c0.01-0.382-0.486-0.615-0.748-0.803
						c-0.737-0.529-1.545-0.95-2.341-1.382c-1.127-0.612-2.317-1.106-3.546-1.472C670.726,118.612,668.807,118.348,666.894,118.4z"
						/>
					<path style="fill:#4D52A8;" d="M723.273,144.033c-0.259-0.81-0.462-1.646-0.478-2.495c-0.016-0.85,0.166-1.719,0.627-2.433
						c0.785-1.214,2.326-1.826,3.764-1.678c1.438,0.148,2.752,0.977,3.68,2.085c0.928,1.108,1.501,2.477,1.865,3.876
						c0.795,3.056,0.617,6.391-0.486,9.369c-0.133,0.358-0.333,1.272-0.744,1.428c-0.357,0.135-0.741-0.256-1.005-0.441
						c-0.743-0.521-1.407-1.145-2.078-1.753c-0.95-0.861-1.809-1.822-2.56-2.861C724.739,147.58,723.856,145.856,723.273,144.033z"
						/>
					<path style="fill:#4D52A8;" d="M706.717,132.504c-0.371-0.765-0.69-1.564-0.826-2.403c-0.136-0.839-0.078-1.725,0.277-2.497
						c0.605-1.313,2.045-2.136,3.489-2.193c1.444-0.057,2.862,0.579,3.938,1.545c1.076,0.966,1.836,2.24,2.394,3.573
						c1.219,2.913,1.514,6.24,0.843,9.344c-0.081,0.374-0.15,1.306-0.535,1.518c-0.334,0.185-0.77-0.148-1.057-0.294
						c-0.809-0.411-1.554-0.935-2.304-1.442c-1.062-0.718-2.048-1.548-2.939-2.47C708.669,135.809,707.552,134.227,706.717,132.504z
						"/>
					<path style="fill:#4D52A8;" d="M689.633,122.317c-0.461-0.714-0.874-1.469-1.111-2.285c-0.236-0.816-0.287-1.703-0.027-2.512
						c0.442-1.376,1.771-2.368,3.198-2.6c1.427-0.232,2.911,0.227,4.096,1.056c1.185,0.828,2.094,2.001,2.81,3.257
						c1.563,2.744,2.259,6.01,1.97,9.173c-0.035,0.381,0.01,1.315-0.346,1.572c-0.309,0.224-0.782-0.054-1.085-0.164
						c-0.853-0.31-1.656-0.739-2.462-1.152c-1.141-0.584-2.221-1.289-3.217-2.096C691.971,125.361,690.67,123.925,689.633,122.317z"
						/>
					<path style="fill:#4D52A8;" d="M669.815,114.072c-0.513-0.678-0.983-1.399-1.28-2.195c-0.297-0.796-0.415-1.677-0.217-2.503
						c0.337-1.406,1.587-2.495,2.993-2.834c1.405-0.339,2.92,0.007,4.164,0.744c1.244,0.737,2.239,1.837,3.047,3.036
						c1.766,2.618,2.706,5.823,2.655,8.998c-0.006,0.382,0.109,1.31-0.227,1.594c-0.292,0.246-0.784,0.005-1.094-0.082
						c-0.874-0.245-1.707-0.612-2.542-0.963c-1.182-0.497-2.311-1.117-3.365-1.847C672.375,116.93,670.97,115.597,669.815,114.072z"
						/>
				</g>
				<path style="fill:#252A5E;" d="M686.373,132.088c-0.573,0.011-0.65-0.879-0.074-0.89c3.703-0.068,7.406,0.116,11.083,0.548
					c-0.455-0.28-0.906-0.568-1.363-0.845c-4.535-2.753-9.153-5.368-13.844-7.845c-0.507-0.268-0.134-1.079,0.375-0.811
					c5.773,3.049,11.431,6.314,16.966,9.777c0.026,0.004,0.052,0.007,0.078,0.01c0.167,0.024,0.265,0.119,0.315,0.235
					c0.641,0.403,1.277,0.814,1.915,1.222c-2.936-4.262-5.872-8.524-8.808-12.786c-0.326-0.473,0.411-0.979,0.737-0.504
					c3.321,4.821,6.641,9.641,9.962,14.462c0.013,0.02,0.015,0.039,0.025,0.058c1.055,0.687,2.107,1.379,3.153,2.081
					c3.306,2.223,6.559,4.525,9.763,6.894c-2.016-4.261-4.204-8.439-6.576-12.514c-0.287-0.493,0.447-1.002,0.737-0.504
					c2.644,4.545,5.074,9.212,7.283,13.983c0.021,0.046,0.025,0.088,0.03,0.13c3.915,2.938,7.75,5.981,11.497,9.13
					c0.615,0.517,1.223,1.042,1.833,1.564c-0.975-3.189-1.951-6.378-2.926-9.567c-0.167-0.548,0.673-0.849,0.842-0.297
					c1.112,3.636,2.224,7.272,3.336,10.908c0.003,0.011,0.004,0.021,0.006,0.032c3.011,2.611,5.964,5.291,8.856,8.034
					c0.415,0.394-0.159,1.078-0.577,0.682c-2.055-1.949-4.144-3.861-6.259-5.744c-0.03,0.001-0.056,0.01-0.089,0.005
					c-3.501-0.497-6.964-1.23-10.366-2.195c-0.549-0.156-0.399-1.036,0.154-0.88c2.986,0.847,6.021,1.504,9.085,1.991
					c-4.567-4.015-9.27-7.877-14.102-11.57c-1.819-1.39-3.657-2.756-5.512-4.099c-0.036,0.014-0.068,0.031-0.111,0.036
					c-3.632,0.419-7.232,1.08-10.774,1.987c-0.552,0.141-0.856-0.699-0.297-0.842c3.339-0.854,6.729-1.491,10.147-1.922
					c-4.458-3.196-9.017-6.248-13.664-9.162C694.959,132.277,690.668,132.009,686.373,132.088z"/>
				<path style="fill:#252A5E;" d="M669.784,121.942c0.117-0.138,0.263-0.168,0.399-0.141c0.04-0.013,0.077-0.029,0.126-0.031
					c3.545-0.138,7.094-0.048,10.628,0.243c-2.629-2.304-4.937-4.957-6.854-7.885c-0.314-0.48,0.421-0.986,0.737-0.504
					c2.13,3.252,4.738,6.147,7.751,8.603c0.364,0.297,0.053,0.822-0.365,0.781c-3.929-0.387-7.878-0.502-11.823-0.348
					c-0.036,0.001-0.065-0.01-0.097-0.016C669.917,122.787,669.467,122.317,669.784,121.942z"/>
			</g>
			<g>
				<path style="fill:#A9B3FF;" d="M-14.192,487.037c3.951-9.878,9.541-19.098,16.471-27.169c2.734-3.184,5.922-6.335,10.018-7.252
					c3.363-0.753,7.064,0.204,9.641,2.494c2.577,2.289,3.963,5.852,3.612,9.28c4.007-3.258,7.376-7.242,11.369-10.518
					c3.993-3.276,8.892-5.89,14.05-5.645c5.159,0.245,10.359,4.157,10.617,9.315c5.364-4.974,12.213-8.326,19.432-9.511
					c2.614-0.429,5.41-0.555,7.797,0.591c4.01,1.924,5.685,7.171,4.423,11.435c-1.263,4.265-4.877,7.514-8.908,9.393
					c-4.031,1.879-8.494,2.581-12.89,3.263c3.194,1.328,5.262,4.708,5.924,8.103c0.88,4.515-1.391,9.274-4.99,12.139
					c-3.599,2.866-8.315,4.034-12.914,4.116s-9.152-0.837-13.66-1.753c2.111,1.285,2.841,4.287,2.462,6.73s-1.954,4.586-3.932,6.068
					c-1.978,1.482-4.339,2.368-6.719,3.035c-9.731,2.727-20.397,1.986-29.658-2.062C-1.307,505.044-9.584,496.032-14.192,487.037z"
					/>
				<path style="fill:#7B85E8;" d="M43.448,503.541c-11.508-3.421-22.63-8.095-33.123-13.93c-2.661-1.48-5.277-3.039-7.853-4.663
					c6.6-1.507,13.158-3.196,19.66-5.086c6.623-1.925,13.187-4.055,19.685-6.368c9.974,4.447,20.475,7.66,31.233,9.535
					c0.768,0.134,1.043-1.049,0.272-1.183c-10.257-1.787-20.273-4.797-29.819-8.946c7.105-2.569,14.127-5.368,21.051-8.392
					c7.702-3.364,15.282-7.004,22.723-10.911c0.692-0.363,0.044-1.39-0.645-1.029c-13.236,6.949-26.913,13.044-40.931,18.237
					c-5.13,1.9-10.304,3.678-15.517,5.336c7.946-7.295,15.893-14.589,23.839-21.884c0.575-0.528-0.322-1.347-0.895-0.821
					c-8.548,7.848-17.097,15.695-25.645,23.543c-8.025,2.481-16.136,4.684-24.319,6.581c-8.221,1.906-16.511,3.513-24.849,4.815
					c-0.764,0.119-0.733,1.334,0.037,1.214c7.552-1.179,15.063-2.606,22.521-4.273c0.044,0.06,0.097,0.117,0.17,0.163
					c10.168,6.496,21.031,11.867,32.363,16.013c3.222,1.179,6.482,2.254,9.77,3.232C43.927,504.947,44.195,503.763,43.448,503.541z"
					/>
			</g>
			<g>
				<path style="fill:#A9B3FF;" d="M360.649-20.034c10.432-2.088,21.208-2.445,31.754-1.051c4.161,0.55,8.542,1.498,11.547,4.428
					c2.468,2.406,3.689,6.028,3.179,9.437s-2.735,6.516-5.799,8.095c4.919,1.575,10.096,2.221,15.021,3.775
					c4.925,1.554,9.791,4.229,12.405,8.683c2.614,4.454,2.179,10.948-2.001,13.982c7.097,1.775,13.647,5.679,18.584,11.078
					c1.787,1.955,3.421,4.227,3.766,6.853c0.579,4.41-2.899,8.68-7.161,9.952c-4.262,1.273-8.958,0.022-12.734-2.328
					c-3.776-2.35-6.803-5.704-9.776-9.012c0.633,3.4-1.068,6.98-3.549,9.389c-3.301,3.205-8.527,3.902-12.894,2.454
					c-4.366-1.448-7.921-4.76-10.503-8.567c-2.582-3.807-4.299-8.122-5.996-12.398c0.077,2.471-2.038,4.722-4.291,5.739
					c-2.253,1.017-4.909,0.87-7.231,0.023c-2.322-0.847-4.354-2.34-6.213-3.969c-7.602-6.66-12.808-15.998-14.479-25.965
					C352.608,0.596,355.633-11.26,360.649-20.034z"/>
				<path style="fill:#7B85E8;" d="M378.322,37.258c-3.423-11.507-5.585-23.376-6.432-35.352c-0.215-3.037-0.339-6.08-0.386-9.125
					c4.869,4.704,9.866,9.274,15.002,13.687c5.231,4.495,10.602,8.828,16.089,13.007c1.725,10.783,4.772,21.334,9.081,31.368
					c0.307,0.716,1.449,0.301,1.14-0.419c-4.108-9.567-7.06-19.6-8.801-29.863c6.034,4.547,12.215,8.899,18.531,13.045
					c7.026,4.612,14.216,8.972,21.554,13.069c0.682,0.381,1.188-0.723,0.509-1.102c-13.052-7.288-25.63-15.412-37.639-24.316
					c-4.394-3.258-8.711-6.62-12.948-10.08c10.451,2.669,20.903,5.338,31.354,8.008c0.756,0.193,0.952-1.006,0.198-1.198
					c-11.243-2.871-22.487-5.743-33.73-8.614c-6.463-5.365-12.74-10.955-18.8-16.771c-6.088-5.844-11.964-11.909-17.611-18.18
					c-0.517-0.574-1.518,0.115-0.996,0.694c5.114,5.68,10.413,11.192,15.884,16.527c-0.026,0.07-0.045,0.145-0.044,0.231
					c0.116,12.066,1.553,24.098,4.273,35.854c0.773,3.343,1.654,6.66,2.632,9.949C377.406,38.427,378.544,38.005,378.322,37.258z"/>
			</g>
			<g>
				<path style="fill:#A9B3FF;" d="M589.317,501.617c2.546-10.329,6.806-20.234,12.552-29.187c2.267-3.532,4.988-7.094,8.918-8.569
					c3.227-1.211,7.025-0.775,9.893,1.135c2.869,1.91,4.735,5.247,4.861,8.691c3.517-3.782,6.303-8.193,9.804-11.99
					c3.501-3.797,7.991-7.064,13.134-7.535c5.143-0.472,10.835,2.684,11.804,7.756c4.624-5.669,10.944-9.936,17.929-12.109
					c2.529-0.786,5.281-1.299,7.804-0.494c4.238,1.351,6.623,6.315,5.963,10.713c-0.661,4.398-3.79,8.117-7.522,10.536
					c-3.732,2.419-8.055,3.732-12.314,5.016c3.347,0.873,5.863,3.934,6.988,7.205c1.497,4.35-0.094,9.377-3.262,12.713
					c-3.168,3.336-7.676,5.146-12.22,5.863c-4.544,0.718-9.179,0.438-13.771,0.155c2.269,0.981,3.407,3.853,3.37,6.324
					c-0.038,2.471-1.3,4.813-3.055,6.554c-1.754,1.742-3.969,2.946-6.234,3.936c-9.26,4.048-19.926,4.79-29.657,2.063
					C604.571,517.667,595.126,509.887,589.317,501.617z"/>
				<path style="fill:#7B85E8;" d="M648.687,509.983c-11.87-1.795-23.533-4.885-34.732-9.212c-2.841-1.097-5.647-2.279-8.423-3.531
					c6.328-2.406,12.589-4.986,18.767-7.758c6.293-2.823,12.499-5.841,18.614-9.031c10.493,3.024,21.338,4.753,32.253,5.12
					c0.779,0.026,0.888-1.183,0.105-1.21c-10.405-0.35-20.742-1.945-30.771-4.733c6.681-3.528,13.248-7.272,19.687-11.225
					c7.162-4.398,14.166-9.051,20.995-13.951c0.635-0.456-0.149-1.383-0.781-0.93c-12.146,8.714-24.848,16.644-38.013,23.727
					c-4.817,2.592-9.696,5.069-14.629,7.432c6.86-8.324,13.72-16.649,20.58-24.973c0.496-0.602-0.505-1.289-1-0.689
					c-7.38,8.955-14.76,17.91-22.14,26.866c-7.604,3.568-15.332,6.872-23.174,9.884c-7.878,3.025-15.866,5.765-23.943,8.208
					c-0.74,0.224-0.542,1.423,0.205,1.197c7.316-2.213,14.557-4.666,21.713-7.349c0.052,0.053,0.112,0.102,0.19,0.138
					c10.969,5.026,22.471,8.842,34.268,11.379c3.354,0.721,6.731,1.336,10.124,1.849C649.356,511.31,649.457,510.1,648.687,509.983z
					"/>
			</g>
			<g>
				<path style="fill:#4D52A8;" d="M571.011,511.417c11.953,9.536,71.794-74.429,39.507-92.63
					C578.232,400.585,561.148,503.547,571.011,511.417z"/>
				<path style="fill:#383D84;" d="M610.763,423.034c0.246-0.633,1.246-0.291,0.999,0.343
					c-5.023,12.898-10.046,25.796-15.068,38.694c5.895-6.805,11.79-13.611,17.685-20.416c0.44-0.508,1.321,0.076,0.877,0.588
					c-6.425,7.418-12.85,14.835-19.276,22.252c-0.086,0.1-0.191,0.147-0.298,0.172c-4.711,12.095-9.466,24.193-15.246,35.826
					c-3.347,6.736-7.042,13.302-11.233,19.551c-0.379,0.565-1.256-0.024-0.877-0.588c7.46-11.124,13.306-23.216,18.502-35.534
					c0.098-0.233,0.194-0.467,0.292-0.701c-0.034-0.05-0.066-0.102-0.084-0.169c-2.231-8.266-3.718-16.729-4.42-25.262
					c-0.196-2.386-0.33-4.777-0.409-7.17c-0.022-0.679,1.031-0.595,1.053,0.078c0.277,8.472,1.323,16.916,3.118,25.2
					c0.419,1.933,0.89,3.854,1.389,5.768c4.976-11.949,9.539-24.075,14.235-36.135C604.922,438.032,607.842,430.533,610.763,423.034
					z"/>
			</g>
			<g>
				<path style="fill:#4D52A8;" d="M359.551-15.776c13.286,7.57-42.536,94.259-71.403,71.013
					C259.281,31.99,348.588-22.023,359.551-15.776z"/>
				<path style="fill:#383D84;" d="M292.184,53.89c-0.496,0.463,0.191,1.265,0.688,0.801c10.119-9.444,20.239-18.887,30.358-28.331
					c-4.137,7.997-8.275,15.994-12.412,23.991c-0.309,0.597,0.56,1.199,0.871,0.597c4.509-8.716,9.019-17.432,13.528-26.148
					c0.061-0.117,0.066-0.232,0.049-0.341c9.489-8.857,18.965-17.755,27.629-27.433c5.017-5.604,9.747-11.469,13.999-17.677
					c0.384-0.561-0.487-1.158-0.871-0.597c-7.568,11.051-16.635,20.96-26.151,30.35c-0.18,0.178-0.362,0.353-0.543,0.53
					c-0.059-0.013-0.12-0.023-0.189-0.015c-8.505,0.99-16.916,2.744-25.102,5.253c-2.289,0.702-4.56,1.463-6.811,2.277
					c-0.639,0.231-0.171,1.178,0.463,0.949c7.972-2.881,16.202-5.038,24.562-6.44c1.951-0.327,3.91-0.601,5.872-0.846
					c-9.256,9.049-18.828,17.779-28.29,26.609C303.951,42.908,298.068,48.399,292.184,53.89z"/>
			</g>
			<g>
				<path style="fill:#7B85E8;" d="M-9.401,465.23c-0.956-10.464-1.214-21.041,0.18-31.456c1.394-10.415,4.482-20.691,9.883-29.705
					c9.416-15.712,25.965-26.953,44.042-29.916c7.972,19.516,7.075,42.081-3.304,60.431C31.021,452.934,11.664,464.405-9.401,465.23
					z"/>
				<path style="fill:#6265CE;" d="M21.868,404.631c0.044-0.012,0.088-0.028,0.134-0.054c8.441-4.839,16.648-10.076,24.587-15.703
					c0.57-0.404-0.088-1.264-0.656-0.861c-7.326,5.193-14.883,10.056-22.643,14.574c1.377-1.967,2.772-3.921,4.203-5.85
					c4.829-6.506,9.96-12.785,15.371-18.816c0.466-0.52-0.39-1.183-0.853-0.667c-9.681,10.791-18.461,22.383-26.231,34.622
					c-2.327,3.665-4.552,7.393-6.697,11.168c0.861-9.678,1.721-19.356,2.582-29.034c0.061-0.692-1.011-0.841-1.073-0.145
					c-0.919,10.334-1.838,20.669-2.757,31.003c-0.01,0.111,0.016,0.202,0.056,0.283c-4.509,8.106-8.599,16.444-12.23,24.979
					c-3.187,7.492-6.022,15.132-8.498,22.888c-0.21,0.659,0.784,1.089,0.996,0.425c2.136-6.692,4.547-13.295,7.213-19.794
					c0.115,0.052,0.255,0.053,0.408-0.029c9.484-5.039,18.644-10.683,27.397-16.906c2.475-1.76,4.917-3.567,7.326-5.416
					c0.553-0.425-0.102-1.286-0.656-0.861c-8.45,6.485-17.312,12.429-26.528,17.772c-2.44,1.414-4.908,2.779-7.395,4.108
					c2.673-6.415,5.595-12.728,8.769-18.912C9.796,423.46,15.541,413.847,21.868,404.631z"/>
			</g>
			<g>
				<path style="fill:#383D84;" d="M757.931,202.054c-10.656,0.169-21.349,1.055-31.701,3.589
					c-10.351,2.534-20.38,6.761-28.883,13.184c-14.824,11.197-24.367,29.104-25.395,47.653c20.543,5.925,43.201,2.575,60.58-9.879
					C749.911,244.148,759.381,223.385,757.931,202.054z"/>
				<path style="fill:#4D52A8;" d="M700.21,240.151c-0.007,0.045-0.018,0.092-0.04,0.141c-3.965,9.036-8.357,17.88-13.171,26.495
					c-0.346,0.618-1.284,0.048-0.94-0.568c4.443-7.95,8.528-16.098,12.243-24.413c-1.834,1.602-3.654,3.22-5.444,4.872
					c-6.038,5.574-11.813,11.429-17.309,17.538c-0.474,0.527-1.235-0.265-0.765-0.788c9.833-10.931,20.571-21.041,32.071-30.203
					c3.444-2.743,6.962-5.392,10.536-7.963c-9.666,1.916-19.332,3.833-28.998,5.749c-0.691,0.137-0.957-0.928-0.263-1.066
					c10.322-2.046,20.643-4.093,30.965-6.139c0.11-0.022,0.205-0.005,0.292,0.026c7.685-5.425,15.65-10.453,23.864-15.039
					c7.21-4.026,14.607-7.712,22.16-11.049c0.642-0.284,1.183,0.673,0.537,0.958c-6.517,2.88-12.914,6.026-19.178,9.419
					c0.065,0.11,0.081,0.252,0.015,0.415c-4.054,10.109-8.753,19.958-14.08,29.459c-1.507,2.687-3.064,5.345-4.668,7.975
					c-0.368,0.604-1.308,0.036-0.94-0.568c5.624-9.223,10.658-18.805,15.047-28.676c1.162-2.613,2.271-5.25,3.342-7.902
					c-6.18,3.391-12.229,7.021-18.121,10.891C717.89,225.938,708.818,232.773,700.21,240.151z"/>
			</g>
			<g>
				<path style="fill:#A9B3FF;" d="M756.462,213.572c12.385-8.968-52.521-89.082-78.693-62.838
					C651.598,176.978,746.242,220.972,756.462,213.572z"/>
				<path style="fill:#7B85E8;" d="M681.928,151.634c-0.544-0.407,0.052-1.278,0.597-0.871c11.085,8.289,22.17,16.578,33.256,24.867
					c-4.981-7.5-9.963-15-14.944-22.501c-0.372-0.56,0.426-1.253,0.801-0.688c5.429,8.175,10.859,16.349,16.288,24.524
					c0.073,0.11,0.091,0.224,0.086,0.333c10.394,7.774,20.781,15.591,30.445,24.271c5.596,5.026,10.934,10.343,15.835,16.052
					c0.443,0.516-0.358,1.204-0.801,0.688c-8.724-10.163-18.813-19.03-29.293-27.331c-0.198-0.157-0.399-0.312-0.597-0.468
					c-0.057,0.02-0.116,0.036-0.186,0.036c-8.562-0.06-17.114-0.891-25.525-2.496c-2.352-0.449-4.692-0.959-7.018-1.523
					c-0.66-0.16-0.298-1.152,0.357-0.994c8.238,1.998,16.654,3.249,25.117,3.734c1.975,0.113,3.952,0.173,5.93,0.204
					c-10.184-7.99-20.648-15.629-31.013-23.379C694.818,161.273,688.373,156.454,681.928,151.634z"/>
			</g>
			<g>
				<path style="fill:#4D52A8;" d="M757.778,205.954c4.542-9.641,8.458-19.631,10.743-30.04c2.286-10.409,2.908-21.274,0.888-31.738
					c-3.522-18.241-15.393-34.696-31.592-43.791c-14.369,15.832-21.343,37.649-17.82,58.737
					C723.522,180.21,737.989,197.859,757.778,205.954z"/>
				<path style="fill:#383D84;" d="M749.005,137.353c-0.037-0.026-0.074-0.057-0.109-0.098c-6.365-7.541-12.37-15.379-17.983-23.496
					c-0.403-0.583,0.522-1.174,0.924-0.593c5.18,7.491,10.694,14.748,16.522,21.746c-0.63-2.352-1.281-4.699-1.976-7.033
					c-2.344-7.876-5.056-15.64-8.12-23.265c-0.264-0.657,0.782-0.992,1.044-0.339c5.482,13.643,9.827,27.737,12.986,42.097
					c0.946,4.3,1.773,8.626,2.508,12.967c2.538-9.522,5.076-19.044,7.614-28.565c0.181-0.681,1.255-0.451,1.073,0.234
					c-2.71,10.168-5.42,20.335-8.13,30.503c-0.029,0.109-0.086,0.187-0.151,0.251c1.484,9.289,2.489,18.655,2.988,28.049
					c0.438,8.246,0.489,16.511,0.157,24.762c-0.028,0.701-1.125,0.766-1.097,0.059c0.286-7.119,0.28-14.248-0.006-21.366
					c-0.128,0.009-0.262-0.038-0.379-0.169c-7.29-8.093-14.061-16.65-20.243-25.618c-1.748-2.536-3.448-5.105-5.103-7.704
					c-0.38-0.597,0.544-1.19,0.924-0.593c5.802,9.112,12.186,17.852,19.115,26.141c1.834,2.194,3.713,4.351,5.622,6.481
					c-0.322-7.042-0.915-14.071-1.794-21.066C753.976,159.486,751.836,148.331,749.005,137.353z"/>
			</g>
		</g>
	</g>
	<g>
		<g>
			<path style="fill:#162A45;" d="M265.81,353.188l-47.876-0.088l0.029-15.888c0.007-3.765,3.075-6.822,6.84-6.815l34.222,0.063
				c3.764,0.007,6.821,3.075,6.814,6.84L265.81,353.188z M221.6,349.448l40.558,0.074l0.022-12.23
				c0.003-1.747-1.416-3.171-3.162-3.174l-34.222-0.063c-1.747-0.003-3.171,1.416-3.174,3.163L221.6,349.448z"/>
			<path style="fill:#383D84;" d="M306.557,348.538l-129.351-0.237c-2.253-0.004-4.083,1.819-4.087,4.072l-0.15,82.02
				c-0.004,2.253,1.819,4.083,4.072,4.087l129.351,0.237c2.253,0.004,4.083-1.819,4.087-4.072l0.15-82.02
				C310.633,350.371,308.81,348.542,306.557,348.538z"/>
			
				<rect x="173.043" y="375.323" transform="matrix(1 0.0018 -0.0018 1 0.7207 -0.4419)" style="fill:#4D52A8;" width="137.51" height="36.37"/>
			
				<ellipse transform="matrix(0.7071 -0.7071 0.7071 0.7071 -207.4314 286.2333)" style="fill:#4D52A8;" cx="241.798" cy="393.509" rx="29.146" ry="29.146"/>
			<polygon style="fill:#FFFFFF;" points="257.626,388.493 246.852,388.473 246.872,377.699 236.783,377.681 236.763,388.455 
				225.989,388.435 225.971,398.524 236.745,398.544 236.725,409.318 246.814,409.336 246.834,398.562 257.608,398.582 			"/>
			<g>
				
					<rect x="279.446" y="348.497" transform="matrix(1 0.0018 -0.0018 1 0.7209 -0.5194)" style="fill:#D35D57;" width="9.342" height="90.179"/>
				<path style="fill:#162A45;" d="M288.627,345.079l-8.843-0.016c-0.98-0.002-1.776,0.791-1.778,1.772l-0.003,1.65l12.393,0.023
					l0.003-1.65C290.4,345.877,289.607,345.081,288.627,345.079z"/>
				
					<rect x="194.81" y="348.342" transform="matrix(1 0.0018 -0.0018 1 0.7205 -0.3645)" style="fill:#D35D57;" width="9.342" height="90.179"/>
				<path style="fill:#162A45;" d="M203.991,344.925l-8.844-0.016c-0.98-0.002-1.776,0.791-1.778,1.772l-0.003,1.65l12.393,0.023
					l0.003-1.65C205.765,345.723,204.971,344.926,203.991,344.925z"/>
			</g>
			<path style="fill:#FFFFFF;" d="M292.095,402.312l-15.99-0.029l0.016-8.704l15.99,0.029L292.095,402.312z M276.839,401.552
				l14.526,0.027l0.013-7.24l-14.526-0.027L276.839,401.552z"/>
			<path style="fill:#FFFFFF;" d="M207.46,402.157l-15.99-0.029l0.016-8.704l15.99,0.029L207.46,402.157z M192.203,401.397
				l14.526,0.027l0.013-7.24l-14.526-0.027L192.203,401.397z"/>
		</g>
		<g>
			<path style="fill:#FFB552;" d="M489.534,262.461c-23.979,15.625-57.167,13.683-57.167,13.683l2.43,55.697
				c0.828,18.981,11.829,36.039,28.778,44.623l25.998,13.168l25.99-13.184c16.943-8.595,27.934-25.66,28.75-44.641l2.396-55.699
				C546.71,276.109,513.523,278.071,489.534,262.461z"/>
			<path style="fill:#F78721;" d="M467.029,369.643c-14.463-7.325-23.887-21.938-24.593-38.136l-2.082-47.721
				c11.364-0.406,31.706-2.622,49.183-12.4c17.483,9.768,37.827,11.971,49.191,12.37l-2.053,47.722
				c-0.696,16.198-10.111,30.816-24.57,38.151L489.57,381.06L467.029,369.643z"/>
			<polygon style="fill:#FFFFFF;" points="511.675,315.535 495.593,315.54 495.588,299.458 483.503,299.462 483.508,315.544 
				467.425,315.549 467.429,327.634 483.511,327.629 483.516,343.711 495.602,343.708 495.597,327.625 511.679,327.621 			"/>
		</g>
		<g>
			<g>
				<g>
					<path style="fill:#6265CE;" d="M206.393,267.736l-6.497-3.975l0.001-5.409l-7.876-0.001l-7.876-0.001l-0.001,5.409
						l-6.499,3.973c-3.096,1.893-4.985,5.26-4.985,8.889l-0.005,27.75c-0.001,6.079,4.926,11.008,11.006,11.009l8.35,0.001
						l8.35,0.001c6.079,0.001,11.008-4.926,11.009-11.006l0.005-27.75C211.376,272.998,209.489,269.63,206.393,267.736z"/>
					<rect x="172.658" y="279.595" style="fill:#93D8C3;" width="38.716" height="18.15"/>
					<rect x="175.217" y="282.022" style="fill:#FFFFFF;" width="8.097" height="11.134"/>
					<rect x="185.34" y="282.024" style="fill:#FFFFFF;" width="20.117" height="0.633"/>
					<rect x="185.339" y="284.997" style="fill:#FFFFFF;" width="20.117" height="0.633"/>
					<rect x="185.339" y="287.971" style="fill:#FFFFFF;" width="20.117" height="0.633"/>
				</g>
				<rect x="181.301" y="251.563" style="fill:#252A5E;" width="21.44" height="7.465"/>
				<rect x="180.763" y="257.953" style="fill:#383D84;" width="22.515" height="2.53"/>
			</g>
			<g>
				<g>
					<path style="fill:#FFFFFF;" d="M505.552,100.964l-6.557-3.942l-0.041-5.433l-7.911,0.06l-7.911,0.06l0.041,5.433l-6.496,4.041
						c-3.095,1.925-4.966,5.322-4.938,8.967l0.212,27.872c0.047,6.106,5.034,11.018,11.14,10.972l8.387-0.064l8.387-0.064
						c6.106-0.047,11.018-5.034,10.972-11.14l-0.212-27.872C510.598,106.21,508.676,102.842,505.552,100.964z"/>
					
						<rect x="471.831" y="112.986" transform="matrix(1 -0.0076 0.0076 1 -0.9161 3.7468)" style="fill:#5FC5A9;" width="38.887" height="18.23"/>
					
						<rect x="474.394" y="115.524" transform="matrix(1 -0.0076 0.0076 1 -0.9094 3.6508)" style="fill:#FFFFFF;" width="8.133" height="11.183"/>
					
						<rect x="484.52" y="115.4" transform="matrix(1 -0.0076 0.0076 1 -0.867 3.7706)" style="fill:#FFFFFF;" width="20.206" height="0.635"/>
					
						<rect x="484.543" y="118.387" transform="matrix(1 -0.0076 0.0076 1 -0.8903 3.7734)" style="fill:#FFFFFF;" width="20.206" height="0.635"/>
					
						<rect x="484.566" y="121.373" transform="matrix(1 -0.0076 0.0076 1 -0.9131 3.7736)" style="fill:#FFFFFF;" width="20.206" height="0.635"/>
				</g>
				
					<rect x="480.252" y="84.832" transform="matrix(1 -0.0076 0.0076 1 -0.6607 3.7442)" style="fill:#252A5E;" width="21.535" height="7.498"/>
				
					<rect x="479.742" y="91.249" transform="matrix(1 -0.0076 0.0076 1 -0.6906 3.7439)" style="fill:#162A45;" width="22.615" height="2.542"/>
			</g>
		</g>
		<g>
			<g>
				<rect x="559.021" y="255.472" style="fill:#7B85E8;" width="36.144" height="57.182"/>
				<rect x="558.217" y="248.325" style="fill:#5FC5A9;" width="37.762" height="11.329"/>
				<rect x="557.339" y="258.338" style="fill:#33896E;" width="39.515" height="2.63"/>
				<rect x="559.021" y="268.553" style="fill:#6265CE;" width="26.298" height="31.255"/>
			</g>
			<g>
				<rect x="109.951" y="183.923" style="fill:#7B85E8;" width="45.111" height="71.37"/>
				<rect x="108.947" y="175.001" style="fill:#D35D57;" width="47.131" height="14.139"/>
				<rect x="107.852" y="187.499" style="fill:#FFFFFF;" width="49.319" height="3.282"/>
				<rect x="109.951" y="200.249" style="fill:#6265CE;" width="32.824" height="39.009"/>
			</g>
		</g>
	</g>
	<g>
		<g>
			<g>
				<path style="fill:#D35D57;" d="M621.435,346.937c-3.461-3.134-8.836-2.813-12.091,0.535l-0.525,0.54l-0.54-0.525
					c-3.348-3.255-8.73-3.423-12.101-0.193c-3.54,3.391-3.536,9.01-0.051,12.397l10.933,10.629c1.161,1.129,3.018,1.103,4.147-0.059
					l10.629-10.933C625.223,355.843,625.069,350.227,621.435,346.937z"/>
			</g>
			<g>
				<path style="fill:#D35D57;" d="M575.013,153.916c-3.461-3.134-8.836-2.813-12.091,0.535l-0.525,0.54l-0.54-0.525
					c-3.348-3.255-8.73-3.423-12.101-0.193c-3.539,3.391-3.536,9.01-0.051,12.397l10.933,10.629
					c1.161,1.129,3.018,1.103,4.147-0.059l10.629-10.933C578.802,162.822,578.647,157.205,575.013,153.916z"/>
			</g>
			<g>
				<path style="fill:#D35D57;" d="M147.357,119.046c-3.461-3.133-8.837-2.813-12.091,0.535l-0.525,0.54l-0.54-0.525
					c-3.348-3.255-8.73-3.423-12.101-0.193c-3.54,3.391-3.535,9.01-0.051,12.397l10.933,10.629c1.161,1.129,3.018,1.103,4.147-0.058
					l10.629-10.933C151.145,127.952,150.991,122.336,147.357,119.046z"/>
			</g>
			<g>
				<path style="fill:#D35D57;" d="M83.527,260.367c-3.461-3.134-8.836-2.813-12.091,0.535l-0.525,0.54l-0.54-0.525
					c-3.348-3.254-8.73-3.423-12.101-0.193c-3.539,3.391-3.535,9.01-0.051,12.397l10.933,10.629
					c1.161,1.129,3.018,1.103,4.147-0.059l10.629-10.933C87.316,269.274,87.161,263.657,83.527,260.367z"/>
			</g>
			<g>
				<path style="fill:#D35D57;" d="M576.298,382.25c-1.894-1.715-4.836-1.54-6.617,0.293l-0.287,0.296l-0.296-0.287
					c-1.832-1.781-4.778-1.874-6.623-0.106c-1.937,1.856-1.935,4.931-0.028,6.785l5.984,5.817c0.635,0.618,1.652,0.604,2.269-0.032
					l5.817-5.984C578.371,387.124,578.287,384.05,576.298,382.25z"/>
			</g>
			<g>
				<path style="fill:#D35D57;" d="M622.046,101.837c-1.894-1.715-4.836-1.54-6.617,0.293l-0.287,0.296l-0.296-0.287
					c-1.832-1.781-4.778-1.874-6.623-0.106c-1.937,1.856-1.935,4.931-0.028,6.785l5.984,5.817c0.635,0.618,1.652,0.604,2.27-0.032
					l5.817-5.984C624.119,106.711,624.034,103.637,622.046,101.837z"/>
			</g>
			<g>
				<path style="fill:#D35D57;" d="M171.102,101.837c-1.894-1.715-4.836-1.54-6.617,0.293l-0.287,0.296l-0.296-0.287
					c-1.832-1.781-4.778-1.874-6.623-0.106c-1.937,1.856-1.935,4.931-0.028,6.785l5.984,5.817c0.636,0.618,1.652,0.604,2.27-0.032
					l5.817-5.984C173.176,106.711,173.091,103.637,171.102,101.837z"/>
			</g>
			<g>
				<path style="fill:#D35D57;" d="M143.787,321.167c-1.894-1.715-4.836-1.54-6.617,0.293l-0.287,0.296l-0.296-0.287
					c-1.832-1.781-4.778-1.874-6.623-0.106c-1.937,1.856-1.935,4.931-0.028,6.785l5.984,5.817c0.636,0.618,1.652,0.604,2.27-0.032
					l5.817-5.984C145.861,326.042,145.776,322.968,143.787,321.167z"/>
			</g>
		</g>
		<g>
			<polygon style="fill:#FFFFFF;" points="280.763,90.662 273.358,90.662 273.358,83.258 266.742,83.258 266.742,90.662 
				259.337,90.662 259.337,97.28 266.742,97.28 266.742,104.684 273.358,104.684 273.358,97.28 280.763,97.28 			"/>
			<polygon style="fill:#FFFFFF;" points="525.477,417.894 518.073,417.894 518.073,410.489 511.456,410.489 511.456,417.894 
				504.052,417.894 504.052,424.511 511.456,424.511 511.456,431.915 518.073,431.915 518.073,424.511 525.477,424.511 			"/>
			<polygon style="fill:#FFFFFF;" points="665.505,250.68 658.101,250.68 658.101,243.276 651.484,243.276 651.484,250.68 
				644.08,250.68 644.08,257.298 651.484,257.298 651.484,264.702 658.101,264.702 658.101,257.298 665.505,257.298 			"/>
			<polygon style="fill:#FFFFFF;" points="101.354,391.961 93.95,391.961 93.95,384.557 87.333,384.557 87.333,391.961 
				79.929,391.961 79.929,398.578 87.333,398.578 87.333,405.982 93.95,405.982 93.95,398.578 101.354,398.578 			"/>
			<polygon style="fill:#FFFFFF;" points="329.465,74.765 325.105,74.765 325.105,70.404 321.208,70.404 321.208,74.765 
				316.848,74.765 316.848,78.662 321.208,78.662 321.208,83.022 325.105,83.022 325.105,78.662 329.465,78.662 			"/>
			<polygon style="fill:#FFFFFF;" points="654.793,213.268 650.432,213.268 650.432,208.908 646.535,208.908 646.535,213.268 
				642.175,213.268 642.175,217.165 646.535,217.165 646.535,221.526 650.432,221.526 650.432,217.165 654.793,217.165 			"/>
			<polygon style="fill:#FFFFFF;" points="141.126,408.541 136.766,408.541 136.766,404.18 132.869,404.18 132.869,408.541 
				128.508,408.541 128.508,412.438 132.869,412.438 132.869,416.798 136.766,416.798 136.766,412.438 141.126,412.438 			"/>
			<polygon style="fill:#FFFFFF;" points="478.048,454.592 473.688,454.592 473.688,450.232 469.791,450.232 469.791,454.592 
				465.43,454.592 465.43,458.489 469.791,458.489 469.791,462.85 473.688,462.85 473.688,458.489 478.048,458.489 			"/>
		</g>
	</g>
</g>
</svg>
