<?xml version="1.0" encoding="utf-8"?>
<!-- Generator: Adobe Illustrator 27.5.0, SVG Export Plug-In . SVG Version: 6.00 Build 0)  -->
<svg version="1.1" xmlns="http://www.w3.org/2000/svg" xmlns:xlink="http://www.w3.org/1999/xlink" x="0px" y="0px"
	 viewBox="0 0 750 500" style="enable-background:new 0 0 750 500;" xml:space="preserve">
<g id="BACKGROUND">
	<rect style="fill:#FFFFFF;" width="750" height="500"/>
</g>
<g id="OBJECTS">
	<g>
		<g>
			<g>
				<g>
					<path style="fill:#FFEAE6;" d="M413.527,138.047c-0.234-0.103-0.464-0.215-0.696-0.323v11.284h48.064v-17.112
						c-4.254,2.786-8.796,5.098-13.604,6.764C436.402,142.432,424.076,142.684,413.527,138.047z"/>
					<path style="fill:#FFEAE6;" d="M434.493,125.011c5.979-3.456,10.165-9.648,11.589-16.383h-33.251v17.63
						C419.755,129.073,427.995,128.766,434.493,125.011z"/>
					<path style="fill:#FFF6F5;" d="M446.082,108.628c-1.424,6.735-5.611,12.927-11.589,16.383
						c-6.498,3.756-14.738,4.062-21.662,1.247v11.465c0.232,0.108,0.462,0.22,0.696,0.323c10.549,4.638,22.875,4.385,33.763,0.613
						c4.809-1.666,9.351-3.979,13.604-6.764v-23.267H446.082z"/>
				</g>
				
					<rect x="412.831" y="108.628" style="fill:none;stroke:#C3D1CF;stroke-width:4;stroke-miterlimit:10;" width="48.064" height="40.38"/>
			</g>
			<g>
				<defs>
					<rect id="SVGID_1_" x="312.924" y="123.467" width="86.073" height="49.89"/>
				</defs>
				<clipPath id="SVGID_00000176040954484413056130000013338493994267131035_">
					<use xlink:href="#SVGID_1_"  style="overflow:visible;"/>
				</clipPath>
				<g style="clip-path:url(#SVGID_00000176040954484413056130000013338493994267131035_);">
					<path style="fill:#FFEAE6;" d="M335.989,146.231c4.795-2.035,8.806-5.508,12.857-8.783c5.343-4.32,10.892-8.38,16.437-12.437
						c0.703-0.515,1.414-1.031,2.132-1.544h-54.49v23.255C320.704,148.721,328.727,149.314,335.989,146.231z"/>
					<path style="fill:#FFEAE6;" d="M398.996,138.537c-4.473,6.969-11.184,12.511-18.937,15.441
						c-8.994,3.399-18.925,3.344-28.178,5.954c-7.878,2.223-15.463,6.897-20.148,13.426h67.264V138.537z"/>
					<path style="fill:#FFF6F5;" d="M351.881,159.932c9.254-2.61,19.185-2.555,28.178-5.954c7.754-2.93,14.464-8.472,18.937-15.441
						v-15.069h-31.582c-0.717,0.512-1.428,1.029-2.132,1.544c-5.546,4.057-11.094,8.117-16.437,12.437
						c-4.051,3.275-8.062,6.748-12.857,8.783c-7.262,3.082-15.285,2.489-23.065,0.491v26.635h18.808
						C336.417,166.829,344.002,162.154,351.881,159.932z"/>
				</g>
			</g>
			
				<rect x="312.924" y="123.467" style="fill:none;stroke:#C3D1CF;stroke-width:4;stroke-miterlimit:10;" width="86.073" height="49.89"/>
			<g>
				<path style="fill:#454263;" d="M373.32,163.395c0,0,6.501-11.722,1.542-15.721c-3.556-2.867-12.257,3.517-12.257,3.517
					s0.153-2.495-2.679-2.267c-2.558,0.206-10.711,5.562-11.11,8.81c0,0-4.715,2.627-0.25,11.038
					c3.206,6.039,5.811,5.422,5.811,5.422L373.32,163.395z"/>
				<path style="fill:#746599;" d="M302.438,254.732c0.152-0.484-2.267-0.788-2.549-0.17c-0.282,0.619-10.911,22.557-11.736,28.11
					c-0.057,0.385,2.971,3.971,3.3,3.056C291.782,284.813,297.732,269.694,302.438,254.732z"/>
				<g>
					<g>
						<path style="fill:#FFB2B0;" d="M346.769,391.047c0,0-0.078,5.38,0,6.137c0.059,0.57-9.663-0.024-15.219,2.089
							c-1.767,0.672-1.346,3.304,0.539,3.44c6.642,0.482,19.19,1.156,22.332-0.336c1.082-0.757,0-11.33,0-11.33H346.769z"/>
						<path style="fill:#364459;" d="M346.769,397.184c0.059,0.57-9.663-0.024-15.219,2.089c-1.767,0.672-1.346,3.304,0.539,3.441
							c6.642,0.482,19.19,1.156,22.332-0.336c0.492-0.345,0.535-2.721,0.437-5.208C350.128,398.595,346.769,397.184,346.769,397.184
							z"/>
					</g>
					<g>
						<path style="fill:#FFB2B0;" d="M397.352,391.047c0,0-0.078,5.38,0,6.137c0.059,0.57-9.663-0.024-15.219,2.089
							c-1.767,0.672-1.346,3.304,0.539,3.44c6.642,0.482,19.19,1.156,22.332-0.336c1.082-0.757,0-11.33,0-11.33H397.352z"/>
						<path style="fill:#364459;" d="M397.352,397.184c0.059,0.57-9.663-0.024-15.219,2.089c-1.767,0.672-1.346,3.304,0.539,3.441
							c6.642,0.482,19.19,1.156,22.332-0.336c0.492-0.345,0.535-2.721,0.437-5.208C400.711,398.595,397.352,397.184,397.352,397.184
							z"/>
					</g>
					<g>
						<g>
							<path style="fill:#FFB2B0;" d="M305.481,252.193c0.117-0.023,0.179,0.135,0.078,0.198c-1.021,0.637-5.831,1.294-6.792,2.553
								c-0.837,1.297,1.481,5.401,4.29,6.347c2.02,0.471,5.278-0.942,6.366-1.509c2.632-1.371,4.659-4.432,4.659-4.432
								s0.452-3.018-1.653-4.991c0,0-5.615-1.439-7.089-1.247c-1.626,0.212-4.492,0.624-4.418,1.648
								C301,251.826,303.208,252.631,305.481,252.193z"/>
							<path style="fill:#FF7171;" d="M343.072,201.335c0,0-1.414,24.87-5.408,29.72c-4.915,5.97-26.113,16.754-26.593,18.114
								c-0.664,1.881,2.338,7.235,2.888,7.356c0.648,0.144,27.941-1.345,42.17-18.243L343.072,201.335z"/>
							<path style="fill:#C3D3DD;" d="M396.794,256.474c0,0,3.026,12.455,4.06,20.771c2.102,16.893-2.038,29.238-1.039,53.27
								c0.816,19.629,4.762,42.929,6.509,55.959c0.477,3.558-2.13,6.783-5.707,7.078l-1.679,0.138
								c-2.553,0.21-4.975-1.144-6.122-3.435c-3.483-6.956-11.275-23.536-20.632-49.865c-6.721-18.914-9.768-58.248-11.407-81.52
								L396.794,256.474z"/>
							<path style="fill:#C3D3DD;" d="M348.693,258.395c0,0-15.958,48.155-14.246,71.268c1.384,18.683,6.604,47.618,8.992,59.743
								c0.529,2.688,2.884,4.627,5.623,4.627h3.446c3.077,0,5.607-2.428,5.726-5.502c0.59-15.162,2.205-45.365,2.893-52.733
								c1.729-18.526,14.55-47.897,22.902-79.323L348.693,258.395z"/>
							<path style="fill:none;stroke:#8F9FA8;stroke-linecap:round;stroke-miterlimit:10;" d="M366.075,312.581
								c0,0-5.298-17.382-4.356-41.011"/>
							<path style="fill:#FF7171;" d="M397.547,255.697c-2.256,4.568-39.33,6.313-48.854,2.698
								c-6.69-2.539-10.47-58.707-2.132-67.323c4.269-4.412,21.756-5.728,29.859-4.278c2.922,0.523,7.317,1.451,12.244,2.935
								c14.781,4.452,39.349,14.836,33.463,32.435c-1.494,4.467-25.648-5.314-25.648-5.314S399.139,252.474,397.547,255.697z"/>
							<path style="fill:#E89A9A;" d="M358.315,186.965c0,0-0.211-2.173-0.211-7.443l10.434-7.762c0,0,2.266,10.937,2.964,14.533
								C371.502,186.293,365.412,191.812,358.315,186.965z"/>
							<g>
								<path style="fill:#FFB2B0;" d="M373.32,163.395c0.63,13.716-2.792,18.775-9.539,18.819
									c-6.542,0.043-8.994-5.205-9.868-10.05c-2.59-0.323-3.124-4.254-2.178-5.043c0.963-0.804,1.738,0.599,1.738,0.599
									c2.28-1.351,1.597-4.249,1.597-4.249c-0.038-0.76,3.292,0.675,5.962-0.745c3.419-1.818,7.404-4.322,9.641-4.052
									C372.91,158.946,373.32,163.395,373.32,163.395z"/>
								<g>
									<path style="fill:#45555E;" d="M361.991,169.995c0,0.675-0.378,1.222-0.845,1.222c-0.467,0-0.845-0.547-0.845-1.222
										c0-0.675,0.378-1.222,0.845-1.222C361.613,168.773,361.991,169.32,361.991,169.995z"/>
									<path style="fill:none;stroke:#45555E;stroke-width:0.75;stroke-linecap:round;stroke-miterlimit:10;" d="M359.458,167.999
										c0,0,1.483-1.194,3.147-0.326"/>
								</g>
								<g>
									<path style="fill:#45555E;" d="M370.673,169.995c0,0.675,0.378,1.222,0.845,1.222c0.467,0,0.845-0.547,0.845-1.222
										c0-0.675-0.378-1.222-0.845-1.222C371.051,168.773,370.673,169.32,370.673,169.995z"/>
									<path style="fill:none;stroke:#45555E;stroke-width:0.75;stroke-linecap:round;stroke-miterlimit:10;" d="M373.206,167.999
										c0,0-1.483-1.194-3.147-0.326"/>
								</g>
								<path style="fill:none;stroke:#E88E8E;stroke-width:0.75;stroke-linecap:round;stroke-miterlimit:10;" d="M366.912,167.999
									c0,0-0.362,2.871,0.672,3.905"/>
								
									<line style="fill:none;stroke:#FFFFFF;stroke-width:0.5;stroke-linecap:round;stroke-miterlimit:10;" x1="360.559" y1="179.821" x2="355.545" y2="177.206"/>
								<path style="fill:#FFFFFF;" d="M360.791,171.872c2.198-0.319,5.879-0.639,9.862-0.069c1.199,0.171,2.072,1.263,1.991,2.488
									c-0.09,1.35-0.904,3.781-1.777,5.145c-0.428,0.668-1.538,1.398-2.474,1.594c-1.692,0.354-3.504,0.403-6.911-0.333
									c-0.83-0.179-1.573-0.973-1.824-1.796c-0.313-1.026-0.645-2.413-0.844-4.426C358.69,173.21,359.55,172.053,360.791,171.872z
									"/>
								
									<line style="fill:none;stroke:#FFFFFF;stroke-width:0.5;stroke-linecap:round;stroke-miterlimit:10;" x1="359.305" y1="174.195" x2="353.472" y2="167.721"/>
							</g>
						</g>
					</g>
					<path style="fill:none;stroke:#C64B4B;stroke-linecap:round;stroke-miterlimit:10;" d="M344.17,246.809
						c0,0-2.475-15.279-2.04-29.733"/>
				</g>
				<g>
					<path style="fill:#6E7291;" d="M353.165,402.904c-0.913,0-1.654-0.74-1.654-1.654V279.488c0-6.236,5.073-11.309,11.31-11.309
						c6.236,0,11.309,5.073,11.309,11.309c0,0.913-0.74,1.654-1.653,1.654c-0.913,0-1.653-0.74-1.653-1.654
						c0-4.412-3.59-8.002-8.002-8.002c-4.413,0-8.003,3.59-8.003,8.002V401.25C354.818,402.164,354.078,402.904,353.165,402.904z"/>
				</g>
				<g>
					<g>
						<path style="fill:#E5E5E5;" d="M410.217,179.216c0,0-6.472-2.83-4.845-8.189c1.627-5.359,6.053-3.965,7.499-4.717
							c1.864-0.969,4.367-5.044,8.865-4.183c4.498,0.861,4.533,4.567,7.5,4.686c2.967,0.119,6.854,1.695,8.003,5.745
							c1.028,3.627-1.818,6.411-0.67,8.421c1.148,2.01,2.009,10.409-8.565,9.893L410.217,179.216z"/>
						<path style="fill:#FFB2B0;" d="M434.274,319.076c-0.031,7.693,0.093,13.284,1.256,21.875
							c3.261,24.096,17.511,56.29,17.511,56.29c3.696,1.875,8.089-0.015,8.089-0.015s-6.321-55.772,0-72.188L434.274,319.076z"/>
						<g>
							<path style="fill:#746599;" d="M453.147,397.133c0.059,0.57-9.663-0.024-15.219,2.089c-1.767,0.672-1.346,3.304,0.539,3.441
								c6.642,0.482,19.19,1.156,22.332-0.336c0.492-0.345,0.535-2.721,0.437-5.208
								C456.507,398.544,453.147,397.133,453.147,397.133z"/>
						</g>
						<path style="fill:#FFB2B0;" d="M403.696,324.682c-0.113,27.594,10.708,72.451,10.708,72.451
							c3.696,1.875,8.089-0.015,8.089-0.015s1.036-57.685,7.357-74.1L403.696,324.682z"/>
						<path style="fill:#746599;" d="M408.366,260.423c0,0-8.369,18.284-9.96,37.461c-0.796,9.594-1.546,32.872,3.637,36.644
							c4.607,3.353,58.845,0.751,64.085-6.67c4.087-5.79-0.824-11.552-1.707-23.243c-0.577-7.642-2.53-43.511-9.452-46.082
							C445.957,255.186,408.366,260.423,408.366,260.423z"/>
						<path style="fill:#FFB2B0;" d="M466.551,282.136c0.035-0.107,0.194-0.087,0.199,0.026c0.059,1.135-1.599,5.411-0.998,6.782
							c0.689,1.286,5.141,1.247,7.209-0.641c1.314-1.454,1.636-4.793,1.666-5.952c0.072-2.802-1.532-5.879-1.532-5.879
							s-2.287-1.754-4.882-0.918c0,0-3.759,3.982-4.275,5.288c-0.569,1.441-1.54,3.999-0.66,4.405
							C464.196,285.671,465.872,284.215,466.551,282.136z"/>
						<path style="fill:#FFF1DC;" d="M404.976,211.733c0,0-3.926,23.433-9.214,29.677c-4.497,5.311-23.554,21.083-24.004,22.369
							c-0.622,1.778,1.768,7.246,3.397,8.289c1.629,1.042,37.236-14.705,40.333-19.944L404.976,211.733z"/>
						<path style="fill:#FFF1DC;" d="M457.372,260.843c-2.191,2.978-39.118,4.009-48.473,1.748
							c-9.369-2.264-8.175-48.329-2.167-59.271c4.061-7.396,31.71-11.594,40.074-6.41c10.745,6.66,19.691,16.957,26.398,38.996
							c3.157,10.372,2.709,39.683,1.013,40.694c-1.695,1.01-8.919,0.694-9.204-0.517c-0.285-1.211-1.951-17.015-2.981-21.183
							c-0.945-3.821-7.074-20.943-7.074-20.943S459.74,257.177,457.372,260.843z"/>
						<path style="fill:#E89A9A;" d="M417.19,197.933c0,0-0.105-0.954-0.405-3.519l11.622-8.598c0,0,1.668,6.382,2.331,10.064
							C430.737,195.88,424.24,201.96,417.19,197.933z"/>
						<g>
							<path style="fill:#FFB2B0;" d="M427.41,177.904c0,0-0.423,2.781,1.826,3.88c0,0,0.623-1.38,1.591-0.696
								c0.95,0.671,0.746,4.413-1.669,4.914c-0.456,4.629-2.367,9.757-8.531,10.212c-6.358,0.47-9.964-4.034-10.41-16.998
								c0,0,2.99-1.266,3.87-4.405C414.087,174.811,416.893,180.374,427.41,177.904z"/>
							<g>
								<path style="fill:#45555E;" d="M421.386,184.572c0.051,0.636,0.449,1.122,0.888,1.087c0.439-0.035,0.754-0.579,0.703-1.215
									c-0.051-0.636-0.449-1.122-0.888-1.087C421.65,183.392,421.335,183.936,421.386,184.572z"/>
								<path style="fill:none;stroke:#45555E;stroke-width:0.75;stroke-linecap:round;stroke-miterlimit:10;" d="M423.62,182.501
									c0,0-1.487-1.012-2.988-0.068"/>
							</g>
							<g>
								<path style="fill:#45555E;" d="M413.211,185.23c0.051,0.636-0.263,1.18-0.703,1.215c-0.439,0.035-0.837-0.451-0.888-1.087
									c-0.051-0.636,0.263-1.18,0.703-1.215C412.762,184.108,413.16,184.595,413.211,185.23z"/>
								<path style="fill:none;stroke:#45555E;stroke-width:0.75;stroke-linecap:round;stroke-miterlimit:10;" d="M410.675,183.543
									c0,0,1.306-1.237,2.939-0.545"/>
							</g>
							<path style="fill:none;stroke:#E88E8E;stroke-width:0.75;stroke-linecap:round;stroke-miterlimit:10;" d="M416.601,183.066
								c0,0,0.559,2.676-0.337,3.729"/>
							
								<line style="fill:none;stroke:#FFFFFF;stroke-width:0.75;stroke-linecap:round;stroke-miterlimit:10;" x1="423.479" y1="193.717" x2="428.003" y2="190.873"/>
							<path style="fill:#FFFFFF;" d="M422.658,186.249c-2.094-0.134-5.584-0.156-9.292,0.683c-1.116,0.252-1.855,1.347-1.686,2.494
								c0.187,1.264,1.138,3.492,2.064,4.71c0.453,0.597,1.555,1.2,2.45,1.313c1.621,0.205,3.33,0.114,6.482-0.838
								c0.768-0.232,1.408-1.036,1.581-1.829c0.217-0.99,0.425-2.321,0.459-4.232C424.738,187.349,423.841,186.324,422.658,186.249z
								"/>
							
								<line style="fill:none;stroke:#FFFFFF;stroke-width:0.75;stroke-linecap:round;stroke-miterlimit:10;" x1="424.235" y1="188.323" x2="429.236" y2="181.784"/>
						</g>
						<g>
							<path style="fill:#746599;" d="M414.405,397.133c0.059,0.57-9.663-0.024-15.219,2.089c-1.767,0.672-1.346,3.304,0.539,3.441
								c6.642,0.482,19.19,1.156,22.332-0.336c0.492-0.345,0.535-2.721,0.437-5.208
								C417.764,398.544,414.405,397.133,414.405,397.133z"/>
						</g>
					</g>
					<path style="fill:none;stroke:#CCA881;stroke-linecap:round;stroke-miterlimit:10;" d="M454.959,233.956
						c0,0-1.092-4.707-5.918-16.152"/>
				</g>
				<path style="fill:#FFB2B0;" d="M372.406,264.547c0,0-3.583-0.586-8.253,0.62c-3.604,0.93-6.368,4.2-6.368,4.2
					s3.706-0.714,5.035,0.108c0.963,0.595-0.224,1.91-1.17,3.395c-0.945,1.486,0.585,3.322,2.626,1.486
					c2.041-1.837,9.038-3.337,10.38-3.375c1.119-0.032,1.071-2.735,0.978-3.344C375.403,266.12,374.579,265.092,372.406,264.547z"/>
				<path style="fill:none;stroke:#CCA881;stroke-linecap:round;stroke-miterlimit:10;" d="M404.473,256.524
					c0,0-2.43-12.734-1.329-25.468"/>
				<path style="fill:#FFB2B0;" d="M445.353,196.178c2.683-2.147,7.866,3.309,7.685,5.003c-0.18,1.694-1.464,3.416-2.44,3.85
					c-0.937,0.416-5.952-3.216-6.064-4.489c-0.074-0.841,1.986-3.556,1.986-3.556S446.302,196.508,445.353,196.178z"/>
				<path style="fill:#746599;" d="M288.154,282.672c0.287-0.865,27.61-1.071,28.226-0.534c0.616,0.537,7.453,17.442,6.059,21.335
					c-1,2.793-39.247,4.696-40.192,0.816C280.719,298.013,288.154,282.672,288.154,282.672z"/>
				<path style="fill:#746599;" d="M302.446,253.351c-0.148-0.486,2.831-1.579,3.113-0.96c0.282,0.619,11.085,29.037,10.821,29.746
					c-0.934,2.501-4.31,2.516-4.638,1.601C311.413,282.823,306.96,268.179,302.446,253.351z"/>
				<path style="fill:none;stroke:#988EBA;stroke-linecap:round;stroke-miterlimit:10;" d="M288.317,283.547
					c0,0,0.358,8.376,1.758,9.414c0,0,5.4,2.057,24.914-0.298c1.578-1.397,1.112-9.214,1.112-9.214"/>
				<path style="fill:#BF9C6D;" d="M305.37,293.241c0,1.269-1.029,2.297-2.298,2.297c-1.269,0-2.297-1.029-2.297-2.297
					c0-1.269,1.029-2.298,2.297-2.298C304.341,290.943,305.37,291.972,305.37,293.241z"/>
			</g>
		</g>
		<g>
			<g>
				<g>
					<path style="fill:#BFE0D2;" d="M98.367,271.302c11.936,5.053,36.153-122.435,4.893-127.925
						C50.43,134.099,88.804,267.254,98.367,271.302z"/>
					<g>
						<g>
							<path style="fill:#ABCEBF;" d="M99.362,271.908c0.002,0,0.004,0,0.005,0c0.246-0.005,0.441-0.216,0.436-0.472L97.46,155.738
								c-0.005-0.254-0.206-0.455-0.45-0.453c-0.002,0-0.004,0-0.005,0c-0.246,0.005-0.441,0.216-0.436,0.472l2.342,115.699
								C98.918,271.709,99.118,271.91,99.362,271.908z"/>
						</g>
						<g>
							<g>
								<path style="fill:#ABCEBF;" d="M98.709,247.408c0.146-0.002,0.287-0.077,0.371-0.213l7.126-11.584
									c0.132-0.216,0.072-0.502-0.135-0.638c-0.208-0.141-0.483-0.076-0.615,0.14l-7.126,11.584
									c-0.132,0.216-0.072,0.502,0.135,0.638C98.541,247.386,98.625,247.409,98.709,247.408z"/>
							</g>
							<g>
								<path style="fill:#ABCEBF;" d="M98.71,247.408c0.083-0.001,0.167-0.026,0.242-0.077c0.204-0.142,0.259-0.429,0.123-0.642
									l-7.347-11.433c-0.135-0.213-0.412-0.269-0.617-0.128c-0.204,0.142-0.26,0.429-0.123,0.642l7.348,11.433
									C98.421,247.338,98.564,247.41,98.71,247.408z"/>
							</g>
						</g>
						<g>
							<g>
								<path style="fill:#ABCEBF;" d="M98.496,225.418c0.146-0.001,0.287-0.076,0.371-0.213L109.02,208.7
									c0.132-0.216,0.072-0.502-0.135-0.639c-0.208-0.136-0.483-0.075-0.615,0.141l-10.152,16.505
									c-0.132,0.216-0.072,0.502,0.135,0.639C98.329,225.395,98.413,225.419,98.496,225.418z"/>
							</g>
							<g>
								<path style="fill:#ABCEBF;" d="M98.498,225.418c0.083-0.001,0.167-0.026,0.242-0.077c0.204-0.142,0.259-0.429,0.123-0.642
									l-10.468-16.29c-0.136-0.213-0.411-0.269-0.617-0.128c-0.204,0.142-0.26,0.429-0.123,0.642l10.468,16.29
									C98.209,225.347,98.352,225.419,98.498,225.418z"/>
							</g>
						</g>
						<g>
							<g>
								<path style="fill:#ABCEBF;" d="M98.06,200.55c0.146-0.001,0.287-0.076,0.371-0.213l12.183-19.807
									c0.132-0.216,0.072-0.502-0.135-0.639c-0.208-0.137-0.483-0.074-0.615,0.141l-12.183,19.807
									c-0.132,0.216-0.072,0.502,0.135,0.639C97.892,200.527,97.976,200.551,98.06,200.55z"/>
							</g>
							<g>
								<path style="fill:#ABCEBF;" d="M98.061,200.55c0.083-0.001,0.167-0.026,0.242-0.077c0.204-0.142,0.26-0.429,0.123-0.642
									l-12.563-19.549c-0.136-0.213-0.411-0.27-0.617-0.128c-0.204,0.142-0.26,0.429-0.123,0.642l12.563,19.549
									C97.772,200.479,97.916,200.551,98.061,200.55z"/>
							</g>
						</g>
						<g>
							<g>
								<path style="fill:#ABCEBF;" d="M97.28,177.235c0.146-0.001,0.287-0.076,0.371-0.213l10.498-17.067
									c0.132-0.216,0.072-0.502-0.135-0.639c-0.207-0.136-0.483-0.074-0.615,0.141l-10.498,17.067
									c-0.132,0.216-0.072,0.502,0.136,0.639C97.112,177.212,97.196,177.236,97.28,177.235z"/>
							</g>
							<g>
								<path style="fill:#ABCEBF;" d="M97.281,177.235c0.083-0.001,0.167-0.026,0.242-0.077c0.204-0.142,0.259-0.429,0.123-0.642
									l-10.825-16.845c-0.136-0.213-0.412-0.269-0.617-0.128c-0.204,0.142-0.26,0.429-0.123,0.642l10.825,16.845
									C96.992,177.164,97.135,177.236,97.281,177.235z"/>
							</g>
						</g>
					</g>
				</g>
				<g>
					<path style="fill:#C8EDDE;" d="M94.79,279.479c10.238-0.015-8.884-101.296-33.454-95.564
						C19.815,193.601,86.588,279.491,94.79,279.479z"/>
					<g>
						<g>
							<path style="fill:#ABCEBF;" d="M95.697,279.613c0.001-0.001,0.003-0.001,0.003-0.001c0.18-0.081,0.262-0.297,0.184-0.483
								l-35.231-84.316c-0.077-0.185-0.283-0.27-0.461-0.192c-0.001,0-0.003,0.001-0.003,0.001c-0.18,0.081-0.262,0.297-0.184,0.483
								l35.231,84.316C95.313,279.606,95.519,279.691,95.697,279.613z"/>
						</g>
						<g>
							<g>
								<path style="fill:#ABCEBF;" d="M88.121,261.808c0.107-0.047,0.189-0.146,0.211-0.273l1.883-10.742
									c0.035-0.2-0.093-0.391-0.284-0.427c-0.194-0.039-0.377,0.095-0.411,0.295l-1.883,10.742
									c-0.035,0.2,0.093,0.391,0.284,0.426C87.991,261.844,88.06,261.835,88.121,261.808z"/>
							</g>
							<g>
								<path style="fill:#ABCEBF;" d="M88.122,261.808c0.061-0.027,0.116-0.071,0.156-0.132c0.109-0.168,0.067-0.396-0.095-0.51
									l-8.712-6.109c-0.161-0.114-0.381-0.069-0.491,0.098c-0.109,0.168-0.067,0.396,0.095,0.51l8.712,6.109
									C87.889,261.846,88.015,261.854,88.122,261.808z"/>
							</g>
						</g>
						<g>
							<g>
								<path style="fill:#ABCEBF;" d="M81.596,245.71c0.106-0.047,0.189-0.146,0.211-0.273l2.683-15.305
									c0.035-0.2-0.093-0.391-0.285-0.428c-0.192-0.035-0.377,0.096-0.411,0.296l-2.683,15.305
									c-0.035,0.2,0.093,0.391,0.285,0.428C81.466,245.746,81.535,245.736,81.596,245.71z"/>
							</g>
							<g>
								<path style="fill:#ABCEBF;" d="M81.597,245.709c0.061-0.027,0.115-0.071,0.156-0.132c0.109-0.168,0.067-0.396-0.095-0.51
									l-12.413-8.704c-0.162-0.114-0.38-0.069-0.491,0.098c-0.109,0.168-0.067,0.396,0.095,0.51l12.413,8.704
									C81.364,245.748,81.49,245.756,81.597,245.709z"/>
							</g>
						</g>
						<g>
							<g>
								<path style="fill:#ABCEBF;" d="M74.073,227.566c0.106-0.047,0.189-0.146,0.211-0.273l3.219-18.366
									c0.035-0.2-0.093-0.391-0.285-0.428c-0.193-0.036-0.377,0.096-0.411,0.296l-3.219,18.366
									c-0.035,0.2,0.093,0.391,0.285,0.428C73.943,227.602,74.011,227.593,74.073,227.566z"/>
							</g>
							<g>
								<path style="fill:#ABCEBF;" d="M74.073,227.566c0.061-0.027,0.116-0.071,0.156-0.132c0.109-0.168,0.067-0.396-0.095-0.51
									l-14.896-10.445c-0.162-0.114-0.381-0.07-0.491,0.099c-0.109,0.168-0.067,0.396,0.096,0.51l14.896,10.445
									C73.841,227.604,73.967,227.612,74.073,227.566z"/>
							</g>
						</g>
						<g>
							<g>
								<path style="fill:#ABCEBF;" d="M66.746,210.671c0.106-0.046,0.189-0.146,0.211-0.273l2.774-15.826
									c0.035-0.2-0.093-0.391-0.285-0.428c-0.192-0.035-0.377,0.096-0.411,0.296l-2.774,15.826
									c-0.035,0.2,0.093,0.391,0.285,0.427C66.617,210.708,66.685,210.698,66.746,210.671z"/>
							</g>
							<g>
								<path style="fill:#ABCEBF;" d="M66.747,210.671c0.061-0.027,0.116-0.071,0.156-0.132c0.109-0.168,0.067-0.396-0.095-0.51
									l-12.836-9c-0.162-0.114-0.381-0.069-0.491,0.099c-0.109,0.168-0.066,0.396,0.096,0.51l12.836,9
									C66.515,210.71,66.641,210.718,66.747,210.671z"/>
							</g>
						</g>
					</g>
				</g>
				<g>
					<path style="fill:#C8EDDE;" d="M102.249,278.593c-10.233,0.316,5.843-101.534,30.572-96.6
						C174.613,190.332,110.447,278.34,102.249,278.593z"/>
					<g>
						<g>
							<path style="fill:#ABCEBF;" d="M101.347,278.757c-0.001-0.001-0.003-0.001-0.003-0.001c-0.182-0.075-0.271-0.288-0.198-0.477
								l32.685-85.415c0.072-0.188,0.275-0.279,0.456-0.207c0.001,0.001,0.003,0.001,0.003,0.001
								c0.182,0.075,0.27,0.288,0.198,0.477l-32.685,85.415C101.73,278.737,101.527,278.829,101.347,278.757z"/>
						</g>
						<g>
							<g>
								<path style="fill:#ABCEBF;" d="M108.385,260.715c-0.108-0.043-0.193-0.14-0.219-0.266l-2.204-10.676
									c-0.041-0.199,0.081-0.394,0.271-0.436c0.193-0.045,0.38,0.083,0.42,0.282l2.204,10.675
									c0.041,0.199-0.081,0.394-0.271,0.436C108.516,260.747,108.447,260.74,108.385,260.715z"/>
							</g>
							<g>
								<path style="fill:#ABCEBF;" d="M108.384,260.715c-0.062-0.025-0.118-0.067-0.16-0.127c-0.114-0.164-0.078-0.394,0.08-0.513
									l8.525-6.387c0.158-0.119,0.379-0.081,0.494,0.083c0.114,0.165,0.078,0.394-0.08,0.513l-8.525,6.388
									C108.618,260.746,108.492,260.758,108.384,260.715z"/>
							</g>
						</g>
						<g>
							<g>
								<path style="fill:#ABCEBF;" d="M114.424,244.413c-0.108-0.043-0.193-0.14-0.219-0.266l-3.14-15.21
									c-0.041-0.199,0.081-0.394,0.272-0.436c0.191-0.042,0.38,0.084,0.42,0.282l3.14,15.21c0.041,0.199-0.081,0.394-0.272,0.436
									C114.555,244.445,114.486,244.438,114.424,244.413z"/>
							</g>
							<g>
								<path style="fill:#ABCEBF;" d="M114.423,244.413c-0.062-0.025-0.118-0.067-0.16-0.127c-0.114-0.165-0.078-0.394,0.08-0.513
									l12.146-9.101c0.158-0.119,0.378-0.081,0.494,0.083c0.114,0.164,0.078,0.394-0.08,0.513l-12.146,9.101
									C114.657,244.444,114.531,244.456,114.423,244.413z"/>
							</g>
						</g>
						<g>
							<g>
								<path style="fill:#ABCEBF;" d="M121.4,226.035c-0.108-0.043-0.193-0.14-0.219-0.266l-3.768-18.253
									c-0.041-0.199,0.081-0.394,0.272-0.436c0.192-0.042,0.379,0.084,0.42,0.283l3.768,18.253
									c0.041,0.199-0.081,0.394-0.272,0.436C121.53,226.067,121.462,226.06,121.4,226.035z"/>
							</g>
							<g>
								<path style="fill:#ABCEBF;" d="M121.399,226.035c-0.062-0.025-0.118-0.068-0.16-0.127c-0.114-0.165-0.078-0.394,0.08-0.513
									l14.576-10.922c0.158-0.119,0.378-0.083,0.494,0.083c0.114,0.164,0.078,0.394-0.08,0.513l-14.576,10.922
									C121.633,226.066,121.507,226.078,121.399,226.035z"/>
							</g>
						</g>
						<g>
							<g>
								<path style="fill:#ABCEBF;" d="M128.216,208.912c-0.108-0.043-0.193-0.14-0.219-0.266l-3.247-15.728
									c-0.041-0.199,0.081-0.394,0.272-0.436c0.191-0.042,0.379,0.084,0.42,0.283l3.247,15.728
									c0.041,0.199-0.081,0.394-0.272,0.437C128.346,208.944,128.278,208.937,128.216,208.912z"/>
							</g>
							<g>
								<path style="fill:#ABCEBF;" d="M128.215,208.912c-0.062-0.025-0.118-0.068-0.16-0.127c-0.114-0.164-0.078-0.394,0.08-0.513
									l12.56-9.411c0.158-0.119,0.378-0.081,0.494,0.082c0.114,0.165,0.078,0.394-0.08,0.513l-12.56,9.411
									C128.449,208.943,128.323,208.955,128.215,208.912z"/>
							</g>
						</g>
					</g>
				</g>
			</g>
			<g>
				<g>
					<path style="fill:#FFB2B0;" d="M196.475,392.177c0,0-0.078,5.38,0,6.137c0.059,0.57-9.663-0.024-15.219,2.089
						c-1.767,0.672-1.346,3.304,0.539,3.44c6.642,0.482,19.19,1.156,22.332-0.336c1.082-0.757,0-11.33,0-11.33H196.475z"/>
					<path style="fill:#AE8DE2;" d="M196.475,398.313c0.059,0.57-9.663-0.024-15.219,2.089c-1.767,0.672-1.346,3.304,0.539,3.44
						c6.642,0.482,19.19,1.156,22.332-0.336c0.492-0.344,0.535-2.721,0.437-5.208C199.835,399.724,196.475,398.313,196.475,398.313z
						"/>
				</g>
				<g>
					<path style="fill:#FFB2B0;" d="M247.058,392.177c0,0-0.078,5.38,0,6.137c0.059,0.57-9.663-0.024-15.219,2.089
						c-1.767,0.672-1.346,3.304,0.539,3.44c6.642,0.482,19.19,1.156,22.332-0.336c1.082-0.757,0-11.33,0-11.33H247.058z"/>
					<path style="fill:#AE8DE2;" d="M247.058,398.313c0.059,0.57-9.663-0.024-15.219,2.089c-1.767,0.672-1.346,3.304,0.539,3.44
						c6.642,0.482,19.19,1.156,22.332-0.336c0.492-0.344,0.535-2.721,0.437-5.208C250.418,399.724,247.058,398.313,247.058,398.313z
						"/>
				</g>
				<path style="fill:#454263;" d="M193.945,153.457c0,0-3.624-11.039,8.968-12.933c11.322-1.703,15.311,6.634,16.166,8.941
					c0.855,2.307,0.462,16.502,8.771,16.982c10.297,0.594,14.849,4.41,15.81,10.599c0.764,4.918-0.415,7.102,5.283,8.757
					c5.698,1.654,5.147,19.945-12.684,9.559c-17.831-10.386-18.242-13.019-25.382-11.836
					C203.738,184.709,208.419,156.177,193.945,153.457z"/>
				<path style="fill:#33708E;" d="M75.63,301.84c0,0-3.879-59.042,4.212-71.973c7.67-12.257,70.459-12.859,79.113-1.772
					c8.654,11.088,6.442,56.334,3.808,70.09C160.129,311.943,75.63,301.84,75.63,301.84z"/>
				<g>
					<g>
						<path style="fill:#FFB2B0;" d="M143.984,237.001c0.114-0.035,0.193,0.114,0.099,0.188c-0.944,0.745-5.652,1.931-6.468,3.288
							c-0.689,1.382,2.069,5.204,4.965,5.834c2.06,0.245,5.141-1.52,6.16-2.204c2.464-1.653,4.14-4.92,4.14-4.92
							s0.115-3.049-2.195-4.778c0,0-5.739-0.81-7.184-0.456c-1.593,0.39-4.396,1.117-4.208,2.126
							C139.489,237.131,141.773,237.687,143.984,237.001z"/>
						<path style="fill:#AE8DE2;" d="M194.616,185.004c0,0-10.674,29.14-19.779,35.549c-6.324,4.451-24.425,11.951-24.905,13.311
							c-0.664,1.881,2.338,7.235,2.888,7.356c0.648,0.144,31.434-0.997,42.978-14.227L194.616,185.004z"/>
						<path style="fill:#9AD2F4;" d="M246.5,252.88c0,0,3.026,5.841,4.06,14.157c2.102,16.893-2.038,29.238-1.039,53.27
							c0.865,20.8,5.341,58.142,6.918,70.857c0.294,2.369-1.486,4.483-3.87,4.606l-5.549,0.287c-1.884,0.097-3.59-1.092-4.142-2.896
							c-2.462-8.046-9.753-31.363-20.987-62.979c-6.721-18.914-9.768-51.634-11.407-74.906L246.5,252.88z"/>
						<path style="fill:#9AD2F4;" d="M198.399,254.8c0,0-15.75,46.557-14.038,69.671c1.348,18.202,7.187,53.646,8.02,66.306
							c0.202,3.065,2.746,5.445,5.818,5.445h3.719c3.127,0,5.697-2.463,5.826-5.588c0.631-15.379,2.403-57.684,3.09-65.046
							c1.729-18.526,23.21-37.168,22.902-72.709L198.399,254.8z"/>
						<path style="fill:none;stroke:#65A2C1;stroke-linecap:round;stroke-miterlimit:10;" d="M216.508,308.626
							c0,0-4.3-16.162-4.54-41.589"/>
						<path style="fill:#AE8DE2;" d="M247.254,252.102c-2.256,4.568-39.33,6.313-48.854,2.698
							c-6.69-2.539-10.47-65.321-2.132-73.936c4.269-4.412,26.882-6.813,33.931-2.562c11.459,6.911,25.892,23.812,24.487,48.515
							c-0.428,7.523-8.103,10.683-8.103,10.683S248.846,248.879,247.254,252.102z"/>
						<path style="fill:#E89A9A;" d="M201.906,178.139c0,0-1.22-3.699-2.322-8.088l10.434-7.761c0,0,3.531,10.297,4.722,13.886
							C214.74,176.175,209.002,182.986,201.906,178.139z"/>
						<g>
							<path style="fill:#FFB2B0;" d="M193.945,153.457c-0.63,13.716,2.792,18.775,9.54,18.819c6.542,0.043,8.994-5.205,9.868-10.05
								c2.59-0.323,3.124-4.254,2.178-5.043c-0.963-0.804-1.738,0.599-1.738,0.599c-2.28-1.351-1.597-4.249-1.597-4.249
								c0.038-0.76-2.943-0.582-5.962-0.745c-6.029-0.326-8.063-4.345-8.063-4.345C197.433,150.656,193.945,153.457,193.945,153.457
								z"/>
							<g>
								<ellipse style="fill:#45555E;" cx="206.12" cy="160.056" rx="0.845" ry="1.222"/>
								<path style="fill:none;stroke:#45555E;stroke-width:0.75;stroke-linecap:round;stroke-miterlimit:10;" d="M207.808,158.061
									c0,0-1.483-1.194-3.147-0.326"/>
							</g>
							<g>
								<path style="fill:#45555E;" d="M196.593,160.056c0,0.675-0.378,1.222-0.845,1.222c-0.467,0-0.845-0.547-0.845-1.222
									c0-0.675,0.378-1.222,0.845-1.222C196.215,158.834,196.593,159.381,196.593,160.056z"/>
								<path style="fill:none;stroke:#45555E;stroke-width:0.75;stroke-linecap:round;stroke-miterlimit:10;" d="M194.06,158.061
									c0,0,1.483-1.194,3.147-0.326"/>
							</g>
							<path style="fill:none;stroke:#E88E8E;stroke-width:0.75;stroke-linecap:round;stroke-miterlimit:10;" d="M200.354,158.061
								c0,0,0.362,2.871-0.672,3.905"/>
							
								<line style="fill:none;stroke:#FFFFFF;stroke-width:0.5;stroke-linecap:round;stroke-miterlimit:10;" x1="206.706" y1="169.883" x2="211.721" y2="167.267"/>
							<path style="fill:#FFFFFF;" d="M206.474,161.934c-2.198-0.319-5.879-0.639-9.862-0.069c-1.199,0.172-2.072,1.263-1.991,2.488
								c0.089,1.35,0.904,3.781,1.777,5.145c0.428,0.668,1.538,1.399,2.474,1.594c1.693,0.354,3.504,0.403,6.911-0.333
								c0.83-0.179,1.573-0.973,1.824-1.796c0.313-1.026,0.645-2.413,0.844-4.426C208.576,163.271,207.716,162.114,206.474,161.934z
								"/>
							
								<line style="fill:none;stroke:#FFFFFF;stroke-width:0.5;stroke-linecap:round;stroke-miterlimit:10;" x1="207.961" y1="164.256" x2="213.794" y2="157.782"/>
						</g>
						<path style="fill:#FFB2B0;" d="M215.576,245.412c0,0,0.104-3.95-2.838-5.515c-1.815-0.965-3.695,1.333-9.508,1.018
							c-5.245-0.285-6.056,8.171-2.005,9.079c1.81,0.406,4.952,0.62,7.736-0.005C212.408,249.215,214.855,247.054,215.576,245.412z"
							/>
					</g>
				</g>
				<polygon style="fill:#33708E;" points="171.102,397.555 107.597,398.15 124.134,369.546 169.181,369.546 				"/>
				<path style="fill:#33708E;" d="M196.535,392.55c4.168-6.728,4.856-75.72-3.087-88.821c-6.683-11.022-54.268-9.535-58.118-1.213
					c-3.337,7.212-4.25,81.24,1.587,88.406S191.443,400.77,196.535,392.55z"/>
				<g>
					<path style="fill:#FFB2B0;" d="M185.486,392.029c0,0,0.078,5.38,0,6.137c-0.059,0.57,9.663-0.024,15.219,2.089
						c1.767,0.672,1.346,3.304-0.539,3.44c-6.642,0.482-19.19,1.156-22.332-0.336c-1.082-0.757,0-11.33,0-11.33H185.486z"/>
					<path style="fill:#364459;" d="M185.486,398.165c-0.059,0.57,9.663-0.024,15.219,2.089c1.767,0.672,1.346,3.304-0.539,3.44
						c-6.642,0.482-19.19,1.156-22.332-0.336c-0.492-0.345-0.535-2.721-0.437-5.208
						C182.126,399.577,185.486,398.165,185.486,398.165z"/>
				</g>
				<g>
					<path style="fill:#FFB2B0;" d="M154.5,392.029c0,0,0.078,5.38,0,6.137c-0.059,0.57,9.663-0.024,15.219,2.089
						c1.766,0.672,1.346,3.304-0.539,3.44c-6.642,0.482-19.19,1.156-22.332-0.336c-1.082-0.757,0-11.33,0-11.33H154.5z"/>
					<path style="fill:#364459;" d="M154.5,398.165c-0.059,0.57,9.663-0.024,15.219,2.089c1.767,0.672,1.346,3.304-0.539,3.44
						c-6.642,0.482-19.19,1.156-22.332-0.336c-0.492-0.345-0.535-2.721-0.437-5.208C151.141,399.577,154.5,398.165,154.5,398.165z"
						/>
				</g>
				<path style="fill:#FFE3CA;" d="M144.524,234.947c0,0,20.964,25.446,28.294,26.112c6.176,0.562,17.267-15.012,19.208-14.725
					c1.941,0.287,8.841,4.815,7.331,7.188c-1.509,2.372-12.788,24.805-27.78,24.871c-15.661,0.068-36.422-19.314-36.422-19.314
					L144.524,234.947z"/>
				<path style="fill:#EF9D84;" d="M154.229,301.84c0,0,31.683,2.143,39.056,18.834c6.094,13.797-2.614,70.226-5.298,72.334
					c-1.931,1.517-11.905,0.929-13.258-0.182c-1.353-1.111,0.907-36.484-6.973-52.643c0,0-2.338,27.214-10.113,51.844
					c-0.985,2.508-11.66,1.407-14.155,0c0,0,0.92-47.233-4.053-58.27c-4.334-9.621-26.123,0.512-37.842-6.854
					c-11.719-7.366-11.229-22.633-11.229-22.633L154.229,301.84z"/>
				<path style="fill:#9AD2F4;" d="M154.229,301.84c-27.673,9.993-60.217,2.571-60.217,2.571
					c-3.529-18.135-4.036-45.801,2.082-60.496c7.141-17.151,20.609-18.639,38.114-15.756c7.294,1.201,16.966,10.065,17.203,30.669
					C151.516,267.893,151.92,293.127,154.229,301.84z"/>
				<path style="fill:#33708E;" d="M136.392,392.55c4.168-6.728,4.856-75.72-3.087-88.821c-6.683-11.022-56.92-8.418-60.77-0.096
					c-3.337,7.212-4.598,80.621-1.682,87.342C74.633,399.686,131.3,400.77,136.392,392.55z"/>
				<g>
					<path style="fill:#FFE3CA;" d="M116.691,241.879c-1.217-6.814-13.26-8.915-18.627-1.903
						c-5.665,7.402-16.742,29.861-11.694,41.627c3.854,8.982,36.767,17.04,39.484,16.831c2.717-0.209,3.183-6.926,1.513-8.011
						c-3.858-2.508-20.992-12.521-22.725-16.947C102.807,268.784,118.781,253.582,116.691,241.879z"/>
					<path style="fill:#FFB2B0;" d="M127.174,290.979c0,0-2.598,2.273-2.573,5.381c0.015,1.918,3.718,2.319,5.802,7.828
						c1.734,4.582,9.496-2.026,8.439-5.751C137.785,294.712,130.188,290.728,127.174,290.979z"/>
					<path style="fill:#FFB2B0;" d="M192.776,248.518c0,0,1.44,3.392,4.543,3.581c1.914,0.117,2.035-2.844,7.674-4.545
						c4.691-1.415,1.976-9.278-1.813-8.48c-1.693,0.357-4.587,0.548-6.708,2.157C193.847,243.222,192.752,246.845,192.776,248.518z"
						/>
					<path style="fill:none;stroke:#E88E8E;stroke-width:0.5;stroke-linecap:round;stroke-miterlimit:10;" d="M200.592,249.771
						c0.948-0.763,2.287-1.578,4.402-2.216c3.033-0.915,2.97-4.525,1.523-6.747"/>
				</g>
				<path style="fill:none;stroke:#C47969;stroke-linecap:round;stroke-miterlimit:10;" d="M167.756,340.184
					c0,0,1.809-14.198,0.33-19.251c-3.027-10.348-23.899-15.184-23.899-15.184"/>
				<g>
					<path style="fill:#FFE3CA;" d="M134.963,229.603c0,0,3.896,5.401,4.41,8.181c0.513,2.78-8.338-3.597-9.215-4.463
						c0,0-3.411,5.559-6.274,5.96c-1.991,0.279-5.062-5.683-5.406-9.737c-0.151-1.774,1.085-2.945,1.759-3.329
						C120.981,225.791,130.275,227.278,134.963,229.603z"/>
					<g>
						<path style="fill:#FFFFFF;" d="M142.346,209.011c0,0,4.64-4.421,2.078-9.85c-2.452-5.194-15.599-5.76-24.644,2.773
							c0,0-2.05-1.173-3.326,1.949c-1.276,3.122-1.15,13.075,3.239,13.952C125.037,218.904,142.346,209.011,142.346,209.011z"/>
						<path style="fill:#E89A9A;" d="M134.253,231.677c0,0,0.788-2.016,1.367-4.466l-15.01-9.063c0,0-0.282,4.627-0.373,8.067
							C120.236,226.215,126.144,233.055,134.253,231.677z"/>
						<g>
							<path style="fill:#FFB2B0;" d="M142.346,209.011c0.296,15.199-3.639,20.698-11.109,20.549
								c-7.242-0.144-9.802-6.024-10.628-11.412c-2.857-0.433-3.333-4.799-2.264-5.645c1.089-0.862,1.906,0.714,1.906,0.714
								c2.563-1.429,2.894-5.068,2.894-5.068c1.485-1.471,4.193,0.845,7.09-0.833c2.395-1.387,3.85-2.928,7.539-1.939
								C141.465,206.366,142.346,209.011,142.346,209.011z"/>
							<g>
								<path style="fill:#45555E;" d="M129.613,215.984c-0.02,0.747-0.454,1.342-0.971,1.328c-0.516-0.014-0.919-0.63-0.899-1.378
									c0.02-0.747,0.454-1.342,0.971-1.328C129.23,214.62,129.633,215.236,129.613,215.984z"/>
								<path style="fill:none;stroke:#45555E;stroke-width:0.75;stroke-linecap:round;stroke-miterlimit:10;" d="M126.868,213.701
									c0,0,1.676-1.278,3.493-0.268"/>
							</g>
							<g>
								<path style="fill:#45555E;" d="M139.222,216.238c-0.02,0.747,0.383,1.364,0.899,1.378c0.517,0.014,0.951-0.581,0.971-1.328
									c0.02-0.747-0.383-1.364-0.899-1.377C139.677,214.896,139.242,215.491,139.222,216.238z"/>
								<path style="fill:none;stroke:#45555E;stroke-width:0.75;stroke-linecap:round;stroke-miterlimit:10;" d="M142.084,214.103
									c0,0-1.607-1.365-3.474-0.452"/>
							</g>
							<path style="fill:none;stroke:#E88E8E;stroke-width:0.75;stroke-linecap:round;stroke-miterlimit:10;" d="M135.118,213.919
								c0,0-0.485,3.167,0.63,4.342"/>
							
								<line style="fill:none;stroke:#FFFFFF;stroke-width:0.5;stroke-linecap:round;stroke-miterlimit:10;" x1="127.741" y1="226.817" x2="122.268" y2="223.775"/>
							<path style="fill:#FFFFFF;" d="M128.231,218.026c2.442-0.289,6.525-0.535,10.917,0.213c1.321,0.225,2.256,1.459,2.13,2.812
								c-0.139,1.491-1.111,4.158-2.118,5.643c-0.493,0.727-1.744,1.503-2.784,1.692c-1.884,0.342-3.89,0.344-7.639-0.571
								c-0.913-0.223-1.713-1.123-1.966-2.04c-0.316-1.145-0.643-2.69-0.805-4.923C125.866,219.445,126.851,218.189,128.231,218.026
								z"/>
							
								<line style="fill:none;stroke:#FFFFFF;stroke-width:0.5;stroke-linecap:round;stroke-miterlimit:10;" x1="126.517" y1="220.553" x2="120.252" y2="213.217"/>
						</g>
					</g>
				</g>
				<path style="fill:#AE8DE2;stroke:#8268B5;stroke-linecap:round;stroke-miterlimit:10;" d="M246.582,237.5
					c0,0-27.017,11.788-31.581,10.238c-4.564-1.549-3.41-9.058-2.437-9.416c0.973-0.358,21.949-12.272,25.14-18.118
					c2.094-3.837-3.325-18.034-6.929-24.838"/>
				<path style="fill:none;stroke:#8268B5;stroke-linecap:round;stroke-miterlimit:10;" d="M192.362,230.189
					c0,0-1.701-24.031,0-36.468"/>
			</g>
			<g>
				<g>
					<g>
						<path style="fill:#454263;" d="M641.091,142.149c0,0-3.399-5.581-0.667-10.804c2.441-4.665,9.754-5.725,13.763-2.545
							c1.808,1.434,2.325,2.928,2.325,2.928s7.433,0.54,8.951,6.145c1.144,4.224-0.88,12.376-4.837,12.651
							C656.669,150.799,641.091,142.149,641.091,142.149z"/>
						<g>
							<g>
								<path style="fill:#FFB2B0;" d="M639.305,376.639c0,0-0.077,5.295,0,6.04c0.058,0.561-9.51-0.024-14.979,2.056
									c-1.739,0.661-1.325,3.252,0.53,3.386c6.538,0.474,18.887,1.138,21.979-0.331c1.065-0.745,0-11.151,0-11.151H639.305z"/>
								<path style="fill:#454263;" d="M639.305,382.679c0.058,0.561-9.51-0.024-14.979,2.056c-1.739,0.661-1.325,3.252,0.53,3.386
									c6.537,0.474,18.887,1.138,21.979-0.331c0.484-0.339,0.526-2.678,0.43-5.126
									C642.612,384.068,639.305,382.679,639.305,382.679z"/>
							</g>
							<g>
								<path style="fill:#FFB2B0;" d="M689.089,376.639c0,0-0.077,5.295,0,6.04c0.058,0.561-9.51-0.024-14.979,2.056
									c-1.739,0.661-1.325,3.252,0.53,3.386c6.537,0.474,18.887,1.138,21.979-0.331c1.065-0.745,0-11.151,0-11.151H689.089z"/>
								<path style="fill:#454263;" d="M689.089,382.679c0.058,0.561-9.51-0.024-14.979,2.056c-1.739,0.661-1.325,3.252,0.53,3.386
									c6.537,0.474,18.887,1.138,21.979-0.331c0.484-0.339,0.527-2.678,0.43-5.126
									C692.396,384.068,689.089,382.679,689.089,382.679z"/>
							</g>
							<g>
								<g>
									<path style="fill:#9AD2F4;" d="M637.758,175.191c0,0-8.175,29.894-15.888,37.075c-5.57,5.187-19.097,14.966-19.569,16.305
										c-0.653,1.851,2.302,7.12,2.842,7.24c0.638,0.141,24.547-5.279,36.389-17.333L637.758,175.191z"/>
									<path style="fill:#454263;" d="M688.54,239.542c0,0,2.978,5.749,3.996,13.933c2.069,16.627-2.006,28.777-1.022,52.429
										c0.852,20.471,5.257,57.224,6.808,69.738c0.289,2.332-1.462,4.412-3.808,4.533l-5.462,0.282
										c-1.854,0.096-3.534-1.075-4.077-2.85c-2.423-7.919-9.599-30.868-20.656-61.984c-6.615-18.615-9.614-50.819-11.227-73.724
										L688.54,239.542z"/>
									<path style="fill:#454263;" d="M641.198,241.432c0,0-15.501,45.822-13.816,68.571c1.327,17.914,7.073,52.799,7.893,65.259
										c0.199,3.017,2.703,5.359,5.726,5.359h3.66c3.078,0,5.608-2.424,5.734-5.499c0.621-15.137,2.365-56.773,3.041-64.019
										c1.702-18.234,22.843-36.581,22.54-71.561L641.198,241.432z"/>
									<path style="fill:none;stroke:#6B6B96;stroke-linecap:round;stroke-miterlimit:10;" d="M659.021,294.408
										c0,0-4.232-15.906-4.468-40.932"/>
									<path style="fill:#9AD2F4;" d="M689.281,238.777c-2.221,4.496-38.709,6.213-48.083,2.656
										c-6.584-2.499-9.767-60.045-3.441-70.006c4.356-6.859,24.76-9.178,31.697-4.994c11.278,6.801,27.219,25.207,27.141,47.459
										c-0.026,7.416-7.975,10.514-7.975,10.514S690.848,235.605,689.281,238.777z"/>
									<path style="fill:#E89A9A;" d="M646.736,166.043c0,0-0.096-2.751-0.096-7.562l12.912-7.957c0,0-0.355,10.147-0.568,13.82
										C658.984,164.344,653.721,170.814,646.736,166.043z"/>
									<g>
										<path style="fill:#FFB2B0;" d="M657.485,141.329c0,0,0.043,4.282,3.141,5.078c0,0,0.763-1.381,1.711-0.59
											c0.93,0.777,0.405,4.646-2.144,4.963c-0.86,4.769-3.274,9.934-9.712,9.892c-6.641-0.044-10.009-5.023-9.389-18.522
											c0,0,2.573-4.57,6.368-3.659C652.117,139.609,651.127,140.958,657.485,141.329z"/>
										<g>
											<path style="fill:#45555E;" d="M652.241,148.645c0,0.664,0.372,1.203,0.832,1.203s0.832-0.539,0.832-1.203
												c0-0.664-0.372-1.203-0.832-1.203S652.241,147.98,652.241,148.645z"/>
											<path style="fill:none;stroke:#45555E;stroke-width:0.75;stroke-linecap:round;stroke-miterlimit:10;" d="
												M654.734,146.68c0,0-1.46-1.175-3.098-0.32"/>
										</g>
										<g>
											<path style="fill:#45555E;" d="M643.697,148.645c0,0.664-0.372,1.203-0.832,1.203s-0.832-0.539-0.832-1.203
												c0-0.664,0.372-1.203,0.832-1.203S643.697,147.98,643.697,148.645z"/>
											<path style="fill:none;stroke:#45555E;stroke-width:0.75;stroke-linecap:round;stroke-miterlimit:10;" d="
												M641.204,146.68c0,0,1.46-1.175,3.098-0.32"/>
										</g>
										<path style="fill:none;stroke:#E88E8E;stroke-width:0.75;stroke-linecap:round;stroke-miterlimit:10;" d="M647.398,146.68
											c0,0,0.357,2.826-0.662,3.844"/>
										
											<line style="fill:none;stroke:#FFFFFF;stroke-width:0.5;stroke-linecap:round;stroke-miterlimit:10;" x1="653.65" y1="158.316" x2="658.586" y2="155.742"/>
										<path style="fill:#FFFFFF;" d="M653.422,150.492c-2.163-0.314-5.786-0.629-9.707-0.068
											c-1.18,0.169-2.039,1.243-1.959,2.449c0.088,1.329,0.89,3.721,1.749,5.064c0.421,0.658,1.514,1.376,2.435,1.569
											c1.666,0.348,3.448,0.397,6.802-0.328c0.817-0.177,1.548-0.958,1.795-1.767c0.308-1.01,0.635-2.375,0.831-4.356
											C655.49,151.809,654.644,150.67,653.422,150.492z"/>
										
											<line style="fill:none;stroke:#FFFFFF;stroke-width:0.5;stroke-linecap:round;stroke-miterlimit:10;" x1="654.885" y1="152.778" x2="660.625" y2="146.406"/>
									</g>
								</g>
							</g>
							<path style="fill:none;stroke:#65A2C1;stroke-linecap:round;stroke-miterlimit:10;" d="M635.813,222.587
								c0,0-1.489-16.571-1.087-35.502"/>
						</g>
					</g>
					<g>
						<g>
							<path style="fill:#899DA5;" d="M574.037,370.709c-8.836-0.557-15.215-13.468-14.246-28.837
								c0.968-15.369,8.917-27.376,17.753-26.82c0.483,0.03,0.957,0.104,1.424,0.207c-0.445-0.396-0.898-0.773-1.367-1.113
								l0.142-2.251l-3.038-0.191c-10.867-0.685-20.551,12.633-21.629,29.745c-1.078,17.113,6.857,31.541,17.724,32.225l3.038,0.191
								l0.142-2.251c0.507-0.279,1.004-0.596,1.495-0.933C574.999,370.726,574.519,370.74,574.037,370.709z"/>
							
								<line style="fill:none;stroke:#C9DAE2;stroke-width:2;stroke-linecap:round;stroke-miterlimit:10;" x1="575.959" y1="291.74" x2="575.959" y2="342.785"/>
							<g>
								<g>
									
										<line style="fill:none;stroke:#A1ACB2;stroke-width:0.75;stroke-linecap:round;stroke-miterlimit:10;" x1="589.683" y1="357.905" x2="562.672" y2="327.261"/>
									
										<line style="fill:none;stroke:#A1ACB2;stroke-width:0.75;stroke-linecap:round;stroke-miterlimit:10;" x1="586.518" y1="317.79" x2="565.837" y2="367.377"/>
									
										<line style="fill:none;stroke:#A1ACB2;stroke-width:0.75;stroke-linecap:round;stroke-miterlimit:10;" x1="569.03" y1="316.688" x2="583.325" y2="368.479"/>
									
										<line style="fill:none;stroke:#A1ACB2;stroke-width:0.75;stroke-linecap:round;stroke-miterlimit:10;" x1="591.5" y1="329.078" x2="560.855" y2="356.089"/>
									
										<line style="fill:none;stroke:#A1ACB2;stroke-width:0.75;stroke-linecap:round;stroke-miterlimit:10;" x1="594.552" y1="343.741" x2="557.804" y2="341.426"/>
									
										<line style="fill:none;stroke:#A1ACB2;stroke-width:0.75;stroke-linecap:round;stroke-miterlimit:10;" x1="577.968" y1="314.164" x2="574.387" y2="371.003"/>
								</g>
								<path style="fill:#B6C6CC;" d="M577.742,311.896c-10.867-0.685-20.55,12.632-21.629,29.745
									c-1.078,17.113,6.857,31.541,17.724,32.225c10.867,0.685,20.551-12.633,21.629-29.746
									C596.545,327.008,588.609,312.58,577.742,311.896z M574.037,370.709c-8.836-0.557-15.215-13.468-14.246-28.837
									c0.968-15.369,8.917-27.376,17.753-26.82c8.836,0.557,15.215,13.467,14.247,28.836S582.873,371.266,574.037,370.709z"/>
							</g>
						</g>
						<g>
							
								<line style="fill:none;stroke:#C9DAE2;stroke-width:2;stroke-linecap:round;stroke-miterlimit:10;" x1="551.694" y1="314.382" x2="551.694" y2="368.117"/>
							<g>
								
									<rect x="542.365" y="367.121" transform="matrix(0.0653 -0.9979 0.9979 0.0653 148.2092 894.6752)" style="fill:#5A686D;" width="18.648" height="2.203"/>
								<g>
									<path style="fill:#899DA5;" d="M556.499,368.537c-0.336,5.139-3.254,9.131-6.518,8.917
										c-3.263-0.214-5.636-4.552-5.299-9.691c0.336-5.139,3.254-9.131,6.518-8.918
										C554.462,359.06,556.835,363.399,556.499,368.537z"/>
									<path style="fill:#C9DAE2;" d="M558.697,368.681c-0.336,5.139-3.254,9.131-6.518,8.918
										c-3.263-0.214-5.636-4.552-5.299-9.691c0.336-5.139,3.254-9.131,6.517-8.917
										C556.66,359.204,559.033,363.543,558.697,368.681z"/>
									<path style="fill:#707F85;" d="M555.605,368.479c-0.16,2.45-1.552,4.354-3.108,4.252c-1.556-0.102-2.687-2.171-2.527-4.621
										s1.552-4.354,3.108-4.252C554.634,363.96,555.766,366.029,555.605,368.479z"/>
								</g>
							</g>
						</g>
						
							<line style="fill:none;stroke:#C9DAE2;stroke-width:2;stroke-linecap:round;stroke-miterlimit:10;" x1="605.673" y1="328.596" x2="605.673" y2="382.331"/>
						<path style="fill:none;stroke:#C9DAE2;stroke-width:2;stroke-linecap:round;stroke-miterlimit:10;" d="M574.271,399.386
							l8.922-50.561c1.102-6.243,5.102-11.592,10.779-14.413l14.067-6.992"/>
						<path style="fill:none;stroke:#C9DAE2;stroke-width:2;stroke-linecap:round;stroke-miterlimit:10;" d="M519.02,393.773
							l8.922-50.561c1.102-6.243,5.102-11.592,10.779-14.413l14.067-6.992"/>
						<path style="fill:#90AAB2;" d="M499.571,397.533l11.709-6.677c2.225-1.269,4.794-1.804,7.341-1.527l56.889,6.167
							c2.299,0.249,3.072,3.206,1.191,4.549l-10.802,7.711c-1.903,1.358-4.246,1.954-6.567,1.67l-58.821-7.209
							C498.107,401.922,497.467,398.733,499.571,397.533z"/>
						<polygon style="fill:#90AAB2;" points="638.067,295.051 605.673,290.668 605.673,240.682 638.067,246.953 						"/>
						<polygon style="fill:#90AAB2;" points="606.534,332.816 545.924,321.316 592.678,307.107 638.067,318.327 636.577,322.046 
													"/>
						<path style="fill:none;stroke:#C9DAE2;stroke-width:2;stroke-linecap:round;stroke-miterlimit:10;" d="M547.058,293.591
							v34.966c0,0,35.514-10.736,35.514-11.854c0-1.118,0-82.181,0-82.181l12.972-5.185"/>
						
							<line style="fill:none;stroke:#747E84;stroke-width:5;stroke-linecap:round;stroke-miterlimit:10;" x1="541.468" y1="295.051" x2="584.945" y2="281.439"/>
						<g>
							<path style="fill:#FFB2B0;" d="M527.87,387.025c0,0-0.078,5.38,0,6.137c0.059,0.57-9.663-0.024-15.219,2.089
								c-1.767,0.672-1.346,3.304,0.539,3.44c6.642,0.482,19.19,1.156,22.332-0.336c1.082-0.757,0-11.33,0-11.33H527.87z"/>
							<path style="fill:#364459;" d="M527.87,393.162c0.059,0.57-9.663-0.024-15.219,2.089c-1.767,0.672-1.346,3.304,0.539,3.441
								c6.642,0.482,19.19,1.156,22.332-0.336c0.492-0.345,0.535-2.721,0.437-5.208C531.23,394.573,527.87,393.162,527.87,393.162z"
								/>
						</g>
						<g>
							<path style="fill:#FFB2B0;" d="M558.856,387.025c0,0-0.078,5.38,0,6.137c0.059,0.57-9.663-0.024-15.219,2.089
								c-1.767,0.672-1.346,3.304,0.539,3.44c6.642,0.482,19.19,1.156,22.332-0.336c1.082-0.757,0-11.33,0-11.33H558.856z"/>
							<path style="fill:#364459;" d="M558.856,393.162c0.059,0.57-9.663-0.024-15.219,2.089c-1.767,0.672-1.346,3.304,0.539,3.441
								c6.642,0.482,19.19,1.156,22.332-0.336c0.492-0.345,0.535-2.721,0.437-5.208
								C562.216,394.573,558.856,393.162,558.856,393.162z"/>
						</g>
						<path style="fill:#33708E;" d="M567.159,296.921c0,0-29.586,7.422-36.959,24.113c-6.094,13.797-7.516,64.862-4.831,66.971
							c1.931,1.517,11.905,0.929,13.258-0.181c1.353-1.111,6.754-30.738,14.634-46.897c0,0-1.677,22.422,2.452,46.098
							c0.985,2.508,11.66,1.407,14.155,0c0,0,6.742-41.486,11.714-52.524c4.334-9.62,14.968-3.827,29.282-10.792
							c11.435-5.564,13.606-22.888,13.606-22.888L567.159,296.921z"/>
						<g>
							<path style="fill:#BEEACF;" d="M580.838,236.812c3.185-6.145,13.045,3.353,16.087,11.642
								c3.211,8.75-5.074,25.543-13.388,35.279c-6.347,7.432-40.303,11.447-42.835,10.441c-2.532-1.006-0.982-7.559,0.934-8.099
								c4.429-1.249,23.902-10.477,26.87-14.19C571.652,267.951,575.367,247.367,580.838,236.812z"/>
							<path style="fill:#FFB2B0;" d="M541.635,287.029c0,0,2.142,2.707,1.552,5.759c-0.364,1.883-4.077,1.605-7.128,6.644
								c-2.538,4.191-8.97-3.718-7.254-7.189C530.521,288.771,538.717,286.234,541.635,287.029z"/>
						</g>
						<path style="fill:#BEEACF;" d="M567.159,296.921c27.673,9.993,57.311,3.9,57.311,3.9c3.529-18.135,7.258-42.981,1.14-57.676
							c-7.141-17.151-21.295-17.127-38.8-14.244c-7.294,1.201-16.966,10.065-17.203,30.668
							C569.502,268.636,569.468,288.208,567.159,296.921z"/>
						<path style="fill:none;stroke:#448DAA;stroke-linecap:round;stroke-miterlimit:10;" d="M553.261,340.926
							c0,0,0-14.422,4.39-21.521c4.771-7.716,20.705-12.914,20.705-12.914"/>
						<g>
							<path style="fill:#FFFFFF;" d="M585.87,229.731c0,0-5.199,3.728-5.668,8.513c-0.276,2.814,9.781-3.315,10.659-4.181
								c0,0,3.411,5.559,6.274,5.96c1.992,0.279,5.062-5.683,5.406-9.737c0.151-1.774-1.085-2.945-1.759-3.329
								C600.036,226.533,590.558,227.406,585.87,229.731z"/>
							<g>
								<path style="fill:#E5E5E5;" d="M578.672,209.753c0,0-3.014-5.699,2.508-11.221c5.522-5.522,19.111-3.76,23.456,3.481
									c4.345,7.242,1.342,15.327-4.494,18.324C594.305,223.335,578.672,209.753,578.672,209.753z"/>
								<path style="fill:#E89A9A;" d="M586.765,232.419c0,0-0.788-2.016-1.367-4.466l15.01-9.063c0,0,0.282,4.627,0.373,8.067
									C600.782,226.958,594.873,233.797,586.765,232.419z"/>
								<g>
									<path style="fill:#FFB2B0;" d="M583.242,206.119c-3.749,0.732-4.57,3.634-4.57,3.634
										c-0.296,15.199,3.639,20.698,11.109,20.549c7.242-0.144,9.802-6.024,10.628-11.412c2.857-0.433,3.333-4.799,2.263-5.645
										c-1.089-0.862-1.906,0.714-1.906,0.714c-3.133-0.173-3.883-3.439-3.883-3.439
										C594.88,205.918,591.202,204.566,583.242,206.119z"/>
									<g>
										<path style="fill:#45555E;" d="M591.404,216.726c0.02,0.747,0.454,1.342,0.971,1.328c0.517-0.014,0.919-0.63,0.899-1.377
											c-0.02-0.747-0.454-1.342-0.971-1.328C591.787,215.362,591.384,215.979,591.404,216.726z"/>
										<path style="fill:none;stroke:#45555E;stroke-width:0.75;stroke-linecap:round;stroke-miterlimit:10;" d="
											M594.149,214.443c0,0-1.677-1.278-3.493-0.268"/>
									</g>
									<g>
										<path style="fill:#45555E;" d="M581.795,216.98c0.02,0.747-0.383,1.364-0.899,1.378c-0.517,0.014-0.951-0.581-0.971-1.328
											c-0.02-0.747,0.383-1.364,0.899-1.378C581.341,215.638,581.776,216.233,581.795,216.98z"/>
										<path style="fill:none;stroke:#45555E;stroke-width:0.75;stroke-linecap:round;stroke-miterlimit:10;" d="
											M578.934,214.845c0,0,1.607-1.365,3.474-0.452"/>
									</g>
									<path style="fill:none;stroke:#E88E8E;stroke-width:0.75;stroke-linecap:round;stroke-miterlimit:10;" d="M585.899,214.661
										c0,0,0.485,3.167-0.63,4.342"/>
									
										<line style="fill:none;stroke:#FFFFFF;stroke-width:0.5;stroke-linecap:round;stroke-miterlimit:10;" x1="593.276" y1="227.559" x2="598.75" y2="224.518"/>
									<path style="fill:#FFFFFF;" d="M592.787,218.768c-2.442-0.289-6.525-0.535-10.917,0.213
										c-1.321,0.225-2.256,1.459-2.13,2.812c0.138,1.491,1.111,4.158,2.118,5.643c0.493,0.727,1.744,1.503,2.784,1.692
										c1.884,0.342,3.89,0.344,7.639-0.571c0.913-0.223,1.713-1.123,1.966-2.04c0.316-1.145,0.644-2.69,0.805-4.923
										C595.151,220.187,594.166,218.932,592.787,218.768z"/>
									
										<line style="fill:none;stroke:#FFFFFF;stroke-width:0.5;stroke-linecap:round;stroke-miterlimit:10;" x1="594.5" y1="221.295" x2="600.766" y2="213.959"/>
								</g>
							</g>
						</g>
						<path style="fill:#E5E5E5;" d="M601.025,202.13c0,0,4.272,0.773,7.022-1.485c3.757-3.086-0.606-10.545-6.688-9.738
							c-6.082,0.807-3.79,8.301-3.79,8.301L601.025,202.13z"/>
						<path style="fill:none;stroke:#C9DAE2;stroke-width:2;stroke-linecap:round;stroke-miterlimit:10;" d="M602.553,299.101v27.48
							c0,3.683,3.609,6.282,7.102,5.117l24.726-8.253c2.202-0.735,3.686-2.796,3.686-5.116v-70.634
							c0-4.627,2.818-8.787,7.114-10.504l5.858-2.341"/>
						
							<line style="fill:none;stroke:#747E84;stroke-width:5;stroke-linecap:round;stroke-miterlimit:10;" x1="596.963" y1="300.56" x2="640.44" y2="286.949"/>
						<g>
							<path style="fill:#BEEACF;" d="M604.326,242.621c1.217-6.814,13.26-8.915,18.627-1.903
								c5.665,7.402,16.742,29.861,11.694,41.627c-3.854,8.982-36.767,17.04-39.484,16.831c-2.717-0.209-3.183-6.926-1.513-8.011
								c3.858-2.508,20.992-12.52,22.724-16.947C618.21,269.526,602.237,254.325,604.326,242.621z"/>
							<path style="fill:none;stroke:#95C1A5;stroke-linecap:round;stroke-miterlimit:10;" d="M593.65,291.164
								c3.858-2.508,20.992-12.52,22.724-16.947c1.312-3.353-6.472-12.074-10.258-21.05"/>
							<path style="fill:#FFB2B0;" d="M593.844,291.721c0,0,2.598,2.272,2.573,5.381c-0.015,1.918-3.718,2.319-5.802,7.828
								c-1.734,4.582-9.496-2.026-8.439-5.751C583.232,295.454,590.83,291.47,593.844,291.721z"/>
						</g>
						<g>
							
								<rect x="596.344" y="381.335" transform="matrix(0.0653 -0.9979 0.9979 0.0653 184.4779 961.824)" style="fill:#5A686D;" width="18.648" height="2.203"/>
							<g>
								<path style="fill:#899DA5;" d="M610.478,382.751c-0.336,5.139-3.254,9.131-6.518,8.917
									c-3.263-0.214-5.636-4.552-5.299-9.691c0.336-5.139,3.254-9.131,6.517-8.918
									C608.441,373.274,610.814,377.612,610.478,382.751z"/>
								<path style="fill:#C9DAE2;" d="M612.676,382.895c-0.336,5.139-3.254,9.131-6.518,8.918
									c-3.263-0.214-5.636-4.552-5.299-9.691c0.336-5.139,3.254-9.131,6.517-8.917
									C610.639,373.418,613.012,377.756,612.676,382.895z"/>
								<path style="fill:#707F85;" d="M609.584,382.693c-0.16,2.45-1.552,4.354-3.108,4.252c-1.556-0.102-2.687-2.171-2.527-4.621
									c0.16-2.45,1.552-4.354,3.108-4.252C608.613,378.173,609.745,380.242,609.584,382.693z"/>
							</g>
						</g>
						<g>
							<path style="fill:#899DA5;" d="M636.145,387.626c-8.836-0.557-15.215-13.468-14.246-28.837
								c0.968-15.369,8.917-27.376,17.753-26.82c0.483,0.03,0.957,0.104,1.424,0.207c-0.445-0.396-0.898-0.773-1.367-1.113
								l0.142-2.251l-3.038-0.191c-10.867-0.685-20.551,12.633-21.629,29.746c-1.078,17.113,6.857,31.541,17.724,32.225l3.038,0.191
								l0.142-2.251c0.507-0.279,1.004-0.596,1.495-0.933C637.107,387.642,636.628,387.656,636.145,387.626z"/>
							
								<line style="fill:none;stroke:#C9DAE2;stroke-width:2;stroke-linecap:round;stroke-miterlimit:10;" x1="638.067" y1="308.656" x2="638.067" y2="359.702"/>
							<g>
								<g>
									
										<line style="fill:none;stroke:#A1ACB2;stroke-width:0.75;stroke-linecap:round;stroke-miterlimit:10;" x1="651.792" y1="374.822" x2="624.78" y2="344.178"/>
									
										<line style="fill:none;stroke:#A1ACB2;stroke-width:0.75;stroke-linecap:round;stroke-miterlimit:10;" x1="648.627" y1="334.706" x2="627.945" y2="384.294"/>
									
										<line style="fill:none;stroke:#A1ACB2;stroke-width:0.75;stroke-linecap:round;stroke-miterlimit:10;" x1="631.139" y1="333.604" x2="645.433" y2="385.396"/>
									
										<line style="fill:none;stroke:#A1ACB2;stroke-width:0.75;stroke-linecap:round;stroke-miterlimit:10;" x1="653.608" y1="345.994" x2="622.964" y2="373.006"/>
									
										<line style="fill:none;stroke:#A1ACB2;stroke-width:0.75;stroke-linecap:round;stroke-miterlimit:10;" x1="656.66" y1="360.658" x2="619.912" y2="358.342"/>
									
										<line style="fill:none;stroke:#A1ACB2;stroke-width:0.75;stroke-linecap:round;stroke-miterlimit:10;" x1="640.077" y1="331.081" x2="636.496" y2="387.919"/>
								</g>
								<path style="fill:#C9DAE2;" d="M639.85,328.812c-10.867-0.685-20.55,12.632-21.629,29.745
									c-1.078,17.113,6.857,31.541,17.724,32.225c10.867,0.685,20.551-12.633,21.629-29.746
									C658.653,343.924,650.718,329.497,639.85,328.812z M636.145,387.626c-8.836-0.557-15.215-13.468-14.247-28.837
									c0.968-15.369,8.917-27.376,17.753-26.82c8.836,0.557,15.215,13.467,14.247,28.836
									C652.93,376.174,644.982,388.182,636.145,387.626z"/>
							</g>
						</g>
						<path style="fill:none;stroke:#95C1A5;stroke-linecap:round;stroke-miterlimit:10;" d="M568.506,290.405
							c0,0,0.813-6.776,0.957-17.447"/>
					</g>
					<g>
						<path style="fill:#FFB2B0;" d="M648.727,234.62c0.656,2.416-4.032,3.876-4.032,3.876c-0.312,1.398,2.235,2.217,4.984,2.138
							c1.91-0.239,4.423-1.565,5.188-2.408c1.851-2.039,2.631-5.356,2.631-5.356s-0.577-2.772-3.043-3.814
							c0,0-5.563,1.542-6.785,2.183c-1.348,0.707-2.342,2.918-2.611,4.876L648.727,234.62z"/>
						<path style="fill:#9AD2F4;stroke:#65A2C1;stroke-linecap:round;stroke-miterlimit:10;" d="M688.62,224.406
							c0,0-26.591,11.602-31.082,10.077c-4.492-1.525-3.232-8.679-2.399-9.267c1.039-0.732,18.788-9.27,27.82-17.832"/>
					</g>
				</g>
				<g>
					<g>
						<g>
							<path style="fill:#AAC6CC;" d="M589.247,158.696c-11.208,0-20.325-9.118-20.325-20.325c0-11.208,9.118-20.325,20.325-20.325
								s20.325,9.118,20.325,20.325C609.573,149.578,600.455,158.696,589.247,158.696z M589.247,118.763
								c-10.811,0-19.607,8.796-19.607,19.607c0,10.811,8.796,19.607,19.607,19.607c10.811,0,19.607-8.796,19.607-19.607
								C608.854,127.559,600.058,118.763,589.247,118.763z"/>
						</g>
						<g>
							<path style="fill:#AAC6CC;" d="M589.247,164.09c-14.182,0-25.72-11.538-25.72-25.72c0-14.182,11.538-25.72,25.72-25.72
								c14.182,0,25.72,11.538,25.72,25.72C614.967,152.552,603.429,164.09,589.247,164.09z M589.247,115.524
								c-12.598,0-22.847,10.249-22.847,22.847c0,12.598,10.249,22.847,22.847,22.847c12.597,0,22.847-10.249,22.847-22.847
								C612.094,125.773,601.845,115.524,589.247,115.524z"/>
						</g>
						<g>
							<path style="fill:#AAC6CC;" d="M588.599,142.717l-9.655-15.631c-0.417-0.675-0.208-1.56,0.468-1.977
								c0.673-0.415,1.559-0.209,1.977,0.468l8.507,13.774l7.351-2.132c0.759-0.224,1.558,0.216,1.78,0.979
								c0.222,0.762-0.217,1.559-0.979,1.78L588.599,142.717z"/>
						</g>
					</g>
				</g>
			</g>
		</g>
	</g>
</g>
</svg>
