<?xml version="1.0" encoding="utf-8"?>
<!-- Generator: Adobe Illustrator 27.5.0, SVG Export Plug-In . SVG Version: 6.00 Build 0)  -->
<svg version="1.1" xmlns="http://www.w3.org/2000/svg" xmlns:xlink="http://www.w3.org/1999/xlink" x="0px" y="0px"
	 viewBox="0 0 750 500" style="enable-background:new 0 0 750 500;" xml:space="preserve">
<g id="BACKGROUND">
	<rect style="fill:#FFFFFF;" width="750" height="500"/>
</g>
<g id="OBJECTS">
	<g>
		<path style="fill:#ECECEC;" d="M308.26,368.085H375c0,0-10.783-25.328-25.637-12.664c-7.381-18.475-25.121,4.559-25.121,4.559
			S304.805,349.785,308.26,368.085z"/>
		<path style="fill:#ECECEC;" d="M76.391,368.085H13.425c0,0-1.303-16.618,11.725-17.108c13.028-0.49,15.535,6.187,15.535,6.187
			s1.402-19.883,14.43-18.817c13.028,1.066,8.468,21.183,8.468,21.183s4.77-5.287,11.505-0.651
			C81.823,363.515,76.391,368.085,76.391,368.085z"/>
		<path style="fill:#ECECEC;" d="M450.546,368.085H387.58c0,0-1.303-16.618,11.725-17.108c13.028-0.49,15.535,6.187,15.535,6.187
			s1.402-19.883,14.43-18.817c13.028,1.066,8.468,21.183,8.468,21.183s4.77-5.287,11.505-0.651S450.546,368.085,450.546,368.085z"/>
		<path style="fill:#ECECEC;" d="M67.936,73.464c0,0,6.793,3.73,9.924,9.947c12.457-8.082,20.153-9.947,20.153-9.947
			s-15.824,0-20.153,4.974C73.532,72.843,67.936,73.464,67.936,73.464z"/>
		<path style="fill:#ECECEC;" d="M669.554,73.464c0,0,6.793,3.73,9.924,9.947c12.457-8.082,20.153-9.947,20.153-9.947
			s-15.824,0-20.153,4.974C675.149,72.843,669.554,73.464,669.554,73.464z"/>
		<path style="fill:#ECECEC;" d="M97.666,128.027c0,0-4.592,2.522-6.709,6.725c-8.422-5.464-13.624-6.725-13.624-6.725
			s10.698,0,13.624,3.363C93.883,127.607,97.666,128.027,97.666,128.027z"/>
		<path style="fill:#ECECEC;" d="M528.442,103.543c0,0-4.592,2.522-6.709,6.725c-8.422-5.464-13.624-6.725-13.624-6.725
			s10.698,0,13.624,3.362C524.66,103.122,528.442,103.543,528.442,103.543z"/>
		<path style="fill:#ECECEC;" d="M34.707,109.393c0,0,11.987-3.419,15.064,9.439c10.142-17.223,22.559-10.736,22.559-10.736
			s-14.82-3.068-23.472,21.673C47.235,110.435,34.707,109.393,34.707,109.393z"/>
		<path style="fill:#ECECEC;" d="M554.598,64.504c0,0,11.987-3.419,15.064,9.439c10.142-17.223,22.559-10.736,22.559-10.736
			s-14.82-3.068-23.473,21.673C567.126,65.546,554.598,64.504,554.598,64.504z"/>
		<path style="fill:#ECECEC;" d="M385.393,213.153c0,35.161-15.064,44.682-33.647,44.682c-18.583,0-33.647-9.522-33.647-44.682
			s15.064-148.316,33.647-148.316C370.328,64.837,385.393,177.992,385.393,213.153z"/>
		<rect x="345.99" y="131.383" style="fill:#ECECEC;" width="8.614" height="236.702"/>
	</g>
	<g>
		<ellipse style="fill:#ECECEC;" cx="185.355" cy="427.238" rx="154.44" ry="9.764"/>
		<polygon style="fill:#FF9D79;" points="166.134,207.486 182.588,231.146 225.907,250 222.965,259.683 173.63,251.277 
			148.022,219.284 		"/>
		<g>
			<g>
				<path style="fill:#ECECEC;" d="M233.276,186.683c0,0,5.398-14.714-7.369-17.714c-12.767-2.999-22.261,13.016-18.143,22.224
					c4.119,9.209,15.648,5.219,15.648,5.219"/>
				<path style="fill:#F04957;" d="M222.868,189.017c-2.535,4.375,2.229,6.806,2.229,6.806l4.593-10.068
					C229.69,185.755,225.746,184.049,222.868,189.017z"/>
				<path style="fill:#ECECEC;" d="M245.414,177.731c-6.476,0.943-17.483,6.269-22.142,17.523
					c-4.659,11.253-4.945,23.582,10.363,28.944c15.307,5.361,38.864-17.262,41.084-25.978
					C276.939,189.503,267.291,174.546,245.414,177.731z"/>
				<path style="fill:#A23357;" d="M265.038,302.66c0.62,3.64,1.35,7.02,1.36,8.16c0.05,11.06-1.87,15.81-1.87,15.81
					s-3.7,2.96-11.84,4.39c-5.78,1.02-13.82,1.26-24.37-0.91c-7.17-1.46-15.49-4.04-25.06-8.23l-0.55-39.12
					c1.83-7.16,3.84-13.05,6-17.91c7.32-16.43,16.44-21.2,26.61-24.15c10.9,6.98,17.42,3.16,17.42,3.16s10.28,5.6,13.73,37.58
					c0.49,4.59-2.16,9.18-2.25,13.2C264.169,296.88,264.569,299.85,265.038,302.66z"/>
				<path style="opacity:0.2;fill:#441E46;" d="M266.398,310.82c0.05,11.06-1.87,15.81-1.87,15.81s-3.7,2.96-11.84,4.39l-24.37-0.91
					c-7.17-1.46-15.49-4.04-25.06-8.23l-0.55-39.12c1.83-7.16,3.84-13.05,6-17.91c3.24,7.42,17.33,33.7,56.33,37.81
					C265.658,306.3,266.388,309.68,266.398,310.82z"/>
				<path style="fill:#FFBEA0;" d="M264.399,298.11c0,0,8.695-0.661,11.508,1.005c2.813,1.666,6.028,7.927,5.224,8.9
					c-0.804,0.973-11.414,0-11.414,0L264.399,298.11z"/>
				<path style="fill:#8D3052;" d="M271.819,308.99h-58.73v-34.06c0-6.97,2.14-11.56,5.16-14.21c7.74-6.8,21.28-0.86,19.47,10.41
					l-3.1,20.83c0,0,7.48,1.19,25.28,3.19c8.1,0.92,11.05,4.44,11.99,7.71C272.819,306.05,271.819,308.99,271.819,308.99z"/>
				<path style="opacity:0.2;fill:#441E46;" d="M271.819,308.99h-58.73v-34.06c0-6.97,2.14-11.56,5.16-14.21
					c0.63,10.97,2.67,34.29,8.79,37.7c17.57,1.45,37.33,3.6,44.85,4.44C272.819,306.05,271.819,308.99,271.819,308.99z"/>
				<path style="fill:#F04957;" d="M235.315,240.699c0,0-7.271,12.29,2.098,18.123c9.369,5.833,10.841-5.274,10.841-5.274
					s5.675,7.153,9.016,2.494s-4.522-12.183-4.522-12.183L235.315,240.699z"/>
				<path style="fill:#FFBEA0;" d="M235.316,240.701c0,0,0.317,8.252,9.743,9.308c8.393,0.941,7.689-6.15,7.689-6.15l0.068-4.082
					l0.082-4.941l0.003-0.483l-13.947-6.081L235.316,240.701z"/>
				<path style="fill:#FF9D79;" d="M240.526,232.686c1.257,6.879,8.58,7.323,12.29,7.092l0.082-4.941
					C250.916,233.635,247.222,232.867,240.526,232.686z"/>
				<g>
					<path style="fill:#FFBEA0;" d="M233.527,216.492c-0.69-1.714-0.981-3.805-1.095-5.268c-0.092-1.066-0.096-1.799-0.096-1.799
						s-1.412-7.413-6.961-5.675c-1.619,0.51-2.189,2.166-2.004,4.167C223.779,212.786,228.63,219.622,233.527,216.492z"/>
					<path style="fill:#FF9D79;" d="M233.527,216.492c-0.69-1.714-0.981-3.805-1.095-5.268c-1.982-2.119-5.277-4.591-9.061-3.307
						C223.779,212.786,228.63,219.622,233.527,216.492z"/>
					<path style="fill:#FFBEA0;" d="M269.807,200.217c0,0,7.929,30.334-4.529,35.229c-12.459,4.894-34.039,1.825-34.666-12.96
						c-0.627-14.785,2.96-26.327,2.96-26.327s5.866-8.432,19.567-8.298C266.84,187.995,269.807,200.217,269.807,200.217z"/>
					<path style="fill:#452C59;" d="M261.63,208.685c-0.012,1.189,0.121,2.155,1.056,2.164s1.702-0.947,1.713-2.137
						c0.012-1.189-0.736-2.161-1.671-2.17C261.794,206.533,261.642,207.495,261.63,208.685z"/>
					<path style="fill:#452C59;" d="M248.746,208.905c-0.012,1.189,0.121,2.155,1.056,2.164c0.934,0.009,1.702-0.947,1.713-2.137
						c0.012-1.189-0.736-2.161-1.671-2.17C248.909,206.753,248.757,207.716,248.746,208.905z"/>
					<path style="fill:#FF9D79;" d="M256.584,207.256c1.637,0.016,4.465,9.68,2.814,11.298c-1.651,1.619-4.898-0.65-5.06-1.684
						C254.177,215.836,255.466,207.245,256.584,207.256z"/>
					<path style="fill:#FFFFFF;" d="M257.065,221.37c0,0-5.733-1.658-8.746-4.732C246.12,221.521,255.07,224.792,257.065,221.37z"/>
					<path style="fill:#FF88C7;" d="M240.233,212.173c-0.014,1.401,1.111,2.548,2.512,2.561c1.401,0.014,2.548-1.111,2.561-2.512
						c0.014-1.401-1.111-2.548-2.512-2.561C241.393,209.647,240.247,210.772,240.233,212.173z"/>
					<path style="fill:#FF88C7;" d="M265.797,211.584c-0.014,1.401,1.111,2.548,2.512,2.562c1.401,0.014,2.548-1.111,2.561-2.512
						c0.014-1.401-1.111-2.548-2.512-2.561C266.957,209.059,265.81,210.183,265.797,211.584z"/>
				</g>
				<path style="fill:#A23357;" d="M300.269,400.783l1.071,6.73c0,0,11.493,3.549,11.852,4.721
					c0.358,1.172-27.269,2.903-28.195,1.463c-0.927-1.44-1.127-9.458-1.127-9.458"/>
				<path style="fill:#FFFFFF;" d="M269.361,220.058c1.547,3.943-2.024,12.167-9.194,14.106
					c-11.701,3.164-18.497-3.479-19.567-11.066c-0.83-5.885,7.561-11.408,16.028-10.718
					C265.096,213.069,267.311,214.833,269.361,220.058z"/>
				<path style="fill:#FFFFFF;" d="M245.727,217.734l-15.012-17.084l-1.012-0.01l14.162,18.999l-13.326-1.043
					c0,0-3.993,2.492,12.61,3.355"/>
				<path style="fill:#FFFFFF;" d="M266.068,216.408l5.306-8.323c0,0,0.696,0.832,0.337,2.394c-0.358,1.562-4.784,8.728-4.784,8.728
					"/>
				<path style="fill:#FFFFFF;" d="M267.745,218.738l4.509-1.864c0,0,1.062,0.781,0.044,1.988l-4.057,2.178"/>
				<path style="fill:#ECECEC;" d="M265.025,197.273c0,0-22.618,11.246-42.06,9.176c2.667-11.758,13.187-27.931,30.229-26.293
					c17.042,1.639,20.361,16.189,17.654,21.86C267.961,200.756,265.025,197.273,265.025,197.273z"/>
				<path style="fill:#FFFFFF;" d="M246.25,201.748c-0.024,0.724,4.911,0.874,4.669-0.294
					C250.677,200.286,246.296,200.367,246.25,201.748z"/>
				<path style="fill:#FFFFFF;" d="M262.491,201.867c-0.214,0.692,4.507,2.138,4.581,0.948
					C267.147,201.624,262.9,200.547,262.491,201.867z"/>
				<path style="fill:#281B46;" d="M203.255,321.885c0,0-5.281,29.943,16.921,35.767c22.202,5.823,51.563,0.513,51.563,0.513
					l12.131,46.074l16.399-3.456c0,0-0.929-58.293-4.206-61.631c-3.277-3.338-31.535-12.527-31.535-12.527
					S245.561,335.288,203.255,321.885z"/>
			</g>
			<path style="fill:#F04957;" d="M283.6,403.854h-43.999c-1.104,0-2-0.895-2-2c0-1.104,0.896-2,2-2H281.6v-88.867h-78.855
				c-1.104,0-2-0.896-2-2s0.896-2,2-2H283.6c1.104,0,2,0.896,2,2v92.867C285.6,402.959,284.704,403.854,283.6,403.854z"/>
			<path style="fill:#F04957;" d="M201.268,345.188c-1.105,0-2-0.896-2-2V250h-23.763c-1.105,0-2-0.895-2-2s0.895-2,2-2h25.763
				c1.104,0,2,0.895,2,2v95.188C203.268,344.292,202.373,345.188,201.268,345.188z"/>
			<circle style="fill:#452C59;" cx="224.749" cy="382.621" r="49.778"/>
			<path style="fill:#F04957;" d="M282.704,384.621c-1.104,0-2-0.896-2-2c0-30.853-25.102-55.955-55.955-55.955
				c-30.854,0-55.956,25.102-55.956,55.955c0,1.104-0.896,2-2,2c-1.104,0-2-0.896-2-2c0-33.06,26.896-59.955,59.956-59.955
				c33.06,0,59.955,26.896,59.955,59.955C284.704,383.726,283.809,384.621,282.704,384.621z"/>
			
				<ellipse transform="matrix(0.7071 -0.7071 0.7071 0.7071 -204.7265 270.9887)" style="fill:#FFFFFF;" cx="224.749" cy="382.621" rx="44.315" ry="44.315"/>
			<circle style="fill:#ECECEC;" cx="224.749" cy="382.621" r="34.667"/>
			<path style="fill:#452C59;" d="M231.495,382.621c0-3.726-3.02-6.746-6.746-6.746c-3.726,0-6.746,3.02-6.746,6.746
				c0,3.726,3.02,6.746,6.746,6.746C228.475,389.367,231.495,386.347,231.495,382.621z"/>
			<path style="fill:#F04957;" d="M304.553,417.315H283.6c-1.104,0-2-0.896-2-2v-13.46c0-1.104,0.896-2,2-2s2,0.896,2,2v11.46
				h18.954c1.104,0,2,0.895,2,2C306.553,416.419,305.658,417.315,304.553,417.315z"/>
			<path style="fill:#FFFFFF;" d="M252.519,262.902c0,1.318-1.068,2.386-2.386,2.386c-1.318,0-2.386-1.068-2.386-2.386
				c0-1.318,1.068-2.386,2.386-2.386C251.451,260.516,252.519,261.584,252.519,262.902z"/>
		</g>
		<g>
			<polygon style="fill:#281B46;" points="151.419,183.648 166.134,207.486 150.148,218.874 			"/>
			<g>
				<g>
					<path style="fill:#452C59;" d="M138.428,160.614c0,0-11.748-6.713-7.419-23.792c-3.265-15.632,20.984-38.536,40.694-18.648
						c29.299,3.298,24.688,21.834,7.77,29.521"/>
					<path style="fill:#FFBEA0;" d="M172.699,171.946c-4.415,8.314-20.28,0.365-20.28,0.365l-1.079,5.305l-0.627,3.112
						c0,0,2.712,5.676-3.047,10.908c-11.936-8.625-15.326-21.323-15.326-21.323l12.126-30.33c3.924,2.506,9.023,1.92,10.86-3.279
						c11.738,6.605,20.415-0.975,20.415-0.975l6.847,7.91C182.588,143.639,177.124,163.636,172.699,171.946z"/>
					<path style="fill:#FF9D79;" d="M151.34,177.617c-3.689-2.422-7.009-7.356-7.627-13.146c1.781,3.513,8.706,7.841,8.706,7.841
						L151.34,177.617z"/>
					<path style="fill:#452C59;" d="M145.704,137.188c0,0-4.424,18.77-5.124,22.363c-0.7,3.593,7.404,13.515,17.211,16.417
						c9.807,2.902,16.385-1.151,18.154-11.511c-4.355,2.728-2.889-1.992-11.441-3.311c-3.267-0.504-10.271,1.319-10.271,1.319
						s-9.658-2.005-7.26-10.912c2.398-8.907,6.374-14.687,6.374-14.687L145.704,137.188z"/>
					<path style="fill:#452C59;" d="M164.411,147.542c-0.305,0.885-1.268,1.355-2.153,1.051c-0.885-0.304-0.594-1.014-0.289-1.899
						c0.305-0.885,0.507-1.61,1.392-1.305C164.245,145.693,164.716,146.657,164.411,147.542z"/>
					<path style="fill:#452C59;" d="M177.239,152.498c-0.304,0.885-1.269,1.355-2.153,1.051c-0.885-0.305-0.547-0.998-0.243-1.883
						c0.305-0.885,0.461-1.626,1.345-1.322C177.073,150.649,177.544,151.613,177.239,152.498z"/>
					<path style="fill:#FFBEA0;" d="M144.865,145.372l-2.23,3.341l-2.118,3.185c-7.535,0.855-8.159-8.017-5.038-12.312
						c1.069-1.491,2.589-2.43,4.422-2.232C147.056,138.095,144.865,145.372,144.865,145.372z"/>
					<path style="fill:#FF9D79;" d="M142.634,148.713l-2.118,3.185c-7.535,0.855-8.159-8.017-5.038-12.312
						C141.053,139.641,142.469,144.871,142.634,148.713z"/>
					<path style="fill:#FF88C7;" d="M154.527,153.953c-0.616,1.743-2.529,2.657-4.272,2.041c-1.743-0.616-2.657-2.529-2.041-4.272
						c0.616-1.743,2.529-2.657,4.272-2.041C154.229,150.298,155.143,152.21,154.527,153.953z"/>
					<path style="fill:#FF9D79;" d="M171.1,148.123c2.218,0.59,0.295,12.947-3.006,11.783
						C163.357,158.235,168.348,147.391,171.1,148.123z"/>
					<path style="fill:#FFFFFF;" d="M169.912,152.87c4.607,1.642,7.139,9.215,3.411,15.832s-15.355,5.111-20.488-1.335
						C147.702,160.921,157.49,148.444,169.912,152.87z"/>
					<path style="fill:#FFFFFF;" d="M146.827,138.494c-1.096,0.382,13.252,17.422,13.252,17.422l1.62-0.701
						C161.7,155.215,148.808,137.805,146.827,138.494z"/>
					<path style="fill:#FFFFFF;" d="M155.217,158.282c0,0-16.52-5.73-17.149-4.228c-0.629,1.503,16.67,5.585,16.67,5.585"/>
					<path style="fill:#FFFFFF;" d="M173.63,158.895c0,0,5.309-1.523,5.584-0.329c0.275,1.194-4.954,2.361-4.954,2.361"/>
					<path style="fill:#FFFFFF;" d="M173.609,164.287l-0.553,1.564c0,0,1.9,1.949,2.704,1.138
						C176.564,166.177,173.609,164.287,173.609,164.287z"/>
					<path style="fill:#F04957;" d="M151.439,329.03c-0.82,26.02-7.14,85.13-7.14,85.13h-19.93c0,0,2.4-42.65,2.08-71.56
						c-0.37-32.79-1.69-43.75-1.69-43.75h-6.73c0,0-3.5,37.42-10.77,55.67c-7.27,18.26-37.85,51.3-37.85,51.3l-15.35-10.33
						c0,0,24.02-38.8,28.8-55.31c4.78-16.52,4.1-57.36,4.1-57.36l0.08-4.36l64.4,0.63C151.439,279.09,152.339,300.43,151.439,329.03
						z"/>
					<path style="opacity:0.2;fill:#441E46;" d="M89.93,289.279l9.257-4.684c0,0,3.692,17.586-0.658,19.649
						C94.18,306.307,90.154,293.127,89.93,289.279z"/>
					<path style="fill:#281B46;" d="M152.768,242.36c-0.46,6.95-0.89,14.08-1.13,21.2c-0.19,5.21-0.28,10.41-0.21,15.53
						c-12.83,2.63-25.11,3.21-35.43,2.89c-2.05-0.06-4.01-0.16-5.9-0.29c-13.48-0.88-22.49-3.09-23.04-3.22
						c-0.01-0.01-0.02-0.01-0.02-0.01s-0.01-0.07-0.02-0.19c-0.32-3.12,5.88-72.07,18.89-88.74c16.34-20.91,26.42-19.22,26.42-19.22
						s4.23,7.93,18.39,10.43C156.848,190.56,154.568,215.08,152.768,242.36z"/>
					<path style="opacity:0.2;fill:#441E46;" d="M152.768,242.36c-0.46,6.95-0.89,14.08-1.13,21.2c-10.91-2.27-29.83-6.3-31.96-7.46
						c-3.03-1.65-5.73-42.49-5.73-42.49L152.768,242.36z"/>
					<path style="fill:#281B46;" d="M124.368,414.163c0,0-1.507,9.182-0.826,10.408c0.681,1.226,30.519,1.226,31.064,0
						c0.545-1.226-10.9-5.586-10.9-5.586l0.595-4.822H124.368z"/>
					<path style="fill:#281B46;" d="M54.06,395.486l-6.879,8.525c0,0,21.585,18.792,22.855,18.03
						c1.27-0.762-2.793-11.935-2.793-11.935l2.165-4.285L54.06,395.486z"/>
					<path style="fill:#452C59;" d="M159.333,143.666c0,0,5.962-2.168,9.351-0.458C168.458,140.372,159.78,139.616,159.333,143.666z
						"/>
					<path style="fill:#452C59;" d="M175.489,145.627c0,0,3.831,2.152,4.255,5.924C181.994,149.81,179.124,143.784,175.489,145.627z
						"/>
					<path style="fill:#452C59;" d="M170.404,119.635c0,0,0.063-5.135-2.153-8.284c7.094,3.31,6.115,8.573,6.115,8.573"/>
					<path style="fill:#452C59;" d="M171.59,119.721c0,0,2.831-4.586,9.633-3.361c-1.476,1.955-4.318,3.748-4.318,3.748"/>
					<path style="fill:#452C59;" d="M134.469,134.605c0,0-6.213,0.896-6.526,5.184c3.736,0.582,6.23-1.132,6.23-1.132"/>
					<path style="opacity:0.2;fill:#441E46;" d="M139.689,414.16h-15.32c0,0,2.4-42.65,2.08-71.56
						c-0.37-32.79-1.69-43.75-1.69-43.75h-6.73l5.34-10.61l17.4-2.83C140.769,285.41,144.629,372.12,139.689,414.16z"/>
				</g>
			</g>
			<path style="fill:#FFBEA0;" d="M113.945,213.609c0,0,9.798,29.219,12.312,33.191c2.515,3.972,42.289,9.026,42.289,9.026
				s11.601,4.437,16.141,3.793c4.54-0.644,7.792-6.134,7.553-8.214c-0.239-2.08-6.42-3.582-6.42-3.582s-0.1-1.78-1.132-1.957
				c-1.032-0.176-13.449-1.108-13.449-1.108l-30.074-14.352l-2.993-23.227C138.173,207.179,121.835,206.712,113.945,213.609z"/>
		</g>
	</g>
	<g>
		<ellipse style="fill:#ECECEC;" cx="564.73" cy="427.238" rx="154.44" ry="9.764"/>
		<g>
			<path style="fill:#D5D5D5;" d="M456.771,427.715h-0.613c-2.278,0-4.124-1.846-4.124-4.124V268.67h8.862V423.59
				C460.896,425.868,459.049,427.715,456.771,427.715z"/>
			<path style="fill:#D5D5D5;" d="M684.899,427.715h-0.613c-2.278,0-4.124-1.846-4.124-4.124V268.67h8.862V423.59
				C689.023,425.868,687.177,427.715,684.899,427.715z"/>
			<rect x="436.184" y="278.89" style="fill:#441E46;" width="267.665" height="12.408"/>
			<rect x="436.184" y="299.632" style="fill:#441E46;" width="267.665" height="12.408"/>
			<rect x="436.184" y="320.375" style="fill:#441E46;" width="267.665" height="12.408"/>
			<path style="fill:#441E46;" d="M706.471,363.875H433.562c-6.378,0-11.549-5.171-11.549-11.549v-0.859H718.02v0.859
				C718.02,358.705,712.849,363.875,706.471,363.875z"/>
			<circle style="fill:#FFFFFF;" cx="456.465" cy="285.094" r="2.411"/>
			<circle style="fill:#FFFFFF;" cx="456.465" cy="305.836" r="2.411"/>
			<path style="fill:#FFFFFF;" d="M458.876,326.579c0-1.332-1.08-2.411-2.411-2.411s-2.411,1.079-2.411,2.411
				c0,1.332,1.08,2.411,2.411,2.411S458.876,327.91,458.876,326.579z"/>
			<path style="fill:#FFFFFF;" d="M687.004,285.094c0-1.332-1.08-2.411-2.411-2.411c-1.332,0-2.411,1.08-2.411,2.411
				s1.079,2.411,2.411,2.411C685.924,287.505,687.004,286.426,687.004,285.094z"/>
			<path style="fill:#FFFFFF;" d="M687.004,305.836c0-1.332-1.08-2.411-2.411-2.411c-1.332,0-2.411,1.08-2.411,2.411
				s1.079,2.411,2.411,2.411C685.924,308.248,687.004,307.168,687.004,305.836z"/>
			<path style="fill:#FFFFFF;" d="M687.004,326.579c0-1.332-1.08-2.411-2.411-2.411c-1.332,0-2.411,1.079-2.411,2.411
				c0,1.332,1.079,2.411,2.411,2.411C685.924,328.99,687.004,327.91,687.004,326.579z"/>
		</g>
		<g>
			<path style="fill:#FFB5A4;" d="M597.79,324.863c0,0-11.898,4.767-12.11,4.87c-5.603,2.549-7.679,10.141-6.616,12.197
				c1.063,2.056,12.652-3.093,12.652-3.093l0.6-3.393c0,0,6.47,0.31,10.26-1.17C606.367,332.792,597.79,324.863,597.79,324.863z"/>
			<path style="fill:#A23357;" d="M632.981,249.271c13.872,0.695,6.503,61.24-1.762,68.389c-8.265,7.15-31.949,19.224-31.949,19.224
				l-4.784-11.423l19.971-24.755C614.456,300.707,618.017,248.522,632.981,249.271z"/>
			<path style="fill:#A23357;" d="M669.25,319.715c-48.107,5.08-53.72-6.246-53.72-6.246s-1.448-24.268,4.384-43.725
				c4.657-15.56,6.498-24.247,11.362-26.2c2.402-0.959,4.009-1.054,4.009-1.054l9.97-1.581c2.583-0.294,5.046-0.19,7.37,0.251
				c12.087,2.22,15.667,18.743,18.898,28.584C676.015,283.395,669.25,319.715,669.25,319.715z"/>
			<path style="fill:#F04957;" d="M635.79,257.765c-8.001-0.605-5.007-10.6-4.515-14.22c2.402-0.959,4.009-1.054,4.009-1.054
				l9.97-1.581c2.583-0.294,5.046-0.19,7.37,0.251C653.325,247.925,645.458,258.482,635.79,257.765z"/>
			<path style="fill:#F04957;" d="M662.488,352.54c-8.89,4.01-29.41,7.44-29.41,7.44l-0.17,56.31l-13,3.18
				c-1.28-2.35-17.94-63.38-17.94-63.38l-7.48,57.78h-15.43c0,0-5.77-62.72,0-71.94c5.04-8.04,34.65-17.74,34.65-17.74l57.72,5.71
				C671.428,329.9,677.248,345.88,662.488,352.54z"/>
			<path style="opacity:0.2;fill:#441E46;" d="M600.758,348.19l1.21,7.9l-7.48,57.78h-3.64c-1.24-14.56-5.6-66.64-5.02-68.98
				c0.68-2.72,21.48-12.26,21.48-12.26l27.11-2.74L600.758,348.19z"/>
			<path style="fill:#441E46;" d="M632.909,416.29l1.506,10.562c0,0-21.398,6.635-23.218,5.443c-1.82-1.192,8.334-7.931,8.334-7.931
				l0.382-4.89"/>
			<path style="fill:#441E46;" d="M594.485,413.869v11.868c0,0-25.528,2.023-25.826-0.479c-0.298-2.502,10.136-5.069,10.136-5.069
				l0.262-6.32"/>
			<path style="fill:#281B46;" d="M671.428,329.9c-16.17,7.27-48.66,4.15-57.72-5.71c-0.52-2.1-0.88-4.45-1.1-6.99
				c-1.44-16.93,3.34-42.25,7.3-56.14c3.59-12.55,9.55-16.68,9.55-16.68s-6.84,27.61,0.18,47.35
				c14.64-17.45,25.37-50.01,25.37-50.01c6.06,3,11.89,5.68,16.52,14.03c1.71,3.1,3.27,6.99,4.6,11.97
				C680.438,283.76,676.768,318.8,671.428,329.9z"/>
			<path style="opacity:0.2;fill:#441E46;" d="M671.428,329.9c-16.17,7.27-48.66,4.15-57.72-5.71c-0.52-2.1-0.88-4.45-1.1-6.99
				c27.38-9.18,43.84-36.32,43.84-36.32l2.59-17.62c3.48-6.05,8.12-7.73,12.49-7.51c1.71,3.1,3.27,6.99,4.6,11.97
				C680.438,283.76,676.768,318.8,671.428,329.9z"/>
			<path style="fill:#ECECEC;" d="M616.773,205.574c0,0-6.529-4.131-2.915-12.308s16.993-5.5,16.844,1.487
				C630.553,201.74,616.773,205.574,616.773,205.574z"/>
			<g>
				<path style="fill:#FFBEA0;" d="M651.543,241.593c0,0-3.176,12.466-13.366,12.426c-9.073-0.036-5.628-11.215-5.628-11.215
					l0.433-4.364l0.525-5.283l0.056-0.516l15.637-4.761L651.543,241.593z"/>
				<path style="fill:#FF9D79;" d="M646.975,232.394c-2.194,7.185-10.064,6.751-13.994,6.045l0.525-5.283
					C635.77,232.119,639.807,231.758,646.975,232.394z"/>
				<g>
					<path style="fill:#FFBEA0;" d="M619.752,194.115c0,0-12.221,31.389,0.467,38.156c12.689,6.767,36.099,6.167,38.6-9.534
						c2.501-15.701,0.104-28.463,0.104-28.463s-5.215-9.726-19.853-11.28C624.433,181.439,619.752,194.115,619.752,194.115z"/>
					<path style="fill:#ECECEC;" d="M648.718,194.453c1.072-7.033,12.702-7.825,16.384-3.762c4.757,5.249,2.155,15.184,2.155,15.184
						l-5.347-2.146c0,0-4.44,4.454-6.323,3.797C652.07,206.298,648.182,197.974,648.718,194.453z"/>
					<path style="fill:#452C59;" d="M627.429,204.165c-0.135,1.271-0.396,2.285-1.395,2.178c-0.998-0.106-1.698-1.222-1.563-2.493
						c0.135-1.271,1.054-2.215,2.052-2.109C627.521,201.848,627.563,202.894,627.429,204.165z"/>
					<path style="fill:#452C59;" d="M641.151,205.997c-0.135,1.271-0.396,2.285-1.395,2.179c-0.998-0.106-1.698-1.222-1.563-2.493
						c0.135-1.271,1.054-2.215,2.052-2.109C641.244,203.68,641.286,204.727,641.151,205.997z"/>
					<path style="fill:#FF9D79;" d="M632.991,203.266c-1.749-0.186-5.964,9.777-4.404,11.708c1.561,1.932,5.307-0.087,5.608-1.171
						C634.496,212.72,634.186,203.393,632.991,203.266z"/>
					<path style="fill:#FFFFFF;" d="M630.728,218.269c0,0,6.324-1.059,9.92-3.966C642.39,219.786,632.433,222.167,630.728,218.269z"
						/>
					<path style="fill:#FF88C7;" d="M649.831,210.539c-0.159,1.497-1.501,2.581-2.998,2.422c-1.497-0.159-2.581-1.501-2.422-2.998
						c0.159-1.497,1.501-2.581,2.998-2.422C648.906,207.701,649.99,209.043,649.831,210.539z"/>
					<path style="fill:#FF88C7;" d="M622.623,206.743c-0.159,1.497-1.501,2.581-2.998,2.422c-1.497-0.159-2.581-1.501-2.422-2.998
						c0.159-1.497,1.501-2.581,2.998-2.422C621.698,203.904,622.782,205.246,622.623,206.743z"/>
				</g>
				<path style="fill:#FFFFFF;" d="M617.769,215.344c-2.14,4.016,0.652,13.235,8.063,16.193c12.095,4.827,20.171-1.42,22.253-9.384
					c1.615-6.177-6.654-13.112-15.776-13.425C623.187,208.414,620.604,210.023,617.769,215.344z"/>
				<path style="fill:#FFFFFF;" d="M621.735,211.857l-4.63-9.54c0,0-0.845,0.802-0.657,2.513c0.189,1.712,4.024,9.908,4.024,9.908"
					/>
				<path style="fill:#FFFFFF;" d="M619.657,214.135l-4.58-2.548c0,0-1.23,0.701-0.293,2.116l4.06,2.827"/>
				<path style="fill:#FFFFFF;" d="M644.702,198.668c-0.064,0.775-5.35,0.324-4.946-0.892
					C640.159,196.56,644.824,197.189,644.702,198.668z"/>
				<path style="fill:#FFFFFF;" d="M627.355,196.782c0.143,0.765-5.075,1.724-5.007,0.444
					C622.417,195.947,627.082,195.324,627.355,196.782z"/>
			</g>
			<path style="fill:#FFBEA0;" d="M656.453,214.059c0.948-1.743,1.519-2.018,1.821-3.565c0.23-1.126,0.326-1.908,0.326-1.908
				s2.426-7.735,8.132-5.193c1.665,0.745,2.068,2.583,1.623,4.696C667.314,213.233,661.29,218.005,656.453,214.059z"/>
			<path style="fill:#FF9D79;" d="M659.584,216.53l-1.31-6.036c2.377-2.016,6.2-4.245,10.08-2.406
				C668.354,212.609,661.985,217.661,659.584,216.53z"/>
			<path style="fill:#FFFFFF;" d="M642.219,215.778c0,0,18.284-13.281,19.691-12.049c1.408,1.233-17.514,13.518-17.514,13.518
				s15.312,1.983,15.563,3.711c0.252,1.729-14.486-0.766-14.486-0.766"/>
			<path style="fill:#FFB5A4;" d="M621.47,324.898c0,0-12.37,3.359-12.592,3.437c-5.86,1.884-8.8,9.185-7.982,11.35
				c0.818,2.165,12.925-1.61,12.925-1.61l0.989-3.301c0,0,6.391,1.056,10.327,0.024C629.073,333.767,621.47,324.898,621.47,324.898z
				"/>
			<path style="fill:#A23357;" d="M664.982,261.449c13.369,3.766,13.304,52.119,4.268,58.266
				c-9.036,6.146-46.287,16.889-46.287,16.889l-3.432-11.9l31.993-19.279C651.524,305.425,646.37,256.206,664.982,261.449z"/>
		</g>
		<g>
			<g>
				<path style="fill:#452C59;" d="M459.555,257.841c0,0-16.55-1.579-13.391-13.949c-6.843,0.263-7.369-20.002,4.211-21.318
					c-13.686-6.053-0.689-12.398,6.762-16.332c7.451-3.934,10.018-13.672,9.261-24.989c-0.757-11.317,12.631-17.538,18.776-6.675
					c5.511-17.651,40.084-3.823,43.242,8.284c3.158,12.107-5.663,21.986-19.875,20.848c0.789,17.022,0.441,45.183-13.729,45.447
					C469.061,256.525,459.555,257.841,459.555,257.841z"/>
				<path style="fill:#F04957;" d="M509.695,328.992l-56.972,0.902c0,0-0.344-9.68-0.333-22.357
					c0.011-6.199,0.096-13.118,0.365-19.972c0.58-15.299,2.394-30.061,5.2-36.173c6.946-15.132,9.06-15.421,13.638-18.556
					l20.19,2.527c0,0,12.262,9.787,14.84,56.392c0.108,1.859,0.225,3.803,0.365,5.791c0.548,7.982,1.311,16.674,1.891,22.894
					C509.351,325.554,509.695,328.992,509.695,328.992z"/>
				<path style="opacity:0.2;fill:#441E46;" d="M508.878,320.44c-4.791-0.236-15.835-4.467-22.249-7.529
					c-12.045-0.332-25.688-2.43-34.24-5.374c0.011-6.199,0.096-13.118,0.365-19.972l54.233,9.981
					C507.535,305.528,508.298,314.22,508.878,320.44z"/>
				<path style="fill:#281B46;" d="M535.458,393.259c-3.76,12.086-7.08,21.476-7.08,21.476l-14.901-3.996l8.702-54.598
					c-0.011,0.032-0.021,0.075-0.032,0.129c-0.988,3.588-16.663,60.926-17.909,63.204l-12.989-3.18l-0.183-56.317
					c0,0-20.509-3.427-29.394-7.434c-14.772-6.661-8.949-22.647-8.949-22.647s6.059-2.589,24.871-5.726
					c18.812-3.137,32.853,0.022,32.853,0.022s29.609,9.701,34.648,17.737C548.651,347.61,541.484,373.899,535.458,393.259z"/>
				<path style="opacity:0.2;fill:#441E46;" d="M535.458,393.259c-3.76,12.086-7.08,21.476-7.08,21.476l-14.901-3.996l8.702-54.598
					l0.011-0.043c0,0-5.522-8.67-12.495-12.183c-6.972-3.524-19.95-11.13-19.95-11.13s26.611,4.706,38.698,11.657
					C535.79,348.663,536.242,374.017,535.458,393.259z"/>
				<path style="fill:#A23357;" d="M491.245,416.29l-1.506,10.562c0,0,21.398,6.635,23.218,5.443
					c1.82-1.192-8.334-7.931-8.334-7.931l-0.382-4.89"/>
				<path style="fill:#A23357;" d="M513.479,410.741l-3.072,11.464c0,0,24.135,8.561,25.07,6.221c0.935-2.339-8.478-7.52-8.478-7.52
					l1.383-6.173"/>
				<g>
					<path style="fill:#FFBEA0;" d="M471.592,232.836c0,0,3.858,11.977,16.534,11.513c9.067-0.333,3.656-8.986,3.656-8.986
						l1.54-6.594l-0.525-5.283l-0.056-0.516l-14.253-3.433L471.592,232.836z"/>
					<g>
						<path style="fill:#FFBEA0;" d="M519.223,196.941c0,0,0.59,33.679-13.658,35.631c-14.247,1.952-33-7.052-30.805-22.798
							c2.357-16.905,7.661-26.255,7.661-26.255s8.262-7.317,22.531-3.704C519.223,183.429,519.223,196.941,519.223,196.941z"/>
						<path style="fill:#452C59;" d="M508.54,203.709c-0.314,1.239-0.42,2.28,0.553,2.527c0.973,0.246,2.017-0.558,2.33-1.797
							c0.314-1.239-0.221-2.443-1.194-2.689C509.256,201.504,508.853,202.471,508.54,203.709z"/>
						<path style="fill:#452C59;" d="M495.032,200.674c-0.314,1.239-0.42,2.28,0.553,2.527c0.973,0.246,2.017-0.558,2.33-1.797
							c0.314-1.239-0.221-2.443-1.194-2.689C495.748,198.468,495.345,199.435,495.032,200.674z"/>
						<path style="fill:#FF9D79;" d="M503.634,200.939c1.705,0.432,2.208,11.238,0.074,12.509c-2.133,1.271-4.948-1.92-4.855-3.041
							C498.946,209.286,502.469,200.644,503.634,200.939z"/>
						<path style="fill:#FFFFFF;" d="M500.558,215.796c0,0-5.565-3.184-7.932-7.157
							C489.093,213.179,497.608,218.863,500.558,215.796z"/>
						<path style="fill:#FF88C7;" d="M485.316,201.928c-0.369,1.459,0.514,2.941,1.973,3.311s2.941-0.514,3.311-1.973
							c0.369-1.459-0.514-2.941-1.973-3.311C487.168,199.585,485.686,200.469,485.316,201.928z"/>
						<path style="fill:#FF88C7;" d="M512.154,207.792c-0.369,1.459,0.514,2.941,1.973,3.311c1.459,0.369,2.941-0.514,3.311-1.973
							c0.369-1.459-0.514-2.941-1.973-3.311C514.006,205.45,512.524,206.333,512.154,207.792z"/>
					</g>
					<path style="fill:#FFFFFF;" d="M513.728,217.542c0.616,4.509-5.197,12.189-13.173,12.396
						c-13.018,0.338-18.43-8.321-17.624-16.513c0.625-6.354,10.785-9.994,19.45-7.128
						C511.047,209.165,512.912,211.568,513.728,217.542z"/>
					<path style="fill:#FFFFFF;" d="M511.215,212.898l7.649-7.345c0,0,0.515,1.045-0.255,2.585c-0.77,1.54-7.207,7.9-7.207,7.9"/>
					<path style="fill:#FFFFFF;" d="M512.375,215.755l5.179-0.803c0,0,0.911,1.084-0.458,2.087l-4.788,1.245"/>
					<path style="fill:#452C59;" d="M493.865,194.629c-0.152,0.763,5.055,1.782,5.001,0.501
						C498.813,193.85,494.154,193.173,493.865,194.629z"/>
					<path style="fill:#452C59;" d="M510.242,197.499c-0.514,0.585,3.483,4.073,4.078,2.938
						C514.914,199.302,511.221,196.384,510.242,197.499z"/>
				</g>
				<path style="fill:#FFBEA0;" d="M477.886,202.935c-0.285-1.964-0.725-2.419-0.473-3.975c0.174-1.136,1.615-4.48,1.615-4.48
					s-0.855-5.52-7.089-5.112c-1.82,0.122-2.835,1.706-3.149,3.842C467.983,198.397,473.857,201.712,477.886,202.935z"/>
				<path style="fill:#FF9D79;" d="M475.877,203.246l1.719-5.359c-1.532-2.715-4.529-5.057-8.806-4.676
					C467.224,197.451,472.365,203.312,475.877,203.246z"/>
				<path style="fill:#FFFFFF;" d="M490.642,209.479c0,0-12.55-18.793-14.297-18.124c-1.748,0.669,11.746,18.749,11.746,18.749
					s-13.385-2.999-14.22-1.464c-0.835,1.534,12.188,3.853,12.188,3.853"/>
				<path style="fill:#452C59;" d="M467.014,193.181c0,0,10.871,9.754,26.568-6.949c12.907,6.108,26.568,14.699,26.568,14.699
					s0.914-23.497-16.949-25.917S469.435,180.463,467.014,193.181z"/>
				<g>
					<polygon style="fill:#FFFFFF;" points="499.843,278.89 502,274.071 519.422,285.147 536.708,280.738 534.01,287.505 
						507.874,289.781 					"/>
					<polygon style="fill:#ECECEC;" points="500.137,274.897 486.629,304.474 506.269,315.368 509.698,316.004 525.876,311.084 
						537.989,281.727 520.954,286.016 517.518,285.378 					"/>
					<polygon style="opacity:0.2;fill:#441E46;" points="517.518,285.378 506.269,315.368 509.698,316.004 520.954,286.016 					"/>
				</g>
			</g>
			<path style="fill:#FFBEA0;" d="M484.997,289.816l3.847,1.53c0,0,1.917-3.083,2.529-3.635c0.612-0.551,2.063,0.103,2.097,0.782
				c0.034,0.679-1.257,3.805-1.257,3.805s10.464,0.794,10.769,1.123s0.511,1.699,0.105,2.224s-4.906,0.493-4.906,0.493
				s5.193,0.753,5.79,1.307c0.597,0.554,0.207,2.023-0.535,2.381s-5.684-0.48-5.684-0.48s4.573,2.882,4.963,3.462
				c0.39,0.581-1.105,2.033-1.622,2.1c-0.517,0.066-5.18-2.699-5.18-2.699s3.057,3.759,2.858,4.258
				c-0.199,0.498-1.8,1.124-2.208,0.809c-0.408-0.315-5.92-3.873-5.92-3.873l-9.598-4.213L484.997,289.816z"/>
			<path style="fill:#F04957;" d="M481.044,302.414c0,0-28.21-2.81-32.775-6.963c-4.564-4.153,1.827-59.176,23.323-62.614
				c3.201,12.602-5.196,43.417-5.196,43.417l18.601,13.564"/>
			<path style="fill:#FFBEA0;" d="M532.814,294.181c0,0-3.769-0.585-3.989,0.743c-0.22,1.328,2.747,2.292,2.747,2.292
				s-4.112-0.351-4.551,0.904c-0.439,1.255,3.154,2.507,3.154,2.507s-4-0.062-3.681,1.44c0.319,1.502,2.632,1.203,2.632,1.203
				s-2.065,1.901-1.113,2.639c0.952,0.738,4.731-0.021,6.339-3.729c2.763-6.373,1.557-9.215-1.013-9.279
				C532.955,293.835,532.814,294.181,532.814,294.181z"/>
			<path style="opacity:0.2;fill:#441E46;" d="M480.634,285.378l-15.58-4.468c0,0,7.122-25.12,6-31.721
				c4.138,9.931-2.69,28.551-2.69,28.551s5.759-3.31,6.397-1.448c0.638,1.862-1.917,2.599-1.917,2.599L480.634,285.378z"/>
			<path style="fill:#FF9D79;" d="M482.853,227.559c0,0,5.285,4.151,9.415,4.504C489.017,236.053,484.317,233.107,482.853,227.559z"
				/>
		</g>
	</g>
</g>
</svg>
